<svg viewBox="0 0 330 200" xmlns="http://www.w3.org/2000/svg"><g><g><g><g><g><line x1="59.140005111694336" y1="177.7799997329712" x2="54.140005111694336" y2="177.7799997329712" style="visibility: inherit;" fill="rgb(0, 0, 0)" stroke="rgb(204, 204, 204)" stroke-width="1px"></line><line x1="59.140005111694336" y1="161.61818157542837" x2="54.140005111694336" y2="161.61818157542837" style="visibility: inherit;" fill="rgb(0, 0, 0)" stroke="rgb(204, 204, 204)" stroke-width="1px"></line><line x1="59.140005111694336" y1="145.4563634178855" x2="54.140005111694336" y2="145.4563634178855" style="visibility: inherit;" fill="rgb(0, 0, 0)" stroke="rgb(204, 204, 204)" stroke-width="1px"></line><line x1="59.140005111694336" y1="129.2945452603427" x2="54.140005111694336" y2="129.2945452603427" style="visibility: inherit;" fill="rgb(0, 0, 0)" stroke="rgb(204, 204, 204)" stroke-width="1px"></line><line x1="59.140005111694336" y1="113.13272710279985" x2="54.140005111694336" y2="113.13272710279985" style="visibility: inherit;" fill="rgb(0, 0, 0)" stroke="rgb(204, 204, 204)" stroke-width="1px"></line><line x1="59.140005111694336" y1="96.97090894525701" x2="54.140005111694336" y2="96.97090894525701" style="visibility: inherit;" fill="rgb(0, 0, 0)" stroke="rgb(204, 204, 204)" stroke-width="1px"></line><line x1="59.140005111694336" y1="80.80909078771417" x2="54.140005111694336" y2="80.80909078771417" style="visibility: inherit;" fill="rgb(0, 0, 0)" stroke="rgb(204, 204, 204)" stroke-width="1px"></line><line x1="59.140005111694336" y1="64.64727263017136" x2="54.140005111694336" y2="64.64727263017136" style="visibility: inherit;" fill="rgb(0, 0, 0)" stroke="rgb(204, 204, 204)" stroke-width="1px"></line><line x1="59.140005111694336" y1="48.485454472628504" x2="54.140005111694336" y2="48.485454472628504" style="visibility: inherit;" fill="rgb(0, 0, 0)" stroke="rgb(204, 204, 204)" stroke-width="1px"></line><line x1="59.140005111694336" y1="32.32363631508568" x2="54.140005111694336" y2="32.32363631508568" style="visibility: inherit;" fill="rgb(0, 0, 0)" stroke="rgb(204, 204, 204)" stroke-width="1px"></line><line x1="59.140005111694336" y1="16.161818157542854" x2="54.140005111694336" y2="16.161818157542854" style="visibility: inherit;" fill="rgb(0, 0, 0)" stroke="rgb(204, 204, 204)" stroke-width="1px"></line><line x1="59.140005111694336" y1="0" x2="54.140005111694336" y2="0" style="visibility: inherit;" fill="rgb(0, 0, 0)" stroke="rgb(204, 204, 204)" stroke-width="1px"></line></g><g transform="translate(49.140005111694336, 0)"><text style="text-anchor: end; visibility: hidden; font-family: &quot;Helvetica Neue&quot;, sans-serif; font-size: 12px; font-weight: 200;" x="0" y="177.7799997329712" dx="0em" dy="0.3em" fill="rgb(50, 49, 63)" stroke="none" stroke-width="1px">-0.02</text><text style="text-anchor: end; visibility: inherit; font-family: &quot;Helvetica Neue&quot;, sans-serif; font-size: 12px; font-weight: 200;" x="0" y="161.61818157542837" dx="0em" dy="0.3em" fill="rgb(50, 49, 63)" stroke="none" stroke-width="1px">0</text><text style="text-anchor: end; visibility: hidden; font-family: &quot;Helvetica Neue&quot;, sans-serif; font-size: 12px; font-weight: 200;" x="0" y="145.4563634178855" dx="0em" dy="0.3em" fill="rgb(50, 49, 63)" stroke="none" stroke-width="1px">0.02</text><text style="text-anchor: end; visibility: inherit; font-family: &quot;Helvetica Neue&quot;, sans-serif; font-size: 12px; font-weight: 200;" x="0" y="129.2945452603427" dx="0em" dy="0.3em" fill="rgb(50, 49, 63)" stroke="none" stroke-width="1px">0.04</text><text style="text-anchor: end; visibility: hidden; font-family: &quot;Helvetica Neue&quot;, sans-serif; font-size: 12px; font-weight: 200;" x="0" y="113.13272710279985" dx="0em" dy="0.3em" fill="rgb(50, 49, 63)" stroke="none" stroke-width="1px">0.06</text><text style="text-anchor: end; visibility: inherit; font-family: &quot;Helvetica Neue&quot;, sans-serif; font-size: 12px; font-weight: 200;" x="0" y="96.97090894525701" dx="0em" dy="0.3em" fill="rgb(50, 49, 63)" stroke="none" stroke-width="1px">0.08</text><text style="text-anchor: end; visibility: hidden; font-family: &quot;Helvetica Neue&quot;, sans-serif; font-size: 12px; font-weight: 200;" x="0" y="80.80909078771417" dx="0em" dy="0.3em" fill="rgb(50, 49, 63)" stroke="none" stroke-width="1px">0.1</text><text style="text-anchor: end; visibility: inherit; font-family: &quot;Helvetica Neue&quot;, sans-serif; font-size: 12px; font-weight: 200;" x="0" y="64.64727263017136" dx="0em" dy="0.3em" fill="rgb(50, 49, 63)" stroke="none" stroke-width="1px">0.12</text><text style="text-anchor: end; visibility: hidden; font-family: &quot;Helvetica Neue&quot;, sans-serif; font-size: 12px; font-weight: 200;" x="0" y="48.485454472628504" dx="0em" dy="0.3em" fill="rgb(50, 49, 63)" stroke="none" stroke-width="1px">0.14</text><text style="text-anchor: end; visibility: inherit; font-family: &quot;Helvetica Neue&quot;, sans-serif; font-size: 12px; font-weight: 200;" x="0" y="32.32363631508568" dx="0em" dy="0.3em" fill="rgb(50, 49, 63)" stroke="none" stroke-width="1px">0.16</text><text style="text-anchor: end; visibility: hidden; font-family: &quot;Helvetica Neue&quot;, sans-serif; font-size: 12px; font-weight: 200;" x="0" y="16.161818157542854" dx="0em" dy="0.3em" fill="rgb(50, 49, 63)" stroke="none" stroke-width="1px">0.18</text><text style="text-anchor: end; visibility: hidden; font-family: &quot;Helvetica Neue&quot;, sans-serif; font-size: 12px; font-weight: 200;" x="0" y="0" dx="0em" dy="0.3em" fill="rgb(50, 49, 63)" stroke="none" stroke-width="1px">0.2</text></g><line x1="59.140005111694336" y1="0" x2="59.140005111694336" y2="177.7799997329712" fill="rgb(0, 0, 0)" stroke="rgb(204, 204, 204)" stroke-width="1px"></line></g></g><g transform="translate(59, 0)" clip-path="url(#clip_0)"><clipPath id="clip_0"><rect width="270" height="177"></rect></clipPath><g><g><g><line x1="0" y1="0" x2="0" y2="177.7799997329712" fill="rgb(0, 0, 0)" stroke="rgb(60, 60, 60)" stroke-width="1px" opacity="0.25"></line><line x1="24.62363589893688" y1="0" x2="24.62363589893688" y2="177.7799997329712" fill="rgb(0, 0, 0)" stroke="rgb(60, 60, 60)" stroke-width="1px" opacity="0.25"></line><line x1="49.24727179787376" y1="0" x2="49.24727179787376" y2="177.7799997329712" fill="rgb(0, 0, 0)" stroke="rgb(60, 60, 60)" stroke-width="1px" opacity="0.25"></line><line x1="73.87090769681063" y1="0" x2="73.87090769681063" y2="177.7799997329712" fill="rgb(0, 0, 0)" stroke="rgb(60, 60, 60)" stroke-width="1px" opacity="0.25"></line><line x1="98.49454359574752" y1="0" x2="98.49454359574752" y2="177.7799997329712" fill="rgb(0, 0, 0)" stroke="rgb(60, 60, 60)" stroke-width="1px" opacity="0.25"></line><line x1="123.11817949468438" y1="0" x2="123.11817949468438" y2="177.7799997329712" fill="rgb(0, 0, 0)" stroke="rgb(60, 60, 60)" stroke-width="1px" opacity="0.25"></line><line x1="147.74181539362127" y1="0" x2="147.74181539362127" y2="177.7799997329712" fill="rgb(0, 0, 0)" stroke="rgb(60, 60, 60)" stroke-width="1px" opacity="0.25"></line><line x1="172.36545129255813" y1="0" x2="172.36545129255813" y2="177.7799997329712" fill="rgb(0, 0, 0)" stroke="rgb(60, 60, 60)" stroke-width="1px" opacity="0.25"></line><line x1="196.98908719149503" y1="0" x2="196.98908719149503" y2="177.7799997329712" fill="rgb(0, 0, 0)" stroke="rgb(60, 60, 60)" stroke-width="1px" opacity="0.25"></line><line x1="221.61272309043193" y1="0" x2="221.61272309043193" y2="177.7799997329712" fill="rgb(0, 0, 0)" stroke="rgb(60, 60, 60)" stroke-width="1px" opacity="0.25"></line><line x1="246.23635898936877" y1="0" x2="246.23635898936877" y2="177.7799997329712" fill="rgb(0, 0, 0)" stroke="rgb(60, 60, 60)" stroke-width="1px" opacity="0.25"></line><line x1="270.85999488830566" y1="0" x2="270.85999488830566" y2="177.7799997329712" fill="rgb(0, 0, 0)" stroke="rgb(60, 60, 60)" stroke-width="1px" opacity="0.25"></line></g><g><line x1="0" y1="177.7799997329712" x2="270.85999488830566" y2="177.7799997329712" fill="rgb(0, 0, 0)" stroke="rgb(60, 60, 60)" stroke-width="1px" opacity="0.25"></line><line x1="0" y1="161.61818157542837" x2="270.85999488830566" y2="161.61818157542837" fill="rgb(0, 0, 0)" stroke="rgb(60, 60, 60)" stroke-width="1px" opacity="0.25"></line><line x1="0" y1="145.4563634178855" x2="270.85999488830566" y2="145.4563634178855" fill="rgb(0, 0, 0)" stroke="rgb(60, 60, 60)" stroke-width="1px" opacity="0.25"></line><line x1="0" y1="129.2945452603427" x2="270.85999488830566" y2="129.2945452603427" fill="rgb(0, 0, 0)" stroke="rgb(60, 60, 60)" stroke-width="1px" opacity="0.25"></line><line x1="0" y1="113.13272710279985" x2="270.85999488830566" y2="113.13272710279985" fill="rgb(0, 0, 0)" stroke="rgb(60, 60, 60)" stroke-width="1px" opacity="0.25"></line><line x1="0" y1="96.97090894525701" x2="270.85999488830566" y2="96.97090894525701" fill="rgb(0, 0, 0)" stroke="rgb(60, 60, 60)" stroke-width="1px" opacity="0.25"></line><line x1="0" y1="80.80909078771417" x2="270.85999488830566" y2="80.80909078771417" fill="rgb(0, 0, 0)" stroke="rgb(60, 60, 60)" stroke-width="1px" opacity="0.25"></line><line x1="0" y1="64.64727263017136" x2="270.85999488830566" y2="64.64727263017136" fill="rgb(0, 0, 0)" stroke="rgb(60, 60, 60)" stroke-width="1px" opacity="0.25"></line><line x1="0" y1="48.485454472628504" x2="270.85999488830566" y2="48.485454472628504" fill="rgb(0, 0, 0)" stroke="rgb(60, 60, 60)" stroke-width="1px" opacity="0.25"></line><line x1="0" y1="32.32363631508568" x2="270.85999488830566" y2="32.32363631508568" fill="rgb(0, 0, 0)" stroke="rgb(60, 60, 60)" stroke-width="1px" opacity="0.25"></line><line x1="0" y1="16.161818157542854" x2="270.85999488830566" y2="16.161818157542854" fill="rgb(0, 0, 0)" stroke="rgb(60, 60, 60)" stroke-width="1px" opacity="0.25"></line><line x1="0" y1="0" x2="270.85999488830566" y2="0" fill="rgb(0, 0, 0)" stroke="rgb(60, 60, 60)" stroke-width="1px" opacity="0.25"></line></g></g></g><g><g><line x1="0" y1="161.61818157542837" x2="270.85999488830566" y2="161.61818157542837" fill="rgb(0, 0, 0)" stroke="rgb(153, 153, 153)" stroke-width="1.5px"></line></g></g><g><g><line x1="24.62363589893688" y1="0" x2="24.62363589893688" y2="177.7799997329712" fill="rgb(0, 0, 0)" stroke="rgb(153, 153, 153)" stroke-width="1.5px"></line></g></g><g><g><g><g><g><path style="fill: none;" stroke="rgb(255, 112, 67)" stroke-width="2px" d="M31.764490309628574,-1.2611438860995179L31.850673035274852,0.6148502970312109L31.862984853224322,1.807415585982966L32.26927484555678,3.0143677960492425L32.441640296849336,4.478223825482701L32.601693930192425,6.000261080854955L32.77405938148498,7.268418377175948L32.89717756097967,8.009550191320045L33.426585732806814,9.230987452165806L33.52508027640256,10.047586329186146L33.62357481999831,10.39854346779893L34.0544884482297,11.46985811465612L34.10373572002758,12.23774837679531L34.12835935592651,12.78371703562837L34.30072480721907,13.31684169724727L34.325348443118,13.644765027608372L34.411531168764284,13.975068814927397L34.51002571236004,14.568486599752788L34.58389662005684,15.044369391079442L34.92862752264196,16.635688186795335L36.270615679134025,20.66022206018394L36.47991658427499,23.232695573952725L36.590722945820204,24.50600229815393L36.60303476376967,25.30923196624343L36.67690567146648,25.909036715973855L36.75077657916329,26.481071403924062L36.972389302253724,27.490331270737926L37.00932475610213,28.216306936197327L37.12013111764735,28.970823315827573L37.7234101971713,31.185559979782482L37.7603456510197,32.641569776135924L37.83421655871651,33.43196893816372L37.90808746641332,34.11799902870794L38.09276473565535,34.92853247567945L38.16663564335216,35.578082204713326L38.22819473309951,36.16873639228862L38.86840926647186,37.52902705385367L38.929968356219206,38.44030516153964L38.94228017416867,39.00068372970003L39.16389289725911,39.896098533441545L39.3239465306022,40.760587026126984L39.951849246025084,42.24728610097105L40.16115015116605,43.4840727533506L40.83830013838681,45.04502887621538L40.87523559223522,45.73787310089813L41.04760104352778,46.21160036498901L41.09684831532565,46.57906752221322L41.687815576900135,47.74216551219746L41.77399830254642,48.63666188487855L42.044858297434715,49.58065598017495L42.192600112828345,50.26079637907422L42.31571829232302,50.89122437609933L42.68507283080708,51.756468045865844L42.82050282825123,52.54528107242017L42.91899737184698,53.17108162054275L42.992868279543785,53.66483349245969L43.38684645392678,54.57931894292956L43.743889174461366,55.66436720556091L43.940878261652855,56.374890771149154L44.13786734884436,57.09890433061547L44.18711462064223,57.57685450454049L44.3964155257832,57.89542378328656L44.82732915401459,58.65333915389236L45.34442550789226,59.484002109206074L45.455231869437476,60.140890011648736L45.52910277713429,60.60966315086519L45.59066186688163,60.92351131412174L45.676844592527914,61.2135467439053L45.78765095407313,61.48107019396967L45.960016405365685,61.70302477726676L45.98464004126462,61.87074457031075L46.02157549511303,62.015443493471835L46.563295484889636,62.75518149077271L47.11732729261571,63.735256049976726L47.33894001570615,64.37160162172961L47.449746377251365,64.87040170128114L47.609800010594455,65.10807747145046L47.646735464442855,65.29934501456884L47.74523000803861,65.54420182948904L48.23770272601734,66.24391677346419L48.44700363115831,66.9069333217059L48.57012181065299,67.4667808037071L48.6070572645014,67.85437619693545L48.85329362349077,68.17841987915901L49.27189543377269,68.62473966970026L49.419637249166314,69.05322285817745L49.702809062004086,69.57703906339748L50.15834632613442,70.37255741618688L50.19528177998283,70.88198549766352L50.207593597932295,71.20176942599346L50.30608814152804,71.47681278259532L50.35533541332592,71.66000700101007L50.44151813897219,71.84532976875681L51.094044490294024,72.39407033949959L51.180227215940306,72.82336022136916L51.29103357748552,73.11533669564211L51.561893572373826,73.51132984340026L51.6111408441717,73.80166024596315L51.70963538776745,74.06251629514354L51.80812993136319,74.23851306012764L51.857377203161064,74.38667297984314L52.103613562150436,74.68345326471064L52.16517265189778,74.91612238093515L52.17748446984724,75.06423236953712L52.23904355959459,75.17752814344831L52.423720828836615,75.28220566978725L52.485279918583956,75.40845881156248L52.71920445962385,75.64882031256244L52.91619354681535,75.94906606127267L53.03931172631003,76.22081073851984L53.187053541703655,76.4908510256824L53.50716080838984,76.92324524585838L53.617967169935056,77.26055411240314L54.04888079816645,77.72366424441353L54.06119261611592,78.01150790461807L54.08581625201485,78.2007952364332L54.62753624179147,78.58016914100298L54.726030785387216,78.87567137909565L54.836837146932425,79.1366803638389L54.861460782831365,79.3098307658986L54.923019872578706,79.46529472112903L55.23081532131542,79.57686893854546L55.243127139264885,79.65386811554805L55.36624531875957,79.6322210342803L55.39086895465851,79.6214989944792L55.45242804440585,79.66614337508658L55.624793495698405,79.68163989972899L55.69866440339522,79.73857636863666L55.80947076494043,79.84341699657536L55.994148034182466,80.0581766400175L56.06801894187927,80.23513819012865L56.7205452932011,80.82731218103224L57.6931789112091,81.86208911907218L57.75473800095645,82.52539672769238L57.91479163429954,83.04187921597402L58.37032889842987,83.62808002940723L58.542694349722424,84.09949295667009L58.97360797795382,84.691756505711L59.995488867759704,85.65992306576463L60.29097249854695,86.41525365932254L60.58645612933419,87.0203385900177L61.165111572959205,87.64863473694452L61.26360611655495,88.05610630166373L61.706831562735815,88.53202191700483L61.94075610377572,88.94755920182274L62.03925064737147,89.25881097058279L62.07618610121987,89.4667935920805L62.79027154228904,90.01209858754788L63.47973334745927,90.70464215342066L63.55360425515609,91.13269144553698L63.75059334234758,91.49129331030935L63.97220606543801,91.84043530382421L63.98451788338748,92.05673598490183L64.40311969366941,92.3772512324304L64.52623787316409,92.60522005795512L64.56317332701249,92.76724995553563L64.57548514496196,92.87211905865833L64.6001087808609,92.95095455751894L64.61242059881036,93.0060563359214L64.92021604754709,93.17062736327586L65.32650603987955,93.37058354392157L65.81897875785828,93.64654515934349L66.2006451142918,93.78699394125972L66.53306419892745,93.9431629643814L66.59462328867478,94.06335084598787L66.8654832835631,94.27508950146424L67.09940782460299,94.5124688939871L67.28408509384502,94.73587316080386L67.48107418103652,94.95368597854453L67.8381169015711,95.19813928559753L67.8750523554195,95.35723809047896L68.18284780415622,95.51006304547653L68.95849233497273,95.85544096552377L69.18010505806316,96.13540796772689L69.2047286939621,96.31657842034684L69.22935232986103,96.43201188643737L69.30322323755784,96.52514061327358L69.64795414014297,96.72396963622054L69.82031959143552,96.88647915132914L70.50978139660576,97.06013526135199L70.55902866840363,97.17166460482672L70.69445866584778,97.27328579338466L71.33467319922013,97.49259932126219L71.59322137615898,97.7213044863448L71.65478046590631,97.8760407326355L71.67940410180525,97.96821056510734L71.80252228129994,98.07110526103972L72.2088122736324,98.2822842301054L72.356554089026,98.45253846638721L72.99676862239838,98.79285006258726L73.13219861984254,99.02538991943679L73.34149952498349,99.23116612735885L73.6862304275686,99.46667071844203L74.15407950964841,99.77992839968209L74.28950950709256,100.02518365643328L74.32644496094098,100.18892035447497L75.02821858406068,100.39832702724706L75.089777673808,100.52175298792224L75.22520767125216,100.62698398938737L76.12397038156335,100.9886071157154L76.25940037900752,101.24525530224518L76.27171219695698,101.40320345702122L76.29633583285592,101.50717927534102L76.35789492260325,101.59068313654156L76.37020674055273,101.64561890850294L76.67800218928944,101.78029004541935L76.73956127903678,101.88604029251293L76.77649673288519,101.96306361154068L76.87499127648093,102.04583075873644L77.1212276354703,102.14729595771173L77.1581630893187,102.21909430283829L77.35515217651022,102.31399748696066L77.62601217139851,102.43667149875411L77.78606580474161,102.54553339697567L77.81068944064054,102.61668825165566L78.42628033811395,102.79752598735216L78.7217639689012,102.97120441311914L78.80794669454748,103.0786409969691L78.88181760224428,103.15444362527116L79.17730123303153,103.2969531435612L79.21423668687994,103.3954323589615L79.94063394589858,103.57590776960178L80.14993485103953,103.72692586590985L80.40848302797838,103.86423604137245L80.99945028955287,104.04316361164655L81.03638574340125,104.15421207552727L81.23337483059277,104.26063106292031L81.61504118702628,104.4361576686012L81.95977208961139,104.61021851484772L82.05826663320715,104.74655052892972L82.10751390500502,104.83742420641144L82.20600844860077,104.90428130990567L82.6615457127311,105.0084707639023L82.72310480247845,105.08548239372485L83.11708297686143,105.2421098613056L83.21557752045719,105.3526626609493L83.3263838820024,105.45165327771804L83.58493205894123,105.54778624254871L83.73267387433486,105.63386226995098L83.7572975102338,105.69196694317186L84.22514659231359,105.85374226543672L84.37288840770721,105.95385395649366L84.6068129487471,106.05595300616625L84.88998476158488,106.17391582593022L85.72718838214874,106.46483127397902L85.83799474369395,106.66470621062835L85.87493019754235,106.79583698588984L86.81062836170197,107.11591125876315L86.8352519976009,107.314951929849L86.84756381555037,107.43851619775182L87.5000901668722,107.65988368360888L87.74632652586156,107.841592636206L87.84482106945732,107.96163356544865L88.4357883310318,108.15938575842745L88.65740105412223,108.33975213351079L88.75589559771798,108.47472333913757L89.13756195415151,108.63711377926168L89.75315285162492,108.85804077769124L90.24562556960366,109.1075584053673L90.44261465679516,109.29816670838227L90.6149801080877,109.45269006893793L91.36600100300528,109.70351851994799L91.63686099789359,109.91617859338513L91.69842008764094,110.0611625531626L92.28938734921542,110.25746560137159L92.53562370820478,110.4213109571508L92.56024734410373,110.52465873953686L92.95422551848672,110.67964218377473L93.24970914927397,110.83581637174457L93.42207460056652,110.97097372375748L93.95148277239366,111.12463739594114L94.29621367497877,111.24860226161162L94.3208373108777,111.32787002712219L94.37008458267559,111.38376580779838L94.55476185191762,111.45452593898722L95.05954638784583,111.59344400884406L95.09648184169421,111.68635338780439L95.74900819301605,111.84491289381705L96.13067454944957,112.02749512285078L96.14298636739905,112.139730917332L96.35228727254001,112.25585850241417L96.38922272638841,112.33262749276835L96.80782453667034,112.47169617381783L96.83244817256927,112.56172407905157L96.91863089821555,112.63552981158678L97.36185634439643,112.72677988992754L97.62040452133525,112.82232410650259L97.91588815212249,112.93439607966617L97.97744724186984,113.0136386112168L98.05131814956664,113.07414077648345L98.3837372342023,113.1707494844221L98.62997359319166,113.26872738586815L98.69153268293901,113.31647087361776L98.87620995218104,113.36492281375254L98.93776904192838,113.40971896338222L99.46717721375552,113.54225473241416L99.77497266249223,113.67147986398405L99.79959629839118,113.75255634598126L99.99658538558266,113.82937571606521L100.11970356507736,113.89181246054758L100.73529446255077,114.03819101446382L100.96921900359067,114.17435992411984L101.12927263693375,114.26470344935166L101.20314354463058,114.32825255881446L101.36319717797366,114.3952779949504L102.06497080109337,114.55432232079559L102.34814261393113,114.70415719772069L102.40970170367848,114.80553366658805L102.70518533446572,114.92381312287517L102.84061533190987,115.01878430854957L102.97604532935402,115.09654341176517L103.13609896269712,115.16590912926159L103.43158259348435,115.26233541459166L104.60120529868387,115.47561555095751L104.61351711663333,115.60259382206252L104.6627643884312,115.68954587935804L104.90900074742058,115.78201878624725L104.92131256537003,115.8403057899227L105.03211892691526,115.89566423956964L105.57383891669187,115.99572765706759L105.66002164233815,116.07087537282914L105.69695709618654,116.12027485673622L105.93088163722645,116.19569630300096L106.59571980649774,116.33039217570503L106.70652616804296,116.42995348714068L106.7311498039419,116.4941227475303L106.78039707573977,116.54205158853792L106.85426798343659,116.57886826432542L106.89120343728499,116.58909980761212L106.97738616293127,116.59821418647418L107.075880706527,116.60070013600564L107.11281616037542,116.60887353012228L107.26055797576905,116.64155006576507L107.59297706040469,116.64317322168739L107.64222433220257,116.64737784777984L107.77765432964672,116.67535152278131L108.75028794765473,116.83876257825366L108.92265339894728,116.96831698180051L109.02114794254304,117.06106295724834L109.19351339383559,117.14751629374572L109.20582521178505,117.20185198508688L110.00609337850051,117.35657701650652L110.36313609903509,117.50226696419506L110.4000715528835,117.59584376886292L110.72017881956968,117.69040582639091L110.99103881445798,117.78320492377742L111.29883426319469,117.88153173753378L111.93904879656705,118.04031688141323L112.12372606580908,118.16024172025841L112.22222060940481,118.24775302821405L112.2345324273543,118.30244293564613L112.50539242224261,118.37741775911758L112.72700514533304,118.4345139867367L113.21947786331177,118.47109091483638L113.47802604025061,118.51385922118007L113.85969239668414,118.59704482476097L114.51221874800596,118.73592957363249L114.64764874545011,118.83461332637432L114.86926146854053,118.92507366033524L114.99237964803523,119.0010763263108L115.00469146598469,119.04865393487734L115.2386160070246,119.096176688643L115.52178781986237,119.16596978263595L115.75571236090228,119.23839129401424L116.23587326093154,119.33430416871158L116.27280871477994,119.3965420550058L116.35899144042622,119.44640553107642L116.4821096199209,119.49578387335822L116.5190450737693,119.53176758281735L116.58060416351665,119.56380019111626L116.70372234301134,119.60340720768659L117.11001233534378,119.68398438517441L117.3439368763837,119.75115997407975L118.3165704943917,119.90218444613353L118.74748412262309,120.04275567086695L118.95678502776406,120.15316221704047L119.14146229700609,120.24534713285071L119.27689229445023,120.3214344741478L119.35076320214705,120.37504389741954L119.65855865088376,120.44871537318225L119.72011774063111,120.50309934086783L119.78167683037844,120.54570007758183L120.00328955346887,120.60255395130042L120.13871955091302,120.65415895223481L120.17565500476144,120.69100181376754L120.4218913637508,120.74576044692327L120.52038590734655,120.79412386549373L120.64350408684123,120.84135587876258L121.07441771507263,120.91450629831846L121.13597680481998,120.9604002544668L121.88699769973755,121.06068169492772L121.89930951768702,121.12252673501284L122.29328769207001,121.2036345781878L122.9211904074929,121.32420265051255L123.01968495108865,121.40999986219808L123.45059857932004,121.50444584824439L123.58602857676419,121.5776223266073L123.73377039215782,121.63983248694822L123.94307129729879,121.68210282012832L124.68178037426688,121.7847232383388L124.97726400505414,121.87848962462252L125.34661854353818,121.96700139091602L125.39586581533605,122.02420978316621L125.56823126662862,122.07727017728452L125.77753217176958,122.1374894166172L125.85140307946638,122.18309159436501L126.36849943334406,122.27156949811376L126.56548852053555,122.34875367590958L126.70091851797972,122.40744765386236L126.81172487952493,122.45748350591842L126.91021942312067,122.49510801575497L127.15645578211004,122.53149792643532L127.21801487185739,122.56012568312505L127.24263850775633,122.58081484061125L127.31650941545313,122.60260384145747L127.5627457744425,122.64726448608161L127.5996812282909,122.67588636317632L127.66124031803824,122.70185098338307L127.77204667958345,122.7250821242308L128.88011029503562,122.8526045986056L128.8924221129851,122.93093996110287L128.91704574888402,122.98112494931803L129.26177665146915,123.04044499152022L129.32333574121648,123.08353525445642L129.38489483096384,123.11198314978395L129.56957210020585,123.14724778686775L130.098980272033,123.21510588679577L130.18516299767927,123.26474469712416L130.41908753871917,133.93001220104827L130.5298939002644,138.71742309626384L130.93618389259686,137.3037279390593L130.94849571054633,136.2602447920848L131.05930207209155,135.55058814747912L131.52715115417132,137.29355192048905L131.62564569776708,138.6759651695533L131.68720478751442,139.81146873308757L132.0811829618974,141.49351947579888L132.65983840552244,143.34677789414036L132.7090856773203,144.54585374818902L132.99225749015807,145.70962191875518L133.21387021324853,146.3892329569261L133.25080566709693,146.85879712335094L133.50935384403576,147.15614139797518L133.64478384147992,147.33855537157936L133.94026747226715,147.46409600682344L134.02645019791342,147.53665626327984L134.23575110305438,147.73774812656083L134.26037473895332,147.82931280396116L134.29731019280175,147.75116903111856L134.55585836974058,147.57241938928408L134.5804820056395,147.48328061154587L134.64204109538684,147.4864019946218L134.777471092831,147.51735804013987L134.92521290822464,147.50667083975824L135.1345138133656,147.28497408704317L135.35612653645603,147.21025973977797L135.42999744415283,147.2283888727799L135.55311562364753,147.3099577427427L135.7870401646874,147.37539892033587L136.11945924932306,147.4188040942177L136.2179537929188,147.46811918975664L136.47650196985765,147.63844138886253L136.73505014679648,147.48569703771952L137.3506410442699,147.5978346317471L137.4368237699162,147.70993803295252L138.1016619391875,147.69893097204624L138.22478011868216,147.61347422354308L138.31096284432846,147.59395118286074L138.64338192896412,147.68466530724106L138.90193010590295,147.8190179866948L139.02504828539762,147.90144545149295L139.2220373725891,147.9729914469811L139.33284373413434,148.0176771022341L139.72682190851734,147.98703973701635L139.98537008545617,147.933062062865L140.5147782572833,147.85328616315454L140.5517137111317,147.80268118369864L140.7979500701211,147.78655124060634L140.88413279576736,147.788594463918L141.20424006245352,147.8219591423952L142.0660673189163,147.96459586937908L142.17687368046154,147.9816756588129L142.26305640610784,148.02011868804598L142.4231100394509,148.08104958201397L142.69397003433923,148.1336437744598L142.82940003178336,148.15410285009136L142.96483002922753,148.17408485091192L143.161819116419,148.21426318623062L143.45730274720626,148.26068307372398L143.53117365490306,148.29969987841605L143.81434546774085,148.37463671340367L144.03595819083128,148.45388275084258L144.78697908574884,148.60564889208655L144.89778544729407,148.658160145684L145.43950543707066,148.65334794909984L145.7842363396558,148.68897956064072L145.8211717935042,148.71785977555334L146.31364451148295,148.7690883193991L146.60912814227018,148.79857975326834L147.40939630898563,148.76687559320902L148.36971810904416,148.74935587548453L148.43127719879152,148.72881408335746L148.46821265263992,148.69732376801733L148.64057810393248,148.661236133208L148.78831991932609,148.6290905954289L149.07149173216388,148.61317067624464L149.14536263986065,148.60598548015918L149.3300399091027,148.63737197021808L149.4039108167995,148.66122637093264L149.52702899629418,148.6940949518857L149.82251262708144,148.64063212127024L150.0318135322224,148.6099151115961L150.3026735271107,148.58398727025144L150.7705226091905,148.61296662892693L150.90595260663466,148.64114944249695L151.15218896562402,148.68110112933482L151.23837169127032,148.7154260190883L151.29993078101765,148.71125280624057L152.2602525810762,148.72662929130578L152.62960711956023,148.7713769842591L152.66654257340863,148.8039754128801L152.85121984265066,148.82775441123167L152.9250907503475,148.8476518102375L152.98664984009483,148.87183584582283L153.34369256062942,148.8890134578464L153.51605801192198,148.91129468765263L153.65148800936612,148.93291666475466L153.77460618886082,148.92596178237815L153.82385346065868,148.92520562655628L153.83616527860815,148.91928509529671L154.18089618119325,148.9488775877611L154.29170254273848,148.95359214645336L154.57487435557624,148.96351271889893L154.58718617352574,148.97203832939422L154.73492798891934,148.98043139005267L155.11659434535287,148.99633617895634L155.2274007068981,148.96360528429062L155.43670161203903,148.95561026902914L155.4982607017864,148.95750652368824L155.6090670633316,148.9560673970079L155.70756160692736,148.96602440649949L155.8060561505231,148.98534901534777L156.01535705566405,148.99982591197698L156.38471159414811,148.98165651046435L156.50782977364278,148.98678721421126L156.96336703777314,148.98660690744944L157.07417339931834,148.9399011563294L157.08648521726784,148.91335098231093L157.35734521215613,148.92050080729828L157.4435279378024,148.89900986603982L157.78825884038753,148.8924671887777L157.9113770198822,148.8935514455321L157.97293610962953,148.89060279736364L158.1083661070737,148.906990373498L158.21917246861892,148.93059597873196L158.39153791991146,148.927119758956L158.85938700199128,148.90689953881682L158.89632245583968,148.89886271846098L159.31492426612158,148.824973633475L159.36417153791947,148.76420535092947L159.64734335075724,148.72491523265057L159.72121425845407,148.67393592804322L159.74583789435297,148.63999177913917L160.16443970463493,148.5083606914588L160.23831061233173,148.42797499040782L160.31218152002856,148.3781360304781L160.33680515592746,148.3495120631385L160.47223515337163,148.311934577203L160.533794243119,148.2947284877329L160.70615969441155,148.24356731510588L160.81696605595675,148.21783652319237L161.01395514314825,148.1698715674834L161.32175059188495,148.1276163573041L161.55567513292488,148.08728000160897L161.66648149447008,148.06664186800901L161.8880942175605,148.05347147421483L162.22051330219617,147.95648747777943L162.5036851150339,147.87063777077844L162.52830875093287,147.81907074948668L162.54062056888233,147.79025646227916L163.26701782790096,147.7558978696514L163.3039532817494,147.7371178375893L163.41475964329462,147.72819249079137L163.8826087253744,147.71093005248062L164.2642750818079,147.7131854512088L164.51051144079727,147.69918699117608L164.7444359818372,147.71446991919876L165.1261023382707,147.73228546789844L165.22459688186646,147.73999151725783L165.2492205177654,147.74853405073048L165.66782232804732,147.73241416285555L165.87712323318829,147.7245616997044L166.12335959217768,147.71475305787862L166.46809049476278,147.71270007789144L166.50502594861115,147.71715909943308L166.59120867425744,147.71969904556317L166.61583231015638,147.7249998274823L166.82513321529737,147.72907317333062L166.9236277588931,147.73678774227213L167.03443412043833,147.74018704721422L167.21911138968034,147.74085691036467L167.41610047687186,147.75710182043395L167.89626137690112,147.78785454872576L168.04400319229472,147.81923694282744L168.0686268281937,147.8410285865363L168.19174500768835,147.86536357275145L168.32717500513252,147.88282803148678L168.49954045642508,147.90293388028363L168.52416409232399,147.90967685593378L168.73346499746495,147.8933713142115L168.96738953850488,147.8857897761508L169.41061498468574,147.89209987159134L169.7430340693214,147.9043523024979L169.81690497701817,147.92126229808804L169.9277113385634,147.93999689023704L170.29706587704743,147.94409583610076L170.58023768988522,147.94131293969474L170.5925495078347,147.9405246391298L170.81416223092512,147.94999612568373L171.15889313351022,147.93649752153678L171.22045222325758,147.930862650566L171.55287130789324,147.927232469081L171.7129249412363,147.9300437527638L171.73754857713527,147.92553276658938L171.7498603950847,147.92445779716965L171.9960967540741,147.9412868279071L172.05765584382144,147.95706120816666L172.230021295114,147.95420678703405L172.35313947460867,147.9452499722393L172.41469856435603,147.94078742437333L172.50088129000233,147.9411365248885L172.7348058310422,147.94749979013267L172.88254764643582,147.94128176704038L173.31346127466722,147.95780052968254L174.07679398753424,148.00700859719913L174.26147125677628,148.04272276504815L174.39690125422047,148.06603515731825L174.44614852601833,148.08213467053102L174.6431376132098,148.09863816093565L175.04942760554226,148.11532021774315L175.16023396708746,148.11650002717516L175.7019539568641,148.1113129999962L175.94819031585348,148.11507707819652L175.98512576970185,148.1192754096193L176.18211485689338,148.13229699856075L176.37910394408487,148.1433653695251L177.25324301849713,148.1842241003392L177.36404938004236,148.21565838063512L177.74571573647586,148.24499625176543L177.97964027751576,148.2247254689705L178.01657573136418,148.21539696464225L178.28743572625248,148.19742241151644L179.08770389296794,148.1878111231219L179.18619843656367,148.16099100393802L179.4447466135025,148.14357376613654L179.7156066083908,148.13286513343343L180.0726493289254,148.11519801606107L180.63899295460095,148.13300543355973L180.98372385718608,148.14242372108288L181.71012111620468,148.17017986414675L181.9071102033962,148.19412045939993L182.28877655982973,148.22229460265845L182.38727110342546,148.2375024422671L182.6458192803643,148.24604313362775L182.953614729101,148.26699428460776L183.01517381884835,148.28473258186418L183.17522745219142,148.29850213384367L183.33528108553452,148.31340535042798L183.40915199323135,148.32376516616492L183.926248347109,148.32506993273697L183.93856016505848,148.3267836000796L184.18479652404787,148.32122329765727L184.898881965117,148.33158491642672L185.10818287025796,148.34392017021946L185.44060195489362,148.36093103588607L185.4529137728431,148.3711688631675L185.55140831643885,148.38500908385834L185.69915013183248,148.39308743828138L185.84689194722608,148.3999827088737L186.0315692164681,148.410436236318L186.080816488266,148.42105472963874L186.29011739340697,148.4253745573195L186.5117301164974,148.41502245115922L186.7333428395878,148.41326352945453L186.91802010882984,148.40688523450518L187.04113828832453,148.4070156941698L187.07807374217293,148.40793567032068L187.22581555756653,148.40288535144995L187.23812737551603,148.39693028150754L187.2873746473139,148.39605935054382L187.63210554989902,148.40415187804484L187.9522128165852,148.41803731005433L188.35850280891765,148.4332575073353L188.54318007815968,148.44542046946114L188.98640552434054,148.43649895790523L189.63893187566237,148.40326457628834L189.68817914746026,148.37874155720363L189.9344155064496,148.36013412903085L190.53769458597355,148.3518265163124L190.85780185265975,148.34652646156792L190.89473730650815,148.34077496791724L191.41183366038584,148.33306017909888L192.0397363758087,148.33961845476577L192.22441364505073,148.34815688289297L192.3229081886465,148.3503448258804L192.3967790963433,148.34405278684605L193.01236999381672,148.35221008079245L193.04930544766515,148.35945796694318L193.08624090151352,148.36622402832882L193.24629453485662,148.37985063125143L193.57871361949228,148.38037482635593L193.88650906822897,148.3784893626699L193.97269179387527,148.38033895602015L194.24355178876357,148.31942117599402L194.5020999657024,148.28267423164448L194.6621535990455,148.27017496888664L195.0930672272769,148.27168124375504L195.37623904011468,148.27664479799978L195.41317449396308,148.28261704775062L195.57322812730615,148.28453144668828L195.62247539910402,148.28112418722066L196.22575447862798,148.29512813117267L196.23806629657747,148.3043499211342L196.47199083761734,148.32629976442573L196.50892629146577,148.34017349565931L196.619732653011,148.3513094229864L196.63204447096044,148.35729919561683L196.70591537865727,148.35325333403893L196.95215173764663,148.3560337627617L196.97677537354556,148.3591223140803L197.198388096636,148.37022752592395L197.98634444540195,148.37725370404036L198.06021535309878,148.3820811187484L198.4788171633807,148.38789461922283L198.9836016993089,148.40567717570244L199.32833260189403,148.41788260200673L199.72231077627703,148.44048711432555L199.79618168397383,148.45356394747927L200.07935349681162,148.4361283310004L200.53489076094192,148.4285033347604L200.54720257889142,148.4242980108477L200.62107348658822,148.4241716756574L200.73187984813345,148.42092775776712L200.9411807532744,148.41744551461642L201.088922568668,148.42471722528902L201.16279347636484,148.43115740921394L201.4090298353542,148.44359385834846L201.45827710715207,148.45391437823827L201.75376073793933,148.47062252590214L201.88919073538347,148.48428876194663L202.5047816328569,148.50827670695975L202.80026526364412,148.5297739547654L203.0834370764819,148.5462925782824L203.52666252266278,148.5308064376899L203.82214615345,148.51415378873835L203.84676978934894,148.50500028727168L203.85908160729844,148.49929806234098L204.59779068426653,148.50021226689313L204.78246795350856,148.50425703708143L204.85633886120536,148.5095588056189L205.22569339968942,148.52089376364344L205.33649976123462,148.53405385084682L205.38574703303252,148.53817128270384L205.45961794072932,148.53488229577474L205.6566070279208,148.52946503665427L206.18601519974797,148.53735607246696L206.33375701514157,148.54570434596712L206.5923051920804,148.53527972864606L206.60461701002987,148.52973781463177L206.65386428182774,148.52360218178558L206.70311155362563,148.52037476635937L206.7523588254235,148.51676996826544L206.96165973056446,148.52132744658405L207.03553063826126,148.52378678546296L207.08477791005913,148.5166701815475L207.1094015459581,148.51406736388716L207.4171969946948,148.50050933601167L207.74961607933045,148.49756741308983L207.98354062037035,148.50020101668488L208.3775187947533,148.49027733862135L208.3898306127028,148.48445498613023L208.40214243065228,148.48130475718258L208.6976260614395,148.48501090362885L208.86999151273207,148.4888951133644L209.497894228155,148.49645224918925L209.6456360435486,148.5069862045104L210.42128057436508,148.5280808873892L210.93837692824277,148.53957448890452L210.98762420004064,148.5459323950821L211.52934418981727,148.55912866588955L211.5539678257162,148.5674389810418L211.76326873085716,148.5752097653611L212.2188059949875,148.58093248940057L212.58816053347152,148.58736867007323L212.67434325911782,148.59232916470194L212.79746143861252,148.59481416856974L213.01907416170292,148.60297916831783L213.3022459745407,148.61112876916897L213.51154687968167,148.61876459213036L213.58541778737847,148.62297641207587L213.67160051302474,148.6297366908643L214.2502559566498,148.63271574659944L214.31181504639713,148.63456278543026L214.50880413358863,148.6421396987026L214.58267504128546,148.6455376903201L214.7057932207801,148.6513671472485L214.92740594387055,148.66371832904372L215.01358866951685,148.67557234899272L215.1367068490115,148.68780359958433L215.16133048491045,148.6964494539912L215.32138411825355,148.7067377430182L215.55530865929344,148.70409935402128L215.8015450182828,148.6980826429456L215.93697501572694,148.69799896748938L216.51563045935197,148.71001915467613L216.6633722747456,148.72364577024405L216.79880227218976,148.73725365702188L217.58675862095572,148.7517732869547L217.96842497738925,148.7675022448888L218.4239622415196,148.79033457632625L218.71944587230684,148.80190624339724L218.83025223385204,148.81006543442047L218.90412314154887,148.817490866688L219.08880041079087,148.82709506840297L219.29810131593183,148.8332387026815L219.4704667672244,148.83917302996886L219.5074022210728,148.84377220510197L219.7413267621127,148.84065666580688L219.97525130315262,148.8462338014253L220.9601967391101,148.86956414437597L221.36648673144254,148.87622486646143L221.46498127503827,148.8759676423537L221.5388521827351,148.87714268870272L221.83433581352233,148.87222193103977L221.8466476314718,148.86973668636563L221.9328303571181,148.86699141807796L222.31449671355162,148.8699236368467L222.64691579818725,148.8618251999637L222.79465761358088,148.85262939417407L223.00395851872184,148.8500385955442L223.0532057905197,148.84576213690127L223.77960304953834,148.81837513244702L223.93965668288146,148.8029122699511L224.06277486237613,148.79613075392706L224.112022134174,148.79251580859415L224.1858930418708,148.7897297148844L224.41981758291072,148.79156634760844L224.69067757779902,148.79943022756825L224.85073121114212,148.80085701346607L225.57712847016074,148.79044887049244L225.84798846504904,148.76000058402437L225.8972357368469,148.73241631325345L225.92185937274587,148.71561468566438L225.93417119069534,148.70540004854L226.05728937019,148.6992616330711L226.3035257291794,148.69836317901766L226.62363299586556,148.70125111545858L227.0422348061475,148.7060105065579L227.1530411676927,148.70915995364368L227.84250297286292,148.7289595363266L228.50734114213424,148.7500540383609L228.8274484088204,148.7577652984567L228.88900749856776,148.76221504456885L229.1352438575571,148.75338767483666L229.76314657298002,148.74488099099617L229.8123938447779,148.74195227638023L230.20637201916088,148.72856477171484L230.80965109868484,148.7281033575624L231.0558874576742,148.71256813137114L231.4498656320572,148.70535305276064L231.57298381155186,148.69304169996582L231.58529562950133,148.68628465836645L231.89309107823803,148.68219310477886L231.9546501679854,148.6807406269084L232.00389743978326,148.68231597153883L232.17626289107582,148.68640039551028L232.6933592449535,148.694192054059L233.0011546936902,148.69868221227253L233.92454103990036,148.7236879893535L234.74943284251475,148.73532947079065L235.13109919894828,148.7497042238319L235.54970100923018,148.7681073699479L235.56201282717967,148.77864652528984L235.83287282206797,148.7854751591212L236.30072190414776,153.49998011794634L236.3622809938951,154.85603225863457L236.42384008364246,153.24980031777594L236.5469582631371,151.9098689607877L236.87937734777276,150.54299293236798L236.89168916572223,149.80250071808868L236.9778718913685,149.55848281047122L237.15023734266106,149.7455031109416L237.28566734010525,149.62826705274054L237.50728006319568,149.97652353368517L237.53190369909458,150.05748688926977L237.81507551193238,150.10836211842422L237.82738732988184,150.13124632661146L237.8396991478313,150.15499627670988L237.8766346016797,150.20961896408883L238.11055914271964,150.31276125466874L238.54147277095103,149.99168199991198L238.7015264042941,149.92880501372474L238.750773676092,149.79819195010418L238.91082730943506,149.4880374155317L238.92313912738453,149.29581557491352L239.0462573068792,149.2528428116171L239.1816873043234,149.3534629188975L239.30480548381803,149.43239092379008L239.40330002741382,149.432771755749L239.5264182069085,149.48507670124656L240.12969728643245,149.73797135907284L240.22819183002818,149.4954573344271L240.27743910182605,149.38952990880284L240.62217000441117,149.4348965834762L240.79453545570374,149.16513303491843L240.86840636340057,148.91854855359867L241.0407718146931,148.66503852579427L241.06539545059204,148.514842289882L241.1515781762383,148.36284331643688L241.20082544803617,148.25675823887454L241.2377609018846,148.2309740749892L241.25007271983407,148.19166142076045L241.29931999163196,148.19272577451676L241.60711544036866,148.2777373211397L241.73023361986336,148.38893906993374L241.77948089166122,148.4656882744786L241.9764699788527,148.51185219138785L242.14883543014525,148.49914350595878L242.59206087632614,148.66578699414794L242.60437269427558,148.77548816351504L242.69055541992188,148.85465144131828L242.825985417366,148.98153054149697L242.96141541481018,149.0943460221035L243.19533995585007,149.2536716733403L243.42926449688997,149.45055468349665L243.44157631483944,149.57671977778764L243.5031354045868,149.64365202547273L243.83555448922246,149.72217466727972L244.0571672123129,149.77984743746825L244.30340357130223,149.86241146260073L245.67001536369324,150.13905273438832L245.78082172523847,150.29668491592633L245.97781081242994,150.40812321798973L246.01474626627834,150.45041041537658L246.12555262782357,150.4772656436566L246.4702835304087,150.58917698447328L246.8888853406906,150.63068444025376L246.9011971586401,150.64731761226443L247.0120035201853,150.66081694280163L247.0489389740337,150.67429969051486L247.52909987406295,150.71819501925154L247.713777143305,150.7099719277857L247.8368953227997,150.73351710667356L248.0215725920417,150.73178616996117L248.04619622794064,150.7368532468973L248.1446907715364,150.7038277167041L248.34167985872787,150.50719933169657L248.35399167667737,150.38958535170232L248.58791621771726,150.27573472066933L248.8833998485045,150.18049745671408L249.01882984594866,150.14642388935843L249.1542598433928,150.16320722832532L249.49899074597792,150.20644582487398L249.64673256137155,150.23962260861208L250.16382891524924,150.32982209767698L250.2007643690976,150.38831947585155L250.70554890502584,150.5073720942106L250.80404344862157,150.60059094036404L251.80130070252852,150.58316246307282L251.813612520478,150.57618627125166L252.88474068208174,150.3299984592761L252.9832352256775,150.18981140410196L253.52495521545413,150.1077940897208L253.53726703340357,150.06188156495398L254.0420515693318,150.05208110333416" fill="none"></path></g></g></g></g><g opacity="0.2"><g><g><g><path style="fill: none;" stroke="rgb(255, 112, 67)" stroke-width="2px" d="M30.471749424934387,-10.898167578627124L31.23508213780143,0.5104003503025751L31.56750122243708,4.163271505160537L31.764490309628574,2.859310282942431L31.850673035274852,3.4288367715724064L31.862984853224322,3.5962616885420005L32.26927484555678,4.824794999375058L32.441640296849336,6.674007060581943L32.601693930192425,8.283316459189194L32.77405938148498,9.170654069336592L32.89717756097967,9.121247824059964L33.426585732806814,11.06314325594542L33.52508027640256,11.272484609621813L33.62357481999831,10.924979166668294L34.0544884482297,13.076830068366917L34.10373572002758,13.389583762875787L34.12835935592651,13.602670020837081L34.30072480721907,14.11652868789406L34.325348443118,14.13665002249246L34.411531168764284,14.470524495508585L34.51002571236004,15.458613276562517L34.58389662005684,15.758193577863324L34.92862752264196,19.02266637995561L36.270615679134025,26.697022869639397L36.47991658427499,27.091405844365255L36.590722945820204,26.415962384384272L36.60303476376967,26.514076468350623L36.67690567146648,26.808743840557412L36.75077657916329,27.339123435842396L36.972389302253724,29.004221070951388L37.00932475610213,29.30527043438329L37.12013111764735,30.10259788527091L37.7234101971713,34.50766497571141L37.7603456510197,34.82558447066475L37.83421655871651,34.61756768120492L37.90808746641332,35.14704416452409L38.09276473565535,36.14433264613649L38.16663564335216,36.552406798264116L38.22819473309951,37.05471767365154L38.86840926647186,39.56946304620118L38.929968356219206,39.8072223230686L38.94228017416867,39.84125158194058L39.16389289725911,41.23922073905376L39.3239465306022,42.0573197651552L39.951849246025084,44.47733471323707L40.16115015116605,45.33925273191994L40.83830013838681,47.38646306051254L40.87523559223522,46.777139437922244L41.04760104352778,46.922191261125334L41.09684831532565,47.13026825804957L41.687815576900135,49.486812497173815L41.77399830254642,49.9784064439002L42.044858297434715,50.996647123119544L42.192600112828345,51.28100697742312L42.31571829232302,51.83686637163704L42.68507283080708,53.05433355051562L42.82050282825123,53.72850061225158L42.91899737184698,54.10978244272664L42.992868279543785,54.40546130033512L43.38684645392678,55.951047118634335L43.743889174461366,57.29193959950791L43.940878261652855,57.44067611953153L44.13786734884436,58.184924669814876L44.18711462064223,58.29377976542801L44.3964155257832,58.37327770140567L44.82732915401459,59.79021220980103L45.34442550789226,60.729996542176636L45.455231869437476,61.12622186531276L45.52910277713429,61.31282285968986L45.59066186688163,61.39428355900655L45.676844592527914,61.64859988858062L45.78765095407313,61.88235536906625L45.960016405365685,62.035956652212406L45.98464004126462,62.122324259876706L46.02157549511303,62.23249187821351L46.563295484889636,63.864788486724024L47.11732729261571,65.20536788878277L47.33894001570615,65.32611997935895L47.449746377251365,65.61860182060845L47.609800010594455,65.46459112670445L47.646735464442855,65.58624632924644L47.74523000803861,65.91148705186933L48.23770272601734,67.2934891894269L48.44700363115831,67.90145814406846L48.57012181065299,68.3065520267089L48.6070572645014,68.43576928677798L48.85329362349077,68.66448540249436L49.27189543377269,69.29421935551211L49.419637249166314,69.69594764089328L49.702809062004086,70.36276337122747L50.15834632613442,71.56583494537094L50.19528177998283,71.6461276198785L50.207593597932295,71.68144531848839L50.30608814152804,71.88937781749809L50.35533541332592,71.93479832863225L50.44151813897219,72.12331392037689L51.094044490294024,73.21718119561375L51.180227215940306,73.46729504417355L51.29103357748552,73.55330140705152L51.561893572373826,74.1053195650375L51.6111408441717,74.23715584980748L51.70963538776745,74.45380036891409L51.80812993136319,74.50250820760382L51.857377203161064,74.60891285941638L52.103613562150436,75.12862369201187L52.16517265189778,75.26512605527189L52.17748446984724,75.2863973524401L52.23904355959459,75.34747180431509L52.423720828836615,75.43922195929565L52.485279918583956,75.59783852422531L52.71920445962385,76.00936256406236L52.91619354681535,76.39943468433805L53.03931172631003,76.6284277543906L53.187053541703655,76.89591145642628L53.50716080838984,77.57183657612235L53.617967169935056,77.7665174122203L54.04888079816645,78.41832944242906L54.06119261611592,78.44327339492493L54.08581625201485,78.48472623415593L54.62753624179147,79.14922999785763L54.726030785387216,79.31892473623465L54.836837146932425,79.52819384095376L54.861460782831365,79.56955636898817L54.923019872578706,79.69849065397466L55.23081532131542,79.74423026467007L55.243127139264885,79.76936688105197L55.36624531875957,79.59975041237867L55.39086895465851,79.60541593477755L55.45242804440585,79.73310994599764L55.624793495698405,79.70488468669264L55.69866440339522,79.82398107199815L55.80947076494043,80.00067793848346L55.994148034182466,80.38031610518074L56.06801894187927,80.50058051529537L56.7205452932011,81.7155731673876L57.6931789112091,83.41425452613211L57.75473800095645,83.52035814062273L57.91479163429954,83.81660294839646L58.37032889842987,84.50738124955701L58.542694349722424,84.80661234756438L58.97360797795382,85.5801518292724L59.995488867759704,87.11217290584503L60.29097249854695,87.54824954965943L60.58645612933419,87.9279659860604L61.165111572959205,88.59107895733476L61.26360611655495,88.66731364874259L61.706831562735815,89.24589534001646L61.94075610377572,89.57086512904961L62.03925064737147,89.72568862372285L62.07618610121987,89.77876752432712L62.79027154228904,90.83005608074893L63.47973334745927,91.74345750222982L63.55360425515609,91.77476538371147L63.75059334234758,92.02919610746787L63.97220606543801,92.36414829409652L63.98451788338748,92.38118700651826L64.40311969366941,92.85802410372321L64.52623787316409,92.94717329624221L64.56317332701249,93.01029480190638L64.57548514496196,93.0294227133424L64.6001087808609,93.06920780580985L64.61242059881036,93.08870900352505L64.92021604754709,93.41748390430753L65.32650603987955,93.67051781489012L65.81897875785828,94.06048758247634L66.2006451142918,93.99766711413412L66.53306419892745,94.1774164990639L66.59462328867478,94.2436326683976L66.8654832835631,94.59269748467874L67.09940782460299,94.86853798277144L67.28408509384502,95.07097956102898L67.48107418103652,95.2804052051555L67.8381169015711,95.56481924617704L67.8750523554195,95.59588629780114L68.18284780415622,95.73930047797288L68.95849233497273,96.37350784559465L69.18010505806316,96.55535847103155L69.2047286939621,96.58833409927675L69.22935232986103,96.60516208557314L69.30322323755784,96.66483370352789L69.64795414014297,97.022213170641L69.82031959143552,97.13024342399203L70.50978139660576,97.32061942638624L70.55902866840363,97.33895862003878L70.69445866584778,97.4257175762216L71.33467319922013,97.8215696130785L71.59322137615898,98.06436223396874L71.65478046590631,98.10814510207155L71.67940410180525,98.10646531381514L71.80252228129994,98.2254473049383L72.2088122736324,98.59905268370392L72.356554089026,98.70791982080993L72.99676862239838,99.30331745688734L73.13219861984254,99.37419970471109L73.34149952498349,99.53983043924192L73.6862304275686,99.81992760506685L74.15407950964841,100.24981492154218L74.28950950709256,100.39306654156007L74.32644496094098,100.43452540153751L75.02821858406068,100.71243703640515L75.089777673808,100.70689192893505L75.22520767125216,100.78483049158504L76.12397038156335,101.53104180520744L76.25940037900752,101.6302275820399L76.27171219695698,101.64012568918525L76.29633583285592,101.6631430028207L76.35789492260325,101.71593892834237L76.37020674055273,101.728022566445L76.67800218928944,101.98229675079399L76.73956127903678,102.04466566315332L76.77649673288519,102.07859859008228L76.87499127648093,102.16998147953008L77.1212276354703,102.29949375617468L77.1581630893187,102.32679182052811L77.35515217651022,102.45635226314421L77.62601217139851,102.62068251644428L77.78606580474161,102.70882624430801L77.81068944064054,102.72342053367562L78.42628033811395,103.06878259089692L78.7217639689012,103.23172205176962L78.80794669454748,103.23979587274403L78.88181760224428,103.26814756772424L79.17730123303153,103.51071742099624L79.21423668687994,103.54315118206196L79.94063394589858,103.84662088556222L80.14993485103953,103.95345301037193L80.40848302797838,104.07020130456631L80.99945028955287,104.31155496705769L81.03638574340125,104.32078477134834L81.23337483059277,104.42025954400987L81.61504118702628,104.69944757712253L81.95977208961139,104.8713097842175L82.05826663320715,104.9510485500527L82.10751390500502,104.97373472263403L82.20600844860077,105.00456696514702L82.6615457127311,105.1647549448972L82.72310480247845,105.20099983845866L83.11708297686143,105.47705106267672L83.21557752045719,105.51849186041484L83.3263838820024,105.60013920287113L83.58493205894123,105.69198568979473L83.73267387433486,105.76297631105439L83.7572975102338,105.7791239530032L84.22514659231359,106.09640524883402L84.37288840770721,106.10402149307907L84.6068129487471,106.20910158067511L84.88998476158488,106.35086005557619L85.72718838214874,106.90120444605218L85.83799474369395,106.96451861560239L85.87493019754235,106.99253314878203L86.81062836170197,107.59602266807315L86.8352519976009,107.6135129364778L86.84756381555037,107.62386259960607L87.5000901668722,107.99193491239444L87.74632652586156,108.11415606510168L87.84482106945732,108.14169495931266L88.4357883310318,108.45601404789561L88.65740105412223,108.61030169613579L88.75589559771798,108.67718014757774L89.13756195415151,108.88069943944782L89.75315285162492,109.1894312753356L90.24562556960366,109.48183484688138L90.44261465679516,109.58407916290474L90.6149801080877,109.6844751097714L91.36600100300528,110.07976119646305L91.63686099789359,110.23516870354085L91.69842008764094,110.27863849282883L92.28938734921542,110.55192017368506L92.53562370820478,110.6670789908196L92.56024734410373,110.67968041311597L92.95422551848672,110.91211735013151L93.24970914927397,111.07007765369934L93.42207460056652,111.17370975177684L93.95148277239366,111.35513290421662L94.29621367497877,111.43454956011733L94.3208373108777,111.44677167538805L94.37008458267559,111.46760947881268L94.55476185191762,111.56066613577046L95.05954638784583,111.80182111362934L95.09648184169421,111.82571745624487L95.74900819301605,112.08275215283604L96.13067454944957,112.30136846640137L96.14298636739905,112.30808460905382L96.35228727254001,112.43004988003742L96.38922272638841,112.44778097829962L96.80782453667034,112.68029919539208L96.83244817256927,112.69676593690214L96.91863089821555,112.7462384103896L97.36185634439643,112.86365500743868L97.62040452133525,112.96564043136517L97.91588815212249,113.10250403941153L97.97744724186984,113.13250240854275L98.05131814956664,113.16489402438339L98.3837372342023,113.31566254633009L98.62997359319166,113.4156942380372L98.69153268293901,113.38808610524218L98.87620995218104,113.4376007239547L98.93776904192838,113.47691318782672L99.46717721375552,113.74105838596209L99.77497266249223,113.86531756133886L99.79959629839118,113.87417106897709L99.99658538558266,113.94460477119115L100.11970356507736,113.98546757727115L100.73529446255077,114.2577588453382L100.96921900359067,114.37861328860383L101.12927263693375,114.4002187371994L101.20314354463058,114.42357622300864L101.36319717797366,114.49581614915434L102.06497080109337,114.79288880956341L102.34814261393113,114.92890951310832L102.40970170367848,114.9575983698891L102.70518533446572,115.10123230730586L102.84061533190987,115.16124108706117L102.97604532935402,115.21318206658853L103.13609896269712,115.26995770550623L103.43158259348435,115.40697484258678L104.60120529868387,115.79553575550631L104.61351711663333,115.79306122871998L104.6627643884312,115.81997396530133L104.90900074742058,115.92072814658108L104.92131256537003,115.92773629543582L105.03211892691526,115.9787019140401L105.57383891669187,116.14582278331453L105.66002164233815,116.18359694647144L105.69695709618654,116.19437408259685L105.93088163722645,116.30882847239806L106.59571980649774,116.53243598476112L106.70652616804296,116.57929545429415L106.7311498039419,116.59037663811472L106.78039707573977,116.61394485004934L106.85426798343659,116.6340932780067L106.89120343728499,116.60444712254215L106.97738616293127,116.61188575476727L107.075880706527,116.60442906030283L107.11281616037542,116.62113362129725L107.26055797576905,116.69056486922925L107.59297706040469,116.64560795557088L107.64222433220257,116.6536847869185L107.77765432964672,116.71731203528353L108.75028794765473,117.0838791614622L108.92265339894728,117.16264858712077L109.02114794254304,117.20018192042012L109.19351339383559,117.27719629849177L109.20582521178505,117.28335552209865L110.00609337850051,117.58866456363597L110.36313609903509,117.72080188572787L110.4000715528835,117.73620897586471L110.72017881956968,117.8322489126829L110.99103881445798,117.9224035698572L111.29883426319469,118.02902195816833L111.93904879656705,118.2784945972324L112.12372606580908,118.3401289785262L112.22222060940481,118.3790199901475L112.2345324273543,118.38447779679424L112.50539242224261,118.48987999432475L112.72700514533304,118.52015832816537L113.21947786331177,118.52595630698592L113.47802604025061,118.57801168069561L113.85969239668414,118.72182323013232L114.51221874800596,118.94425669693982L114.64764874545011,118.98263895548703L114.86926146854053,119.06076416127664L114.99237964803523,119.1150803252741L115.00469146598469,119.12002034772712L115.2386160070246,119.16746081929148L115.52178781986237,119.2706594236254L115.75571236090228,119.34702356108167L116.23587326093154,119.4781734807576L116.27280871477994,119.48989888444713L116.35899144042622,119.52120074518234L116.4821096199209,119.5698513867809L116.5190450737693,119.58574314700607L116.58060416351665,119.61184910356462L116.70372234301134,119.66281773254211L117.11001233534378,119.80485015140616L117.3439368763837,119.85192335743776L118.3165704943917,120.12872115421422L118.74748412262309,120.25361250796706L118.95678502776406,120.31877203630074L119.14146229700609,120.38362450656606L119.27689229445023,120.43556548609342L119.35076320214705,120.45545803232716L119.65855865088376,120.55922258682631L119.72011774063111,120.58467529239624L119.78167683037844,120.6096011826528L120.00328955346887,120.6878347618783L120.13871955091302,120.73156645363639L120.17565500476144,120.74626610606666L120.4218913637508,120.82789839665686L120.52038590734655,120.86666899334938L120.64350408684123,120.91220389866588L121.07441771507263,121.02423192765227L121.13597680481998,121.02924118868933L121.88699769973755,121.21110385561911L121.89930951768702,121.2152942951405L122.29328769207001,121.32529634295022L122.9211904074929,121.50505475899968L123.01968495108865,121.53869567972635L123.45059857932004,121.64611482731385L123.58602857676419,121.68738704415168L123.73377039215782,121.73314772745962L123.94307129729879,121.74550831989845L124.68178037426688,121.93865386565452L124.97726400505414,122.01913920404812L125.34661854353818,122.09976904035625L125.39586581533605,122.1100223715415L125.56823126662862,122.156860768462L125.77753217176958,122.22781827561624L125.85140307946638,122.25149486098674L126.36849943334406,122.40428635373686L126.56548852053555,122.4645299426033L126.70091851797972,122.49548862079152L126.81172487952493,122.53253728400254L126.91021942312067,122.55154478050977L127.15645578211004,122.58608279245584L127.21801487185739,122.60306731815965L127.24263850775633,122.6118485768406L127.31650941545313,122.63528734272677L127.5627457744425,122.71425545301781L127.5996812282909,122.71881917881839L127.66124031803824,122.74079791369317L127.77204667958345,122.7599288355024L128.88011029503562,123.04388831016779L128.8924221129851,123.04844300484874L128.91704574888402,123.05640243164079L129.26177665146915,123.12942505482354L129.32333574121648,123.14817064886068L129.38489483096384,123.15465499277525L129.56957210020585,123.20014474249345L130.098980272033,123.31689303668783L130.18516299767927,123.33920291261673L130.41908753871917,149.92791345693442L130.5298939002644,145.8985394390872L130.93618389259686,135.18318520325255L130.94849571054633,134.69502007162305L131.05930207209155,134.48610318057058L131.52715115417132,139.90799758000395L131.62564569776708,140.74958504314966L131.68720478751442,141.51472407838895L132.0811829618974,144.01659558986586L132.65983840552244,146.12666552165257L132.7090856773203,146.34446752926203L132.99225749015807,147.4552741746044L133.21387021324853,147.40864951418249L133.25080566709693,147.5631433729882L133.50935384403576,147.6021578099115L133.64478384147992,147.6121763319856L133.94026747226715,147.65240695968956L134.02645019791342,147.64549664796445L134.23575110305438,148.0393859214823L134.26037473895332,147.96665982006166L134.29731019280175,147.6339533718547L134.55585836974058,147.30429492653235L134.5804820056395,147.3495724449386L134.64204109538684,147.49108406923565L134.777471092831,147.56379210841698L134.92521290822464,147.4906400391858L135.1345138133656,146.95242895797054L135.35612653645603,147.09818821888018L135.42999744415283,147.25558257228278L135.55311562364753,147.4323110476869L135.7870401646874,147.4735606867256L136.11945924932306,147.48391185504047L136.2179537929188,147.542091833065L136.47650196985765,147.89392468752138L136.73505014679648,147.256580511005L137.3506410442699,147.76604102278847L137.4368237699162,147.8780931347606L138.1016619391875,147.68242038068686L138.22478011868216,147.48528910078835L138.31096284432846,147.5646666218372L138.64338192896412,147.82073649381158L138.90193010590295,148.02054700587536L139.02504828539762,148.0250866486902L139.2220373725891,148.0803104402133L139.33284373413434,148.08470558511362L139.72682190851734,147.94108368918972L139.98537008545617,147.85209555163794L140.5147782572833,147.73362231358885L140.5517137111317,147.72677371451476L140.7979500701211,147.76235632596794L140.88413279576736,147.7916592988855L141.20424006245352,147.872006160111L142.0660673189163,148.17855095985487L142.17687368046154,148.0072953429636L142.26305640610784,148.07778323189564L142.4231100394509,148.17244592296595L142.69397003433923,148.21253506312857L142.82940003178336,148.18479146353866L142.96483002922753,148.20405785214277L143.161819116419,148.2745306892087L143.45730274720626,148.330312904964L143.53117365490306,148.35822508545417L143.81434546774085,148.48704196588508L144.03595819083128,148.57275180700094L144.78697908574884,148.83329810395253L144.89778544729407,148.7369270260802L145.43950543707066,148.64612965422359L145.7842363396558,148.74242697795205L145.8211717935042,148.76118009792222L146.31364451148295,148.84593113516772L146.60912814227018,148.84281690407227L147.40939630898563,148.71931935312L148.36971810904416,148.7230762988978L148.43127719879152,148.6980013951669L148.46821265263992,148.65008829500707L148.64057810393248,148.607104680994L148.78831991932609,148.58087228876025L149.07149173216388,148.58929079746827L149.14536263986065,148.595207686031L149.3300399091027,148.6844517053064L149.4039108167995,148.69700797200449L149.52702899629418,148.7433978233153L149.82251262708144,148.56043787534702L150.0318135322224,148.56383959708495L150.3026735271107,148.54509550823443L150.7705226091905,148.65643566694015L150.90595260663466,148.683423662852L151.15218896562402,148.74102865959162L151.23837169127032,148.76691335371856L151.29993078101765,148.70499298696893L152.2602525810762,148.74969401890365L152.62960711956023,148.83849852368905L152.66654257340863,148.85287305581164L152.85121984265066,148.863422908759L152.9250907503475,148.87749790874625L152.98664984009483,148.90811189920083L153.34369256062942,148.91477987588178L153.51605801192198,148.944716532362L153.65148800936612,148.9653496304077L153.77460618886082,148.9155294588134L153.82385346065868,148.9240713928234L153.83616527860815,148.9104042984074L154.18089618119325,148.9932663264577L154.29170254273848,148.9606639844917L154.57487435557624,148.97839357756732L154.58718617352574,148.98482674513716L154.73492798891934,148.99302098104033L155.11659434535287,149.02019336231183L155.2274007068981,148.91450894229203L155.43670161203903,148.9436177461369L155.4982607017864,148.9603509056769L155.6090670633316,148.9539087069874L155.70756160692736,148.98095992073684L155.8060561505231,149.01433592862023L156.01535705566405,149.02154125692084L156.38471159414811,148.9544024081954L156.50782977364278,148.99448326983165L156.96336703777314,148.98633644730668L157.07417339931834,148.86984252964933L157.08648521726784,148.87352572128324L157.35734521215613,148.9312255447793L157.4435279378024,148.86677345415217L157.78825884038753,148.88265317288443L157.9113770198822,148.89517783066373L157.97293610962953,148.88617982511096L158.1083661070737,148.93157173769953L158.21917246861892,148.9660043865829L158.39153791991146,148.92190542929205L158.85938700199128,148.87656920860806L158.89632245583968,148.8868074879272L159.31492426612158,148.71414000599603L159.36417153791947,148.6730529271112L159.64734335075724,148.66598005523224L159.72121425845407,148.59746697113215L159.74583789435297,148.5890755557831L160.16443970463493,148.31091405993823L160.23831061233173,148.30739643883138L160.31218152002856,148.3033775905835L160.33680515592746,148.3065761121291L160.47223515337163,148.25556834829976L160.533794243119,148.26891935352774L160.70615969441155,148.16682555616535L160.81696605595675,148.1792403353221L161.01395514314825,148.09792413391995L161.32175059188495,148.06423354203514L161.55567513292488,148.0267754680663L161.66648149447008,148.03568466760908L161.8880942175605,148.0337158835236L162.22051330219617,147.81101148312632L162.5036851150339,147.74186321027696L162.52830875093287,147.74172021754902L162.54062056888233,147.74703503146785L163.26701782790096,147.7043599807098L163.3039532817494,147.70894778949614L163.41475964329462,147.71480447059446L163.8826087253744,147.68503639501452L164.2642750818079,147.71656854930103L164.51051144079727,147.67818930112702L164.7444359818372,147.73739431123275L165.1261023382707,147.75900879094797L165.22459688186646,147.75155059129693L165.2492205177654,147.76134785093944L165.66782232804732,147.70823433104314L165.87712323318829,147.71278300497764L166.12335959217768,147.70004009513997L166.46809049476278,147.70962060791067L166.50502594861115,147.7238476317455L166.59120867425744,147.7235089647583L166.61583231015638,147.73295100036094L166.82513321529737,147.7351831921031L166.9236277588931,147.74835959568438L167.03443412043833,147.7452860046274L167.21911138968034,147.74186170509034L167.41610047687186,147.78146918553784L167.89626137690112,147.8339836411635L168.04400319229472,147.8663105339799L168.0686268281937,147.8737160520996L168.19174500768835,147.90186605207413L168.32717500513252,147.90902471958984L168.49954045642508,147.93309265347887L168.52416409232399,147.919791319409L168.73346499746495,147.86891300162807L168.96738953850488,147.87441746905972L169.41061498468574,147.90156501475218L169.7430340693214,147.92273094885772L169.81690497701817,147.94662729147325L169.9277113385634,147.96809877846056L170.29706587704743,147.95024425489635L170.58023768988522,147.9371385950857L170.5925495078347,147.93934218828232L170.81416223092512,147.96420335551466L171.15889313351022,147.9162496153164L171.22045222325758,147.92241034410986L171.55287130789324,147.92178719685344L171.7129249412363,147.93426067828798L171.73754857713527,147.9187662873278L171.7498603950847,147.92284534304005L171.9960967540741,147.96653037401325L172.05765584382144,147.98072277855604L172.230021295114,147.94992515533508L172.35313947460867,147.93181475004724L172.41469856435603,147.9340936025743L172.50088129000233,147.94166017566124L172.7348058310422,147.95704468799894L172.88254764643582,147.93195473240195L173.31346127466722,147.9825786736458L174.07679398753424,148.08082069847399L174.26147125677628,148.09629401682164L174.39690125422047,148.1010037457234L174.44614852601833,148.1062839403502L174.6431376132098,148.1233933965426L175.04942760554226,148.14034330295436L175.16023396708746,148.11826974132322L175.7019539568641,148.10353245922767L175.94819031585348,148.120723195497L175.98512576970185,148.12557290675343L176.18211485689338,148.15182938197296L176.37910394408487,148.15996792597159L177.25324301849713,148.24551219656038L177.36404938004236,148.262809801079L177.74571573647586,148.2890030584609L177.97964027751576,148.19431929477804L178.01657573136418,148.20140420814988L178.28743572625248,148.17046058182777L179.08770389296794,148.17339419053008L179.18619843656367,148.12076082516225L179.4447466135025,148.1174479094343L179.7156066083908,148.11680218437874L180.0726493289254,148.0886973400025L180.63899295460095,148.15971655980775L180.98372385718608,148.15655115236757L181.71012111620468,148.21181407874252L181.9071102033962,148.23003135227967L182.28877655982973,148.26455581754624L182.38727110342546,148.26031420168013L182.6458192803643,148.2588541706687L182.953614729101,148.29842101107778L183.01517381884835,148.31134002774877L183.17522745219142,148.31915646181292L183.33528108553452,148.33576017530447L183.40915199323135,148.3393048897703L183.926248347109,148.327027082595L183.93856016505848,148.3293541010936L184.18479652404787,148.3128828440237L184.898881965117,148.34712734458088L185.10818287025796,148.3624230509086L185.44060195489362,148.38644733438593L185.4529137728431,148.38652560408966L185.55140831643885,148.4057694148946L185.69915013183248,148.40520496991599L185.84689194722608,148.41032561476214L186.0315692164681,148.42611652748445L186.080816488266,148.43698246961986L186.29011739340697,148.43185429884062L186.5117301164974,148.39949429191878L186.7333428395878,148.41062514689747L186.91802010882984,148.39731779208117L187.04113828832453,148.4072113836667L187.07807374217293,148.40931563454706L187.22581555756653,148.39530987314384L187.23812737551603,148.38799767659393L187.2873746473139,148.39475295409824L187.63210554989902,148.41629066929636L187.9522128165852,148.4388654580686L188.35850280891765,148.4560878032567L188.54318007815968,148.4636649126499L188.98640552434054,148.42311669057133L189.63893187566237,148.35341300386298L189.68817914746026,148.3419570285766L189.9344155064496,148.33222298677168L190.53769458597355,148.3393650972347L190.85780185265975,148.3385763794512L190.89473730650815,148.3321477274412L191.41183366038584,148.32148799587134L192.0397363758087,148.3494558682661L192.22441364505073,148.36096452508383L192.3229081886465,148.35362674036156L192.3967790963433,148.3346147282945L193.01236999381672,148.36444602171204L193.04930544766515,148.37032979616933L193.08624090151352,148.37637312040727L193.24629453485662,148.40029053563532L193.57871361949228,148.3811611190127L193.88650906822897,148.3756611671409L193.97269179387527,148.3831133460455L194.24355178876357,148.22804450595487L194.5020999657024,148.2275538151201L194.6621535990455,148.25142607474987L195.0930672272769,148.27394065605768L195.37623904011468,148.28409012936686L195.41317449396308,148.29157542237687L195.57322812730615,148.2874030450948L195.62247539910402,148.27601329801922L196.22575447862798,148.31613404710066L196.23806629657747,148.31818260607645L196.47199083761734,148.35922452936302L196.50892629146577,148.36098409250974L196.619732653011,148.36801331397703L196.63204447096044,148.36628385456248L196.70591537865727,148.34718454167205L196.95215173764663,148.3602044058459L196.97677537354556,148.3637551410582L197.198388096636,148.38688534368936L197.98634444540195,148.38779297121502L198.06021535309878,148.38932224081046L198.4788171633807,148.39661486993444L198.9836016993089,148.43235101042183L199.32833260189403,148.43619074146315L199.72231077627703,148.4743938828038L199.79618168397383,148.4731791972098L200.07935349681162,148.4099749062821L200.53489076094192,148.41706584040037L200.54720257889142,148.4179900249787L200.62107348658822,148.42398217287192L200.73187984813345,148.4160618809317L200.9411807532744,148.41222214989037L201.088922568668,148.4356247912979L201.16279347636484,148.44081768510136L201.4090298353542,148.46224853205018L201.45827710715207,148.469395158073L201.75376073793933,148.49568474739795L201.88919073538347,148.5047881160134L202.5047816328569,148.54425862447943L202.80026526364412,148.56201982647383L203.0834370764819,148.5710705135579L203.52666252266278,148.50757722680115L203.82214615345,148.48917481531103L203.84676978934894,148.49127003507172L203.85908160729844,148.49074472494493L204.59779068426653,148.50158357372135L204.78246795350856,148.51032419236384L204.85633886120536,148.51751145842513L205.22569339968942,148.53789620068025L205.33649976123462,148.55379398165184L205.38574703303252,148.54434743048938L205.45961794072932,148.52994881538106L205.6566070279208,148.5213391479736L206.18601519974797,148.549192626186L206.33375701514157,148.55822675621738L206.5923051920804,148.51964280266446L206.60461701002987,148.52142494361036L206.65386428182774,148.5143987325163L206.70311155362563,148.51553364322L206.7523588254235,148.51136277112454L206.96165973056446,148.52816366406196L207.03553063826126,148.52747579378132L207.08477791005913,148.50599527567437L207.1094015459581,148.5101631373966L207.4171969946948,148.48017229419844L207.74961607933045,148.49315452870707L207.98354062037035,148.50415142207748L208.3775187947533,148.47539182152605L208.3898306127028,148.47572145739358L208.40214243065228,148.4765794137611L208.6976260614395,148.4905701232982L208.86999151273207,148.49472142796776L209.497894228155,148.50778795292652L209.6456360435486,148.52278713749212L210.42128057436508,148.55972291170744L210.93837692824277,148.5568148911775L210.98762420004064,148.55546925434842L211.52934418981727,148.5789230721007L211.5539678257162,148.5799044537702L211.76326873085716,148.58686594184007L212.2188059949875,148.58951657545973L212.58816053347152,148.5970229410823L212.67434325911782,148.59976990664498L212.79746143861252,148.59854167437146L213.01907416170292,148.61522666793994L213.3022459745407,148.62335317044568L213.51154687968167,148.6302183265725L213.58541778737847,148.62929414199414L213.67160051302474,148.6398771090469L214.2502559566498,148.63718433020216L214.31181504639713,148.63733334367652L214.50880413358863,148.65350506861108L214.58267504128546,148.65063467774638L214.7057932207801,148.66011133264104L214.92740594387055,148.6822451017366L215.01358866951685,148.69335337891616L215.1367068490115,148.7061504754718L215.16133048491045,148.70941823560142L215.32138411825355,148.72217017655876L215.55530865929344,148.70014177052587L215.8015450182828,148.6890575763321L215.93697501572694,148.69787345430507L216.51563045935197,148.72804943545623L216.6633722747456,148.74408569359593L216.79880227218976,148.7576654871886L217.58675862095572,148.77355273185393L217.96842497738925,148.79109568178993L218.4239622415196,148.82458307348242L218.71944587230684,148.81926374400376L218.83025223385204,148.82230422095535L218.90412314154887,148.82862901508926L219.08880041079087,148.84150137097538L219.29810131593183,148.84245415409933L219.4704667672244,148.84807452089993L219.5074022210728,148.85067096780165L219.7413267621127,148.83598335686423L219.97525130315262,148.85459950485296L220.9601967391101,148.90455965880193L221.36648673144254,148.8862159495896L221.46498127503827,148.8755818061921L221.5388521827351,148.8789052582263L221.83433581352233,148.8648407945453L221.8466476314718,148.86600881935442L221.9328303571181,148.86287351564644L222.31449671355162,148.87432196499978L222.64691579818725,148.84967754463923L222.79465761358088,148.8388356854896L223.00395851872184,148.84615239759933L223.0532057905197,148.8393474489369L223.77960304953834,148.77729462576562L223.93965668288146,148.77971797620722L224.06277486237613,148.78595847989104L224.112022134174,148.78709339059475L224.1858930418708,148.7855505743198L224.41981758291072,148.79432129669448L224.69067757779902,148.81122604750797L224.85073121114212,148.80299719231277L225.57712847016074,148.774836656032L225.84798846504904,148.71432815432226L225.8972357368469,148.69103990709704L225.92185937274587,148.69041224428082L225.93417119069534,148.69007809285347L226.05728937019,148.6900540098677L226.3035257291794,148.69701549793754L226.62363299586556,148.70558302011992L227.0422348061475,148.71314959320685L227.1530411676927,148.7138841242724L227.84250297286292,148.758658910351L228.50734114213424,148.78169579141237L228.8274484088204,148.76933218860034L228.88900749856776,148.76888966373707L229.1352438575571,148.74014662023836L229.76314657298002,148.73212096523545L229.8123938447779,148.7375592044563L230.20637201916088,148.70848351471682L230.80965109868484,148.72741123633372L231.0558874576742,148.68926529208423L231.4498656320572,148.69453043484492L231.57298381155186,148.6745746707736L231.58529562950133,148.67614909596733L231.89309107823803,148.67605577439753L231.9546501679854,148.67856191010267L232.00389743978326,148.68467898848448L232.17626289107582,148.69252703146742L232.6933592449535,148.70587954188204L233.0011546936902,148.70541744959286L233.92454103990036,148.76119665497492L234.74943284251475,148.7527916929464L235.13109919894828,148.7712663533938L235.54970100923018,148.79571208912185L235.56201282717967,148.79445525830275L235.83287282206797,148.7957181098683L236.30072190414776,160.57173755618402L236.3622809938951,156.89011046966698L236.42384008364246,150.84045240648794L236.5469582631371,149.89997192530535L236.87937734777276,148.4926788897384L236.89168916572223,148.6917623966697L236.9778718913685,149.19245594904498L237.15023734266106,150.02603356164724L237.28566734010525,149.4524129654389L237.50728006319568,150.49890825510215L237.53190369909458,150.17893192264665L237.81507551193238,150.18467496215595L237.82738732988184,150.16557263889231L237.8396991478313,150.19062120185754L237.8766346016797,150.29155299515725L238.11055914271964,150.46747469053858L238.54147277095103,149.51006311777684L238.7015264042941,149.8344895344439L238.750773676092,149.60227235467335L238.91082730943506,149.02280561367297L238.92313912738453,149.0074828139863L239.0462573068792,149.18838366667248L239.1816873043234,149.5043930798181L239.30480548381803,149.5507829311289L239.40330002741382,149.43334300368736L239.5264182069085,149.56353411949294L240.12969728643245,150.11731334581225L240.22819183002818,149.1316862974585L240.27743910182605,149.23063877036645L240.62217000441117,149.50294659548618L240.79453545570374,148.76048771208175L240.86840636340057,148.54867183161906L241.0407718146931,148.28477348408765L241.06539545059204,148.2895479360136L241.1515781762383,148.13484485626915L241.20082544803617,148.09763062253106L241.2377609018846,148.19229782916122L241.25007271983407,148.1326924394173L241.29931999163196,148.19432230515127L241.60711544036866,148.4052546410741L241.73023361986336,148.5557416931248L241.77948089166122,148.58081208129587L241.9764699788527,148.5810980667517L242.14883543014525,148.48008047781525L242.59206087632614,148.91575222643164L242.60437269427558,148.94003991756568L242.69055541992188,148.97339635802314L242.825985417366,149.17184919176498L242.96141541481018,149.26356924301334L243.19533995585007,149.49266015019555L243.42926449688997,149.74587919873113L243.44157631483944,149.76596741922413L243.5031354045868,149.74405039700036L243.83555448922246,149.8399586299902L244.0571672123129,149.86635659275103L244.30340357130223,149.98625750029942L245.67001536369324,150.5540146420697L245.78082172523847,150.5331331882334L245.97781081242994,150.57528067108476L246.01474626627834,150.5138412114569L246.12555262782357,150.5175484860766L246.4702835304087,150.7570439956983L246.8888853406906,150.69294562392446L246.9011971586401,150.67226737028045L247.0120035201853,150.68106593860742L247.0489389740337,150.6945238120847L247.52909987406295,150.78403801235658L247.713777143305,150.69763729058687L247.8368953227997,150.76883487500535L248.0215725920417,150.7291897648926L248.04619622794064,150.7444538623015L248.1446907715364,150.65428942141426L248.34167985872787,150.2122567541853L248.35399167667737,150.21316438171095L248.58791621771726,150.1049587741199L248.8833998485045,150.0376415607812L249.01882984594866,150.09531353832494L249.1542598433928,150.18838223677562L249.49899074597792,150.27130371969702L249.64673256137155,150.2893877842192L250.16382891524924,150.4651213312743L250.2007643690976,150.4760655431134L250.70554890502584,150.6859510217492L250.80404344862157,150.74041920959422L251.80130070252852,150.55701974713594L251.813612520478,150.5657219835199L252.88474068208174,149.9607167413128L252.9832352256775,149.9795308213407L253.52495521545413,149.98476811814913L253.53726703340357,149.99301277780373L254.0420515693318,150.0373804109044" fill="none"></path></g></g></g></g></g></g><g transform="translate(59, 177)" clip-path="url(#clip_1)"><clipPath id="clip_1"><rect width="270" height="22"></rect></clipPath><g><g><line x1="0" y1="0" x2="0" y2="5" style="visibility: inherit;" fill="rgb(0, 0, 0)" stroke="rgb(204, 204, 204)" stroke-width="1px"></line><line x1="24.62363589893688" y1="0" x2="24.62363589893688" y2="5" style="visibility: inherit;" fill="rgb(0, 0, 0)" stroke="rgb(204, 204, 204)" stroke-width="1px"></line><line x1="49.24727179787376" y1="0" x2="49.24727179787376" y2="5" style="visibility: inherit;" fill="rgb(0, 0, 0)" stroke="rgb(204, 204, 204)" stroke-width="1px"></line><line x1="73.87090769681063" y1="0" x2="73.87090769681063" y2="5" style="visibility: inherit;" fill="rgb(0, 0, 0)" stroke="rgb(204, 204, 204)" stroke-width="1px"></line><line x1="98.49454359574752" y1="0" x2="98.49454359574752" y2="5" style="visibility: inherit;" fill="rgb(0, 0, 0)" stroke="rgb(204, 204, 204)" stroke-width="1px"></line><line x1="123.11817949468438" y1="0" x2="123.11817949468438" y2="5" style="visibility: inherit;" fill="rgb(0, 0, 0)" stroke="rgb(204, 204, 204)" stroke-width="1px"></line><line x1="147.74181539362127" y1="0" x2="147.74181539362127" y2="5" style="visibility: inherit;" fill="rgb(0, 0, 0)" stroke="rgb(204, 204, 204)" stroke-width="1px"></line><line x1="172.36545129255813" y1="0" x2="172.36545129255813" y2="5" style="visibility: inherit;" fill="rgb(0, 0, 0)" stroke="rgb(204, 204, 204)" stroke-width="1px"></line><line x1="196.98908719149503" y1="0" x2="196.98908719149503" y2="5" style="visibility: inherit;" fill="rgb(0, 0, 0)" stroke="rgb(204, 204, 204)" stroke-width="1px"></line><line x1="221.61272309043193" y1="0" x2="221.61272309043193" y2="5" style="visibility: inherit;" fill="rgb(0, 0, 0)" stroke="rgb(204, 204, 204)" stroke-width="1px"></line><line x1="246.23635898936877" y1="0" x2="246.23635898936877" y2="5" style="visibility: inherit;" fill="rgb(0, 0, 0)" stroke="rgb(204, 204, 204)" stroke-width="1px"></line><line x1="270.85999488830566" y1="0" x2="270.85999488830566" y2="5" style="visibility: inherit;" fill="rgb(0, 0, 0)" stroke="rgb(204, 204, 204)" stroke-width="1px"></line></g><g transform="translate(0, 8)"><text style="text-anchor: middle; visibility: hidden; font-family: &quot;Helvetica Neue&quot;, sans-serif; font-size: 12px; font-weight: 200;" x="0" y="0" dx="0em" dy="0.95em" fill="rgb(50, 49, 63)" stroke="none" stroke-width="1px">-2k</text><text style="text-anchor: middle; visibility: inherit; font-family: &quot;Helvetica Neue&quot;, sans-serif; font-size: 12px; font-weight: 200;" x="24.62363589893688" y="0" dx="0em" dy="0.95em" fill="rgb(50, 49, 63)" stroke="none" stroke-width="1px">0</text><text style="text-anchor: middle; visibility: hidden; font-family: &quot;Helvetica Neue&quot;, sans-serif; font-size: 12px; font-weight: 200;" x="49.24727179787376" y="0" dx="0em" dy="0.95em" fill="rgb(50, 49, 63)" stroke="none" stroke-width="1px">2k</text><text style="text-anchor: middle; visibility: inherit; font-family: &quot;Helvetica Neue&quot;, sans-serif; font-size: 12px; font-weight: 200;" x="73.87090769681063" y="0" dx="0em" dy="0.95em" fill="rgb(50, 49, 63)" stroke="none" stroke-width="1px">4k</text><text style="text-anchor: middle; visibility: hidden; font-family: &quot;Helvetica Neue&quot;, sans-serif; font-size: 12px; font-weight: 200;" x="98.49454359574752" y="0" dx="0em" dy="0.95em" fill="rgb(50, 49, 63)" stroke="none" stroke-width="1px">6k</text><text style="text-anchor: middle; visibility: inherit; font-family: &quot;Helvetica Neue&quot;, sans-serif; font-size: 12px; font-weight: 200;" x="123.11817949468438" y="0" dx="0em" dy="0.95em" fill="rgb(50, 49, 63)" stroke="none" stroke-width="1px">8k</text><text style="text-anchor: middle; visibility: hidden; font-family: &quot;Helvetica Neue&quot;, sans-serif; font-size: 12px; font-weight: 200;" x="147.74181539362127" y="0" dx="0em" dy="0.95em" fill="rgb(50, 49, 63)" stroke="none" stroke-width="1px">10k</text><text style="text-anchor: middle; visibility: inherit; font-family: &quot;Helvetica Neue&quot;, sans-serif; font-size: 12px; font-weight: 200;" x="172.36545129255813" y="0" dx="0em" dy="0.95em" fill="rgb(50, 49, 63)" stroke="none" stroke-width="1px">12k</text><text style="text-anchor: middle; visibility: hidden; font-family: &quot;Helvetica Neue&quot;, sans-serif; font-size: 12px; font-weight: 200;" x="196.98908719149503" y="0" dx="0em" dy="0.95em" fill="rgb(50, 49, 63)" stroke="none" stroke-width="1px">14k</text><text style="text-anchor: middle; visibility: inherit; font-family: &quot;Helvetica Neue&quot;, sans-serif; font-size: 12px; font-weight: 200;" x="221.61272309043193" y="0" dx="0em" dy="0.95em" fill="rgb(50, 49, 63)" stroke="none" stroke-width="1px">16k</text><text style="text-anchor: middle; visibility: hidden; font-family: &quot;Helvetica Neue&quot;, sans-serif; font-size: 12px; font-weight: 200;" x="246.23635898936877" y="0" dx="0em" dy="0.95em" fill="rgb(50, 49, 63)" stroke="none" stroke-width="1px">18k</text><text style="text-anchor: middle; visibility: hidden; font-family: &quot;Helvetica Neue&quot;, sans-serif; font-size: 12px; font-weight: 200;" x="270.85999488830566" y="0" dx="0em" dy="0.95em" fill="rgb(50, 49, 63)" stroke="none" stroke-width="1px">20k</text></g><line x1="0" y1="0" x2="270.85999488830566" y2="0" fill="rgb(0, 0, 0)" stroke="rgb(204, 204, 204)" stroke-width="1px"></line></g></g></g></g></svg>