<svg viewBox="0 0 330 200" xmlns="http://www.w3.org/2000/svg"><g><g><g><g><g><line x1="29.656002044677734" y1="177.7799997329712" x2="24.656002044677734" y2="177.7799997329712" style="visibility: inherit;" fill="rgb(0, 0, 0)" stroke="rgb(204, 204, 204)" stroke-width="1px"></line><line x1="29.656002044677734" y1="161.61818157542837" x2="24.656002044677734" y2="161.61818157542837" style="visibility: inherit;" fill="rgb(0, 0, 0)" stroke="rgb(204, 204, 204)" stroke-width="1px"></line><line x1="29.656002044677734" y1="145.4563634178855" x2="24.656002044677734" y2="145.4563634178855" style="visibility: inherit;" fill="rgb(0, 0, 0)" stroke="rgb(204, 204, 204)" stroke-width="1px"></line><line x1="29.656002044677734" y1="129.2945452603427" x2="24.656002044677734" y2="129.2945452603427" style="visibility: inherit;" fill="rgb(0, 0, 0)" stroke="rgb(204, 204, 204)" stroke-width="1px"></line><line x1="29.656002044677734" y1="113.13272710279985" x2="24.656002044677734" y2="113.13272710279985" style="visibility: inherit;" fill="rgb(0, 0, 0)" stroke="rgb(204, 204, 204)" stroke-width="1px"></line><line x1="29.656002044677734" y1="96.97090894525702" x2="24.656002044677734" y2="96.97090894525702" style="visibility: inherit;" fill="rgb(0, 0, 0)" stroke="rgb(204, 204, 204)" stroke-width="1px"></line><line x1="29.656002044677734" y1="80.80909078771418" x2="24.656002044677734" y2="80.80909078771418" style="visibility: inherit;" fill="rgb(0, 0, 0)" stroke="rgb(204, 204, 204)" stroke-width="1px"></line><line x1="29.656002044677734" y1="64.64727263017134" x2="24.656002044677734" y2="64.64727263017134" style="visibility: inherit;" fill="rgb(0, 0, 0)" stroke="rgb(204, 204, 204)" stroke-width="1px"></line><line x1="29.656002044677734" y1="48.485454472628504" x2="24.656002044677734" y2="48.485454472628504" style="visibility: inherit;" fill="rgb(0, 0, 0)" stroke="rgb(204, 204, 204)" stroke-width="1px"></line><line x1="29.656002044677734" y1="32.32363631508565" x2="24.656002044677734" y2="32.32363631508565" style="visibility: inherit;" fill="rgb(0, 0, 0)" stroke="rgb(204, 204, 204)" stroke-width="1px"></line><line x1="29.656002044677734" y1="16.161818157542854" x2="24.656002044677734" y2="16.161818157542854" style="visibility: inherit;" fill="rgb(0, 0, 0)" stroke="rgb(204, 204, 204)" stroke-width="1px"></line><line x1="29.656002044677734" y1="0" x2="24.656002044677734" y2="0" style="visibility: inherit;" fill="rgb(0, 0, 0)" stroke="rgb(204, 204, 204)" stroke-width="1px"></line></g><g transform="translate(19.656002044677734, 0)"><text style="text-anchor: end; visibility: hidden; font-family: &quot;Helvetica Neue&quot;, sans-serif; font-size: 12px; font-weight: 200;" x="0" y="177.7799997329712" dx="0em" dy="0.3em" fill="rgb(50, 49, 63)" stroke="none" stroke-width="1px">-1</text><text style="text-anchor: end; visibility: inherit; font-family: &quot;Helvetica Neue&quot;, sans-serif; font-size: 12px; font-weight: 200;" x="0" y="161.61818157542837" dx="0em" dy="0.3em" fill="rgb(50, 49, 63)" stroke="none" stroke-width="1px">0</text><text style="text-anchor: end; visibility: hidden; font-family: &quot;Helvetica Neue&quot;, sans-serif; font-size: 12px; font-weight: 200;" x="0" y="145.4563634178855" dx="0em" dy="0.3em" fill="rgb(50, 49, 63)" stroke="none" stroke-width="1px">1</text><text style="text-anchor: end; visibility: inherit; font-family: &quot;Helvetica Neue&quot;, sans-serif; font-size: 12px; font-weight: 200;" x="0" y="129.2945452603427" dx="0em" dy="0.3em" fill="rgb(50, 49, 63)" stroke="none" stroke-width="1px">2</text><text style="text-anchor: end; visibility: hidden; font-family: &quot;Helvetica Neue&quot;, sans-serif; font-size: 12px; font-weight: 200;" x="0" y="113.13272710279985" dx="0em" dy="0.3em" fill="rgb(50, 49, 63)" stroke="none" stroke-width="1px">3</text><text style="text-anchor: end; visibility: inherit; font-family: &quot;Helvetica Neue&quot;, sans-serif; font-size: 12px; font-weight: 200;" x="0" y="96.97090894525702" dx="0em" dy="0.3em" fill="rgb(50, 49, 63)" stroke="none" stroke-width="1px">4</text><text style="text-anchor: end; visibility: hidden; font-family: &quot;Helvetica Neue&quot;, sans-serif; font-size: 12px; font-weight: 200;" x="0" y="80.80909078771418" dx="0em" dy="0.3em" fill="rgb(50, 49, 63)" stroke="none" stroke-width="1px">5</text><text style="text-anchor: end; visibility: inherit; font-family: &quot;Helvetica Neue&quot;, sans-serif; font-size: 12px; font-weight: 200;" x="0" y="64.64727263017134" dx="0em" dy="0.3em" fill="rgb(50, 49, 63)" stroke="none" stroke-width="1px">6</text><text style="text-anchor: end; visibility: hidden; font-family: &quot;Helvetica Neue&quot;, sans-serif; font-size: 12px; font-weight: 200;" x="0" y="48.485454472628504" dx="0em" dy="0.3em" fill="rgb(50, 49, 63)" stroke="none" stroke-width="1px">7</text><text style="text-anchor: end; visibility: inherit; font-family: &quot;Helvetica Neue&quot;, sans-serif; font-size: 12px; font-weight: 200;" x="0" y="32.32363631508565" dx="0em" dy="0.3em" fill="rgb(50, 49, 63)" stroke="none" stroke-width="1px">8</text><text style="text-anchor: end; visibility: hidden; font-family: &quot;Helvetica Neue&quot;, sans-serif; font-size: 12px; font-weight: 200;" x="0" y="16.161818157542854" dx="0em" dy="0.3em" fill="rgb(50, 49, 63)" stroke="none" stroke-width="1px">9</text><text style="text-anchor: end; visibility: hidden; font-family: &quot;Helvetica Neue&quot;, sans-serif; font-size: 12px; font-weight: 200;" x="0" y="0" dx="0em" dy="0.3em" fill="rgb(50, 49, 63)" stroke="none" stroke-width="1px">10</text></g><line x1="29.656002044677734" y1="0" x2="29.656002044677734" y2="177.7799997329712" fill="rgb(0, 0, 0)" stroke="rgb(204, 204, 204)" stroke-width="1px"></line></g></g><g transform="translate(29, 0)" clip-path="url(#clip_0)"><clipPath id="clip_0"><rect width="300" height="177"></rect></clipPath><g><g><g><line x1="0" y1="0" x2="0" y2="177.7799997329712" fill="rgb(0, 0, 0)" stroke="rgb(60, 60, 60)" stroke-width="1px" opacity="0.25"></line><line x1="27.303999814120207" y1="0" x2="27.303999814120207" y2="177.7799997329712" fill="rgb(0, 0, 0)" stroke="rgb(60, 60, 60)" stroke-width="1px" opacity="0.25"></line><line x1="54.607999628240414" y1="0" x2="54.607999628240414" y2="177.7799997329712" fill="rgb(0, 0, 0)" stroke="rgb(60, 60, 60)" stroke-width="1px" opacity="0.25"></line><line x1="81.91199944236061" y1="0" x2="81.91199944236061" y2="177.7799997329712" fill="rgb(0, 0, 0)" stroke="rgb(60, 60, 60)" stroke-width="1px" opacity="0.25"></line><line x1="109.21599925648083" y1="0" x2="109.21599925648083" y2="177.7799997329712" fill="rgb(0, 0, 0)" stroke="rgb(60, 60, 60)" stroke-width="1px" opacity="0.25"></line><line x1="136.51999907060102" y1="0" x2="136.51999907060102" y2="177.7799997329712" fill="rgb(0, 0, 0)" stroke="rgb(60, 60, 60)" stroke-width="1px" opacity="0.25"></line><line x1="163.82399888472122" y1="0" x2="163.82399888472122" y2="177.7799997329712" fill="rgb(0, 0, 0)" stroke="rgb(60, 60, 60)" stroke-width="1px" opacity="0.25"></line><line x1="191.12799869884145" y1="0" x2="191.12799869884145" y2="177.7799997329712" fill="rgb(0, 0, 0)" stroke="rgb(60, 60, 60)" stroke-width="1px" opacity="0.25"></line><line x1="218.43199851296166" y1="0" x2="218.43199851296166" y2="177.7799997329712" fill="rgb(0, 0, 0)" stroke="rgb(60, 60, 60)" stroke-width="1px" opacity="0.25"></line><line x1="245.73599832708186" y1="0" x2="245.73599832708186" y2="177.7799997329712" fill="rgb(0, 0, 0)" stroke="rgb(60, 60, 60)" stroke-width="1px" opacity="0.25"></line><line x1="273.03999814120203" y1="0" x2="273.03999814120203" y2="177.7799997329712" fill="rgb(0, 0, 0)" stroke="rgb(60, 60, 60)" stroke-width="1px" opacity="0.25"></line><line x1="300.34399795532227" y1="0" x2="300.34399795532227" y2="177.7799997329712" fill="rgb(0, 0, 0)" stroke="rgb(60, 60, 60)" stroke-width="1px" opacity="0.25"></line></g><g><line x1="0" y1="177.7799997329712" x2="300.34399795532227" y2="177.7799997329712" fill="rgb(0, 0, 0)" stroke="rgb(60, 60, 60)" stroke-width="1px" opacity="0.25"></line><line x1="0" y1="161.61818157542837" x2="300.34399795532227" y2="161.61818157542837" fill="rgb(0, 0, 0)" stroke="rgb(60, 60, 60)" stroke-width="1px" opacity="0.25"></line><line x1="0" y1="145.4563634178855" x2="300.34399795532227" y2="145.4563634178855" fill="rgb(0, 0, 0)" stroke="rgb(60, 60, 60)" stroke-width="1px" opacity="0.25"></line><line x1="0" y1="129.2945452603427" x2="300.34399795532227" y2="129.2945452603427" fill="rgb(0, 0, 0)" stroke="rgb(60, 60, 60)" stroke-width="1px" opacity="0.25"></line><line x1="0" y1="113.13272710279985" x2="300.34399795532227" y2="113.13272710279985" fill="rgb(0, 0, 0)" stroke="rgb(60, 60, 60)" stroke-width="1px" opacity="0.25"></line><line x1="0" y1="96.97090894525702" x2="300.34399795532227" y2="96.97090894525702" fill="rgb(0, 0, 0)" stroke="rgb(60, 60, 60)" stroke-width="1px" opacity="0.25"></line><line x1="0" y1="80.80909078771418" x2="300.34399795532227" y2="80.80909078771418" fill="rgb(0, 0, 0)" stroke="rgb(60, 60, 60)" stroke-width="1px" opacity="0.25"></line><line x1="0" y1="64.64727263017134" x2="300.34399795532227" y2="64.64727263017134" fill="rgb(0, 0, 0)" stroke="rgb(60, 60, 60)" stroke-width="1px" opacity="0.25"></line><line x1="0" y1="48.485454472628504" x2="300.34399795532227" y2="48.485454472628504" fill="rgb(0, 0, 0)" stroke="rgb(60, 60, 60)" stroke-width="1px" opacity="0.25"></line><line x1="0" y1="32.32363631508565" x2="300.34399795532227" y2="32.32363631508565" fill="rgb(0, 0, 0)" stroke="rgb(60, 60, 60)" stroke-width="1px" opacity="0.25"></line><line x1="0" y1="16.161818157542854" x2="300.34399795532227" y2="16.161818157542854" fill="rgb(0, 0, 0)" stroke="rgb(60, 60, 60)" stroke-width="1px" opacity="0.25"></line><line x1="0" y1="0" x2="300.34399795532227" y2="0" fill="rgb(0, 0, 0)" stroke="rgb(60, 60, 60)" stroke-width="1px" opacity="0.25"></line></g></g></g><g><g><line x1="0" y1="161.61818157542837" x2="300.34399795532227" y2="161.61818157542837" fill="rgb(0, 0, 0)" stroke="rgb(153, 153, 153)" stroke-width="1.5px"></line></g></g><g><g><line x1="27.303999814120207" y1="0" x2="27.303999814120207" y2="177.7799997329712" fill="rgb(0, 0, 0)" stroke="rgb(153, 153, 153)" stroke-width="1.5px"></line></g></g><g><g><g><g><g><path style="fill: none;" stroke="rgb(255, 112, 67)" stroke-width="2px" d="M27.563387812354346,112.36767037116435L27.891035810123793,115.46883403855259L27.93199180984497,117.22521528222933L28.08216380882263,115.22202664227234L28.286943807428536,116.59334696747908L28.600939805290917,120.83060943039189L29.433711799621584,116.47668297760373L29.47466779934276,114.31940119711304L29.597535798506303,113.3649716108244L30.443959792744028,112.70476030311751L30.512219792279332,112.51188163447462L30.798911790327594,111.83573385000592L30.962735789212314,111.65591128182622L31.044647788654675,110.77811911221671L31.522467785401776,111.15375796650437L31.549771785215896,110.90594498241933L31.65898778447238,110.31051274715135L32.05489578177712,109.7062114046336L32.32793577991833,109.46874410728026L33.06514377489957,108.15781936213264L33.35183577294783,107.67381341291014L33.597571771274914,107.0434266812482L33.78869976997375,107.16216264616754L34.63512376421148,106.74859733807263L35.0037277617021,106.08380330286505L35.22215976021507,104.55938683176402L35.31772375956449,103.833341337702L35.33137575947155,103.42139677626474L35.781891756404534,102.32059940148632L35.97301975510337,101.75081354199872L36.15049575389516,101.66376710295796L36.341623752593996,101.08405476987294L36.4781437516646,100.71558461915808L37.06517974766818,99.56783083698222L37.17439574692466,99.04127057211325L37.283611746181144,98.85698242433033L37.76143174292824,98.77870925224396L37.816039742556484,98.8101410554789L37.84334374237061,98.8802333180353L38.034471741069446,98.65623680291296L38.06177574088356,98.33661645777613L38.157339740232985,98.22228588521729L38.26655573948947,98.21816212587166L38.348467738931824,98.00865434091173L38.730723736329516,97.9532242077275L40.218791726199065,97.04098724031437L40.45087572461909,95.75581944189281L40.57374372378263,94.16530846634245L40.58739572368969,93.16486119229427L40.66930772313204,92.6827004139513L40.751219722574405,92.52979764777699L40.99695572090149,92.47526015512302L41.037911720622674,92.4726456303302L41.16077971978621,92.64307490242336L41.82972771523215,92.18405170237554L41.87068371495333,91.87915866647168L41.9525957143957,91.257735253411L42.03450771383805,90.89892563221153L42.23928771244396,90.4739259901918L42.321199711886315,90.1694470364225L42.38945971142162,90.02030784130947L43.09936370658874,89.88034638609894L43.16762370612405,89.7655741174278L43.18127570603111,89.67524029276473L43.42701170435819,89.86184211191849L43.60448770314997,89.80698093907668L44.300739698410034,89.24683719925389L44.53282369683006,88.71973627218378L45.283683691718366,87.86275912517893L45.32463969143954,86.8812565628616L45.51576769013838,86.02714779174701L45.57037568976663,85.578021166942L46.22567168530551,85.47279038425337L46.32123568465494,85.46006203509504L46.621579682610246,85.33180201982752L46.78540368149498,85.00484535214025L46.92192368056557,84.86131329043863L47.33148367777738,84.87475966710146L47.48165567675504,84.96930429302087L47.59087167601152,85.13744628190338L47.67278367545388,85.24838390615093L48.1096476724798,85.28128116390822L48.50555566978455,85.22826963519353L48.723987668297504,84.81733101645786L48.94241966681047,84.54632573397777L48.99702766643871,84.35022679191817L49.229111664858735,84.19819618941271L49.706931661605836,83.65892485977696L50.28031565770235,82.90911556314065L50.4031836568659,82.49235276044702L50.48509565630826,82.1957659796964L50.55335565584356,81.89529201021269L50.648919655192984,81.66296371831397L50.77178765435652,81.3105575507679L50.96291565305536,80.59010202856437L50.990219652869484,80.18495887301899L51.03117565259066,79.96433296487086L51.63186364850131,79.94798423608913L52.24620364431901,79.59507606793618L52.491939642646095,79.22070435149277L52.61480764180964,79.0917659139901L52.79228364060142,78.71693597668563L52.833239640322596,78.51357937807339L52.94245563957908,78.49219761986299L53.48853563586148,78.34945453592377L53.720619634281505,78.32396913995986L53.857139633352105,78.3811965890873L53.89809563307328,78.39471611100484L54.17113563121449,78.07192682922445L54.63530362805453,77.45388407820697L54.79912762693925,77.14050617448062L55.11312362480164,76.77035194880366L55.618247621362855,76.51489619357955L55.65920362108404,76.36177687155393L55.6728556209911,76.27509024883967L55.782071620247585,76.22278542610434L55.836679619875824,76.13510152102872L55.93224361922524,76.01756498969861L56.655799614299426,75.78454880810253L56.75136361364885,75.61306207365756L56.874231612812395,75.34865604404472L57.17457561076771,75.13500611615679L57.22918361039595,75.02445800614102L57.338399609652434,74.89965796268476L57.44761560890891,74.58829457632889L57.50222360853716,74.39863128424632L57.77526360667836,74.40647666270976L57.84352360621366,74.46450092295525L57.85717560612071,74.50726556169616L57.92543560565602,74.4590308087441L58.13021560426192,74.33012976765045L58.19847560379721,74.29500873632576L58.45786360203136,74.07094236457597L58.67629560054432,73.9034660796589L58.81281559961492,73.72886482371534L58.97663959849964,73.57024449547866L59.33159159608321,73.48001990713018L59.45445959524675,73.34323388832061L59.932279591993854,73.01014127056769L59.945931591900916,72.81541518321785L59.97323559171503,72.71728796479807L60.57392358762568,72.51184527973496L60.68313958688216,72.4571926731051L60.806007586045695,72.4781651225102L60.833311585859825,72.48586880124765L60.90157158539512,72.46167773900491L61.24287158307162,72.40831281436688L61.25652358297868,72.3826378960236L61.39304358204928,72.18387549532801L61.420347581863396,72.08554289424579L61.4886075813987,72.06568338737344L61.67973558009754,71.85437443299745L61.76164757953991,71.7677248011119L61.88451557870344,71.70137308525952L62.08929557730935,71.7233624651457L62.171207576751705,71.75787242542896L62.89476357182589,71.79490705126867L63.97327156448364,71.67687776560119L64.04153156401894,71.55074562186282L64.21900756281073,71.48419089726269L64.72413155937194,71.28948885087928L64.91525955807079,71.17480079759547L65.39307955481789,71.12196519636682L66.52619554710388,70.98124073710784L66.85384354487333,70.78430576521541L67.18149154264276,70.6847576547826L67.82313553827458,70.37242947950125L67.93235153753108,70.17912318761978L68.42382353418523,69.97129576735963L68.68321153241938,69.79934271723543L68.79242753167586,69.73844288506938L68.83338353139703,69.67095654173829L69.62519952600653,69.58406818935882L70.3897115208019,69.3919163134231L70.47162352024425,69.13733382218729L70.6900555187572,68.90724750227788L70.9357915170843,68.76372713859085L70.94944351699135,68.67822527956962L71.4136115138314,68.53381972655535L71.550131512902,68.26637752146378L71.59108751262318,68.09800527252571L71.60473951253024,67.99301150579936L71.63204351234435,67.93493511075746L71.64569551225142,67.90344933190491L71.98699550992792,67.68919668414782L72.43751150686091,67.344901617216L72.9835915031433,67.1169712532392L73.40680350026217,66.7284676121744L73.7754074977528,66.3615765424465L73.8436674972881,66.1356126620737L74.14401149524342,66.03221074412996L74.40339949347756,65.92018487476923L74.60817949208347,65.82577754293253L74.82661149059642,65.6976933748865L75.22251948790117,65.41627081854952L75.26347548762234,65.2514370240657L75.60477548529886,64.88027339148883L76.46485147944364,64.28783934283034L76.71058747777072,63.856302880937534L76.73789147758484,63.60150555227423L76.76519547739896,63.4510901701954L76.84710747684132,63.36261036607749L77.22936347423901,63.36897085228357L77.42049147293784,63.26599894656351L78.18500346773321,62.96786499560295L78.23961146736146,62.709434477135844L78.38978346633911,62.40397811267874L79.09968746150624,62.130978410308586L79.3863794595545,61.8948664378665L79.45463945908979,61.73156541196548L79.48194345890391,61.62082890585786L79.61846345797453,61.575216280240966L80.0689794549075,61.49575547270753L80.23280345379222,61.33070506618914L80.94270744895935,61.254236533989044L81.09287944793702,61.047781625487005L81.32496344635703,60.86933701999244L81.70721944375471,60.75535285253129L82.225995440223,60.72780401327313L82.37616743920066,60.74795174837608L82.41712343892185,60.77271921445043L83.19528743362427,60.545023568124876L83.26354743315956,60.39942958455113L83.41371943213723,60.324443757201834L84.41031542535262,60.19563884643115L84.56048742433028,60.037874800180646L84.57413942423734,59.945220076845146L84.60144342405147,59.90299657522401L84.66970342358675,59.86535048127776L84.68335542349382,59.84353348045417L85.02465542117032,59.8042224957254L85.09291542070562,59.79022594247971L85.1338714204268,59.78450680920379L85.24308741968328,59.78896067676615L85.51612741782448,59.729265385425464L85.55708341754567,59.68159861097398L85.77551541605864,59.58808777112927L86.07585941401396,59.474598255404004L86.25333541280574,59.380647511151054L86.28063941261986,59.31494904989273L86.96323940797286,59.04703060429317L87.2908874057423,58.849177096415175L87.38645140509172,58.704059250123166L87.46836340453407,58.659007765237945L87.79601140230352,58.72447095271737L87.83696740202471,58.772580577741124L88.64243539654125,58.47963909324564L88.87451939496127,58.283316195252226L89.16121139300954,58.06273550259779L89.81650738854842,57.710247789503626L89.8574633882696,57.478104675685714L90.07589538678256,57.32430890480944L90.49910738390142,57.29704394398935L90.8813633812991,57.20136909889193L90.99057938055559,57.141393284938175L91.04518738018383,57.083974324571614L91.15440337944031,56.97239265886961L91.65952737600152,56.83029241340371L91.72778737553683,56.75079060435017L92.16465137256274,56.718542703889625L92.27386737181924,56.65429557161032L92.39673537098278,56.62268319214019L92.68342736903104,56.49195221482131L92.84725136791576,56.41180585574412L92.87455536772988,56.37266997509879L93.39333136419816,56.37119220380856L93.55715536308288,56.26292548013282L93.81654336131702,56.21423552577576L94.13053935917941,56.13191105567992L95.0588753528595,56.03971724732175L95.18174335202303,56.00386155610808L95.22269935174421,55.97741902851939L96.26025134468078,55.89213902579225L96.2875553444949,55.85087240658737L96.30120734440197,55.831627246138495L97.02476333947615,55.802573938527956L97.29780333761735,55.70697590342816L97.40701933687384,55.607348167081994L98.06231533241272,55.448132299099754L98.30805133073981,55.390284751797836L98.41726732999628,55.38601711741116L98.84047932711515,55.277599291232804L99.52307932246815,55.28233916160528L100.06915931875055,55.30460976878604L100.28759131726352,55.22453168967573L100.47871931596235,55.15415124453966L101.31149131029302,54.977434337134895L101.61183530824835,54.779304689920096L101.68009530778365,54.678213631550534L102.33539130332252,54.54465189942873L102.60843130146372,54.401305692423335L102.63573530127785,54.32797987585484L103.07259929830379,54.25047936547567L103.40024729607322,54.18087788865634L103.59137529477205,54.12548872992173L104.17841129077564,53.92716540401018L104.56066728817333,53.738867896687694L104.58797128798744,53.628793222384616L104.64257928761569,53.56463498257487L104.8473592862216,53.56518453117856L105.40709128241106,53.40981409682007L105.44804728213222,53.31309922527883L106.17160327720642,53.073152437220955L106.59481527432528,52.842094122651346L106.60846727423235,52.70472917424637L106.84055127265236,52.652982295861094L106.88150727237355,52.62788979487523L107.34567526921359,52.622596958717196L107.37297926902771,52.61577143236519L107.46854326837713,52.60134316701786L107.9600152650313,52.50271679696159L108.24670726307956,52.45655580575769L108.57435526084899,52.42622356907427L108.6426152603843,52.418002675050076L108.72452725982666,52.399087364442266L109.09313125731728,52.349162244158904L109.36617125545848,52.26962935952173L109.4344312549938,52.19113581154987L109.6392112535997,52.14033745353261L109.70747125313498,52.10920184019862L110.29450724913858,52.008738505851554L110.63580724681506,51.93246477876863L110.6631112466292,51.869481015040094L110.88154324514215,51.80096009632389L111.01806324421277,51.687797416959214L111.70066323956577,51.54104941668375L111.9600512377999,51.47826270525614L112.13752723659168,51.30220252102298L112.21943923603405,51.18356699276414L112.39691523482583,51.10875434688475L113.17507922952825,51.04953873148L113.48907522739063,51.03493111895013L113.55733522692593,51.033302821771144L113.88498322469538,51.03041461771424L114.03515522367304,51.00726055377453L114.1853272226507,50.94572927229265L114.36280322144248,50.87910943873146L114.69045121921192,50.8282497170668L115.98739121038264,50.62005154180558L116.00104321028971,50.495820061394255L116.05565120991794,50.422233703400025L116.32869120805914,50.38538462054001L116.3423432079662,50.366468767398985L116.46521120712974,50.345501474323214L117.06589920304039,50.24573837807762L117.16146320238981,50.201376862012296L117.20241920211097,50.16470443883284L117.46180720034513,50.21081460454053L118.19901519532637,50.102537065974644L118.32188319448991,50.04520928058888L118.34918719430402,50.00899386227317L118.40379519393227,49.99004205386494L118.48570719337464,49.979789960670104L118.52666319309581,49.93112626231496L118.62222719244524,49.91561488576623L118.7314431917017,49.859011387780555L118.77239919142289,49.83180639680039L118.93622319030763,49.839262749683016L119.30482718779824,49.79914643162725L119.35943518742648,49.75002108774197L119.50960718640415,49.729957126916105L120.5881151790619,49.70142363915329L120.77924317776073,49.72809835975934L120.88845917701722,49.73029304477157L121.07958717571606,49.70426083182764L121.09323917562311,49.68974508280053L121.98061916958201,49.633735878705636L122.37652716688676,49.57593485478415L122.41748316660795,49.55429989748285L122.7724351641915,49.468846475728924L123.07277916214683,49.403009032891845L123.41407915982333,49.34396890783398L124.12398315499046,49.2798425377124L124.32876315359636,49.23034017611357L124.43797915285283,49.169485779437L124.4516311527599,49.126283851307704L124.75197515071523,49.13433627343906L124.99771114904232,49.03780802692722L125.5437911453247,48.93472141626563L125.83048314337297,48.86770297510057L126.25369514049184,48.83565469392536L126.97725113556602,48.76421227079203L127.12742313454369,48.72143313033297L127.37315913287075,48.669088633740785L127.50967913194137,48.6537578104367L127.52333113184842,48.63614992315635L127.78271913008257,48.540137986673415L128.09671512794495,48.503209054344666L128.3561031261791,48.463123164368L128.88853112255444,48.364561569750066L128.92948712227562,48.31461390968789L129.02505112162504,48.293776040537864L129.16157112069564,48.29828631084078L129.20252712041682,48.2917815979587L129.2707871199521,48.294281376490375L129.4073071190227,48.323262820314255L129.85782311595568,48.34310237123901L130.11721111418984,48.33935871162518L131.1957191068476,48.24923004022261L131.6735391035947,48.158559029521996L131.90562310201472,48.08748251974808L132.1104031006206,48.03307332765763L132.26057509959827,47.98688893580348L132.34248709904065,47.950210952779116L132.68378709671714,47.8745788675794L132.75204709625245,47.84401161601835L132.82030709578774,47.81326987606511L133.0660430941148,47.806258277746366L133.21621509309247,47.796955744297065L133.25717109281365,47.79007027504679L133.53021109095488,47.75227367670536L133.63942709021134,47.74011362456727L133.77594708928194,47.750542670800144L134.25376708602906,47.702943606491544L134.32202708556437,47.68743290758019L135.154799079895,47.643749085719264L135.16845107980208,47.61993399003401L135.60531507682802,47.579750906338944L136.30156707208806,47.470603840756695L136.41078307134455,47.41643190741783L136.88860306809164,47.372384327362965L137.0387750670693,47.34209941898703L137.20259906595405,47.31912266598806L137.43468306437407,47.27983716354339L138.25380305879764,47.19363314469129L138.58145105656712,47.06083160488967L138.99101105377892,46.94656674280881L139.04561905340714,46.85950592725598L139.23674705210598,46.79428235069403L139.468831050526,46.78714274032836L139.55074304996836,46.78644714632259L140.1241270460649,46.711353267689674L140.34255904457785,46.66360272872751L140.49273104355552,46.61227971924092L140.61559904271905,46.590178908087154L140.72481504197555,46.57175194662676L140.99785504011675,46.45759438843015L141.06611503965206,46.390268167317146L141.09341903946617,46.35844212430041L141.17533103890852,46.34735823352753L141.44837103704972,46.38001441443831L141.4893270367709,46.39453720950419L141.55758703630622,46.41016520808594L141.68045503546975,46.40333357983019L142.90913502710515,46.31911725250541L142.92278702701222,46.26758560390314L142.95009102682633,46.238260330407115L143.33234702422402,46.12870438153553L143.40060702375933,46.06825750924551L143.46886702329462,46.00827785608871L143.67364702190054,45.962508904028084L144.2606830179041,45.88892225716239L144.35624701725354,45.814276970471525L144.61563501548767,42.50505456582252L144.7385030146512,19.676747355483457L145.18901901158418,21.98330086854031L145.20267101149125,23.969651332625148L145.3255390106548,26.4214464343178L145.84431500712307,30.903727481399983L145.95353100637956,33.26953175549883L146.02179100591485,35.79161586797076L146.4586550029408,37.82215191505193L147.1002989985726,40.60871441896356L147.15490699820086,42.636762600402136L147.46890299606324,45.49842938077376L147.71463899439033,45.25479543122296L147.7555949941115,45.40921079780469L148.04228699215975,44.96481483000335L148.1924589911374,45.01813493552635L148.52010698890686,45.05543835685049L148.61567098825628,44.649687346018L148.8477549866763,44.90433916131121L148.87505898649042,44.75160540131449L148.9160149862116,43.47830975158348L149.20270698425986,41.29984651500919L149.23001098407397,39.87299637101282L149.29827098360929,39.19849588753044L149.44844298258695,38.61325258179869L149.61226698147166,36.33630312855993L149.8443509798917,34.24633376953798L150.09008697821878,33.41597225888515L150.17199897766113,33.29562934415222L150.30851897673173,33.54352616475853L150.56790697496587,33.80774236648199L150.9365109724565,33.01950633839991L151.04572697171295,32.44331537436577L151.33241896976125,32.69393405601929L151.61911096780952,31.653025924842893L152.3017109631625,31.87046230222441L152.39727496251194,32.10477458716261L153.1344829574932,32.87718544731936L153.27100295656376,33.1594878364466L153.3665669559132,33.445608171752895L153.73517095340384,33.931640017267625L154.02186295145208,34.4192029206134L154.1583829505227,34.509875149382566L154.37681494903566,34.585261895800585L154.4996829481992,34.76280008747344L154.93654694522513,34.52613775817224L155.22323894327337,34.486511160456104L155.81027493927695,33.773158786152976L155.85123093899813,33.3387170117106L156.12427093713936,33.21098078054686L156.21983493648875,33.07995850403026L156.5747869340723,32.77251592870286L157.5304269275665,32.76265626883651L157.65329492673007,32.76830030607914L157.7488589260795,32.871862701299506L157.92633492487127,32.92444400968412L158.2266789228266,33.079488804356004L158.37685092180425,33.36474183485103L158.52702292078192,33.573097820198115L158.74545491929487,33.83247674684239L159.07310291706435,34.19349921845952L159.15501491650667,34.46436685173893L159.46901091436905,34.49692099811662L159.71474691269614,34.384245986030834L160.5475189070268,34.60056897698237L160.67038690619034,34.49126226504322L161.271074902101,34.06690109060531L161.65333089949868,33.92482475636791L161.69428689921986,33.817257688644304L162.24036689550226,33.83692543800984L162.5680148932717,34.008504560289566L163.45539488723063,34.00217616011716L164.52025087998132,34.11558349779233L164.5885108795166,34.1352060712465L164.62946687923778,33.954207837501855L164.82059487793663,33.694544997488094L164.98441887682134,33.45506026662798L165.29841487468374,33.255543140492705L165.38032687412607,33.11725081833066L165.58510687273198,33.29145242798742L165.66701887217437,33.39164230962325L165.80353887124494,33.406941077400575L166.13118686901439,33.3149270998739L166.3632708674344,33.304983937399896L166.66361486538975,33.18929826878181L167.182390861858,33.02060793778958L167.33256286083568,33.01053146384709L167.60560285897688,32.88660919006844L167.7011668583263,32.82259802320391L167.76942685786162,32.63825690662017L168.8342828506123,32.64608349807486L169.24384284782408,32.83065970482201L169.28479884754526,33.004065889855184L169.48957884615118,33.27387144318041L169.57149084559356,33.525076835366264L169.63975084512882,33.688898132306434L170.03565884243358,33.670001945802795L170.22678684113245,33.68506072759928L170.3769588401101,33.667616272179714L170.5134788391807,33.64441220409407L170.56808683880894,33.617163587572946L170.581738838716,33.56306154386283L170.96399483611367,33.57587787216744L171.0868628352772,33.439843492785855L171.40085883313958,33.33996141138235L171.41451083304665,33.29506611089582L171.5783348319314,33.22242905683498L172.00154682905023,33.097333046181205L172.1244148282138,32.93905388888578L172.3564988266338,32.88364568490152L172.4247588261691,32.86557342886448L172.54762682533266,32.7192673263113L172.65684282458912,32.60726966758176L172.76605882384558,32.59116861754427L172.9981428222656,32.48114089207206L173.40770281947744,32.266825469114195L173.544222818548,32.19728076051115L174.04934681510926,31.97136726029416L174.1722148142728,31.770757336503465L174.18586681417986,31.6616861098843L174.4862108121352,31.795991125715744L174.5817748114846,31.7600695126701L174.96403080888228,31.858054467609065L175.10055080795286,31.90509448483499L175.16881080748817,31.94765885353638L175.31898280646584,32.11356467557118L175.4418508056294,32.27491474343404L175.63297880432822,32.332405938288474L176.1517548007965,32.27107426221767L176.1927108005177,32.22015068176174L176.6568787973577,31.981741485360658L176.71148679698595,31.837259465585674L177.02548279484836,31.700280355530765L177.1073947942907,31.565626660051123L177.13469879410482,31.4759133341841L177.5988667909449,31.319717621421518L177.68077879038722,31.2954948281145L177.7626907898296,31.375696296863254L177.7899947896437,31.448058918909737L177.94016678862138,31.452968375906806L178.0084267881567,31.47521743017529L178.19955478685554,31.463813406657835L178.32242278601908,31.508481609119286L178.54085478453203,31.576928756202733L178.88215478220852,31.614686308235093L179.14154278044268,31.612501069955044L179.2644107796062,31.69055511754715L179.5101467779333,31.765433242665637L179.87875077542392,31.566869957247064L180.19274677328627,31.419704785165777L180.2200507731004,31.340104841699542L180.23370277300748,31.299909630441277L181.039170767524,31.300619942697125L181.08012676724522,31.333980865385996L181.20299476640875,31.369854427476042L181.72177076287704,31.219836805843556L182.1449827599959,31.21579440012664L182.41802275813708,31.11066215101468L182.67741075637124,31.08480238170847L183.10062275349011,30.966610540664647L183.20983875274658,30.864819892317L183.23714275256071,30.802062391599975L183.70131074940076,30.710443507345246L183.93339474782076,30.634399371592735L184.20643474596199,30.51681215804942L184.58869074335965,30.330692324520612L184.62964674308083,30.244464387849433L184.72521074243025,30.171938421887376L184.75251474224436,30.147726222380356L184.9845987406644,30.143932593095286L185.09381473992087,30.157186666050194L185.21668273908443,30.150749429502554L185.42146273769032,30.17979716193193L185.6398947362033,30.285746379814356L186.17232273257864,30.49091924285068L186.33614673146334,30.690379511988226L186.36345073127748,30.829938586510195L186.49997073034805,30.875406359522344L186.65014272932572,30.84832806386649L186.8412707280246,30.85467054178355L186.86857472783868,30.83194081683709L187.1006587262587,30.85427101742647L187.36004672449286,30.825283082851087L187.85151872114702,30.857569861104793L188.22012271863764,30.90756469675992L188.30203471808,30.97939278109024L188.42490271724353,31.041897820912624L188.83446271445533,30.910491645258446L189.14845871231773,30.78159232096138L189.1621107122248,30.703722515368753L189.40784671055187,30.69824611673681L189.79010270794953,30.744756956199353L189.85836270748484,30.765758386201156L190.22696670497547,30.794351888054734L190.40444270376724,30.850626464588686L190.43174670358138,30.858873264130665L190.44539870348842,30.862206049835265L190.71843870162965,30.91781868615442L190.78669870116494,30.989503261601755L190.97782669986378,30.923315198884296L191.11434669893438,30.878466712707535L191.18260669846967,30.844708034524928L191.27817069781912,30.85946525029783L191.53755869605322,30.87090898238995L191.701382694938,30.813311426687022L192.17920269168508,30.84806257028515L193.0256266859228,30.83695879496085L193.2304066845287,30.8212212900782L193.38057868350637,30.85722280327687L193.43518668313462,30.85530946923251L193.65361868164757,30.932059331210013L194.10413467858052,31.007794899957673L194.22700267774408,31.016713333657293L194.82769067365473,30.89876567205519L195.10073067179593,30.791122748616743L195.1416866715171,30.718294062853346L195.3601186700301,30.67844396387173L195.57855066854304,30.601543629266075L196.54784266194432,30.576420746503146L196.67071066110785,30.567136181293108L197.09392265822672,30.608180854722463L197.35331065646085,30.46032261750753L197.39426665618205,30.39911699548304L197.69461065413736,30.335926228259552L198.58199064809625,30.2683939340522L198.69120664735274,30.151086439107274L198.97789864540098,30.094882004152964L199.27824264335632,29.991239306969447L199.67415064066108,29.90246915500788L200.30214263638584,29.913066664842518L200.68439863378353,29.80602783135285L201.48986662830004,29.843130322205724L201.70829862681302,29.924719963129377L202.1315106239319,29.909296266146242L202.24072662318838,29.892310831537372L202.52741862123662,29.810621232006667L202.8687186189131,29.847433838930698L202.93697861844842,29.896864261792047L203.1144546172402,29.93194176529539L203.29193061603198,29.943555443536866L203.37384261547436,29.964833182625767L203.94722661157087,29.976206480855268L203.96087861147794,29.989904707246893L204.23391860961917,30.105041310656986L205.0257346042286,30.052267218059853L205.25781860264863,30.103438985632664L205.62642260013925,30.06927134509084L205.64007460004632,30.05394956602251L205.7492905993028,30.07103893525968L205.91311459818755,30.05311739010733L206.07693859707226,30.06410311460573L206.28171859567814,30.075898015538968L206.33632659530642,30.113813508354127L206.56841059372644,30.09120510133593L206.8141465920535,29.916727179503596L207.05988259038057,29.832712490720894L207.26466258898648,29.6516189928941L207.40118258805708,29.541618870929L207.44213858777826,29.44973710195478L207.60596258666297,29.365193659760592L207.61961458657004,29.306243158476747L207.67422258619828,29.277389520987867L208.05647858359598,29.29095904746029L208.41143058117953,29.338052777167974L208.8619465781125,29.36340518490215L209.06672657671842,29.41201375820455L209.55819857337258,29.339014638007285L210.2817545684468,29.19283511815783L210.336362568075,29.116563934523555L210.6094025662162,29.08971002877459L211.27835056166214,29.07888746498037L211.63330255924572,29.012954805893543L211.67425855896687,28.92766759307301L212.24764255506344,28.900459570181965L212.94389455032348,28.806933566655175L213.1486745489294,28.77486858276137L213.25789054818586,28.723317546769408L213.33980254762824,28.652331332610743L214.0224025429812,28.672255181858162L214.06335854270242,28.6947027372959L214.1043145424236,28.72220336670668L214.28179054121537,28.78066439742176L214.650394538706,28.75509967239168L214.99169453638248,28.720210847529273L215.08725853573193,28.72436393188545L215.38760253368727,28.65043141349554L215.6742945317355,28.62388329339828L215.8517705305273,28.638201110137288L216.3295905272744,28.720472635447095L216.64358652513678,28.638676142260636L216.68454252485796,28.5965403114906L216.86201852364974,28.515876423002794L216.91662652327798,28.40091811187176L217.58557451872392,28.461727684074674L217.59922651863099,28.50021713181124L217.85861451686512,28.592564990273928L217.89957051658632,28.639163571170684L218.02243851574985,28.636808213223475L218.0360905156569,28.631486233535156L218.11800251509928,28.58304631741322L218.39104251324048,28.541886158318874L218.4183465130546,28.530531651642832L218.66408251138168,28.52964991270511L219.5378105054335,28.586531624760482L219.61972250487588,28.60048180722535L220.0838905017159,28.624881552022828L220.6436224979054,28.63979883489725L221.0258784953031,28.529710666648185L221.46274249232897,28.572942887105512L221.54465449177135,28.582513495621896L221.85865048963373,28.45394601249481L222.36377448619496,28.364684652219978L222.37742648610202,28.31085656530354L222.45933848554438,28.250711304409748L222.58220648470794,28.161640037901122L222.81429048312796,28.05836360788814L222.97811448201267,27.976853925280352L223.06002648145503,27.937054181625513L223.33306647959623,27.8754245442573L223.38767447922447,27.85215826527815L223.71532247699392,27.865344068778256L223.86549447597156,27.856418268549447L224.5480944713246,27.78146334490765L224.875742469094,27.71846938147783L225.18973846695638,27.65178266838032L225.68121046361057,27.55010586649999L226.00885846138,27.421078644421755L226.03616246119412,27.334858342238277L226.0498144611012,27.280425783901393L226.8689344555248,27.19357375103371L227.0737144541307,27.161918812077374L227.15562645357303,27.163678061196805L227.56518645078486,27.25165122556146L227.68805444994837,27.334459864180843L227.74266244957664,27.348491439257288L227.824574449019,27.30425303228151L228.04300644753198,27.25427589430916L228.63004244353556,27.223451138293655L228.79386644242027,27.17871083947233L229.0805584404685,27.12656449735357L229.09421044037558,27.09678717694885L229.14881844000382,27.07782337121111L229.20342643963207,27.07215410403964L229.25803443926029,27.043172944914886L229.4901184376803,27.061505675223117L229.5720304371227,27.08312186418445L229.62663843675094,27.07656624869429L229.65394243656507,27.084858558952845L229.99524243424156,27.013600698679255L230.36384643173218,26.859255059720226L230.62323442996635,26.840285354900715L231.06009842699223,26.79037075480082L231.0737504268993,26.761642713122853L231.08740242680636,26.749683337282477L231.41505042457578,26.754943009638907L231.60617842327466,26.744800380982696L232.30243041853473,26.759275893707212L232.46625441741944,26.80465057048849L233.32633041156421,26.84281252004004L233.89971440766075,26.85548771463317L233.954322407289,26.8646341424774L234.55501040319962,26.861163899138546L234.58231440301375,26.85695474383337L234.81439840143378,26.864484764190507L235.319522397995,26.815069218802023L235.72908239520677,26.735561560483717L235.82464639455623,26.673522772371257L235.96116639362683,26.64571382763131L236.2069023919539,26.626192448384813L236.52089838981627,26.572648437899716L236.7529823882363,26.539991820594253L236.83489438767867,26.52820304956225L236.93045838702807,26.534496036701057L237.57210238265992,26.559548087247606L237.64036238219524,26.57704541531686L237.8587943807082,26.61316656769077L237.94070638015054,26.614456961283054L238.07722637922112,26.61188963499896L238.3229623775482,26.61779685440729L238.41852637689766,26.64184062352706L238.55504637596823,26.682863749139102L238.58235037578237,26.71655902943874L238.75982637457415,26.708884632164143L239.0192143728083,26.572664357344905L239.29225437094948,26.447350080119804L239.44242636992712,26.37560788537826L240.08407036555897,26.346255576242044L240.24789436444368,26.350691104567773L240.39806636342138,26.400417896956327L241.2717943574732,26.391949309222355L241.69500635459207,26.330684284790266L242.2001303511533,26.270330879990894L242.52777834892274,26.214587342999977L242.65064634808627,26.170469182829862L242.73255834752865,26.170064939853546L242.93733834613454,26.14718978204678L243.16942234455453,26.1273980869191L243.36055034325338,26.151639071264157L243.40150634297456,26.166380949690478L243.66089434120872,26.102568672042537L243.92028233944288,26.048048217071482L245.01244233200768,26.06487368246772L245.46295832894066,26.051984930756305L245.57217432819712,26.03632934073545L245.6540863276395,26.031048204706593L245.98173432540892,26.015740156957634L245.995386325316,26.00973042915018L246.09095032466544,25.97917630939739L246.51416232178428,25.968248296014053L246.88276631927488,25.92100087525219L247.04659031815964,25.904249247423678L247.27867431657964,25.918723612764012L247.33328231620789,25.93324671837081L248.13875031072442,25.866750765868858L248.31622630951622,25.850441419263433L248.4527463085868,25.834391923037202L248.50735430821504,25.82920736648026L248.58926630765743,25.791232175728084L248.84865430589156,25.75771953610203L249.1489983038469,25.705336898136807L249.32647430263867,25.62671853507743L250.1319422971552,25.5012859054209L250.43228629511052,25.422937540205965L250.48689429473876,25.386341618789714L250.5141982945529,25.366880989903052L250.52785029445997,25.35463741009059L250.66437029353054,25.35885726060991L250.93741029167177,25.373645676695872L251.29236228925532,25.35869622216626L251.75653028609534,25.25271642954914L251.8793982852589,25.18041089846332L252.64391028005426,25.137570121314894L253.3811182750355,25.151717794525638L253.73607027261906,25.096618068192043L253.80433027215437,25.055284474469772L254.07737027029557,25.011778966868434L254.77362226555564,24.96234637767472L254.8282302651839,24.946244196491392L255.26509426220983,24.891712239378023L255.93404225765576,24.824973246768423L256.20708225579693,24.6588197779557L256.6439462528229,24.585163523572106L256.7804662518935,24.531573938547467L256.7941182518005,24.501676666966034L257.135418249477,24.463060074456166L257.20367824901234,24.45487782797312L257.25828624864056,24.45070214416137L257.4494142473394,24.444189325044647L258.02279824343594,24.45257513081512L258.36409824111246,24.448623853254617L259.38799823414195,24.48540855360622L260.302682227915,24.488391777299313L260.72589422503387,24.545243508834602L261.1900622218739,24.65233871041025L261.20371422178096,24.71191641089146L261.5040582197363,24.714925583664126L262.02283421620456,50.60554773975417L262.0910942157399,49.815306516094026L262.1593542152752,40.332170727023055L262.29587421434576,26.31901825403608L262.66447821183635,16.464933071799095L262.67813021174345,10.75741468476096L262.77369421109285,7.4410173775176816L262.9648222097917,4.704962477624434L263.11499420876936,3.21522266282102L263.3607302070965,4.5131601330070055L263.38803420691056,5.095497930022162L263.70203020477294,8.242287754880635L263.71568220468004,10.240522235900698L263.7293342045871,11.589901051977904L263.77029020430825,13.069049217416335L264.0296782025424,14.43781558663187L264.5074981992895,13.870372613311048L264.6849741980813,14.300735000324238L264.7395821977095,13.408419192294758L264.91705819650133,11.691405139965866L264.93071019640837,10.710148748733843L265.06723019547894,10.394570726045458L265.2174021944566,11.555683696559043L265.3539221935272,12.047461913273594L265.46313819278373,12.363503004592303L265.5996581918543,12.78039089673527L266.26860618730024,14.630293567306836L266.3778221865567,15.351904923567758L266.43243018618494,16.18152506328329L266.81468618358264,17.549200794876015L267.0058141822815,17.40607373225518L267.0877261817239,17.69354619698612L267.2788541804227,17.969155718122522L267.3061581802368,18.17094569444373L267.4017221795862,18.582939065536124L267.4563301792145,18.547051728464936L267.49728617893567,18.562738906383174L267.5109381788427,18.491109076109808L267.565546178471,18.56877884469577L267.90684617614744,18.415552805867833L268.04336617521807,18.39595399456846L268.0979741748463,18.564577427078007L268.31640617335927,18.28808094798859L268.5075341720581,17.898390855754144L268.9990061687123,18.360583565947422L269.01265816861934,18.58292370816494L269.10822216796873,18.835477305867528L269.2583941669464,19.291899293493316L269.40856616592407,19.8190392198359L269.6679541641582,20.327074605518078L269.92734216239234,21.280682995959353L269.94099416229943,21.852262332010554L270.00925416183475,21.966066296761795L270.37785815932534,21.70349083739211L270.62359415765246,21.33812133986453L270.8966341557936,21.153893568297377L272.4120061454773,21.529782354344604L272.53487414464087,21.58500691595711L272.7533061431538,21.778629128685594L272.79426214287497,21.68502385195697L272.9171301420385,21.611302070001557L273.2993861394362,22.1355908436245L273.76355413627624,23.013556467292517L273.7772061361833,23.470643919323493L273.90007413534687,23.64722658949691L273.941030135068,23.760253892118584L274.47345813144335,23.868335484563033L274.6782381300493,23.567289518149437L274.81475812911987,23.334867720489115L275.01953812772575,22.751621857608598L275.0468421275399,22.46765478494939L275.1560581267964,22.033531553163556L275.3744901253093,21.255830604315406L275.3881421252164,20.78556637559373L275.64753012345057,20.291576207625297L275.97517812122,19.914583867413455L276.12535012019765,19.812636632738617L276.2755221191753,19.846474707418224L276.657778116573,20.104959437327437L276.8216021154577,20.283533691014696L277.39498611155426,20.892874387270354L277.43594211127544,21.255556479200294L277.9956741074649,21.819325709063577L278.10489010672137,22.155534220611912L279.2107020991932,21.984385349052644L279.22435409910025,21.881134988880973L280.4120780910145,22.21831652696693L280.521294090271,22.473406106727197L281.1219820861817,22.830270502415118L281.1356340860887,23.058489053663862L281.69536608227816,23.136924345988916" fill="none"></path></g></g></g></g><g opacity="0.2"><g><g><g><path style="fill: none;" stroke="rgb(255, 112, 67)" stroke-width="2px" d="M27.563387812354346,112.36767037116435L27.891035810123793,117.32953223898551L27.93199180984497,118.911341276159L28.08216380882263,112.86627680168291L28.286943807428536,118.383742784069L28.600939805290917,126.69226883108692L29.433711799621584,110.25049848729341L29.47466779934276,111.17406365125252L29.597535798506303,111.95737335945152L30.443959792744028,111.72442345483941L30.512219792279332,112.22431302683901L30.798911790327594,110.82519173968728L30.962735789212314,111.38676458144175L31.044647788654675,109.46315054404299L31.522467785401776,111.71677469856358L31.549771785215896,110.53440028320793L31.65898778447238,109.41761636121608L32.05489578177712,108.79991282290243L32.32793577991833,109.11257933700286L33.06514377489957,106.1915520681255L33.35183577294783,106.94783103311295L33.597571771274914,106.09786732689922L33.78869976997375,107.34026424931207L34.63512376421148,106.12825427500559L35.0037277617021,105.08661697512514L35.22215976021507,102.27276862605238L35.31772375956449,102.7442749543604L35.33137575947155,102.8034805665408L35.781891756404534,100.66940435330862L35.97301975510337,100.89613506767935L36.15049575389516,101.53319747326239L36.341623752593996,100.2144863855887L36.4781437516646,100.16287943707377L37.06517974766818,97.84620024592971L37.17439574692466,98.25143019743965L37.283611746181144,98.58055020740798L37.76143174292824,98.66129949532547L37.816039742556484,98.8572887600395L37.84334374237061,98.98537171147953L38.034471741069446,98.32024203097804L38.06177574088356,97.85718594071174L38.157339740232985,98.0507900265166L38.26655573948947,98.21197648685617L38.348467738931824,97.69439266356258L38.730723736329516,97.87007900796561L40.218791726199065,95.67263178933683L40.45087572461909,93.8280677443807L40.57374372378263,91.77954200310614L40.58739572368969,91.6641902812557L40.66930772313204,91.95945924644664L40.751219722574405,92.30044349851737L40.99695572090149,92.39345391614249L41.037911720622674,92.46872384314099L41.16077971978621,92.89871881056263L41.82972771523215,91.49551690230456L41.87068371495333,91.42181911261616L41.9525957143957,90.32560013382033L42.03450771383805,90.36071120041242L42.23928771244396,89.83642652716233L42.321199711886315,89.71272860576858L42.38945971142162,89.79659904863993L43.09936370658874,89.6704042032831L43.16762370612405,89.59341571442114L43.18127570603111,89.53973955577013L43.42701170435819,90.14174484064915L43.60448770314997,89.724689179814L44.300739698410034,88.40662158951972L44.53282369683006,87.92908488157859L45.283683691718366,86.57729340467168L45.32463969143954,85.40900271938563L45.51576769013838,84.74598463507515L45.57037568976663,84.9043312297345L46.22567168530551,85.31494421022043L46.32123568465494,85.44096951135754L46.621579682610246,85.13941199692623L46.78540368149498,84.51441035060935L46.92192368056557,84.64601519788621L47.33148367777738,84.89492923209569L47.48165567675504,85.11112123189997L47.59087167601152,85.38965926522711L47.67278367545388,85.4147903425223L48.1096476724798,85.33062705054417L48.50555566978455,85.1487523421215L48.723987668297504,84.20092308835439L48.94241966681047,84.13981781025764L48.99702766643871,84.0560783788288L49.229111664858735,83.97015028565453L49.706931661605836,82.85001786532327L50.28031565770235,81.78440161818617L50.4031836568659,81.86720855640657L50.48509565630826,81.75088580857049L50.55335565584356,81.44458105598711L50.648919655192984,81.31447128046594L50.77178765435652,80.78194829944873L50.96291565305536,79.50941874525907L50.990219652869484,79.57724413970094L51.03117565259066,79.63339410264871L51.63186364850131,79.92346114291654L52.24620364431901,79.06571381570674L52.491939642646095,78.65914677682767L52.61480764180964,78.89835825773612L52.79228364060142,78.1546910707289L52.833239640322596,78.20854448015507L52.94245563957908,78.46012498254736L53.48853563586148,78.13533991001495L53.720619634281505,78.28574104601397L53.857139633352105,78.4670377627785L53.89809563307328,78.41499539388111L54.17113563121449,77.58774290655388L54.63530362805453,76.52681995168074L54.79912762693925,76.67043931889111L55.11312362480164,76.21512061028824L55.618247621362855,76.13171256074338L55.65920362108404,76.13209788851546L55.6728556209911,76.1450603147683L55.782071620247585,76.14432819200134L55.836679619875824,76.00357566341526L55.93224361922524,75.84126019270347L56.655799614299426,75.4350245357084L56.75136361364885,75.35583197199011L56.874231612812395,74.95204699962547L57.17457561076771,74.81453122432487L57.22918361039595,74.85863584111736L57.338399609652434,74.71245789750037L57.44761560890891,74.12124949679509L57.50222360853716,74.11413634612245L57.77526360667836,74.41824473040494L57.84352360621366,74.55153731332352L57.85717560612071,74.57141251980751L57.92543560565602,74.38667867931599L58.13021560426192,74.13677820600998L58.19847560379721,74.24232718933867L58.45786360203136,73.73484280695133L58.67629560054432,73.6522516522833L58.81281559961492,73.46696293979998L58.97663959849964,73.33231400312367L59.33159159608321,73.3446830246075L59.45445959524675,73.1380548601063L59.932279591993854,72.51050234393824L59.945931591900916,72.52332605219313L59.97323559171503,72.57009713716843L60.57392358762568,72.2036812521403L60.68313958688216,72.37521376316027L60.806007586045695,72.5096237966179L60.833311585859825,72.49742431935378L60.90157158539512,72.42539114564079L61.24287158307162,72.32826542740982L61.25652358297868,72.3441255185087L61.39304358204928,71.88573189428462L61.420347581863396,71.93804399262245L61.4886075813987,72.03589412706494L61.67973558009754,71.53741100143344L61.76164757953991,71.63775035328358L61.88451557870344,71.60184551148099L62.08929557730935,71.75634653497495L62.171207576751705,71.80963736585387L62.89476357182589,71.85045899002824L63.97327156448364,71.49983383710001L64.04153156401894,71.36154740625526L64.21900756281073,71.38435881036251L64.72413155937194,70.99743578130416L64.91525955807079,71.00276871766978L65.39307955481789,71.0427117945238L66.52619554710388,70.77015404821937L66.85384354487333,70.48890330737677L67.18149154264276,70.53543548913339L67.82313553827458,69.90393721657921L67.93235153753108,69.88916374979759L68.42382353418523,69.65955463696942L68.68321153241938,69.54141314204911L68.79242753167586,69.64709313682029L68.83338353139703,69.56972702674169L69.62519952600653,69.45373566078958L70.3897115208019,69.10368849951948L70.47162352024425,68.75546008533361L70.6900555187572,68.56211802241378L70.9357915170843,68.54844659306032L70.94944351699135,68.54997249103776L71.4136115138314,68.31721139703396L71.550131512902,67.86521421382643L71.59108751262318,67.84544689911863L71.60473951253024,67.83552085570979L71.63204351234435,67.84782051819465L71.64569551225142,67.85622066362603L71.98699550992792,67.3678177125122L72.43751150686091,66.82845901681826L72.9835915031433,66.77507570727403L73.40680350026217,66.14571215057718L73.7754074977528,65.81123993785464L73.8436674972881,65.7966668415145L74.14401149524342,65.87710786721432L74.40339949347756,65.75214607072816L74.60817949208347,65.68416654517746L74.82661149059642,65.5055671228175L75.22251948790117,64.99413698404405L75.26347548762234,65.00418633233994L75.60477548529886,64.32352794262356L76.46485147944364,63.39918826984257L76.71058747777072,63.20899818809836L76.73789147758484,63.21930955927928L76.76519547739896,63.22546709707716L76.84710747684132,63.22989065990065L77.22936347423901,63.37851158159265L77.42049147293784,63.11154108798341L78.18500346773321,62.52066406916211L78.23961146736146,62.32178869943519L78.38978346633911,61.9457935659931L79.09968746150624,61.72147885675332L79.3863794595545,61.54069847920337L79.45463945908979,61.48661387311395L79.48194345890391,61.45472414669645L79.61846345797453,61.50679734181561L80.0689794549075,61.37656426140735L80.23280345379222,61.08312945641154L80.94270744895935,61.139533735688886L81.09287944793702,60.73809926273394L81.32496344635703,60.60167011175062L81.70721944375471,60.584376601339585L82.225995440223,60.686480754385855L82.37616743920066,60.77817335103046L82.41712343892185,60.809870413561924L83.19528743362427,60.203480098636604L83.26354743315956,60.18103860919055L83.41371943213723,60.21196501617784L84.41031542535262,60.00243148027515L84.56048742433028,59.80122873080485L84.57413942423734,59.80623799184191L84.60144342405147,59.839661322792296L84.66970342358675,59.8088813403584L84.68335542349382,59.81080797921881L85.02465542117032,59.74525601863223L85.09291542070562,59.769231112611166L85.1338714204268,59.77592810928995L85.24308741968328,59.79564147810966L85.51612741782448,59.63972244841443L85.55708341754567,59.61009844929677L85.77551541605864,59.44782151136219L86.07585941401396,59.304363981816095L86.25333541280574,59.239721394771635L86.28063941261986,59.21640135800523L86.96323940797286,58.64515293589379L87.2908874057423,58.55239683459823L87.38645140509172,58.48638248068515L87.46836340453407,58.59143053791013L87.79601140230352,58.82266573393649L87.83696740202471,58.844745015276786L88.64243539654125,58.04022686650238L88.87451939496127,57.988831848262095L89.16121139300954,57.731864463616105L89.81650738854842,57.18151621986239L89.8574633882696,57.12989000495885L90.07589538678256,57.093615248495055L90.49910738390142,57.25614650275921L90.8813633812991,57.05785683124586L90.99057938055559,57.051429564007535L91.04518738018383,56.997845884021814L91.15440337944031,56.80502016031659L91.65952737600152,56.617142045204886L91.72778737553683,56.63153789076986L92.16465137256274,56.6701708531988L92.27386737181924,56.557924873191325L92.39673537098278,56.57526462293502L92.68342736903104,56.29585574884298L92.84725136791576,56.291586317128306L92.87455536772988,56.313966154130824L93.39333136419816,56.368975546873244L93.55715536308288,56.10052539461921L93.81654336131702,56.141200594240175L94.13053935917941,56.00842435053619L95.0588753528595,55.90142653478448L95.18174335202303,55.950078019287545L95.22269935174421,55.93775523713636L96.26025134468078,55.76421902170155L96.2875553444949,55.78897247778009L96.30120734440197,55.80275950546519L97.02476333947615,55.75899397711213L97.29780333761735,55.5635788507785L97.40701933687384,55.457906562562755L98.06231533241272,55.20930849712637L98.30805133073981,55.30351343084497L98.41726732999628,55.37961566583114L98.84047932711515,55.11497255196528L99.52307932246815,55.28944896716398L100.06915931875055,55.33801567955719L100.28759131726352,55.10441457101024L100.47871931596235,55.04858057683556L101.31149131029302,54.71235897602777L101.61183530824835,54.48211021909793L101.68009530778365,54.5265770439962L102.33539130332252,54.344309301246L102.60843130146372,54.18628638191521L102.63573530127785,54.21799115100211L103.07259929830379,54.13422859990693L103.40024729607322,54.076475673427296L103.59137529477205,54.04240499181982L104.17841129077564,53.62968041514287L104.56066728817333,53.45642163570396L104.58797128798744,53.46368121092998L104.64257928761569,53.468397622860266L104.8473592862216,53.56600885408406L105.40709128241106,53.176758445282346L105.44804728213222,53.16802691796697L106.17160327720642,52.713232255134116L106.59481527432528,52.495506650796955L106.60846727423235,52.49868175163891L106.84055127265236,52.57536197828321L106.88150727237355,52.59025104339645L107.34567526921359,52.61465770448012L107.37297926902771,52.60553314283722L107.46854326837713,52.57970076899686L107.9600152650313,52.35477724187719L108.24670726307956,52.387314318951795L108.57435526084899,52.38072521404919L108.6426152603843,52.405671334013775L108.72452725982666,52.370714398530495L109.09313125731728,52.27427456373384L109.36617125545848,52.150330032565975L109.4344312549938,52.07339548959209L109.6392112535997,52.06413991650669L109.70747125313498,52.06249842019761L110.29450724913858,51.85804350433095L110.63580724681506,51.81805418814429L110.6631112466292,51.7750053694473L110.88154324514215,51.69817871824961L111.01806324421277,51.51805339791218L111.70066323956577,51.32092741627052L111.9600512377999,51.38408263811475L112.13752723659168,51.03811224467327L112.21943923603405,51.00561370037589L112.39691523482583,50.99653537806563L113.17507922952825,50.9607153083729L113.48907522739063,51.0130197001553L113.55733522692593,51.03086037600269L113.88498322469538,51.02608231162888L114.03515522367304,50.97252945786494L114.1853272226507,50.85343235006985L114.36280322144248,50.77917968838966L114.69045121921192,50.7519601345698L115.98739121038264,50.30775427891376L116.00104321028971,50.30947284077725L116.05565120991794,50.31185416640871L116.32869120805914,50.33011099624996L116.3423432079662,50.3380949876875L116.46521120712974,50.31405053470958L117.06589920304039,50.09609373370917L117.16146320238981,50.134834587914284L117.20241920211097,50.10969580406366L117.46180720034513,50.27997985310209L118.19901519532637,49.94012075812584L118.32188319448991,49.95921760251022L118.34918719430402,49.95467073479966L118.40379519393227,49.96161434125257L118.48570719337464,49.964411820877885L118.52666319309581,49.85813071478225L118.62222719244524,49.89234782094313L118.7314431917017,49.774106140802076L118.77239919142289,49.790998910330146L118.93622319030763,49.85044727900694L119.30482718779824,49.73897195454364L119.35943518742648,49.676333071914L119.50960718640415,49.69986118567732L120.5881151790619,49.65862340750914L120.77924317776073,49.768110440668494L120.88845917701722,49.73358507228994L121.07958717571606,49.6652125124117L121.09323917562311,49.66797145925983L121.98061916958201,49.54972207256333L122.37652716688676,49.48923331890191L122.41748316660795,49.52184746153094L122.7724351641915,49.34066634309801L123.07277916214683,49.30425286863624L123.41407915982333,49.255408720247175L124.12398315499046,49.18365298253008L124.32876315359636,49.15608663371532L124.43797915285283,49.078204184422106L124.4516311527599,49.061480959113766L124.75197515071523,49.14641490663607L124.99771114904232,48.89301565715954L125.5437911453247,48.780091500273244L125.83048314337297,48.76717531335302L126.25369514049184,48.787582272162496L126.97725113556602,48.65704863609204L127.12742313454369,48.65726441964438L127.37315913287075,48.59057188885245L127.50967913194137,48.63076157548062L127.52333113184842,48.60973809223583L127.78271913008257,48.39612008194905L128.09671512794495,48.44781565585154L128.3561031261791,48.40299432940296L128.88853112255444,48.21671917782314L128.92948712227562,48.23969241959466L129.02505112162504,48.26251923681281L129.16157112069564,48.305051716295196L129.20252712041682,48.28202452863556L129.2707871199521,48.29803104428788L129.4073071190227,48.36673498605006L129.85782311595568,48.37286169762615L130.11721111418984,48.33374322220442L131.1957191068476,48.11403703311876L131.6735391035947,48.022552513471055L131.90562310201472,47.98086775508722L132.1104031006206,47.95145953952192L132.26057509959827,47.91761234802226L132.34248709904065,47.89519397824256L132.68378709671714,47.761130739779816L132.75204709625245,47.79816073867687L132.82030709578774,47.76715726613514L133.0660430941148,47.7957408802682L133.21621509309247,47.783001944123185L133.25717109281365,47.77974207117137L133.53021109095488,47.69557877919323L133.63942709021134,47.72187354636009L133.77594708928194,47.766186240149494L134.25376708602906,47.631545010028645L134.32202708556437,47.66416685921308L135.154799079895,47.57822335292795L135.16845107980208,47.58421134650612L135.60531507682802,47.51947628079634L136.30156707208806,47.30688324238332L136.41078307134455,47.33517400740956L136.88860306809164,47.306312957280625L137.0387750670693,47.29667205642312L137.20259906595405,47.28465753648962L137.43468306437407,47.220908909876385L138.25380305879764,47.06432711641318L138.58145105656712,46.861629295187186L138.99101105377892,46.77516944968747L139.04561905340714,46.72891470392673L139.23674705210598,46.69644698585111L139.468831050526,46.77643332477987L139.55074304996836,46.78540375531398L140.1241270460649,46.598712449740276L140.34255904457785,46.59197692028428L140.49273104355552,46.53529520501101L140.61559904271905,46.55702769135647L140.72481504197555,46.544111504436245L140.99785504011675,46.28635805113521L141.06611503965206,46.28927883564762L141.09341903946617,46.31070305977536L141.17533103890852,46.330732397368195L141.44837103704972,46.428998685804515L141.4893270367709,46.416321402102994L141.55758703630622,46.433607205958594L141.68045503546975,46.39308613744646L142.90913502710515,46.19279276151829L142.92278702701222,46.19028813099976L142.95009102682633,46.19427242016309L143.33234702422402,45.96437045822813L143.40060702375933,45.97758720081055L143.46886702329462,45.91830837635348L143.67364702190054,45.89385547593716L144.2606830179041,45.77854228686391L144.35624701725354,45.70230904043524L144.61563501548767,37.54122095884901L144.7385030146512,-14.565713460025108L145.18901901158418,25.443131138125636L145.20267101149125,26.94917702875236L145.3255390106548,30.099139086856752L145.84431500712307,37.62714905202324L145.95353100637956,36.81823816664715L146.02179100591485,39.57474203667866L146.4586550029408,40.86795598567369L147.1002989985726,44.78855817483105L147.15490699820086,45.67883487256L147.46890299606324,49.79092955133116L147.71463899439033,44.889344506896805L147.7555949941115,45.64083384767727L148.04228699215975,44.29822087830135L148.1924589911374,45.09811509381075L148.52010698890686,45.11139348883671L148.61567098825628,44.04106082976932L148.8477549866763,45.28631688425102L148.87505898649042,44.52250476131934L148.9160149862116,41.56836627698698L149.20270698425986,38.03215166014769L149.23001098407397,37.73272115501828L149.29827098360929,38.18674516230695L149.44844298258695,37.73538762320109L149.61226698147166,32.920878948701784L149.8443509798917,31.111379731005087L150.09008697821878,32.170429992905895L150.17199897766113,33.11511497205282L150.30851897673173,33.91537139566799L150.56790697496587,34.2040666690672L150.9365109724565,31.837152296276827L151.04572697171295,31.579028928314585L151.33241896976125,33.06986207849951L151.61911096780952,30.091663728078345L152.3017109631625,32.19661686829659L152.39727496251194,32.456243014569964L153.1344829574932,34.03580173755449L153.27100295656376,33.58294142013747L153.3665669559132,33.874788674712306L153.73517095340384,34.66068778553972L154.02186295145208,35.15054727563202L154.1583829505227,34.64588349253631L154.37681494903566,34.698342015427585L154.4996829481992,35.02910737498269L154.93654694522513,34.171144264220544L155.22323894327337,34.42707126388191L155.81027493927695,32.70313022469827L155.85123093899813,32.68705435004699L156.12427093713936,33.01937643380134L156.21983493648875,32.88342508925538L156.5747869340723,32.3113520657117L157.5304269275665,32.747866779037L157.65329492673007,32.776766361943146L157.7488589260795,33.02720629413005L157.92633492487127,33.003315972260964L158.2266789228266,33.31205599636388L158.37685092180425,33.79262138059357L158.52702292078192,33.885631798218725L158.74545491929487,34.22154513680886L159.07310291706435,34.73503292588521L159.15501491650667,34.87066830165804L159.46901091436905,34.545752217683145L159.71474691269614,34.215233467902124L160.5475189070268,34.92505346340968L160.67038690619034,34.32730219713443L161.271074902101,33.4303593289485L161.65333089949868,33.71171025501181L161.69428689921986,33.65590708705889L162.24036689550226,33.866427062058165L162.5680148932717,34.265873243709166L163.45539488723063,33.992683559858506L164.52025087998132,34.28569450430504L164.5885108795166,34.164639931427786L164.62946687923778,33.68271048688493L164.82059487793663,33.30505073746744L164.98441887682134,33.09583317033784L165.29841487468374,32.95626745128976L165.38032687412607,32.909812335087565L165.58510687273198,33.55275484247258L165.66701887217437,33.54192713207709L165.80353887124494,33.42988922906653L166.13118686901439,33.176906133583856L166.3632708674344,33.29006919368891L166.66361486538975,33.01576976585466L167.182390861858,32.76757244130127L167.33256286083568,32.995416752933295L167.60560285897688,32.7007257794005L167.7011668583263,32.7265812729072L167.76942685786162,32.36174523174458L168.8342828506123,32.657823385256876L169.24384284782408,33.10752401494278L169.28479884754526,33.26417516740497L169.48957884615118,33.678579773168224L169.57149084559356,33.90188492364513L169.63975084512882,33.93463007771666L170.03565884243358,33.64165766604734L170.22678684113245,33.70764890029409L170.3769588401101,33.64144958905041L170.5134788391807,33.60960610196554L170.56808683880894,33.57629066279134L170.581738838716,33.48190847829761L170.96399483611367,33.59510236462438L171.0868628352772,33.235791923713435L171.40085883313958,33.19013828927717L171.41451083304665,33.22772316016602L171.5783348319314,33.113473475743746L172.00154682905023,32.909689030200525L172.1244148282138,32.70163515294257L172.3564988266338,32.80053337892514L172.4247588261691,32.838465044808885L172.54762682533266,32.49980817248152L172.65684282458912,32.43927317948746L172.76605882384558,32.56701704248803L172.9981428222656,32.31609930386375L173.40770281947744,31.94535233467741L173.544222818548,32.092963697606535L174.04934681510926,31.63249700996866L174.1722148142728,31.469842450817453L174.18586681417986,31.498079269955582L174.4862108121352,31.997448649462882L174.5817748114846,31.70618709310162L174.96403080888228,32.00503190001746L175.10055080795286,31.975654510673934L175.16881080748817,32.01150540658841L175.31898280646584,32.36242340862344L175.4418508056294,32.51693984522831L175.63297880432822,32.418642730570184L176.1517548007965,32.17907674811141L176.1927108005177,32.14376531107783L176.6568787973577,31.624127690759053L176.71148679698595,31.620536435923214L177.02548279484836,31.49481169044833L177.1073947942907,31.36364611683166L177.13469879410482,31.341343345383564L177.5988667909449,31.08542405227763L177.68077879038722,31.25916063815393L177.7626907898296,31.495998499986342L177.7899947896437,31.55660285197942L177.94016678862138,31.460332561402453L178.0084267881567,31.508591011577977L178.19955478685554,31.44670737138162L178.32242278601908,31.57548391281142L178.54085478453203,31.679599476827946L178.88215478220852,31.671322636283634L179.14154278044268,31.609223212534914L179.2644107796062,31.807636188935334L179.5101467779333,31.877750430343355L179.87875077542392,31.269025029119206L180.19274677328627,31.198957027043832L180.2200507731004,31.220704926500133L180.23370277300748,31.239616813553937L181.039170767524,31.301685411080882L181.08012676724522,31.38402224941933L181.20299476640875,31.42366477061114L181.72177076287704,30.99481037339484L182.1449827599959,31.209730791551237L182.41802275813708,30.952963777346753L182.67741075637124,31.046012727749087L183.10062275349011,30.789322779098995L183.20983875274658,30.712133919795548L183.23714275256071,30.70792614052442L183.70131074940076,30.573015180963097L183.93339474782076,30.520333167964054L184.20643474596199,30.34043133773443L184.58869074335965,30.051512574227445L184.62964674308083,30.115122482842708L184.72521074243025,30.063149472944303L184.75251474224436,30.111407923119856L184.9845987406644,30.138242149167638L185.09381473992087,30.177067775482612L185.21668273908443,30.14109357468101L185.42146273769032,30.223368760575966L185.6398947362033,30.44467020663805L186.17232273257864,30.798678537405152L186.33614673146334,30.989569915694517L186.36345073127748,31.03927719829312L186.49997073034805,30.943608019040596L186.65014272932572,30.80771062038275L186.8412707280246,30.864184258659094L186.86857472783868,30.797846229417473L187.1006587262587,30.88776631831047L187.36004672449286,30.78180118098794L187.85151872114702,30.90600002848541L188.22012271863764,30.98255695024264L188.30203471808,31.087134907585693L188.42490271724353,31.135655380646227L188.83446271445533,30.71338238177708L189.14845871231773,30.588243334515766L189.1621107122248,30.586917806979812L189.40784671055187,30.690031518788913L189.79010270794953,30.814523215393137L189.85836270748484,30.797260531203904L190.22696670497547,30.837242140835087L190.40444270376724,30.9350383293895L190.43174670358138,30.87124346344362L190.44539870348842,30.86720522839218L190.71843870162965,31.001237640633178L190.78669870116494,31.097030124772743L190.97782669986378,30.824033104808137L191.11434669893438,30.811193983442365L191.18260669846967,30.794070017251045L191.27817069781912,30.8816010739572L191.53755869605322,30.888074580528155L191.701382694938,30.726915093132618L192.17920269168508,30.900189285682416L193.0256266859228,30.820303131974384L193.2304066845287,30.79761503275421L193.38057868350637,30.91122507307483L193.43518668313462,30.85243946816604L193.65361868164757,31.047184124176226L194.10413467858052,31.121398253079178L194.22700267774408,31.03009098420665L194.82769067365473,30.72184417965201L195.10073067179593,30.629658363459157L195.1416866715171,30.609051034208193L195.3601186700301,30.61866881539936L195.57855066854304,30.48619312735758L196.54784266194432,30.53873642235868L196.67071066110785,30.553209333478065L197.09392265822672,30.669747864866537L197.35331065646085,30.238535261685087L197.39426665618205,30.30730856244628L197.69461065413736,30.241140077424376L198.58199064809625,30.16709549274111L198.69120664735274,29.975125196689902L198.97789864540098,30.010575351721457L199.27824264335632,29.835775261194215L199.67415064066108,29.769313927065525L200.30214263638584,29.92896292959449L200.68439863378353,29.645469581118363L201.48986662830004,29.898784058485035L201.70829862681302,30.047104424514828L202.1315106239319,29.886160720671626L202.24072662318838,29.866832679623997L202.52741862123662,29.68808683271064L202.8687186189131,29.902652749316758L202.93697861844842,29.97100989608407L203.1144546172402,29.984558020550452L203.29193061603198,29.960975960899077L203.37384261547436,29.996749791259163L203.94722661157087,29.99326642819952L203.96087861147794,30.01045204683436L204.23391860961917,30.27774621577214L205.0257346042286,29.97310607916421L205.25781860264863,30.180196636991923L205.62642260013925,30.01801988427806L205.64007460004632,30.03096689742L205.7492905993028,30.096672989115405L205.91311459818755,30.026235072378853L206.07693859707226,30.08058170135328L206.28171859567814,30.09359036693877L206.33632659530642,30.170686747576923L206.56841059372644,30.057292490808635L206.8141465920535,29.65501029675511L207.05988259038057,29.706690457546756L207.26466258898648,29.379978746153938L207.40118258805708,29.376618687981363L207.44213858777826,29.311914448493383L207.60596258666297,29.238378496469295L207.61961458657004,29.217817406550978L207.67422258619828,29.23410906475459L208.05647858359598,29.31131333716894L208.41143058117953,29.4086933717295L208.8619465781125,29.401433796503454L209.06672657671842,29.48492661815817L209.55819857337258,29.229515957711385L210.2817545684468,28.973565838383678L210.336362568075,29.00215715907217L210.6094025662162,29.0494291701512L211.27835056166214,29.06265361928905L211.63330255924572,28.914055817263346L211.67425855896687,28.799736773842085L212.24764255506344,28.859647535845397L212.94389455032348,28.66664456136499L213.1486745489294,28.726771106920665L213.25789054818586,28.645990992781435L213.33980254762824,28.545852011372745L214.0224025429812,28.70214095572919L214.06335854270242,28.72837407045253L214.1043145424236,28.76345431082285L214.28179054121537,28.868355943494464L214.650394538706,28.716752584846517L214.99169453638248,28.66787761023565L215.08725853573193,28.73059355841974L215.38760253368727,28.539532635910604L215.6742945317355,28.584061113252403L215.8517705305273,28.65967783524576L216.3295905272744,28.843879923411805L216.64358652513678,28.515981402480975L216.68454252485796,28.53333656533556L216.86201852364974,28.39488059027107L216.91662652327798,28.22848064517521L217.58557451872392,28.552942042379073L217.59922651863099,28.557951303416132L217.85861451686512,28.731086777967988L217.89957051658632,28.709061442515804L218.02243851574985,28.633275176302732L218.0360905156569,28.623503264002693L218.11800251509928,28.510386443230345L218.39104251324048,28.48014591967734L218.4183465130546,28.513499891628783L218.66408251138168,28.5283273042985L219.5378105054335,28.67185419284357L219.61972250487588,28.62140708092261L220.0838905017159,28.661481169219087L220.6436224979054,28.662174759208852L221.0258784953031,28.364578414274547L221.46274249232897,28.637791217791516L221.54465449177135,28.59686940839643L221.85865048963373,28.26109478780421L222.36377448619496,28.230792611807686L222.37742648610202,28.230114434928822L222.45933848554438,28.160493413069076L222.58220648470794,28.0280331381382L222.81429048312796,27.90344896286865L222.97811448201267,27.854589401368685L223.06002648145503,27.877354566143282L223.33306647959623,27.782980088204965L223.38767447922447,27.81725884680941L223.71532247699392,27.885122774028474L223.86549447597156,27.843029568206248L224.5480944713246,27.66903095944491L224.875742469094,27.62397843633312L225.18973846695638,27.551752598734083L225.68121046361057,27.397590663679523L226.00885846138,27.22753781130433L226.03616246119412,27.20552788896302L226.0498144611012,27.198776946396123L226.8689344555248,27.06329570173216L227.0737144541307,27.114436403642856L227.15562645357303,27.166316934875965L227.56518645078486,27.383610972108414L227.68805444994837,27.458672822109975L227.74266244957664,27.369538801871983L227.824574449019,27.237895421817882L228.04300644753198,27.17931018735058L228.63004244353556,27.17721400427044L228.79386644242027,27.11160039124033L229.0805584404685,27.048344984175344L229.09421044037558,27.052121196341744L229.14881844000382,27.04937766260454L229.20342643963207,27.063650203282435L229.25803443926029,26.99970120622774L229.4901184376803,27.08900477068545L229.5720304371227,27.115546147626446L229.62663843675094,27.066732825459127L229.65394243656507,27.097297024340662L229.99524243424156,26.906713908268927L230.36384643173218,26.62773660128164L230.62323442996635,26.811830797671462L231.06009842699223,26.715498854651003L231.0737504268993,26.71855065060589L231.08740242680636,26.73174427352197L231.41505042457578,26.762832518173525L231.60617842327466,26.729586437998307L232.30243041853473,26.780989162794043L232.46625441741944,26.872712585660423L233.32633041156421,26.900055444367354L233.89971440766075,26.874500506522878L233.954322407289,26.8783537842437L234.55501040319962,26.85595853413028L234.58231440301375,26.850641010875563L234.81439840143378,26.875779794726213L235.319522397995,26.740945900719282L235.72908239520677,26.616300073006244L235.82464639455623,26.58046459020261L235.96116639362683,26.604000410521394L236.2069023919539,26.596910379515066L236.52089838981627,26.492332422172012L236.7529823882363,26.491006894636087L236.83489438767867,26.510519893014305L236.93045838702807,26.54393551740924L237.57210238265992,26.59712616306743L237.64036238219524,26.603291407420727L237.8587943807082,26.667348296251646L237.94070638015054,26.61639255167151L238.07722637922112,26.608038645572776L238.3229623775482,26.626657683519795L238.41852637689766,26.677906277206688L238.55504637596823,26.744398437557123L238.58235037578237,26.76710194988823L238.75982637457415,26.69737303625226L239.0192143728083,26.368333945116092L239.29225437094948,26.259378664282167L239.44242636992712,26.26799459326594L240.08407036555897,26.30222711253768L240.24789436444368,26.357344397056295L240.39806636342138,26.47500808553923L241.2717943574732,26.37924642762141L241.69500635459207,26.238786748142132L242.2001303511533,26.17980077279185L242.52777834892274,26.13097203751363L242.65064634808627,26.104291942574662L242.73255834752865,26.16945857538917L242.93733834613454,26.11287704533666L243.16942234455453,26.097710544227482L243.36055034325338,26.188000547781712L243.40150634297456,26.188493767330016L243.66089434120872,26.006850255570583L243.92028233944288,25.96626753461493L245.01244233200768,26.090111880562063L245.46295832894066,26.032651803189168L245.57217432819712,26.012845955704194L245.6540863276395,26.023126500663324L245.98173432540892,25.99277808533415L245.995386325316,26.00071583743903L246.09095032466544,25.933345129768213L246.51416232178428,25.951856275939065L246.88276631927488,25.850129744109438L247.04659031815964,25.87912180568088L247.27867431657964,25.94043516077454L247.33328231620789,25.955031376781022L248.13875031072442,25.76700683711593L248.31622630951622,25.82597739935531L248.4527463085868,25.810317678697913L248.50735430821504,25.82143053164478L248.58926630765743,25.73426938959983L248.84865430589156,25.70745057666295L249.1489983038469,25.626762941188957L249.32647430263867,25.508790990488393L250.1319422971552,25.313136960936077L250.43228629511052,25.305414992383533L250.48689429473876,25.33144773666541L250.5141982945529,25.3376900465731L250.52785029445997,25.336272040371853L250.66437029353054,25.365187036388903L250.93741029167177,25.39582830082486L251.29236228925532,25.336272040371853L251.75653028609534,25.093746740623516L251.8793982852589,25.07195260183454L252.64391028005426,25.073308955592267L253.3811182750355,25.172939304341753L253.73607027261906,25.013968478691652L253.80433027215437,24.993284083886294L254.07737027029557,24.94652070546644L254.77362226555564,24.88819749388412L254.8282302651839,24.92209092471643L255.26509426220983,24.809914303707956L255.93404225765576,24.72486475785405L256.20708225579693,24.40958957473663L256.6439462528229,24.47467914199669L256.7804662518935,24.45118956101055L256.7941182518005,24.456830759593856L257.135418249477,24.405135185691336L257.20367824901234,24.44260445824858L257.25828624864056,24.444438618443712L257.4494142473394,24.434420096369564L258.02279824343594,24.465153839470815L258.36409824111246,24.442696936913904L259.38799823414195,24.540585604133582L260.302682227915,24.492866612838952L260.72589422503387,24.63052110613748L261.1900622218739,24.812981512773746L261.20371422178096,24.80128296161334L261.5040582197363,24.719439342823136L262.02283421620456,89.44148097388924L262.0910942157399,48.629944680603785L262.1593542152752,26.10746704341659L262.29587421434576,5.299289544555592L262.66447821183635,1.6838052984435876L262.67813021174345,2.1961371042036717L262.77369421109285,2.4664214166528495L262.9648222097917,0.6008801277845635L263.11499420876936,0.9806129406158561L263.3607302070965,6.460066338286026L263.38803420691056,5.969004625544812L263.70203020477294,12.962472492168445L263.71568220468004,13.237873957430793L263.7293342045871,13.613969276093655L263.77029020430825,15.287771465573996L264.0296782025424,16.490965140455216L264.5074981992895,13.019208153329771L264.6849741980813,14.94627858084408L264.7395821977095,12.06994548025051L264.91705819650133,9.11588406147257L264.93071019640837,9.238264161885809L265.06723019547894,9.921203692012881L265.2174021944566,13.297353152329379L265.3539221935272,12.785129238345462L265.46313819278373,12.837564641570367L265.5996581918543,13.405722734949677L266.26860618730024,17.40514757316413L266.3778221865567,16.434321957959185L266.43243018618494,17.425955272856527L266.81468618358264,19.600714392265132L267.0058141822815,17.191383138323943L267.0877261817239,18.12475489408257L267.2788541804227,18.382569999827126L267.3061581802368,18.473630658925515L267.4017221795862,19.2009291221747L267.4563301792145,18.493220722858183L267.49728617893567,18.58626967326049L267.5109381788427,18.383664330699816L267.565546178471,18.68528349757466L267.90684617614744,18.185713747625925L268.04336617521807,18.366555777619396L268.0979741748463,18.81751257584233L268.31640617335927,17.87333622935452L268.5075341720581,17.313855717402475L268.9990061687123,19.05387263123734L269.01265816861934,18.916433921491176L269.10822216796873,19.214307702421365L269.2583941669464,19.976532274932055L269.40856616592407,20.609749109349735L269.6679541641582,21.089127684041387L269.92734216239234,22.711095581621294L269.94099416229943,22.70963133608734L270.00925416183475,22.13677224388863L270.37785815932534,21.309627648337568L270.62359415765246,20.790067093573185L270.8966341557936,20.877551910946664L272.4120061454773,22.09361553341546L272.53487414464087,21.667843758375795L272.7533061431538,22.06906244777838L272.79426214287497,21.544615936864005L272.9171301420385,21.50071939706845L273.2993861394362,22.922024004058898L273.76355413627624,24.33050490279453L273.7772061361833,24.156275097369956L273.90007413534687,23.912100594757078L273.941030135068,23.929794846051067L274.47345813144335,24.03045787322975L274.6782381300493,23.11572056852907L274.81475812911987,22.98623502399863L275.01953812772575,21.876753063287737L275.0468421275399,22.041704175960547L275.1560581267964,21.38234670548485L275.3744901253093,20.089279181043224L275.3881421252164,20.080170032511205L275.64753012345057,19.550590955672703L275.97517812122,19.34909535709562L276.12535012019765,19.659715780726316L276.2755221191753,19.897231819437593L276.657778116573,20.492686532191243L276.8216021154577,20.55139507154564L277.39498611155426,21.806885431653825L277.43594211127544,21.799579617095162L277.9956741074649,22.66497955385853L278.10489010672137,22.659846987934372L279.2107020991932,21.727662041713813L279.22435409910025,21.726259448623438L280.4120780910145,22.72408883409588L280.521294090271,22.85604047636761L281.1219820861817,23.36556709594697L281.1356340860887,23.400816880537008L281.69536608227816,23.25457728447651" fill="none"></path></g></g></g></g></g></g><g transform="translate(29, 177)" clip-path="url(#clip_1)"><clipPath id="clip_1"><rect width="300" height="22"></rect></clipPath><g><g><line x1="0" y1="0" x2="0" y2="5" style="visibility: inherit;" fill="rgb(0, 0, 0)" stroke="rgb(204, 204, 204)" stroke-width="1px"></line><line x1="27.303999814120207" y1="0" x2="27.303999814120207" y2="5" style="visibility: inherit;" fill="rgb(0, 0, 0)" stroke="rgb(204, 204, 204)" stroke-width="1px"></line><line x1="54.607999628240414" y1="0" x2="54.607999628240414" y2="5" style="visibility: inherit;" fill="rgb(0, 0, 0)" stroke="rgb(204, 204, 204)" stroke-width="1px"></line><line x1="81.91199944236061" y1="0" x2="81.91199944236061" y2="5" style="visibility: inherit;" fill="rgb(0, 0, 0)" stroke="rgb(204, 204, 204)" stroke-width="1px"></line><line x1="109.21599925648083" y1="0" x2="109.21599925648083" y2="5" style="visibility: inherit;" fill="rgb(0, 0, 0)" stroke="rgb(204, 204, 204)" stroke-width="1px"></line><line x1="136.51999907060102" y1="0" x2="136.51999907060102" y2="5" style="visibility: inherit;" fill="rgb(0, 0, 0)" stroke="rgb(204, 204, 204)" stroke-width="1px"></line><line x1="163.82399888472122" y1="0" x2="163.82399888472122" y2="5" style="visibility: inherit;" fill="rgb(0, 0, 0)" stroke="rgb(204, 204, 204)" stroke-width="1px"></line><line x1="191.12799869884145" y1="0" x2="191.12799869884145" y2="5" style="visibility: inherit;" fill="rgb(0, 0, 0)" stroke="rgb(204, 204, 204)" stroke-width="1px"></line><line x1="218.43199851296166" y1="0" x2="218.43199851296166" y2="5" style="visibility: inherit;" fill="rgb(0, 0, 0)" stroke="rgb(204, 204, 204)" stroke-width="1px"></line><line x1="245.73599832708186" y1="0" x2="245.73599832708186" y2="5" style="visibility: inherit;" fill="rgb(0, 0, 0)" stroke="rgb(204, 204, 204)" stroke-width="1px"></line><line x1="273.03999814120203" y1="0" x2="273.03999814120203" y2="5" style="visibility: inherit;" fill="rgb(0, 0, 0)" stroke="rgb(204, 204, 204)" stroke-width="1px"></line><line x1="300.34399795532227" y1="0" x2="300.34399795532227" y2="5" style="visibility: inherit;" fill="rgb(0, 0, 0)" stroke="rgb(204, 204, 204)" stroke-width="1px"></line></g><g transform="translate(0, 8)"><text style="text-anchor: middle; visibility: hidden; font-family: &quot;Helvetica Neue&quot;, sans-serif; font-size: 12px; font-weight: 200;" x="0" y="0" dx="0em" dy="0.95em" fill="rgb(50, 49, 63)" stroke="none" stroke-width="1px">-2k</text><text style="text-anchor: middle; visibility: inherit; font-family: &quot;Helvetica Neue&quot;, sans-serif; font-size: 12px; font-weight: 200;" x="27.303999814120207" y="0" dx="0em" dy="0.95em" fill="rgb(50, 49, 63)" stroke="none" stroke-width="1px">0</text><text style="text-anchor: middle; visibility: inherit; font-family: &quot;Helvetica Neue&quot;, sans-serif; font-size: 12px; font-weight: 200;" x="54.607999628240414" y="0" dx="0em" dy="0.95em" fill="rgb(50, 49, 63)" stroke="none" stroke-width="1px">2k</text><text style="text-anchor: middle; visibility: inherit; font-family: &quot;Helvetica Neue&quot;, sans-serif; font-size: 12px; font-weight: 200;" x="81.91199944236061" y="0" dx="0em" dy="0.95em" fill="rgb(50, 49, 63)" stroke="none" stroke-width="1px">4k</text><text style="text-anchor: middle; visibility: inherit; font-family: &quot;Helvetica Neue&quot;, sans-serif; font-size: 12px; font-weight: 200;" x="109.21599925648083" y="0" dx="0em" dy="0.95em" fill="rgb(50, 49, 63)" stroke="none" stroke-width="1px">6k</text><text style="text-anchor: middle; visibility: inherit; font-family: &quot;Helvetica Neue&quot;, sans-serif; font-size: 12px; font-weight: 200;" x="136.51999907060102" y="0" dx="0em" dy="0.95em" fill="rgb(50, 49, 63)" stroke="none" stroke-width="1px">8k</text><text style="text-anchor: middle; visibility: inherit; font-family: &quot;Helvetica Neue&quot;, sans-serif; font-size: 12px; font-weight: 200;" x="163.82399888472122" y="0" dx="0em" dy="0.95em" fill="rgb(50, 49, 63)" stroke="none" stroke-width="1px">10k</text><text style="text-anchor: middle; visibility: inherit; font-family: &quot;Helvetica Neue&quot;, sans-serif; font-size: 12px; font-weight: 200;" x="191.12799869884145" y="0" dx="0em" dy="0.95em" fill="rgb(50, 49, 63)" stroke="none" stroke-width="1px">12k</text><text style="text-anchor: middle; visibility: inherit; font-family: &quot;Helvetica Neue&quot;, sans-serif; font-size: 12px; font-weight: 200;" x="218.43199851296166" y="0" dx="0em" dy="0.95em" fill="rgb(50, 49, 63)" stroke="none" stroke-width="1px">14k</text><text style="text-anchor: middle; visibility: inherit; font-family: &quot;Helvetica Neue&quot;, sans-serif; font-size: 12px; font-weight: 200;" x="245.73599832708186" y="0" dx="0em" dy="0.95em" fill="rgb(50, 49, 63)" stroke="none" stroke-width="1px">16k</text><text style="text-anchor: middle; visibility: inherit; font-family: &quot;Helvetica Neue&quot;, sans-serif; font-size: 12px; font-weight: 200;" x="273.03999814120203" y="0" dx="0em" dy="0.95em" fill="rgb(50, 49, 63)" stroke="none" stroke-width="1px">18k</text><text style="text-anchor: middle; visibility: hidden; font-family: &quot;Helvetica Neue&quot;, sans-serif; font-size: 12px; font-weight: 200;" x="300.34399795532227" y="0" dx="0em" dy="0.95em" fill="rgb(50, 49, 63)" stroke="none" stroke-width="1px">20k</text></g><line x1="0" y1="0" x2="300.34399795532227" y2="0" fill="rgb(0, 0, 0)" stroke="rgb(204, 204, 204)" stroke-width="1px"></line></g></g></g></g></svg>