<svg viewBox="0 0 330 200" xmlns="http://www.w3.org/2000/svg"><g><g><g><g><g><line x1="29.656002044677734" y1="177.7799997329712" x2="24.656002044677734" y2="177.7799997329712" style="visibility: inherit;" fill="rgb(0, 0, 0)" stroke="rgb(204, 204, 204)" stroke-width="1px"></line><line x1="29.656002044677734" y1="155.5574997663498" x2="24.656002044677734" y2="155.5574997663498" style="visibility: inherit;" fill="rgb(0, 0, 0)" stroke="rgb(204, 204, 204)" stroke-width="1px"></line><line x1="29.656002044677734" y1="133.3349997997284" x2="24.656002044677734" y2="133.3349997997284" style="visibility: inherit;" fill="rgb(0, 0, 0)" stroke="rgb(204, 204, 204)" stroke-width="1px"></line><line x1="29.656002044677734" y1="111.112499833107" x2="24.656002044677734" y2="111.112499833107" style="visibility: inherit;" fill="rgb(0, 0, 0)" stroke="rgb(204, 204, 204)" stroke-width="1px"></line><line x1="29.656002044677734" y1="88.8899998664856" x2="24.656002044677734" y2="88.8899998664856" style="visibility: inherit;" fill="rgb(0, 0, 0)" stroke="rgb(204, 204, 204)" stroke-width="1px"></line><line x1="29.656002044677734" y1="66.6674998998642" x2="24.656002044677734" y2="66.6674998998642" style="visibility: inherit;" fill="rgb(0, 0, 0)" stroke="rgb(204, 204, 204)" stroke-width="1px"></line><line x1="29.656002044677734" y1="44.4449999332428" x2="24.656002044677734" y2="44.4449999332428" style="visibility: inherit;" fill="rgb(0, 0, 0)" stroke="rgb(204, 204, 204)" stroke-width="1px"></line><line x1="29.656002044677734" y1="22.2224999666214" x2="24.656002044677734" y2="22.2224999666214" style="visibility: inherit;" fill="rgb(0, 0, 0)" stroke="rgb(204, 204, 204)" stroke-width="1px"></line><line x1="29.656002044677734" y1="0" x2="24.656002044677734" y2="0" style="visibility: inherit;" fill="rgb(0, 0, 0)" stroke="rgb(204, 204, 204)" stroke-width="1px"></line></g><g transform="translate(19.656002044677734, 0)"><text style="text-anchor: end; visibility: hidden; font-family: &quot;Helvetica Neue&quot;, sans-serif; font-size: 12px; font-weight: 200;" x="0" y="177.7799997329712" dx="0em" dy="0.3em" fill="rgb(50, 49, 63)" stroke="none" stroke-width="1px">30</text><text style="text-anchor: end; visibility: inherit; font-family: &quot;Helvetica Neue&quot;, sans-serif; font-size: 12px; font-weight: 200;" x="0" y="155.5574997663498" dx="0em" dy="0.3em" fill="rgb(50, 49, 63)" stroke="none" stroke-width="1px">35</text><text style="text-anchor: end; visibility: hidden; font-family: &quot;Helvetica Neue&quot;, sans-serif; font-size: 12px; font-weight: 200;" x="0" y="133.3349997997284" dx="0em" dy="0.3em" fill="rgb(50, 49, 63)" stroke="none" stroke-width="1px">40</text><text style="text-anchor: end; visibility: inherit; font-family: &quot;Helvetica Neue&quot;, sans-serif; font-size: 12px; font-weight: 200;" x="0" y="111.112499833107" dx="0em" dy="0.3em" fill="rgb(50, 49, 63)" stroke="none" stroke-width="1px">45</text><text style="text-anchor: end; visibility: hidden; font-family: &quot;Helvetica Neue&quot;, sans-serif; font-size: 12px; font-weight: 200;" x="0" y="88.8899998664856" dx="0em" dy="0.3em" fill="rgb(50, 49, 63)" stroke="none" stroke-width="1px">50</text><text style="text-anchor: end; visibility: inherit; font-family: &quot;Helvetica Neue&quot;, sans-serif; font-size: 12px; font-weight: 200;" x="0" y="66.6674998998642" dx="0em" dy="0.3em" fill="rgb(50, 49, 63)" stroke="none" stroke-width="1px">55</text><text style="text-anchor: end; visibility: hidden; font-family: &quot;Helvetica Neue&quot;, sans-serif; font-size: 12px; font-weight: 200;" x="0" y="44.4449999332428" dx="0em" dy="0.3em" fill="rgb(50, 49, 63)" stroke="none" stroke-width="1px">60</text><text style="text-anchor: end; visibility: inherit; font-family: &quot;Helvetica Neue&quot;, sans-serif; font-size: 12px; font-weight: 200;" x="0" y="22.2224999666214" dx="0em" dy="0.3em" fill="rgb(50, 49, 63)" stroke="none" stroke-width="1px">65</text><text style="text-anchor: end; visibility: hidden; font-family: &quot;Helvetica Neue&quot;, sans-serif; font-size: 12px; font-weight: 200;" x="0" y="0" dx="0em" dy="0.3em" fill="rgb(50, 49, 63)" stroke="none" stroke-width="1px">70</text></g><line x1="29.656002044677734" y1="0" x2="29.656002044677734" y2="177.7799997329712" fill="rgb(0, 0, 0)" stroke="rgb(204, 204, 204)" stroke-width="1px"></line></g></g><g transform="translate(29, 0)" clip-path="url(#clip_0)"><clipPath id="clip_0"><rect width="300" height="177"></rect></clipPath><g><g><g><line x1="0" y1="0" x2="0" y2="177.7799997329712" fill="rgb(0, 0, 0)" stroke="rgb(60, 60, 60)" stroke-width="1px" opacity="0.25"></line><line x1="27.303999814120207" y1="0" x2="27.303999814120207" y2="177.7799997329712" fill="rgb(0, 0, 0)" stroke="rgb(60, 60, 60)" stroke-width="1px" opacity="0.25"></line><line x1="54.607999628240414" y1="0" x2="54.607999628240414" y2="177.7799997329712" fill="rgb(0, 0, 0)" stroke="rgb(60, 60, 60)" stroke-width="1px" opacity="0.25"></line><line x1="81.91199944236061" y1="0" x2="81.91199944236061" y2="177.7799997329712" fill="rgb(0, 0, 0)" stroke="rgb(60, 60, 60)" stroke-width="1px" opacity="0.25"></line><line x1="109.21599925648083" y1="0" x2="109.21599925648083" y2="177.7799997329712" fill="rgb(0, 0, 0)" stroke="rgb(60, 60, 60)" stroke-width="1px" opacity="0.25"></line><line x1="136.51999907060102" y1="0" x2="136.51999907060102" y2="177.7799997329712" fill="rgb(0, 0, 0)" stroke="rgb(60, 60, 60)" stroke-width="1px" opacity="0.25"></line><line x1="163.82399888472122" y1="0" x2="163.82399888472122" y2="177.7799997329712" fill="rgb(0, 0, 0)" stroke="rgb(60, 60, 60)" stroke-width="1px" opacity="0.25"></line><line x1="191.12799869884145" y1="0" x2="191.12799869884145" y2="177.7799997329712" fill="rgb(0, 0, 0)" stroke="rgb(60, 60, 60)" stroke-width="1px" opacity="0.25"></line><line x1="218.43199851296166" y1="0" x2="218.43199851296166" y2="177.7799997329712" fill="rgb(0, 0, 0)" stroke="rgb(60, 60, 60)" stroke-width="1px" opacity="0.25"></line><line x1="245.73599832708186" y1="0" x2="245.73599832708186" y2="177.7799997329712" fill="rgb(0, 0, 0)" stroke="rgb(60, 60, 60)" stroke-width="1px" opacity="0.25"></line><line x1="273.03999814120203" y1="0" x2="273.03999814120203" y2="177.7799997329712" fill="rgb(0, 0, 0)" stroke="rgb(60, 60, 60)" stroke-width="1px" opacity="0.25"></line><line x1="300.34399795532227" y1="0" x2="300.34399795532227" y2="177.7799997329712" fill="rgb(0, 0, 0)" stroke="rgb(60, 60, 60)" stroke-width="1px" opacity="0.25"></line></g><g><line x1="0" y1="177.7799997329712" x2="300.34399795532227" y2="177.7799997329712" fill="rgb(0, 0, 0)" stroke="rgb(60, 60, 60)" stroke-width="1px" opacity="0.25"></line><line x1="0" y1="155.5574997663498" x2="300.34399795532227" y2="155.5574997663498" fill="rgb(0, 0, 0)" stroke="rgb(60, 60, 60)" stroke-width="1px" opacity="0.25"></line><line x1="0" y1="133.3349997997284" x2="300.34399795532227" y2="133.3349997997284" fill="rgb(0, 0, 0)" stroke="rgb(60, 60, 60)" stroke-width="1px" opacity="0.25"></line><line x1="0" y1="111.112499833107" x2="300.34399795532227" y2="111.112499833107" fill="rgb(0, 0, 0)" stroke="rgb(60, 60, 60)" stroke-width="1px" opacity="0.25"></line><line x1="0" y1="88.8899998664856" x2="300.34399795532227" y2="88.8899998664856" fill="rgb(0, 0, 0)" stroke="rgb(60, 60, 60)" stroke-width="1px" opacity="0.25"></line><line x1="0" y1="66.6674998998642" x2="300.34399795532227" y2="66.6674998998642" fill="rgb(0, 0, 0)" stroke="rgb(60, 60, 60)" stroke-width="1px" opacity="0.25"></line><line x1="0" y1="44.4449999332428" x2="300.34399795532227" y2="44.4449999332428" fill="rgb(0, 0, 0)" stroke="rgb(60, 60, 60)" stroke-width="1px" opacity="0.25"></line><line x1="0" y1="22.2224999666214" x2="300.34399795532227" y2="22.2224999666214" fill="rgb(0, 0, 0)" stroke="rgb(60, 60, 60)" stroke-width="1px" opacity="0.25"></line><line x1="0" y1="0" x2="300.34399795532227" y2="0" fill="rgb(0, 0, 0)" stroke="rgb(60, 60, 60)" stroke-width="1px" opacity="0.25"></line></g></g></g><g><g><line x1="0" y1="311.1149995326996" x2="300.34399795532227" y2="311.1149995326996" fill="rgb(0, 0, 0)" stroke="rgb(153, 153, 153)" stroke-width="1.5px"></line></g></g><g><g><line x1="27.303999814120207" y1="0" x2="27.303999814120207" y2="177.7799997329712" fill="rgb(0, 0, 0)" stroke="rgb(153, 153, 153)" stroke-width="1.5px"></line></g></g><g><g><g><g><g><path style="fill: none;" stroke="rgb(255, 112, 67)" stroke-width="2px" d="M33.06514377489957,180.44399830232987L33.35183577294783,177.05815264325597L33.597571771274914,174.05847064685153L33.78869976997375,172.79223980920443L34.63512376421148,167.96539048385023L35.0037277617021,163.98614902668328L35.22215976021507,161.16615082296545L35.31772375956449,159.5611109078014L35.33137575947155,158.5981219189239L35.781891756404534,157.641831466749L35.97301975510337,156.65245019239478L36.15049575389516,155.91500057798942L36.341623752593996,155.01851176072307L36.4781437516646,154.37238826276013L37.06517974766818,152.4496743379765L37.17439574692466,151.29230926369587L37.283611746181144,150.78721009131738L37.76143174292824,150.35474087839876L37.816039742556484,150.04383998121412L37.84334374237061,149.89278165802338L38.034471741069446,149.81711402806087L38.06177574088356,149.69159363361484L38.157339740232985,149.562203572665L38.26655573948947,149.1362443275121L38.348467738931824,148.56486893503248L38.730723736329516,147.1393343123889L40.218791726199065,144.39503322392906L40.45087572461909,142.5669249657903L40.57374372378263,141.31711756122596L40.58739572368969,140.55878303459457L40.66930772313204,140.24093002883603L40.751219722574405,139.96046829723326L40.99695572090149,139.28456908267242L41.037911720622674,138.79113783043616L41.16077971978621,138.29550518718264L41.82972771523215,136.7470248951014L41.87068371495333,135.7918879459361L41.9525957143957,135.16917001067304L42.03450771383805,134.56980807538537L42.23928771244396,133.82963874040695L42.321199711886315,133.18680418683755L42.38945971142162,132.65988668321003L43.09936370658874,131.81775575732405L43.16762370612405,131.15351932315554L43.18127570603111,130.71996319039866L43.42701170435819,130.02445351805127L43.60448770314997,129.17976064558266L44.300739698410034,128.0975864398419L44.53282369683006,127.241593949026L45.283683691718366,125.94038417272998L45.32463969143954,125.1442297829582L45.51576769013838,124.72128636852585L45.57037568976663,124.45916518071881L46.22567168530551,123.74801184752864L46.32123568465494,123.1504260559096L46.621579682610246,122.36563363080322L46.78540368149498,121.69527244682149L46.92192368056557,121.24786202922493L47.33148367777738,120.62002272348174L47.48165567675504,119.9889010839299L47.59087167601152,119.49588069665353L47.67278367545388,119.08949172418889L48.1096476724798,118.19456106461897L48.50555566978455,117.19171549840374L48.723987668297504,116.43410885776126L48.94241966681047,115.82133298930555L48.99702766643871,115.4218609726134L49.229111664858735,115.34558448156042L49.706931661605836,114.85864418192114L50.28031565770235,114.345068814726L50.4031836568659,113.93300655126053L50.48509565630826,113.62758839874353L50.55335565584356,113.35432987187042L50.648919655192984,113.12309282759445L50.77178765435652,112.87014561462819L50.96291565305536,112.53414375593616L50.990219652869484,112.29757584084672L51.03117565259066,112.12460849958502L51.63186364850131,111.38622408043085L52.24620364431901,110.42107861343838L52.491939642646095,109.82209362361701L52.61480764180964,109.55285268223163L52.79228364060142,109.47616160848385L52.833239640322596,109.40154146348472L52.94245563957908,109.2781415491497L53.48853563586148,108.72461020188534L53.720619634281505,108.2162535680163L53.857139633352105,107.75938222097965L53.89809563307328,107.44701701855847L54.17113563121449,107.07254315037746L54.63530362805453,106.78982045217565L54.79912762693925,106.49833879342903L55.11312362480164,106.03396321566913L55.618247621362855,105.26704373446215L55.65920362108404,104.77099614353968L55.6728556209911,104.46605006046329L55.782071620247585,104.24160511270608L55.836679619875824,104.07448059862934L55.93224361922524,103.87992574048361L56.655799614299426,103.597053053812L56.75136361364885,103.32992289669781L56.874231612812395,103.07421175203551L57.17457561076771,102.76209167558392L57.22918361039595,102.52600445797232L57.338399609652434,102.32033901180935L57.44761560890891,102.139009875119L57.50222360853716,102.01253910364159L57.77526360667836,101.88483036367236L57.84352360621366,101.78380431558928L57.85717560612071,101.72515539968812L57.92543560565602,101.65843082528026L58.13021560426192,101.67670572868026L58.19847560379721,101.67159109692241L58.45786360203136,101.56570392126308L58.67629560054432,101.38663740278422L58.81281559961492,101.14966570783383L58.97663959849964,100.92926855142417L59.33159159608321,100.66233754766716L59.45445959524675,100.43239454457786L59.932279591993854,100.09747939533332L59.945931591900916,99.88825654786444L59.97323559171503,99.7402751846927L60.57392358762568,99.45870780720377L60.68313958688216,99.31593144469697L60.806007586045695,99.19141287380278L60.833311585859825,99.09903522357185L60.90157158539512,98.99930333793706L61.24287158307162,99.10465453070995L61.25652358297868,99.16184303568936L61.39304358204928,99.23241825638986L61.420347581863396,99.3005273284382L61.4886075813987,99.32656104332648L61.67973558009754,99.28954796469078L61.76164757953991,99.31119781626552L61.88451557870344,99.32325862488634L62.08929557730935,99.23763913180473L62.171207576751705,99.16898070731352L62.89476357182589,98.7987342309939L63.97327156448364,98.01055957679571L64.04153156401894,97.48089816128467L64.21900756281073,97.0337865447162L64.72413155937194,96.5590079333922L64.91525955807079,96.16995245269786L65.39307955481789,95.66936494639033L66.52619554710388,94.87154257488376L66.85384354487333,94.19562853383735L67.18149154264276,93.6749528022535L67.82313553827458,93.18417328062435L67.93235153753108,92.85615615744946L68.42382353418523,92.40621636350845L68.68321153241938,92.00204128281663L68.79242753167586,91.70320008107427L68.83338353139703,91.50791073099403L69.62519952600653,90.96691726226851L70.3897115208019,90.27246385660706L70.47162352024425,89.81997729223735L70.6900555187572,89.52087677287696L70.9357915170843,89.22769976221282L70.94944351699135,89.03684653740412L71.4136115138314,88.76111161310652L71.550131512902,88.5523080288934L71.59108751262318,88.4001904192689L71.60473951253024,88.30172439680943L71.63204351234435,88.23371997560793L71.64569551225142,88.1861626811735L71.98699550992792,88.03013105128638L72.43751150686091,87.8231344627456L72.9835915031433,87.62162434543063L73.40680350026217,87.51792362245841L73.7754074977528,87.43769759254123L73.8436674972881,87.38066429394026L74.14401149524342,87.2963066981252L74.40339949347756,87.16845457590236L74.60817949208347,87.01795765814825L74.82661149059642,86.81189471427362L75.22251948790117,86.56885712665604L75.26347548762234,86.41561531903072L75.60477548529886,86.22368661720458L76.46485147944364,85.89828778189222L76.71058747777072,85.65137818430411L76.73789147758484,85.49589455192194L76.76519547739896,85.39341507578403L76.84710747684132,85.31453893492721L77.22936347423901,85.13667098300057L77.42049147293784,84.97617756711941L78.18500346773321,84.98010927851806L78.23961146736146,84.9703899751447L78.38978346633911,84.90449226695968L79.09968746150624,84.80267665926256L79.3863794595545,84.65308521195252L79.45463945908979,84.54493140484291L79.48194345890391,84.47057855311698L79.61846345797453,84.41049084570578L80.0689794549075,84.21729107488862L80.23280345379222,84.05117934159361L80.94270744895935,83.76264004085292L81.09287944793702,83.53098301399373L81.32496344635703,83.31816924461384L81.70721944375471,83.1100627686902L82.225995440223,82.84696608991713L82.37616743920066,82.64802412733168L82.41712343892185,82.51262684836409L83.19528743362427,82.36626315530619L83.26354743315956,82.30549741516937L83.41371943213723,82.25982154730349L84.41031542535262,81.98886236407748L84.56048742433028,81.79391747171367L84.57413942423734,81.67340367121894L84.60144342405147,81.59992214492165L84.66970342358675,81.53649840632687L84.68335542349382,81.4963553783831L85.02465542117032,81.39240745236178L85.09291542070562,81.30080249150117L85.1338714204268,81.22977350472449L85.24308741968328,81.16044272540003L85.51612741782448,81.06043288322877L85.55708341754567,81.0066051692925L85.77551541605864,80.94851069245875L86.07585941401396,80.87036597618058L86.25333541280574,80.80989526353004L86.28063941261986,80.76052402217765L86.96323940797286,80.64097502322879L87.2908874057423,80.55960873041084L87.38645140509172,80.51834384515061L87.46836340453407,80.5276090480071L87.79601140230352,80.49986290319995L87.83696740202471,80.48420535455882L88.64243539654125,80.3394670656592L88.87451939496127,80.25101003134776L89.16121139300954,80.14804911955163L89.81650738854842,80.0151318178811L89.8574633882696,79.94704607919525L90.07589538678256,79.90653372442317L90.49910738390142,79.79250351048618L90.8813633812991,79.65598285994844L90.99057938055559,79.54332871170689L91.04518738018383,79.46373249200603L91.15440337944031,79.40643281149991L91.65952737600152,79.37028974331122L91.72778737553683,79.34627097393474L92.16465137256274,79.24065848563914L92.27386737181924,79.15582669444576L92.39673537098278,79.0790280447259L92.68342736903104,78.99302458203523L92.84725136791576,78.9713640136227L92.87455536772988,78.96631590559544L93.39333136419816,78.89466910417562L93.55715536308288,78.82392324367186L93.81654336131702,78.7950053561029L94.13053935917941,78.76563054749927L95.0588753528595,78.60872169495599L95.18174335202303,78.50896786064179L95.22269935174421,78.44776598806436L96.26025134468078,78.20966702210796L96.2875553444949,78.06695005967869L96.30120734440197,77.98049250642893L97.02476333947615,77.8766357167141L97.29780333761735,77.74583255988871L97.40701933687384,77.63287893504084L98.06231533241272,77.4298579451802L98.30805133073981,77.27191208715793L98.41726732999628,77.16952864599494L98.84047932711515,77.00037018408958L99.52307932246815,76.82789033303561L100.06915931875055,76.62186886008777L100.28759131726352,76.45475771130873L100.47871931596235,76.32666542470152L101.31149131029302,76.11557850310358L101.61183530824835,75.96977463508568L101.68009530778365,75.8699834039236L102.33539130332252,75.7192600905337L102.60843130146372,75.59562934427932L102.63573530127785,75.51894164207492L103.07259929830379,75.3705785661941L103.40024729607322,75.23031767569861L103.59137529477205,75.10854945169953L104.17841129077564,74.95113687710692L104.56066728817333,74.8151781255961L104.58797128798744,74.73982175666882L104.64257928761569,74.71324423594365L104.8473592862216,74.72373984001544L105.40709128241106,74.61394688433454L105.44804728213222,74.53688797419355L106.17160327720642,74.39193720162149L106.59481527432528,74.21706823280864L106.60846727423235,74.11030221041041L106.84055127265236,74.0014354505849L106.88150727237355,73.93059503489572L107.34567526921359,73.8057194217753L107.37297926902771,73.72249316890574L107.46854326837713,73.66094024724909L107.9600152650313,73.5909473714105L108.24670726307956,73.50921048080586L108.57435526084899,73.42838219613071L108.6426152603843,73.36394128690353L108.72452725982666,73.30965154607821L109.09313125731728,73.19524887937926L109.36617125545848,73.10262694492326L109.4344312549938,73.05401866079556L109.6392112535997,73.04680627588779L109.70747125313498,73.02458853887869L110.29450724913858,72.93178234823915L110.63580724681506,72.83398384967795L110.6631112466292,72.7706863659962L110.88154324514215,72.70067758179837L111.01806324421277,72.64540038976031L111.70066323956577,72.51911360730062L111.9600512377999,72.395686048547L112.13752723659168,72.30274906898727L112.21943923603405,72.24097823410469L112.39691523482583,72.18277017809216L113.17507922952825,72.05532167290119L113.48907522739063,71.93519832409415L113.55733522692593,71.85961814034617L113.88498322469538,71.76194868389301L114.03515522367304,71.67301893999829L114.1853272226507,71.58674916973018L114.36280322144248,71.51882635254604L114.69045121921192,71.4370022704515L115.98739121038264,71.24979709981409L116.00104321028971,71.13780630410228L116.05565120991794,71.05830291632381L116.32869120805914,70.97490843452213L116.3423432079662,70.92037543273428L116.46521120712974,70.87189480099674L117.06589920304039,70.80806342044998L117.16146320238981,70.76192486740226L117.20241920211097,70.7291757542885L117.46180720034513,70.6763159646623L118.19901519532637,70.57024477788788L118.32188319448991,70.48664332027825L118.34918719430402,70.43597381305335L118.40379519393227,70.40113683193063L118.48570719337464,70.37167605104572L118.52666319309581,70.3526703558322L118.62222719244524,70.369377370333L118.7314431917017,70.39867536593084L118.77239919142289,70.4296006842656L118.93622319030763,70.43609110859147L119.30482718779824,70.48963469248861L119.35943518742648,70.52129968254926L119.50960718640415,70.51258836931525L120.5881151790619,70.40667944193868L120.77924317776073,70.31883500794304L120.88845917701722,70.24725468500687L121.07958717571606,70.17585697117677L121.09323917562311,70.130732886797L121.98061916958201,69.98836158499341L122.37652716688676,69.86776176920458L122.41748316660795,69.79330631317558L122.7724351641915,69.71373405737181L123.07277916214683,69.64475698581236L123.41407915982333,69.58253714915797L124.12398315499046,69.44995530452886L124.32876315359636,69.3403154896362L124.43797915285283,69.2590691678625L124.4516311527599,69.20992803220851L124.75197515071523,69.14584954822526L124.99771114904232,69.10272981913994L125.5437911453247,69.14317011690406L125.83048314337297,69.18558909060974L126.25369514049184,69.18544607942482L126.97725113556602,69.12785087338621L127.12742313454369,69.09677957892039L127.37315913287075,69.05146410559516L127.50967913194137,68.9970053293009L127.52333113184842,68.96317038106149L127.78271913008257,68.91496921532136L128.09671512794495,68.88193198222258L128.3561031261791,68.85135375706454L128.88853112255444,68.8220271383009L128.92948712227562,68.80116913625538L129.02505112162504,68.78107231752239L129.16157112069564,68.7440912259843L129.20252712041682,68.71537172771798L129.2707871199521,68.69342669945013L129.4073071190227,68.66660120014909L129.85782311595568,68.62268708499742L130.11721111418984,68.59955317431225L131.1957191068476,68.54435829244072L131.6735391035947,68.49714884777501L131.90562310201472,68.45082436661055L132.1104031006206,68.4009143298921L132.26057509959827,68.35239982491771L132.34248709904065,68.31245385540883L132.68378709671714,68.24787026042833L132.75204709625245,68.19802512970183L132.82030709578774,68.15985107511256L133.0660430941148,68.11203720559836L133.21621509309247,68.07300668648715L133.25717109281365,68.04429181359647L133.53021109095488,67.99386613164167L133.63942709021134,67.95499109433841L133.77594708928194,67.91256861104765L134.25376708602906,67.84146025358802L134.32202708556437,67.81594633237879L135.154799079895,67.76980127697125L135.16845107980208,67.74069685404992L135.60531507682802,67.69230933462089L136.30156707208806,67.58560522502718L136.41078307134455,67.50192919332144L136.88860306809164,67.44998744148816L137.0387750670693,67.40373973660222L137.20259906595405,67.35283815502623L137.43468306437407,67.32503704067126L138.25380305879764,67.25313242881236L138.58145105656712,67.16971951863005L138.99101105377892,67.09578638284707L139.04561905340714,67.05215215063771L139.23674705210598,67.01510043594389L139.468831050526,66.97108636577845L139.55074304996836,66.9323079774087L140.1241270460649,66.84906976298889L140.34255904457785,66.77910705287296L140.49273104355552,66.72394566827826L140.61559904271905,66.68743082605198L140.72481504197555,66.67089986336559L140.99785504011675,66.63352868569734L141.06611503965206,66.60393764948681L141.09341903946617,66.58498265468491L141.17533103890852,66.56402701850539L141.44837103704972,66.53177972554184L141.4893270367709,66.51483209591491L141.55758703630622,66.49588790932624L141.68045503546975,66.47359596785454L142.90913502710515,66.35865703359279L142.92278702701222,66.28795754022586L142.95009102682633,66.24176718075921L143.33234702422402,66.18872305865364L143.40060702375933,66.1485414462427L143.46886702329462,66.11698609666621L143.67364702190054,66.08665273358662L144.2606830179041,66.03261106769088L144.35624701725354,65.98468294470258L144.61563501548767,57.92153745993055L144.7385030146512,51.79680275965376L145.18901901158418,65.48120803539254L145.20267101149125,74.07735406585734L145.3255390106548,77.89412323217086L145.84431500712307,76.990473483399L145.95353100637956,75.34485594337995L146.02179100591485,74.23800421685023L146.4586550029408,70.26342021913844L147.1002989985726,65.21818192472719L147.15490699820086,62.059269180517134L147.46890299606324,59.17467170256069L147.71463899439033,56.49190207677488L147.7555949941115,54.74790702513799L148.04228699215975,53.35500229966898L148.1924589911374,52.39948664581138L148.52010698890686,51.230520937252834L148.61567098825628,50.5717174565728L148.8477549866763,50.24553481035227L148.87505898649042,50.05162239134893L148.9160149862116,49.910474011486855L149.20270698425986,49.61068762290026L149.23001098407397,49.43061911845342L149.29827098360929,49.33616189866896L149.44844298258695,49.08927929758326L149.61226698147166,48.74710976835121L149.8443509798917,48.896440304307646L150.09008697821878,49.23853744142019L150.17199897766113,49.59565987217184L150.30851897673173,49.80636612023997L150.56790697496587,49.79331601217362L150.9365109724565,49.1189804925549L151.04572697171295,48.70188038090623L151.33241896976125,48.339510894071964L151.61911096780952,47.997325001566765L152.3017109631625,47.60530458954355L152.39727496251194,47.37622306131456L153.1344829574932,46.97802869799145L153.27100295656376,46.93671247719223L153.3665669559132,46.97468801485161L153.73517095340384,47.08243533683131L154.02186295145208,47.112544181578585L154.1583829505227,47.04986574922938L154.37681494903566,47.00220132670631L154.4996829481992,47.088180656876574L154.93654694522513,47.369507454462735L155.22323894327337,47.83095720155072L155.81027493927695,47.9904414138409L155.85123093899813,48.05158561100566L156.12427093713936,48.130319095794135L156.21983493648875,48.138340217762476L156.5747869340723,47.97261175121551L157.5304269275665,47.393927416300386L157.65329492673007,47.30483771721575L157.7488589260795,47.242933813854364L157.92633492487127,47.13239238823806L158.2266789228266,47.10978281447987L158.37685092180425,47.12265240496308L158.52702292078192,47.160675102200656L158.74545491929487,47.23589144797302L159.07310291706435,47.28257428048906L159.15501491650667,47.331654935624954L159.46901091436905,47.23398585453225L159.71474691269614,47.07597045720391L160.5475189070268,46.71196568851056L160.67038690619034,46.52144267878461L161.271074902101,46.39366028013487L161.65333089949868,46.31886939089944L161.69428689921986,46.25752194097058L162.24036689550226,46.20377261257926L162.5680148932717,46.17621599954617L163.45539488723063,46.37808889556456L164.52025087998132,46.723634925929304L164.5885108795166,46.93145083150091L164.62946687923778,47.04210889522017L164.82059487793663,47.12034470175669L164.98441887682134,47.144112881727835L165.29841487468374,47.09680211087843L165.38032687412607,47.04334344915722L165.58510687273198,47.03334969130029L165.66701887217437,47.05080479305727L165.80353887124494,47.05963666606456L166.13118686901439,47.20626785142426L166.3632708674344,47.31855242197861L166.66361486538975,47.386601341190044L167.182390861858,47.35420793510596L167.33256286083568,47.300232343014954L167.60560285897688,47.22342640219475L167.7011668583263,47.17187673205896L167.76942685786162,47.140933366439896L168.8342828506123,47.03088128610969L169.24384284782408,46.86008527366462L169.28479884754526,46.781486274102434L169.48957884615118,46.8666934375818L169.57149084559356,46.91365372963321L169.63975084512882,46.938635691764574L170.03565884243358,46.97137953973211L170.22678684113245,46.99406408092989L170.3769588401101,46.9890859773989L170.5134788391807,47.02274101204537L170.56808683880894,47.03375151789339L170.581738838716,47.04230418904456L170.96399483611367,46.944915792957374L171.0868628352772,46.876174466746306L171.40085883313958,46.87682065682711L171.41451083304665,46.875499365140826L171.5783348319314,46.902213444335814L172.00154682905023,46.8470807919536L172.1244148282138,46.82336682322139L172.3564988266338,46.839724219218795L172.4247588261691,46.832814814984516L172.54762682533266,46.83247374473433L172.65684282458912,46.7955661699001L172.76605882384558,46.74348689756647L172.9981428222656,46.69790267494713L173.40770281947744,46.76894204296116L173.544222818548,46.81322041535401L174.04934681510926,46.93842148405167L174.1722148142728,46.99878499638626L174.18586681417986,47.03310420852611L174.4862108121352,47.031743150241226L174.5817748114846,47.06098331454157L174.96403080888228,47.08988687584272L175.10055080795286,47.10134921908369L175.16881080748817,47.10529011914278L175.31898280646584,47.12271018588902L175.4418508056294,47.14555251751358L175.63297880432822,47.096397701586454L176.1517548007965,47.076195835270596L176.1927108005177,47.0699748543272L176.6568787973577,47.18787328898546L176.71148679698595,47.28067344364982L177.02548279484836,47.359520058630466L177.1073947942907,47.403762668126376L177.13469879410482,47.434919836600244L177.5988667909449,47.63253076186646L177.68077879038722,47.80425282079156L177.7626907898296,47.94251056323486L177.7899947896437,48.036994215641556L177.94016678862138,48.13891880490576L178.0084267881567,48.206841763715346L178.19955478685554,48.27515664735816L178.32242278601908,48.38010443898952L178.54085478453203,48.513549255219885L178.88215478220852,48.62763349720191L179.14154278044268,48.68020113988817L179.2644107796062,48.78969815772538L179.5101467779333,48.8344271393332L179.87875077542392,49.01472917421606L180.19274677328627,49.17439758378916L180.2200507731004,49.267770756306675L180.23370277300748,49.32215347177035L181.039170767524,49.44826300203118L181.08012676724522,49.534257354052784L181.20299476640875,49.60544649529615L181.72177076287704,49.596381175340866L182.1449827599959,49.56895548895491L182.41802275813708,49.6042585365183L182.67741075637124,49.600815762584745L183.10062275349011,49.56293557725181L183.20983875274658,49.525843679757685L183.23714275256071,49.50105894150306L183.70131074940076,49.5078422862924L183.93339474782076,49.52445856542499L184.20643474596199,49.52208551370924L184.58869074335965,49.50854266185448L184.62964674308083,49.489674628980396L184.72521074243025,49.458978295826824L184.75251474224436,49.43742053698551L184.9845987406644,49.396836610329444L185.09381473992087,49.35726796517409L185.21668273908443,49.339623588221855L185.42146273769032,49.31158068918856L185.6398947362033,49.27490471252423L186.17232273257864,49.211530336914905L186.33614673146334,49.17827329500773L186.36345073127748,49.16254411181876L186.49997073034805,49.139631227322326L186.65014272932572,49.131451328799926L186.8412707280246,49.12006680049339L186.86857472783868,49.11649133252803L187.1006587262587,49.20823964062751L187.36004672449286,49.24535762881001L187.85151872114702,49.2112108871668L188.22012271863764,49.26098874860003L188.30203471808,49.27097810114046L188.42490271724353,49.27360795534554L188.83446271445533,49.23224370789893L189.14845871231773,49.219415326649255L189.1621107122248,49.21317637818899L189.40784671055187,49.174791734140484L189.79010270794953,49.17472401682974L189.85836270748484,49.19634435595418L190.22696670497547,49.28556398591954L190.40444270376724,49.342574811287335L190.43174670358138,49.37423136144352L190.44539870348842,49.392302970981916L190.71843870162965,49.358501552769354L190.78669870116494,49.32637973353684L190.97782669986378,49.29437048021228L191.11434669893438,49.32269834565713L191.18260669846967,49.36516060672537L191.27817069781912,49.3994339174852L191.53755869605322,49.388503369686646L191.701382694938,49.34600844819647L192.17920269168508,49.31238693629359L193.0256266859228,49.164920228989075L193.2304066845287,49.058807605755874L193.38057868350637,48.98379413263257L193.43518668313462,48.94133599382312L193.65361868164757,48.89665514132801L194.10413467858052,48.86787313511343L194.22700267774408,48.88254606237922L194.82769067365473,48.867844208117276L195.10073067179593,48.82371720724643L195.1416866715171,48.79078476283709L195.3601186700301,48.74723485128095L195.57855066854304,48.69778918325193L196.54784266194432,48.57864312503716L196.67071066110785,48.49865115204736L197.09392265822672,48.42756404552813L197.35331065646085,48.37254183534614L197.39426665618205,48.34963334473201L197.69461065413736,48.39438100616556L198.58199064809625,48.33122874943163L198.69120664735274,48.309572949871296L198.97789864540098,48.30572129446219L199.27824264335632,48.285208033787995L199.67415064066108,48.30539153164986L200.30214263638584,48.264298654220056L200.68439863378353,48.184798763568466L201.48986662830004,48.108201712369095L201.70829862681302,48.075298386567596L202.1315106239319,48.000780044580864L202.24072662318838,47.938829783128085L202.52741862123662,47.88730940349967L202.8687186189131,47.83953091674525L202.93697861844842,47.80598095116474L203.1144546172402,47.749961851386956L203.29193061603198,47.69342801301468L203.37384261547436,47.648236410264616L203.94722661157087,47.58806032576993L203.96087861147794,47.556172935259696L204.23391860961917,47.57563554712968L205.0257346042286,47.59176195457701L205.25781860264863,47.63807969581043L205.62642260013925,47.66002445585471L205.64007460004632,47.6691493776832L205.7492905993028,47.656652643490446L205.91311459818755,47.631284642216684L206.07693859707226,47.611106368467944L206.28171859567814,47.61910056690823L206.33632659530642,47.624751588839786L206.56841059372644,47.63774518660341L206.8141465920535,47.64047536397646L207.05988259038057,47.676368184551734L207.26466258898648,47.688477218280696L207.40118258805708,47.70202255641635L207.44213858777826,47.710020905690754L207.60596258666297,47.721208341454314L207.61961458657004,47.729812916404484L207.67422258619828,47.728892414771195L208.05647858359598,47.716397418954415L208.41143058117953,47.66719932518296L208.8619465781125,47.603364718849576L209.06672657671842,47.552585500478415L209.55819857337258,47.56838319613189L210.2817545684468,47.625442703345044L210.336362568075,47.68097316166927L210.6094025662162,47.72681736361642L211.27835056166214,47.77284489534651L211.63330255924572,47.83925313185557L211.67425855896687,47.87254010334246L212.24764255506344,47.95264623008342L212.94389455032348,47.95434973468883L213.1486745489294,47.972848455620465L213.25789054818586,47.97860365437393L213.33980254762824,47.98133790613443L214.0224025429812,47.979051813062114L214.06335854270242,47.97508952154149L214.1043145424236,47.971654190698075L214.28179054121537,47.96778904169423L214.650394538706,47.94688790581105L214.99169453638248,47.95151866285397L215.08725853573193,47.94967195076589L215.38760253368727,48.036930370829026L215.6742945317355,48.10810483125539L215.8517705305273,48.136486411829594L216.3295905272744,48.135597927034524L216.64358652513678,48.10719854820496L216.68454252485796,48.09075571656061L216.86201852364974,48.06522413167224L216.91662652327798,48.04263512459781L217.58557451872392,48.05540854679063L217.59922651863099,48.062645348672675L217.85861451686512,48.05516680680333L217.89957051658632,48.04357238799119L218.02243851574985,48.019518897587716L218.0360905156569,48.00461207953043L218.11800251509928,48.000198210246936L218.39104251324048,48.000520303406205L218.4183465130546,48.0008220676024L218.66408251138168,47.981234270101254L219.5378105054335,47.96745384273274L219.61972250487588,47.970022852835854L220.0838905017159,47.956223897897814L220.6436224979054,47.9575610730773L221.0258784953031,47.95791578144497L221.46274249232897,47.92768524637333L221.54465449177135,47.909031510902395L221.85865048963373,47.90655384251326L222.36377448619496,47.92239466073477L222.37742648610202,47.93201444173707L222.45933848554438,47.93255078483361L222.58220648470794,47.92260499274556L222.81429048312796,47.893003053264295L222.97811448201267,47.84893540844436L223.06002648145503,47.81582156106438L223.33306647959623,47.76415353878647L223.38767447922447,47.728269851891895L223.71532247699392,47.67882587942117L223.86549447597156,47.63944800303335L224.5480944713246,47.55632481961791L224.875742469094,47.48520362795384L225.18973846695638,47.420456255548345L225.68121046361057,47.396609104665544L226.00885846138,47.40179839940322L226.03616246119412,47.40772641029312L226.0498144611012,47.41310751263117L226.8689344555248,47.43499281997154L227.0737144541307,47.44503151780816L227.15562645357303,47.45059357623251L227.56518645078486,47.45749802166992L227.68805444994837,47.462895316158296L227.74266244957664,47.46226808464178L227.824574449019,47.459307891823386L228.04300644753198,47.473102717271075L228.63004244353556,47.474028175172805L228.79386644242027,47.463515603250784L229.0805584404685,47.44753047603618L229.09421044037558,47.438712521349316L229.14881844000382,47.44403521669142L229.20342643963207,47.4572455063975L229.25803443926029,47.46319818550367L229.4901184376803,47.46879754183516L229.5720304371227,47.47257084353018L229.62663843675094,47.47839525316124L229.65394243656507,47.48166610056987L229.99524243424156,47.5157538477668L230.36384643173218,47.55031257516532L230.62323442996635,47.58870753753007L231.06009842699223,47.658559064896906L231.0737504268993,47.704966294023876L231.08740242680636,47.73486550744303L231.41505042457578,47.76048877953207L231.60617842327466,47.76468638782177L232.30243041853473,47.774563171931305L232.46625441741944,47.780848676142824L233.32633041156421,47.73231897777171L233.89971440766075,47.686185700858346L233.954322407289,47.65792250259449L234.55501040319962,47.628391184302046L234.58231440301375,47.60809532118691L234.81439840143378,47.592052195108295L235.319522397995,47.55991084708282L235.72908239520677,47.52774745933792L235.82464639455623,47.50787975811272L235.96116639362683,47.50353437311452L236.2069023919539,47.48829948863113L236.52089838981627,47.46482868049071L236.7529823882363,47.43240151103316L236.83489438767867,47.4206221716274L236.93045838702807,47.40072346143583L237.57210238265992,47.389265740904904L237.64036238219524,47.38685351244925L237.8587943807082,47.37463672653951L237.94070638015054,47.362349182009154L238.07722637922112,47.34930709658363L238.3229623775482,47.32970191294248L238.41852637689766,47.31441228298766L238.55504637596823,47.29699187416779L238.58235037578237,47.28620732220523L238.75982637457415,47.27875323455336L239.0192143728083,47.25737383237217L239.29225437094948,47.25256902354039L239.44242636992712,47.24044936915118L240.08407036555897,47.21204558497229L240.24789436444368,47.187875675468035L240.39806636342138,47.167927969428234L241.2717943574732,47.130581966997255L241.69500635459207,47.12849254482944L242.2001303511533,47.128880079575595L242.52777834892274,47.14355098617429L242.65064634808627,47.15086154100001L242.73255834752865,47.159459352313206L242.93733834613454,47.15962665727267L243.16942234455453,47.15290458084698L243.36055034325338,47.151719677882795L243.40150634297456,47.14453892867991L243.66089434120872,47.130308751420415L243.92028233944288,47.11540256417217L245.01244233200768,47.061495724754536L245.46295832894066,47.026140515761824L245.57217432819712,47.02632387089437L245.6540863276395,47.02220884201853L245.98173432540892,47.03205551681319L245.995386325316,47.03769903270728L246.09095032466544,47.03979660617384L246.51416232178428,47.04517168390851L246.88276631927488,47.05558540546525L247.04659031815964,47.08765183217767L247.27867431657964,47.115633388173705L247.33328231620789,47.140540099011275L248.13875031072442,47.15872581099481L248.31622630951622,47.16335053851785L248.4527463085868,47.16188676953877L248.50735430821504,47.16157817672959L248.58926630765743,47.15954159816479L248.84865430589156,47.15237203979825L249.1489983038469,47.13582921211486L249.32647430263867,47.12256688526077L250.1319422971552,47.1051489216882L250.43228629511052,47.17512313960913L250.48689429473876,47.24063362628954L250.5141982945529,47.283717363513006L250.52785029445997,47.30979140421712L250.66437029353054,47.33642907584601L250.93741029167177,47.370390147882006L251.29236228925532,47.38789132113723L251.75653028609534,47.37508308576378L251.8793982852589,47.36003314363526L252.64391028005426,47.31535141983625L253.3811182750355,47.28677912567181L253.73607027261906,47.25268132720154L253.80433027215437,47.23559996897609L254.07737027029557,47.25951092342922L254.77362226555564,47.27227056220457L254.8282302651839,47.27564704936415L255.26509426220983,47.28450218283007L255.93404225765576,47.26543480411442L256.20708225579693,47.24345550818748L256.6439462528229,47.24270569458969L256.7804662518935,47.25065163619138L256.7941182518005,47.257548676552005L257.135418249477,47.275555617941166L257.20367824901234,47.29005584676446L257.25828624864056,47.29522268251955L257.4494142473394,47.2885366916106L258.02279824343594,47.25691651632667L258.36409824111246,47.2188537320163L259.38799823414195,47.14629213267176L260.302682227915,47.13936994275488L260.72589422503387,47.13006248452541L261.1900622218739,47.09801554777445L261.20371422178096,47.078522896741106L261.5040582197363,47.04834698617205L262.02283421620456,40.15558954585961L262.0910942157399,38.76181098468879L262.1593542152752,37.67961656640381L262.29587421434576,38.575648005763014L262.66447821183635,41.791651852995955L262.67813021174345,43.9522547698144L262.77369421109285,45.34243550932757L262.9648222097917,45.88135390297225L263.11499420876936,45.93941570768499L263.3607302070965,46.043230160861896L263.38803420691056,46.16975574673404L263.70203020477294,46.74657254098642L263.71568220468004,47.06803123329752L263.7293342045871,47.279807238298105L263.77029020430825,47.49488663663743L264.0296782025424,47.25600975531967L264.5074981992895,47.016585962793954L264.6849741980813,46.83171887834996L264.7395821977095,46.667907612900905L264.91705819650133,46.17001190952959L264.93071019640837,45.87351247120702L265.06723019547894,45.680340264901446L265.2174021944566,45.659388485927906L265.3539221935272,45.53029984898615L265.46313819278373,45.43134845976107L265.5996581918543,45.24948531836557L266.26860618730024,44.295589622602336L266.3778221865567,43.659998647652685L266.43243018618494,43.2483770285792L266.81468618358264,43.2523701929276L267.0058141822815,43.24836410180015L267.0877261817239,43.76107647723373L267.2788541804227,44.65793788369507L267.3061581802368,45.28804263942101L267.4017221795862,45.9627604049781L267.4563301792145,46.399282269861686L267.49728617893567,46.65837417297578L267.5109381788427,46.83209939996084L267.565546178471,46.99232481927086L267.90684617614744,46.983390127014474L268.04336617521807,46.86865972640618L268.0979741748463,46.91098824002469L268.31640617335927,46.84692703610477L268.5075341720581,46.549325019494916L268.9990061687123,46.395049323561125L269.01265816861934,46.27280010401296L269.10822216796873,46.176012779350515L269.2583941669464,45.91462295626957L269.40856616592407,45.59921774460494L269.6679541641582,45.145628051993725L269.92734216239234,44.78008928020739L269.94099416229943,44.5390982658559L270.00925416183475,44.29561868653778L270.37785815932534,44.02621125529427L270.62359415765246,43.83714810533567L270.8966341557936,43.61381843390936L272.4120061454773,43.102401634428105L272.53487414464087,42.75022221215605L272.7533061431538,42.624134265390865L272.79426214287497,42.55131627668547L272.9171301420385,42.4707055341768L273.2993861394362,42.31460390969528L273.76355413627624,42.579657813312764L273.7772061361833,42.7391987881424L273.90007413534687,42.93692795739017L273.941030135068,43.07285896934985L274.47345813144335,43.38984668002337L274.6782381300493,43.47486763605326L274.81475812911987,43.439860254356006L275.01953812772575,43.340194089158246L275.0468421275399,43.26807191615055L275.1560581267964,43.20261544663836L275.3744901253093,43.24064694735276L275.3881421252164,43.263587919619596L275.64753012345057,43.38002170067094L275.97517812122,43.48858552377851L276.12535012019765,43.52852954659326L276.2755221191753,43.54150949484449L276.657778116573,43.49911915652808L276.8216021154577,43.454594274398204L277.39498611155426,43.258782722144275L277.43594211127544,43.13749121850154L277.9956741074649,42.833396964704065L278.10489010672137,42.64233434783279L279.2107020991932,42.45297524919678L279.22435409910025,42.334748187238915L280.4120780910145,42.46738030379282L280.521294090271,42.56356134371981L281.1219820861817,42.67893534768581L281.1356340860887,42.74053026017819L281.69536608227816,42.771098781474706" fill="none"></path></g></g></g></g><g opacity="0.2"><g><g><g><path style="fill: none;" stroke="rgb(255, 112, 67)" stroke-width="2px" d="M27.891035810123793,181.6018401021773L27.93199180984497,175.69717442539255L28.08216380882263,177.96631187601716L28.286943807428536,189.09867859189347L28.600939805290917,174.9223064780243L29.433711799621584,179.9533616538782L32.32793577991833,181.56278559116572L33.06514377489957,176.6315665290916L33.35183577294783,171.97956984246784L33.597571771274914,169.55904635805877L33.78869976997375,170.89291855225278L34.63512376421148,160.7251736744509L35.0037277617021,158.01731512367806L35.22215976021507,156.93616554339278L35.31772375956449,157.1535551419127L35.33137575947155,157.15363991402256L35.781891756404534,156.20739666936532L35.97301975510337,155.1683788276795L36.15049575389516,154.80882640092767L36.341623752593996,153.67377871319468L36.4781437516646,153.40320309294984L37.06517974766818,149.56560358852113L37.17439574692466,149.55626170201475L37.283611746181144,150.02956134577408L37.76143174292824,149.7060370657119L37.816039742556484,149.57748863832322L37.84334374237061,149.66619417407864L38.034471741069446,149.70361258337L38.06177574088356,149.50331304219745L38.157339740232985,149.36811848139587L38.26655573948947,148.49730546009033L38.348467738931824,147.70780584656057L38.730723736329516,145.00103237879392L40.218791726199065,140.27858159166718L40.45087572461909,139.82476257875322L40.57374372378263,139.4424064544496L40.58739572368969,139.421281244673L40.66930772313204,139.76415052020474L40.751219722574405,139.53977569983255L40.99695572090149,138.27072026083596L41.037911720622674,138.05099095208396L41.16077971978621,137.5520562223036L41.82972771523215,134.42430445698201L41.87068371495333,134.3591825221891L41.9525957143957,134.2350931077789L42.03450771383805,133.67076517245405L42.23928771244396,132.71938473793944L42.321199711886315,132.22255235648353L42.38945971142162,131.86951042776883L43.09936370658874,130.55455936849512L43.16762370612405,130.15716467190268L43.18127570603111,130.0696289912633L43.42701170435819,128.98118900953023L43.60448770314997,127.91272133687971L44.300739698410034,126.47432513123076L44.53282369683006,125.95760521280218L45.283683691718366,123.98856950828595L45.32463969143954,123.94999819830055L45.51576769013838,124.08687124687731L45.57037568976663,124.06598339900829L46.22567168530551,122.6812818477434L46.32123568465494,122.25404736848095L46.621579682610246,121.18844499314363L46.78540368149498,120.68973067084889L46.92192368056557,120.57674640283012L47.33148367777738,119.67826376486691L47.48165567675504,119.04221862460217L47.59087167601152,118.75635011573895L47.67278367545388,118.47990826549194L48.1096476724798,116.85216507526411L48.50555566978455,115.6874471490808L48.723987668297504,115.29769889679756L48.94241966681047,114.90216918662199L48.99702766643871,114.82265294757516L49.229111664858735,115.23116974498097L49.706931661605836,114.12823373246219L50.28031565770235,113.57470576393325L50.4031836568659,113.31491315606236L50.48509565630826,113.16946116996796L50.55335565584356,112.94444208156082L50.648919655192984,112.77623726118054L50.77178765435652,112.49072479517872L50.96291565305536,112.03014096789812L50.990219652869484,111.94272396821252L51.03117565259066,111.86515748769243L51.63186364850131,110.27864745169954L52.24620364431901,108.97336041294966L52.491939642646095,108.92361613888497L52.61480764180964,109.14899127015352L52.79228364060142,109.36112499786222L52.833239640322596,109.289611245986L52.94245563957908,109.09304167764722L53.48853563586148,107.89431318098886L53.720619634281505,107.45371861721279L53.857139633352105,107.07407520042462L53.89809563307328,106.97846921492673L54.17113563121449,106.51083234810594L54.63530362805453,106.36573640487295L54.79912762693925,106.06111630530913L55.11312362480164,105.33739984902923L55.618247621362855,104.11666451265174L55.65920362108404,104.02692475715602L55.6728556209911,104.00863093584867L55.782071620247585,103.90493769107033L55.836679619875824,103.82379382751424L55.93224361922524,103.58809345326499L56.655799614299426,103.17274402380463L56.75136361364885,102.92922766102647L56.874231612812395,102.69064503504205L57.17457561076771,102.29391156090651L57.22918361039595,102.1718736315549L57.338399609652434,102.01184084256492L57.44761560890891,101.86701617008347L57.50222360853716,101.82283294642548L57.77526360667836,101.69326725371847L57.84352360621366,101.63226524346464L57.85717560612071,101.63718202583641L57.92543560565602,101.55834396366845L58.13021560426192,101.7041180837803L58.19847560379721,101.66391914928563L58.45786360203136,101.40687315777413L58.67629560054432,101.11803762506588L58.81281559961492,100.79420816540824L58.97663959849964,100.59867281680972L59.33159159608321,100.26194104203168L59.45445959524675,100.08748003994387L59.932279591993854,99.59510667146651L59.945931591900916,99.57442227666115L59.97323559171503,99.51830313993514L60.57392358762568,99.03635674097032L60.68313958688216,99.10176690093677L60.806007586045695,99.00463501746144L60.833311585859825,98.96046874822541L60.90157158539512,98.84970550948492L61.24287158307162,99.26268131986926L61.25652358297868,99.24762579315848L61.39304358204928,99.33828108744065L61.420347581863396,99.40269093651077L61.4886075813987,99.36561161565888L61.67973558009754,99.23402834673725L61.76164757953991,99.34367259362762L61.88451557870344,99.3413498378175L62.08929557730935,99.10920989218229L62.171207576751705,99.06599307057668L62.89476357182589,98.24336451651443L63.97327156448364,96.82829759549841L64.04153156401894,96.68640603801805L64.21900756281073,96.3631191198635L64.72413155937194,95.84684001640616L64.91525955807079,95.5863692316564L65.39307955481789,94.918483686929L66.52619554710388,93.67480901762391L66.85384354487333,93.18175747226769L67.18149154264276,92.89393920487774L67.82313553827458,92.4480039981806L67.93235153753108,92.36413047268707L68.42382353418523,91.73130667259693L68.68321153241938,91.39577866177888L68.79242753167586,91.25493827846076L68.83338353139703,91.21497670587368L69.62519952600653,90.15542705918024L70.3897115208019,89.23078374811485L70.47162352024425,89.14124744568281L70.6900555187572,89.0722259938364L70.9357915170843,88.78793424621654L70.94944351699135,88.75056670019111L71.4136115138314,88.34750922666018L71.550131512902,88.23910265257373L71.59108751262318,88.17201400483208L71.60473951253024,88.15402536312021L71.63204351234435,88.13171334380559L71.64569551225142,88.11482673952187L71.98699550992792,87.79608360645571L72.43751150686091,87.51263957993442L72.9835915031433,87.31935916945812L73.40680350026217,87.3623725380001L73.7754074977528,87.31735854766549L73.8436674972881,87.29511434603873L74.14401149524342,87.16977030440268L74.40339949347756,86.97667639256807L74.60817949208347,86.79221228151701L74.82661149059642,86.50280029846172L75.22251948790117,86.20430074522966L75.26347548762234,86.18575260759272L75.60477548529886,85.93579356446534L76.46485147944364,85.41018952892364L76.71058747777072,85.28101378792198L76.73789147758484,85.26266910334871L76.76519547739896,85.23969586157719L76.84710747684132,85.19622472364199L77.22936347423901,84.86986905511057L77.42049147293784,84.73543744329771L78.18500346773321,84.98600684561606L78.23961146736146,84.95581102008464L78.38978346633911,84.80564570468215L79.09968746150624,84.6499532477169L79.3863794595545,84.42869804098746L79.45463945908979,84.38270069417848L79.48194345890391,84.3590492755281L79.61846345797453,84.3203592845889L80.0689794549075,83.9274914186629L80.23280345379222,83.80201174165103L80.94270744895935,83.32983108974184L81.09287944793702,83.18349747370493L81.32496344635703,82.99894859054402L81.70721944375471,82.79790305480475L82.225995440223,82.45232107175752L82.37616743920066,82.34961118345353L82.41712343892185,82.30953092991268L83.19528743362427,82.14671761571935L83.26354743315956,82.21434880496409L83.41371943213723,82.19130774550467L84.41031542535262,81.58242358923843L84.56048742433028,81.50150013316798L84.57413942423734,81.49263297047682L84.60144342405147,81.48969985547575L84.66970342358675,81.44136279843468L84.68335542349382,81.43614083646744L85.02465542117032,81.23648556332984L85.09291542070562,81.16339505021023L85.1338714204268,81.12323002455952L85.24308741968328,81.05644655641336L85.51612741782448,80.91041811997192L85.55708341754567,80.92586359838805L85.77551541605864,80.86136897720809L86.07585941401396,80.75314890176332L86.25333541280574,80.71918919455419L86.28063941261986,80.686467160149L86.96323940797286,80.46165152480552L87.2908874057423,80.43755929118387L87.38645140509172,80.45644651726025L87.46836340453407,80.54150685229177L87.79601140230352,80.45824368598923L87.83696740202471,80.46071903159708L88.64243539654125,80.12235963230978L88.87451939496127,80.11832447988053L89.16121139300954,79.99360775185741L89.81650738854842,79.81575586537528L89.8574633882696,79.84491747116644L90.07589538678256,79.84576519226502L90.49910738390142,79.6214581895807L90.8813633812991,79.45120188414185L90.99057938055559,79.37434748934456L91.04518738018383,79.34433816245482L91.15440337944031,79.32048329074078L91.65952737600152,79.31607514102816L91.72778737553683,79.31024281986993L92.16465137256274,79.08223975319578L92.27386737181924,79.02857900765565L92.39673537098278,78.96383007014612L92.68342736903104,78.86401938799926L92.84725136791576,78.9388731610039L92.87455536772988,78.95874374355463L93.39333136419816,78.78719890204593L93.55715536308288,78.71780445291614L93.81654336131702,78.75162852474949L94.13053935917941,78.72156833459385L95.0588753528595,78.37335841614103L95.18174335202303,78.35933710917053L95.22269935174421,78.35596317919817L96.26025134468078,77.85251857317334L96.2875553444949,77.85287461603474L96.30120734440197,77.85080617655422L97.02476333947615,77.72085053214187L97.29780333761735,77.54962782465063L97.40701933687384,77.46344849776898L98.06231533241272,77.12532646038926L98.30805133073981,77.03499330012454L98.41726732999628,77.01595348425045L98.84047932711515,76.74663249123151L99.52307932246815,76.56917055645471L100.06915931875055,76.31283665066604L100.28759131726352,76.20409098814017L100.47871931596235,76.13452699479066L101.31149131029302,75.79894812070671L101.61183530824835,75.7510688330589L101.68009530778365,75.72029655718043L102.33539130332252,75.49317512044883L102.60843130146372,75.41018322489782L102.63573530127785,75.40391008876833L103.07259929830379,75.14803395237286L103.40024729607322,75.01992633995542L103.59137529477205,74.9258971157009L104.17841129077564,74.71501801521808L104.56066728817333,74.61123999832989L104.58797128798744,74.62678720327784L104.64257928761569,74.67337795485582L104.8473592862216,74.73948324612311L105.40709128241106,74.44925745081318L105.44804728213222,74.421299608982L106.17160327720642,74.17451104276333L106.59481527432528,73.95476477958937L106.60846727423235,73.9501531768131L106.84055127265236,73.8381353108467L106.88150727237355,73.8243344113618L107.34567526921359,73.6184060020947L107.37297926902771,73.59765378960145L107.46854326837713,73.56861086476411L107.9600152650313,73.48595805765254L108.24670726307956,73.38660514489894L108.57435526084899,73.30713976911801L108.6426152603843,73.26727992306277L108.72452725982666,73.22821693484019L109.09313125731728,73.02364487933082L109.36617125545848,72.96369404323923L109.4344312549938,72.98110623460406L109.6392112535997,73.03598769852616L109.70747125313498,72.99126193336505L110.29450724913858,72.79257306227981L110.63580724681506,72.68728610183615L110.6631112466292,72.6757401404735L110.88154324514215,72.59566440550162L111.01806324421277,72.56248460170318L111.70066323956577,72.32968343361108L111.9600512377999,72.21054471041663L112.13752723659168,72.16334359964767L112.21943923603405,72.14832198178084L112.39691523482583,72.09545809407336L113.17507922952825,71.86414891511475L113.48907522739063,71.75501330088355L113.55733522692593,71.74624786472424L113.88498322469538,71.61544449921331L114.03515522367304,71.53962432415628L114.1853272226507,71.4573445143281L114.36280322144248,71.41694212676975L114.69045121921192,71.31426614730972L115.98739121038264,70.968989343858L116.00104321028971,70.96982011053461L116.05565120991794,70.93904783465615L116.32869120805914,70.84981671181959L116.3423432079662,70.8385759300524L116.46521120712974,70.79917385339041L117.06589920304039,70.71231634962987L117.16146320238981,70.6927170378307L117.20241920211097,70.6800520846179L117.46180720034513,70.59702628022296L118.19901519532637,70.41113799772629L118.32188319448991,70.36124113386387L118.34918719430402,70.359969552216L118.40379519393227,70.34888136024657L118.48570719337464,70.32748487971838L118.52666319309581,70.32416181301195L118.62222719244524,70.39443789208426L118.7314431917017,70.44262235932757L118.77239919142289,70.47598866176767L118.93622319030763,70.44582674508018L119.30482718779824,70.56995006833432L119.35943518742648,70.56879716764024L119.50960718640415,70.49952139946427L120.5881151790619,70.24781605087384L120.77924317776073,70.18706835694957L120.88845917701722,70.13988420060258L121.07958717571606,70.0687604004317L121.09323917562311,70.06304676022728L121.98061916958201,69.77480463228804L122.37652716688676,69.68686204552131L122.41748316660795,69.6816231291321L122.7724351641915,69.5943756736662L123.07277916214683,69.54129137847312L123.41407915982333,69.48920739417636L124.12398315499046,69.25108253758518L124.32876315359636,69.17585576729715L124.43797915285283,69.13719968520189L124.4516311527599,69.13621632872756L124.75197515071523,69.04973182225041L124.99771114904232,69.03805022551197L125.5437911453247,69.2038305635503L125.83048314337297,69.2492175511683L126.25369514049184,69.18523156264746L126.97725113556602,69.04145806432825L127.12742313454369,69.05017263722166L127.37315913287075,68.98349089560733L127.50967913194137,68.91531716485952L127.52333113184842,68.91241795870238L127.78271913008257,68.84266746671119L128.09671512794495,68.83237613257444L128.3561031261791,68.80548641932745L128.88853112255444,68.77803721015545L128.92948712227562,68.76988213318708L129.02505112162504,68.75092708942285L129.16157112069564,68.6886195886772L129.20252712041682,68.67229248031853L129.2707871199521,68.66050915704827L129.4073071190227,68.62636295119745L129.85782311595568,68.55681591226994L130.11721111418984,68.56485230828449L131.1957191068476,68.46156596963345L131.6735391035947,68.42633468077648L131.90562310201472,68.38133764486383L132.1104031006206,68.32604927481444L132.26057509959827,68.27962806745617L132.34248709904065,68.25253490114557L132.68378709671714,68.15099486795762L132.75204709625245,68.12325743361208L132.82030709578774,68.10258999322869L133.0660430941148,68.04031640132698L133.21621509309247,68.01446090782028L133.25717109281365,68.00121950426046L133.53021109095488,67.91822760870946L133.63942709021134,67.89667853838355L133.77594708928194,67.84893488611152L134.25376708602906,67.73479771739866L134.32202708556437,67.77767545056486L135.154799079895,67.70058369385998L135.16845107980208,67.69704021966791L135.60531507682802,67.6197280554774L136.30156707208806,67.4255490606366L136.41078307134455,67.3764151457629L136.88860306809164,67.37207481373815L137.0387750670693,67.33436817927333L137.20259906595405,67.27648578266226L137.43468306437407,67.2833353691388L138.25380305879764,67.14527551102401L138.58145105656712,67.04460015335661L138.99101105377892,66.98488667917263L139.04561905340714,66.98670080232358L139.23674705210598,66.95952286390312L139.468831050526,66.90506526053031L139.55074304996836,66.87414039485412L140.1241270460649,66.72421244135921L140.34255904457785,66.67416298769905L140.49273104355552,66.64120359138624L140.61559904271905,66.63265856271255L140.72481504197555,66.64610341933604L140.99785504011675,66.57747191919498L141.06611503965206,66.559551095171L141.09341903946617,66.55655016248201L141.17533103890852,66.53259356423615L141.44837103704972,66.4834087860965L141.4893270367709,66.48941065147446L141.55758703630622,66.4674716294432L141.68045503546975,66.44015805564695L142.90913502710515,66.1862486322002L142.92278702701222,66.18190830017548L142.95009102682633,66.17248164155927L143.33234702422402,66.10915687549533L143.40060702375933,66.0882690276263L143.46886702329462,66.06965307230149L143.67364702190054,66.0411526889672L144.2606830179041,65.95154856884727L144.35624701725354,65.91279076022019L144.61563501548767,45.82681923277249L144.7385030146512,42.60970070923858L145.18901901158418,86.00781594900073L145.20267101149125,86.97157311155462L145.3255390106548,83.6192769816411L145.84431500712307,75.6349988602413L145.95353100637956,72.87642963335139L146.02179100591485,72.57772662705565L146.4586550029408,64.30154422257073L147.1002989985726,57.650324483110296L147.15490699820086,57.32090006420202L147.46890299606324,54.84777548562607L147.71463899439033,52.46774763809617L147.7555949941115,52.13191444768262L148.04228699215975,51.26564521146548L148.1924589911374,50.96621316502495L148.52010698890686,49.477072374415L148.61567098825628,49.583512235552746L148.8477549866763,49.7562608410214L148.87505898649042,49.760753762843876L148.9160149862116,49.69875144169373L149.20270698425986,49.16100804002036L149.23001098407397,49.16051636178318L149.29827098360929,49.19447606899229L149.44844298258695,48.71895539595471L149.61226698147166,48.23385547450317L149.8443509798917,49.1204361082423L150.09008697821878,49.75168314708907L150.17199897766113,50.13134351829922L150.30851897673173,50.12242549234216L150.56790697496587,49.77374085007415L150.9365109724565,48.10747721312683L151.04572697171295,48.07623021343315L151.33241896976125,47.79595666382056L151.61911096780952,47.484046162808966L152.3017109631625,47.0172739715087L152.39727496251194,47.03260076897104L153.1344829574932,46.380737153006805L153.27100295656376,46.87473814599343L153.3665669559132,47.03165132134063L153.73517095340384,47.244056319800904L154.02186295145208,47.15770744869951L154.1583829505227,46.955848100705595L154.37681494903566,46.930704692921694L154.4996829481992,47.21714965213195L154.93654694522513,47.79149765084202L155.22323894327337,48.52313182218268L155.81027493927695,48.22966773227617L155.85123093899813,48.14330190675281L156.12427093713936,48.24841932297676L156.21983493648875,48.15037190071499L156.5747869340723,47.72401905139503L157.5304269275665,46.52590091392767L157.65329492673007,47.1712031685889L157.7488589260795,47.15007795881229L157.92633492487127,46.9665802498136L158.2266789228266,47.07586845384259L158.37685092180425,47.141956790687885L158.52702292078192,47.217709148057025L158.74545491929487,47.3487159666316L159.07310291706435,47.352598529263105L159.15501491650667,47.40527591832887L159.46901091436905,47.08748223289314L159.71474691269614,46.83894736121138L160.5475189070268,46.16595853547051L160.67038690619034,46.23565816419577L161.271074902101,46.20198668216017L161.65333089949868,46.20668305704629L161.69428689921986,46.16550076607729L162.24036689550226,46.12314861999221L162.5680148932717,46.134881079996546L163.45539488723063,46.68089823959207L164.52025087998132,47.24195397147642L164.5885108795166,47.243174689858364L164.62946687923778,47.20809599079911L164.82059487793663,47.23769841156155L164.98441887682134,47.17976515168456L165.29841487468374,47.02583595460436L165.38032687412607,46.96315545657535L165.58510687273198,47.01835905451489L165.66701887217437,47.07698744569271L165.80353887124494,47.07288447557556L166.13118686901439,47.4262146294638L166.3632708674344,47.486979277810036L166.66361486538975,47.4886747200072L167.182390861858,47.305617825979795L167.33256286083568,47.2192689548784L167.60560285897688,47.10821749096439L167.7011668583263,47.094552226855285L167.76942685786162,47.09451831801135L168.8342828506123,46.86580316561441L169.24384284782408,46.60389125499705L169.28479884754526,46.663587774759065L169.48957884615118,46.99450418280085L169.57149084559356,46.98409416771028L169.63975084512882,46.97610863496166L170.03565884243358,47.020495311683305L170.22678684113245,47.028090892726595L170.3769588401101,46.98161882210243L170.5134788391807,47.073223564014995L170.56808683880894,47.050267276665465L170.581738838716,47.055133195771305L170.96399483611367,46.79883319882657L171.0868628352772,46.77306247742973L171.40085883313958,46.87778994194832L171.41451083304665,46.87351742761149L171.5783348319314,46.94228456312831L172.00154682905023,46.764381813380254L172.1244148282138,46.787795870123034L172.3564988266338,46.86426031321497L172.4247588261691,46.822450708633L172.54762682533266,46.831962139359064L172.65684282458912,46.74020480764875L172.76605882384558,46.665367989066084L172.9981428222656,46.62952634101811L173.40770281947744,46.875501094982155L173.544222818548,46.87963797394323L174.04934681510926,47.12622308709825L174.1722148142728,47.08933026488802L174.18586681417986,47.08458302673597L174.4862108121352,47.0297015628139L174.5817748114846,47.10484356099204L174.96403080888228,47.133242217794475L175.10055080795286,47.118542733945105L175.16881080748817,47.11120146923139L175.31898280646584,47.14884028600835L175.4418508056294,47.17981601495049L175.63297880432822,47.02266547769568L176.1517548007965,47.04589303579678L176.1927108005177,47.060643382912076L176.6568787973577,47.3647209409728L176.71148679698595,47.41987367564644L177.02548279484836,47.47778998110144L177.1073947942907,47.470126582370256L177.13469879410482,47.48165558931095L177.5988667909449,47.92894714976583L177.68077879038722,48.06183590917925L177.7626907898296,48.14989717689977L177.7899947896437,48.1787196942515L177.94016678862138,48.2918056888021L178.0084267881567,48.30872620192977L178.19955478685554,48.37762897282238L178.32242278601908,48.537526126436575L178.54085478453203,48.71371647956548L178.88215478220852,48.79875986017504L179.14154278044268,48.75905260391755L179.2644107796062,48.953943684481146L179.5101467779333,48.90152061174496L179.87875077542392,49.28518222654037L180.19274677328627,49.41390019814881L180.2200507731004,49.40783051508296L180.23370277300748,49.40372754496585L181.039170767524,49.63742729742245L181.08012676724522,49.663248882085185L181.20299476640875,49.712230207161156L181.72177076287704,49.582783195407956L182.1449827599959,49.527816959376025L182.41802275813708,49.6572131078633L182.67741075637124,49.59565160168441L183.10062275349011,49.50611529925237L183.20983875274658,49.4702058335165L183.23714275256071,49.46388183412108L183.70131074940076,49.51801730347643L183.93339474782076,49.549382984123895L184.20643474596199,49.518525936135575L184.58869074335965,49.48822838407233L184.62964674308083,49.4613725796693L184.72521074243025,49.41293379609641L184.75251474224436,49.405083898723575L184.9845987406644,49.33596072034533L185.09381473992087,49.29791499744107L185.21668273908443,49.31315702279352L185.42146273769032,49.26951634063863L185.6398947362033,49.21989074752773L186.17232273257864,49.11646877350094L186.33614673146334,49.12838773214699L186.36345073127748,49.13895033703528L186.49997073034805,49.105261900577716L186.65014272932572,49.1191814810164L186.8412707280246,49.102990008033515L186.86857472783868,49.111128130579885L187.1006587262587,49.34586210277675L187.36004672449286,49.30103461108382L187.85151872114702,49.15999077470207L188.22012271863764,49.335655540749855L188.30203471808,49.28596212995109L188.42490271724353,49.27755273665315L188.83446271445533,49.17019733672896L189.14845871231773,49.20017275477477L189.1621107122248,49.203817955498664L189.40784671055187,49.1172147680677L189.79010270794953,49.174622440863544L189.85836270748484,49.228774864640855L190.22696670497547,49.419393430867615L190.40444270376724,49.42809104933903L190.43174670358138,49.42171618667771L190.44539870348842,49.41941038528958L190.71843870162965,49.3077994254505L190.78669870116494,49.27819700468808L190.97782669986378,49.2463566002254L191.11434669893438,49.36519014382438L191.18260669846967,49.42885399832775L191.27817069781912,49.45084388362494L191.53755869605322,49.372107547988804L191.701382694938,49.28226606596127L192.17920269168508,49.26195466843927L193.0256266859228,48.94372016803226L193.2304066845287,48.899638670906086L193.38057868350637,48.87127392294761L193.43518668313462,48.877648785608926L193.65361868164757,48.829633862585354L194.10413467858052,48.824700125791594L194.22700267774408,48.90455545327785L194.82769067365473,48.845791426724276L195.10073067179593,48.75752670594011L195.1416866715171,48.74138609622315L195.3601186700301,48.68190998394675L195.57855066854304,48.623620681208365L196.54784266194432,48.39992403771504L196.67071066110785,48.37866319256264L197.09392265822672,48.32093338574933L197.35331065646085,48.290008520073116L197.39426665618205,48.315270608810806L197.69461065413736,48.461502498315895L198.58199064809625,48.23650036433074L198.69120664735274,48.277089250530764L198.97789864540098,48.29994381134847L199.27824264335632,48.25443814277668L199.67415064066108,48.33566677844266L200.30214263638584,48.20265933807542L200.68439863378353,48.06554892759104L201.48986662830004,47.99330613557004L201.70829862681302,48.025943397865376L202.1315106239319,47.88900253160074L202.24072662318838,47.8459043909489L202.52741862123662,47.81002883405699L202.8687186189131,47.767863186613624L202.93697861844842,47.75565600279407L203.1144546172402,47.66593320172032L203.29193061603198,47.6086272554563L203.37384261547436,47.5804490061395L203.94722661157087,47.49779619902793L203.96087861147794,47.50834184949426L204.23391860961917,47.60482946493465L205.0257346042286,47.61595156574805L205.25781860264863,47.70755630766061L205.62642260013925,47.6929415959211L205.64007460004632,47.68283676042603L205.7492905993028,47.637907542201276L205.91311459818755,47.5932326403061L206.07693859707226,47.58083895784483L206.28171859567814,47.631091864568674L206.33632659530642,47.63322812173709L206.56841059372644,47.657235583248905L206.8141465920535,47.6445706300361L207.05988259038057,47.73020741541467L207.26466258898648,47.70664076887414L207.40118258805708,47.722340563619866L207.44213858777826,47.7220184296024L207.60596258666297,47.73798949509964L207.61961458657004,47.74271977882972L207.67422258619828,47.727511662321206L208.05647858359598,47.69765492522919L208.41143058117953,47.593402184525814L208.8619465781125,47.507612809349496L209.06672657671842,47.476416672921744L209.55819857337258,47.59207973961202L210.2817545684468,47.71103196416479L210.336362568075,47.76426884915563L210.6094025662162,47.7955836665372L211.27835056166214,47.841886192941644L211.63330255924572,47.93886548661922L211.67425855896687,47.92247056057266L212.24764255506344,48.072805420194896L212.94389455032348,47.956904991597014L213.1486745489294,48.00059653701783L213.25789054818586,47.98723645250419L213.33980254762824,47.98543928377521L214.0224025429812,47.97562267345364L214.06335854270242,47.9691460842605L214.1043145424236,47.96650119443294L214.28179054121537,47.961991318188495L214.650394538706,47.9155362019863L214.99169453638248,47.95846479841839L215.08725853573193,47.94690188263377L215.38760253368727,48.16781800092377L215.6742945317355,48.214866521894976L215.8517705305273,48.17905878269093L216.3295905272744,48.13426519984196L216.64358652513678,48.064599479960634L216.68454252485796,48.06609146909415L216.86201852364974,48.02692675433974L216.91662652327798,48.00875161398616L217.58557451872392,48.07456868007995L217.59922651863099,48.07350055149573L217.85861451686512,48.04394899399921L217.89957051658632,48.026180759772984L218.02243851574985,47.983438661982575L218.0360905156569,47.98225185244456L218.11800251509928,47.99357740632158L218.39104251324048,48.00100344314515L218.4183465130546,48.00127471389669L218.66408251138168,47.951852573849465L219.5378105054335,47.94678320167995L219.61972250487588,47.973876367990584L220.0838905017159,47.9355254654908L220.6436224979054,47.959566835846545L221.0258784953031,47.958447843996424L221.46274249232897,47.882339443765886L221.54465449177135,47.88105090769605L221.85865048963373,47.90283733992956L222.36377448619496,47.94615588806701L222.37742648610202,47.94644411324052L222.45933848554438,47.93335529947845L222.58220648470794,47.907686304613435L222.81429048312796,47.84860014404239L222.97811448201267,47.782833941214534L223.06002648145503,47.76615078999447L223.33306647959623,47.68665150536964L223.38767447922447,47.674444321550084L223.71532247699392,47.60465992071494L223.86549447597156,47.58038118845161L224.5480944713246,47.43164004449471L224.875742469094,47.378521840457694L225.18973846695638,47.32333519694012L225.68121046361057,47.3608383783413L226.00885846138,47.40958234150966L226.03616246119412,47.41661842662788L226.0498144611012,47.421179166138245L226.8689344555248,47.46782078098212L227.0737144541307,47.46008956456308L227.15562645357303,47.458936663869L227.56518645078486,47.46785468982608L227.68805444994837,47.47099125789083L227.74266244957664,47.461327237367016L227.824574449019,47.45486760259581L228.04300644753198,47.49379495544264L228.63004244353556,47.47541636202541L228.79386644242027,47.44774674536774L229.0805584404685,47.42355278521427L229.09421044037558,47.42548558931904L229.14881844000382,47.4520192597046L229.20342643963207,47.47706094095665L229.25803443926029,47.472127204162916L229.4901184376803,47.47719657633243L229.5720304371227,47.478230796072694L229.62663843675094,47.487131867607786L229.65394243656507,47.48657237168271L229.99524243424156,47.56688546856222L230.36384643173218,47.60215066626316L230.62323442996635,47.64629998107722L231.06009842699223,47.76333635594719L231.0737504268993,47.774577137714374L231.08740242680636,47.77971432757175L231.41505042457578,47.79892368766559L231.60617842327466,47.77098280025638L232.30243041853473,47.78937834809557L232.46625441741944,47.790276932460074L233.32633041156421,47.65952443021507L233.89971440766075,47.61698578548831L233.954322407289,47.61552770519876L234.55501040319962,47.5840942068634L234.58231440301375,47.57765152651419L234.81439840143378,47.567987505990374L235.319522397995,47.51169882504465L235.72908239520677,47.479502377720564L235.82464639455623,47.478078206274944L235.96116639362683,47.49701629561724L236.2069023919539,47.4654471619061L236.52089838981627,47.429622468280115L236.7529823882363,47.383760756846925L236.83489438767867,47.40295316251877L236.93045838702807,47.370875396148506L237.57210238265992,47.372079160108484L237.64036238219524,47.38323516976578L237.8587943807082,47.35631154767489L237.94070638015054,47.343917865213655L238.07722637922112,47.32974396844537L238.3229623775482,47.300294137480705L238.41852637689766,47.29147783805547L238.55504637596823,47.270861260938005L238.58235037578237,47.27003049426139L238.75982637457415,47.26757210307551L239.0192143728083,47.22530472910029L239.29225437094948,47.24536181029271L239.44242636992712,47.22226988756739L240.08407036555897,47.16943990870385L240.24789436444368,47.1516208112117L240.39806636342138,47.13800641036852L241.2717943574732,47.07456296335076L241.69500635459207,47.12535841157768L242.2001303511533,47.129461381694824L242.52777834892274,47.165557346072376L242.65064634808627,47.16182737323862L242.73255834752865,47.17235606928298L242.93733834613454,47.15987761471189L243.16942234455453,47.14282146620843L243.36055034325338,47.149942323436505L243.40150634297456,47.13376780487562L243.66089434120872,47.10896348553115L243.92028233944288,47.09304328329981L245.01244233200768,46.98063546562807L245.46295832894066,46.97310770227267L245.57217432819712,47.02659890359308L245.6540863276395,47.01603629870479L245.98173432540892,47.04682552900522L245.995386325316,47.04616430654832L246.09095032466544,47.042942966373715L246.51416232178428,47.053234300510496L246.88276631927488,47.0712059878004L247.04659031815964,47.135751472246284L247.27867431657964,47.15760572216769L247.33328231620789,47.17790016526769L248.13875031072442,47.186004378970125L248.31622630951622,47.17028762980243L248.4527463085868,47.15969111607018L248.50735430821504,47.1611152875158L248.58926630765743,47.15648673031757L248.84865430589156,47.14161770224845L249.1489983038469,47.11101497058971L249.32647430263867,47.10267339497969L250.1319422971552,47.0790219763293L250.43228629511052,47.280084466490564L250.48689429473876,47.33889935631004L250.5141982945529,47.34834296934824L250.52785029445997,47.348902465273284L250.66437029353054,47.37638558328928L250.93741029167177,47.421331755935995L251.29236228925532,47.41414308102003L251.75653028609534,47.355870732703636L251.8793982852589,47.33745823044245L252.64391028005426,47.24832883413774L253.3811182750355,47.24392068442512L253.73607027261906,47.20153462949611L253.80433027215437,47.20997793163798L254.07737027029557,47.29537735510894L254.77362226555564,47.29141002036758L254.8282302651839,47.2807117801035L255.26509426220983,47.297784883028896L255.93404225765576,47.23683373604098L256.20708225579693,47.21048656429713L256.6439462528229,47.24158097419303L256.7804662518935,47.262570548593885L256.7941182518005,47.267894237092975L257.135418249477,47.302566030024906L257.20367824901234,47.31180618999943L257.25828624864056,47.30297293615223L257.4494142473394,47.27850770524719L258.02279824343594,47.2094862534008L258.36409824111246,47.16175955555073L259.38799823414195,47.03744973365491L260.302682227915,47.12898665787961L260.72589422503387,47.11610129718119L261.1900622218739,47.049945142648L261.20371422178096,47.0492839201911L261.5040582197363,47.00308312031848L262.02283421620456,29.81645338539093L262.0910942157399,36.67114314293258L262.1593542152752,36.056324938976275L262.29587421434576,39.91969516480185L262.66447821183635,46.61565762384535L262.67813021174345,47.19315914504213L262.77369421109285,47.42770661859731L262.9648222097917,46.6897314934393L263.11499420876936,46.02650841475406L263.3607302070965,46.198951840627245L263.38803420691056,46.3595441255423L263.70203020477294,47.611797732365005L263.71568220468004,47.55021927176412L263.7293342045871,47.597471245799L263.77029020430825,47.817505734146465L264.0296782025424,46.89769443334299L264.5074981992895,46.657450274005356L264.6849741980813,46.5544182516839L264.7395821977095,46.42219071472738L264.91705819650133,45.42316835447255L264.93071019640837,45.42876331372318L265.06723019547894,45.39058195544311L265.2174021944566,45.62796081746757L265.3539221935272,45.33666689357341L265.46313819278373,45.28292137592342L265.5996581918543,44.976690606272314L266.26860618730024,42.86474607895744L266.3778221865567,42.706612185228266L266.43243018618494,42.63094459996901L266.81468618358264,43.2583599394502L267.0058141822815,43.242354965109L267.0877261817239,44.530145040384184L267.2788541804227,46.00322999338704L267.3061581802368,46.233199773009886L267.4017221795862,46.97483705331379L267.4563301792145,47.05406506718708L267.49728617893567,47.0470120276469L267.5109381788427,47.09268724043841L267.565546178471,47.23266294823597L267.90684617614744,46.96998808862992L268.04336617521807,46.696564125493836L268.0979741748463,46.97448101045239L268.31640617335927,46.750835230224936L268.5075341720581,46.10292199458007L268.9990061687123,46.16363577966041L269.01265816861934,46.08942627469068L269.10822216796873,46.03083179235682L269.2583941669464,45.52253822164812L269.40856616592407,45.126109927108075L269.6679541641582,44.4652435130769L269.92734216239234,44.231781122527906L269.94099416229943,44.17761174432863L270.00925416183475,43.93039931756067L270.37785815932534,43.62210010842901L270.62359415765246,43.5535533803978L270.8966341557936,43.27882392676992L272.4120061454773,42.3352764352062L272.53487414464087,42.22195307874799L272.7533061431538,42.43500234524316L272.79426214287497,42.442089293627305L272.9171301420385,42.349789420413884L273.2993861394362,42.08045147297298L273.76355413627624,42.977238668739034L273.7772061361833,42.978510250386904L273.90007413534687,43.2335217112618L273.941030135068,43.27675548728939L274.47345813144335,43.86532824603364L274.6782381300493,43.60239907009799L274.81475812911987,43.38734918181018L275.01953812772575,43.190694841361534L275.0468421275399,43.15988865663911L275.1560581267964,43.10443074237L275.3744901253093,43.297694198424324L275.3881421252164,43.297999378019824L275.64753012345057,43.55467237224792L275.97517812122,43.651431258439885L276.12535012019765,43.588445580815375L276.2755221191753,43.560979417221375L276.657778116573,43.43553364905347L276.8216021154577,43.3878069512034L277.39498611155426,42.96506539376341L277.43594211127544,42.955553963037346L277.9956741074649,42.377255584007884L278.10489010672137,42.35574042252591L279.2107020991932,42.16893660124279L279.22435409910025,42.1574075943021L280.4120780910145,42.66632847862374L280.521294090271,42.70783290361024L281.1219820861817,42.851996353634775L281.1356340860887,42.83292262891672L281.69536608227816,42.81695156341948" fill="none"></path></g></g></g></g></g></g><g transform="translate(29, 177)" clip-path="url(#clip_1)"><clipPath id="clip_1"><rect width="300" height="22"></rect></clipPath><g><g><line x1="0" y1="0" x2="0" y2="5" style="visibility: inherit;" fill="rgb(0, 0, 0)" stroke="rgb(204, 204, 204)" stroke-width="1px"></line><line x1="27.303999814120207" y1="0" x2="27.303999814120207" y2="5" style="visibility: inherit;" fill="rgb(0, 0, 0)" stroke="rgb(204, 204, 204)" stroke-width="1px"></line><line x1="54.607999628240414" y1="0" x2="54.607999628240414" y2="5" style="visibility: inherit;" fill="rgb(0, 0, 0)" stroke="rgb(204, 204, 204)" stroke-width="1px"></line><line x1="81.91199944236061" y1="0" x2="81.91199944236061" y2="5" style="visibility: inherit;" fill="rgb(0, 0, 0)" stroke="rgb(204, 204, 204)" stroke-width="1px"></line><line x1="109.21599925648083" y1="0" x2="109.21599925648083" y2="5" style="visibility: inherit;" fill="rgb(0, 0, 0)" stroke="rgb(204, 204, 204)" stroke-width="1px"></line><line x1="136.51999907060102" y1="0" x2="136.51999907060102" y2="5" style="visibility: inherit;" fill="rgb(0, 0, 0)" stroke="rgb(204, 204, 204)" stroke-width="1px"></line><line x1="163.82399888472122" y1="0" x2="163.82399888472122" y2="5" style="visibility: inherit;" fill="rgb(0, 0, 0)" stroke="rgb(204, 204, 204)" stroke-width="1px"></line><line x1="191.12799869884145" y1="0" x2="191.12799869884145" y2="5" style="visibility: inherit;" fill="rgb(0, 0, 0)" stroke="rgb(204, 204, 204)" stroke-width="1px"></line><line x1="218.43199851296166" y1="0" x2="218.43199851296166" y2="5" style="visibility: inherit;" fill="rgb(0, 0, 0)" stroke="rgb(204, 204, 204)" stroke-width="1px"></line><line x1="245.73599832708186" y1="0" x2="245.73599832708186" y2="5" style="visibility: inherit;" fill="rgb(0, 0, 0)" stroke="rgb(204, 204, 204)" stroke-width="1px"></line><line x1="273.03999814120203" y1="0" x2="273.03999814120203" y2="5" style="visibility: inherit;" fill="rgb(0, 0, 0)" stroke="rgb(204, 204, 204)" stroke-width="1px"></line><line x1="300.34399795532227" y1="0" x2="300.34399795532227" y2="5" style="visibility: inherit;" fill="rgb(0, 0, 0)" stroke="rgb(204, 204, 204)" stroke-width="1px"></line></g><g transform="translate(0, 8)"><text style="text-anchor: middle; visibility: hidden; font-family: &quot;Helvetica Neue&quot;, sans-serif; font-size: 12px; font-weight: 200;" x="0" y="0" dx="0em" dy="0.95em" fill="rgb(50, 49, 63)" stroke="none" stroke-width="1px">-2k</text><text style="text-anchor: middle; visibility: inherit; font-family: &quot;Helvetica Neue&quot;, sans-serif; font-size: 12px; font-weight: 200;" x="27.303999814120207" y="0" dx="0em" dy="0.95em" fill="rgb(50, 49, 63)" stroke="none" stroke-width="1px">0</text><text style="text-anchor: middle; visibility: inherit; font-family: &quot;Helvetica Neue&quot;, sans-serif; font-size: 12px; font-weight: 200;" x="54.607999628240414" y="0" dx="0em" dy="0.95em" fill="rgb(50, 49, 63)" stroke="none" stroke-width="1px">2k</text><text style="text-anchor: middle; visibility: inherit; font-family: &quot;Helvetica Neue&quot;, sans-serif; font-size: 12px; font-weight: 200;" x="81.91199944236061" y="0" dx="0em" dy="0.95em" fill="rgb(50, 49, 63)" stroke="none" stroke-width="1px">4k</text><text style="text-anchor: middle; visibility: inherit; font-family: &quot;Helvetica Neue&quot;, sans-serif; font-size: 12px; font-weight: 200;" x="109.21599925648083" y="0" dx="0em" dy="0.95em" fill="rgb(50, 49, 63)" stroke="none" stroke-width="1px">6k</text><text style="text-anchor: middle; visibility: inherit; font-family: &quot;Helvetica Neue&quot;, sans-serif; font-size: 12px; font-weight: 200;" x="136.51999907060102" y="0" dx="0em" dy="0.95em" fill="rgb(50, 49, 63)" stroke="none" stroke-width="1px">8k</text><text style="text-anchor: middle; visibility: inherit; font-family: &quot;Helvetica Neue&quot;, sans-serif; font-size: 12px; font-weight: 200;" x="163.82399888472122" y="0" dx="0em" dy="0.95em" fill="rgb(50, 49, 63)" stroke="none" stroke-width="1px">10k</text><text style="text-anchor: middle; visibility: inherit; font-family: &quot;Helvetica Neue&quot;, sans-serif; font-size: 12px; font-weight: 200;" x="191.12799869884145" y="0" dx="0em" dy="0.95em" fill="rgb(50, 49, 63)" stroke="none" stroke-width="1px">12k</text><text style="text-anchor: middle; visibility: inherit; font-family: &quot;Helvetica Neue&quot;, sans-serif; font-size: 12px; font-weight: 200;" x="218.43199851296166" y="0" dx="0em" dy="0.95em" fill="rgb(50, 49, 63)" stroke="none" stroke-width="1px">14k</text><text style="text-anchor: middle; visibility: inherit; font-family: &quot;Helvetica Neue&quot;, sans-serif; font-size: 12px; font-weight: 200;" x="245.73599832708186" y="0" dx="0em" dy="0.95em" fill="rgb(50, 49, 63)" stroke="none" stroke-width="1px">16k</text><text style="text-anchor: middle; visibility: inherit; font-family: &quot;Helvetica Neue&quot;, sans-serif; font-size: 12px; font-weight: 200;" x="273.03999814120203" y="0" dx="0em" dy="0.95em" fill="rgb(50, 49, 63)" stroke="none" stroke-width="1px">18k</text><text style="text-anchor: middle; visibility: hidden; font-family: &quot;Helvetica Neue&quot;, sans-serif; font-size: 12px; font-weight: 200;" x="300.34399795532227" y="0" dx="0em" dy="0.95em" fill="rgb(50, 49, 63)" stroke="none" stroke-width="1px">20k</text></g><line x1="0" y1="0" x2="300.34399795532227" y2="0" fill="rgb(0, 0, 0)" stroke="rgb(204, 204, 204)" stroke-width="1px"></line></g></g></g></g></svg>