<svg viewBox="0 0 330 200" xmlns="http://www.w3.org/2000/svg"><g><g><g><g><g><line x1="39.304001808166504" y1="177.80999946594238" x2="34.304001808166504" y2="177.80999946594238" style="visibility: inherit;" fill="rgb(0, 0, 0)" stroke="rgb(204, 204, 204)" stroke-width="1px"></line><line x1="39.304001808166504" y1="152.40857097080777" x2="34.304001808166504" y2="152.40857097080777" style="visibility: inherit;" fill="rgb(0, 0, 0)" stroke="rgb(204, 204, 204)" stroke-width="1px"></line><line x1="39.304001808166504" y1="127.00714247567313" x2="34.304001808166504" y2="127.00714247567313" style="visibility: inherit;" fill="rgb(0, 0, 0)" stroke="rgb(204, 204, 204)" stroke-width="1px"></line><line x1="39.304001808166504" y1="101.60571398053851" x2="34.304001808166504" y2="101.60571398053851" style="visibility: inherit;" fill="rgb(0, 0, 0)" stroke="rgb(204, 204, 204)" stroke-width="1px"></line><line x1="39.304001808166504" y1="76.20428548540389" x2="34.304001808166504" y2="76.20428548540389" style="visibility: inherit;" fill="rgb(0, 0, 0)" stroke="rgb(204, 204, 204)" stroke-width="1px"></line><line x1="39.304001808166504" y1="50.80285699026925" x2="34.304001808166504" y2="50.80285699026925" style="visibility: inherit;" fill="rgb(0, 0, 0)" stroke="rgb(204, 204, 204)" stroke-width="1px"></line><line x1="39.304001808166504" y1="25.40142849513464" x2="34.304001808166504" y2="25.40142849513464" style="visibility: inherit;" fill="rgb(0, 0, 0)" stroke="rgb(204, 204, 204)" stroke-width="1px"></line><line x1="39.304001808166504" y1="0" x2="34.304001808166504" y2="0" style="visibility: inherit;" fill="rgb(0, 0, 0)" stroke="rgb(204, 204, 204)" stroke-width="1px"></line></g><g transform="translate(29.304001808166504, 0)"><text style="text-anchor: end; visibility: hidden; font-family: &quot;Helvetica Neue&quot;, sans-serif; font-size: 12px; font-weight: 200;" x="0" y="177.80999946594238" dx="0em" dy="0.3em" fill="rgb(50, 49, 63)" stroke="none" stroke-width="1px">300</text><text style="text-anchor: end; visibility: inherit; font-family: &quot;Helvetica Neue&quot;, sans-serif; font-size: 12px; font-weight: 200;" x="0" y="152.40857097080777" dx="0em" dy="0.3em" fill="rgb(50, 49, 63)" stroke="none" stroke-width="1px">350</text><text style="text-anchor: end; visibility: inherit; font-family: &quot;Helvetica Neue&quot;, sans-serif; font-size: 12px; font-weight: 200;" x="0" y="127.00714247567313" dx="0em" dy="0.3em" fill="rgb(50, 49, 63)" stroke="none" stroke-width="1px">400</text><text style="text-anchor: end; visibility: inherit; font-family: &quot;Helvetica Neue&quot;, sans-serif; font-size: 12px; font-weight: 200;" x="0" y="101.60571398053851" dx="0em" dy="0.3em" fill="rgb(50, 49, 63)" stroke="none" stroke-width="1px">450</text><text style="text-anchor: end; visibility: inherit; font-family: &quot;Helvetica Neue&quot;, sans-serif; font-size: 12px; font-weight: 200;" x="0" y="76.20428548540389" dx="0em" dy="0.3em" fill="rgb(50, 49, 63)" stroke="none" stroke-width="1px">500</text><text style="text-anchor: end; visibility: inherit; font-family: &quot;Helvetica Neue&quot;, sans-serif; font-size: 12px; font-weight: 200;" x="0" y="50.80285699026925" dx="0em" dy="0.3em" fill="rgb(50, 49, 63)" stroke="none" stroke-width="1px">550</text><text style="text-anchor: end; visibility: inherit; font-family: &quot;Helvetica Neue&quot;, sans-serif; font-size: 12px; font-weight: 200;" x="0" y="25.40142849513464" dx="0em" dy="0.3em" fill="rgb(50, 49, 63)" stroke="none" stroke-width="1px">600</text><text style="text-anchor: end; visibility: hidden; font-family: &quot;Helvetica Neue&quot;, sans-serif; font-size: 12px; font-weight: 200;" x="0" y="0" dx="0em" dy="0.3em" fill="rgb(50, 49, 63)" stroke="none" stroke-width="1px">650</text></g><line x1="39.304001808166504" y1="0" x2="39.304001808166504" y2="177.80999946594238" fill="rgb(0, 0, 0)" stroke="rgb(204, 204, 204)" stroke-width="1px"></line></g></g><g transform="translate(39, 0)" clip-path="url(#clip_0)"><clipPath id="clip_0"><rect width="290" height="177"></rect></clipPath><g><g><g><line x1="0" y1="0" x2="0" y2="177.80999946594238" fill="rgb(0, 0, 0)" stroke="rgb(60, 60, 60)" stroke-width="1px" opacity="0.25"></line><line x1="22.36123063014104" y1="0" x2="22.36123063014104" y2="177.80999946594238" fill="rgb(0, 0, 0)" stroke="rgb(60, 60, 60)" stroke-width="1px" opacity="0.25"></line><line x1="44.72246126028208" y1="0" x2="44.72246126028208" y2="177.80999946594238" fill="rgb(0, 0, 0)" stroke="rgb(60, 60, 60)" stroke-width="1px" opacity="0.25"></line><line x1="67.08369189042311" y1="0" x2="67.08369189042311" y2="177.80999946594238" fill="rgb(0, 0, 0)" stroke="rgb(60, 60, 60)" stroke-width="1px" opacity="0.25"></line><line x1="89.44492252056416" y1="0" x2="89.44492252056416" y2="177.80999946594238" fill="rgb(0, 0, 0)" stroke="rgb(60, 60, 60)" stroke-width="1px" opacity="0.25"></line><line x1="111.8061531507052" y1="0" x2="111.8061531507052" y2="177.80999946594238" fill="rgb(0, 0, 0)" stroke="rgb(60, 60, 60)" stroke-width="1px" opacity="0.25"></line><line x1="134.16738378084622" y1="0" x2="134.16738378084622" y2="177.80999946594238" fill="rgb(0, 0, 0)" stroke="rgb(60, 60, 60)" stroke-width="1px" opacity="0.25"></line><line x1="156.52861441098727" y1="0" x2="156.52861441098727" y2="177.80999946594238" fill="rgb(0, 0, 0)" stroke="rgb(60, 60, 60)" stroke-width="1px" opacity="0.25"></line><line x1="178.88984504112832" y1="0" x2="178.88984504112832" y2="177.80999946594238" fill="rgb(0, 0, 0)" stroke="rgb(60, 60, 60)" stroke-width="1px" opacity="0.25"></line><line x1="201.25107567126935" y1="0" x2="201.25107567126935" y2="177.80999946594238" fill="rgb(0, 0, 0)" stroke="rgb(60, 60, 60)" stroke-width="1px" opacity="0.25"></line><line x1="223.6123063014104" y1="0" x2="223.6123063014104" y2="177.80999946594238" fill="rgb(0, 0, 0)" stroke="rgb(60, 60, 60)" stroke-width="1px" opacity="0.25"></line><line x1="245.97353693155142" y1="0" x2="245.97353693155142" y2="177.80999946594238" fill="rgb(0, 0, 0)" stroke="rgb(60, 60, 60)" stroke-width="1px" opacity="0.25"></line><line x1="268.33476756169244" y1="0" x2="268.33476756169244" y2="177.80999946594238" fill="rgb(0, 0, 0)" stroke="rgb(60, 60, 60)" stroke-width="1px" opacity="0.25"></line><line x1="290.6959981918335" y1="0" x2="290.6959981918335" y2="177.80999946594238" fill="rgb(0, 0, 0)" stroke="rgb(60, 60, 60)" stroke-width="1px" opacity="0.25"></line></g><g><line x1="0" y1="177.80999946594238" x2="290.6959981918335" y2="177.80999946594238" fill="rgb(0, 0, 0)" stroke="rgb(60, 60, 60)" stroke-width="1px" opacity="0.25"></line><line x1="0" y1="152.40857097080777" x2="290.6959981918335" y2="152.40857097080777" fill="rgb(0, 0, 0)" stroke="rgb(60, 60, 60)" stroke-width="1px" opacity="0.25"></line><line x1="0" y1="127.00714247567313" x2="290.6959981918335" y2="127.00714247567313" fill="rgb(0, 0, 0)" stroke="rgb(60, 60, 60)" stroke-width="1px" opacity="0.25"></line><line x1="0" y1="101.60571398053851" x2="290.6959981918335" y2="101.60571398053851" fill="rgb(0, 0, 0)" stroke="rgb(60, 60, 60)" stroke-width="1px" opacity="0.25"></line><line x1="0" y1="76.20428548540389" x2="290.6959981918335" y2="76.20428548540389" fill="rgb(0, 0, 0)" stroke="rgb(60, 60, 60)" stroke-width="1px" opacity="0.25"></line><line x1="0" y1="50.80285699026925" x2="290.6959981918335" y2="50.80285699026925" fill="rgb(0, 0, 0)" stroke="rgb(60, 60, 60)" stroke-width="1px" opacity="0.25"></line><line x1="0" y1="25.40142849513464" x2="290.6959981918335" y2="25.40142849513464" fill="rgb(0, 0, 0)" stroke="rgb(60, 60, 60)" stroke-width="1px" opacity="0.25"></line><line x1="0" y1="0" x2="290.6959981918335" y2="0" fill="rgb(0, 0, 0)" stroke="rgb(60, 60, 60)" stroke-width="1px" opacity="0.25"></line></g></g></g><g><g><line x1="0" y1="330.21857043675016" x2="290.6959981918335" y2="330.21857043675016" fill="rgb(0, 0, 0)" stroke="rgb(153, 153, 153)" stroke-width="1.5px"></line></g></g><g><g><line x1="22.36123063014104" y1="0" x2="22.36123063014104" y2="177.80999946594238" fill="rgb(0, 0, 0)" stroke="rgb(153, 153, 153)" stroke-width="1.5px"></line></g></g><g><g><g><g><g><path style="fill: none;" stroke="rgb(204, 51, 17)" stroke-width="2px" d="M28.19751182460785,178.78111222791986L28.354040439018835,177.77262308277113L28.488207822799684,176.83416280568494L29.270850894854618,175.71831129365725L29.315573356114903,174.70160820064302L29.49446320115603,173.7763652444761L29.964049044388993,172.88271610875523L30.14293888943012,172.04314534610816L30.59016350203294,171.14825016882176L31.797669956060556,170.17272836029827L31.820031186690695,169.27174701167465L32.267255799293515,168.3338561892388L32.33433949118394,167.4529906493254L32.66975795063606,166.59164595906904L32.73684164252648,165.77395342604058L32.75920287315662,165.00259879067636L32.98281517945803,164.22616996736784L33.40767856143071,163.48505962204294L33.87726440466367,162.7393064313485L34.36921147852678,161.929598677105L34.97296470554058,161.1749102777809L35.196577011841995,160.42290670202706L35.330744395622844,159.68144942693618L35.48727301003383,158.95238747709206L35.50963424066397,158.25901489464354L36.247554851458624,157.60713262253708L36.5606120802806,156.9607343957723L36.71714069469159,156.3215371247879L36.739501925321726,155.70873976782946L36.78422438658201,155.12211520284222L36.851308078472435,154.5550409042966L36.89603053973271,154.003447490414L37.16436530729441,153.42129047014834L37.387977613595815,152.8240384321397L38.34951053069188,152.12919918525807L38.528400375733014,151.45021677748838L38.707290220774134,150.7814128906356L39.199237294637236,150.1174585930923L39.288682217157806,149.47131691680931L39.48993329282907,148.8385142465015L39.579378215349635,148.22298666123777L39.62410067660991,147.6299919418662L39.82535175228119,147.04480614250053L39.937157905431896,146.4731103307239L39.981880366692174,145.92105294613836L40.09368651984288,145.3867497564071L40.13840898110316,144.86900631695903L40.227853903623725,144.36592437275766L40.317298826144295,143.87650098783774L40.45146620992514,143.39796041564432L40.47382744055528,142.93336349835553L40.98813574504852,142.45154381299466L41.07758066756909,141.9763395473082L41.81550127836374,141.46160129685322L41.97202989277473,140.94932997566156L42.10619727655558,140.4510270769594L42.665228042309096,139.95587180131872L42.70995050356939,139.4740962774283L42.88884034861051,139.007446337526L43.20189757743249,138.54410920468843L43.447871114364034,138.07483253616257L43.51495480625446,137.61424534106322L43.71620588192573,137.1539435108644L43.89509572696686,136.69451782636907L44.096346802638124,136.2402307800378L44.11870803326827,135.79799772734629L44.25287541704911,135.36233406245114L44.27523664767926,134.9352283737106L44.38704280082996,134.51091745213205L44.7895449521725,134.07779191542033L44.85662864406292,133.65316811466025L45.05787971973419,133.23180266538796L46.1535800206111,132.80984302285987L46.220663712501526,132.39676333650067L46.265386173761804,131.99299055001507L46.354831096282375,131.59311034445614L46.488998480063216,129.28678918977215L46.600804633213926,127.19713766154973L46.82441693951534,125.88942176676431L46.95858432329618,124.6071103898453L47.07039047644688,123.37040627704673L47.294002782748294,122.34647193674891L48.23317446921422,121.64595396440717L48.32261939173478,120.92790614619177L48.34498062236492,120.21111058761475L48.36734185299506,119.4969252075211L48.76984400433761,118.78663373162306L49.06054000252944,118.17392268486736L49.351236000721265,117.55996612447584L50.200962764666635,117.04732445306817L50.44693630159818,116.5433113657588L50.5140199934886,116.04826709342096L50.58110368537903,115.56547998723462L51.028328297981844,115.07245182037846L51.16249568176269,114.57756263119077L51.31902429617368,114.07062470009775L51.81097137003678,113.56353871612512L51.878055061927206,113.07346948692006L52.12402859885876,112.58451262431885L52.19111229074918,112.09062149967949L52.258195982639606,111.59288393969577L52.280557213269745,111.10336772452911L53.35389628351652,110.60988594340914L53.42097997540694,110.13203786656644L53.48806366729736,109.66971155522867L53.51042489792751,109.21849430957006L54.00237197179061,108.76013954118517L54.2707067393523,108.29040979688236L54.49431904565371,107.82508654653829L54.583763968174274,107.36306780200572L55.1427947339278,106.85846446181456L55.16515596455794,106.36008629273668L55.41112950148949,105.86378486633208L55.590019346530624,105.38783248861752L55.724186730311466,104.91954949206881L56.43974611047598,104.43561173443283L56.52919103299654,103.95649367821424L57.08822179875007,103.48759638403145L57.44600148883232,103.03080871297283L57.46836271946247,102.58263395734456L57.80378117891458,102.1593843921074L57.89322610143515,101.7417042363313L58.25100579151741,101.32276936460549L58.273367022147546,100.91090258782563L58.76531409601065,100.50073274132556L58.98892640231206,100.09406485276585L59.056010094202485,99.69456532637055L59.16781624735319,99.30087338650466L59.234899939243604,98.91066925894793L59.68212455184643,98.52397939581613L59.9951817806684,98.15235963166468L60.196432856339676,97.78874347592482L60.28587777886024,97.43035388198763L60.33060024012052,97.07533112811399L60.3753227013808,96.72333942743981L60.44240639327123,96.37362452052878L60.59893500768221,96.02277658319026L60.80018608335349,95.67386883213565L61.113243312175456,95.33352655121811L61.15796577343574,94.99603691733674L61.225049465326165,94.66168602260788L61.33685561847687,94.32870852306154L61.403939310367285,94.00070500435939L61.42630054099743,93.67539100494987L61.873525153600255,93.34991796546808L62.07477622927152,93.0289270301281L62.20894361305237,92.70773870264148L62.387833458093496,92.38398191393564L62.58908453376477,92.05876423381578L62.74561314817576,91.73736425808588L63.21519899140871,91.42410581576938L63.30464391392928,91.1148323716544L63.52825622023069,90.8087300129647L63.61770114275126,90.50703454467288L63.818952218422524,90.20384670462263L64.10964821661436,89.90042431408727L64.17673190850478,89.59899303892506L64.31089929228563,89.30024619650386L64.3556217535459,89.00555963575056L65.25007097875155,88.72653781355415L65.63021189946394,88.44675159488614L65.85382420576536,88.16545823786193L65.92090789765578,87.88570508048923L65.96563035891606,87.60813853682245L66.3681325102586,87.34274979405436L66.68118973908058,87.0787622819771L66.72591220034086,86.8173911016438L67.1284143516834,86.5571856495274L67.21785927420396,86.30039036586409L67.39674911924509,86.04928333819103L67.7768900399575,85.80081113751129L67.91105742373833,85.55432587425837L68.44772695886172,85.30628338666169L68.73842295705356,85.06101758262523L68.80550664894398,84.81881594823712L68.82786787957411,84.57937711908458L68.91731280209468,84.34327912099478L69.00675772461524,84.110697051094L69.09620264713581,83.88199418645048L69.25273126154678,83.65845142533354L69.58814972099891,83.44353542113878L70.3484315624237,83.23176764424706L70.43787648494427,83.23180648073314L70.59440509935526,83.04053164476183L70.79565617502652,82.79586716713537L71.28760324888962,82.59105227196314L71.33232571014992,82.39473016304713L71.3770481714102,82.20442716469424L71.48885432456089,82.02018744771203L71.55593801645132,81.84475047279719L71.73482786149245,81.67772890133051L71.82427278401302,81.52693229442868L72.27149739661584,81.3618200902935L72.38330354976654,81.18937115234317L72.40566478039668,81.01643457854897L72.45038724165697,80.84030349570189L72.51747093354739,80.66800807820384L72.60691585606796,80.48421438329827L72.6292770866981,80.29626653338954L72.78580570110907,80.11756273381714L72.8528893929995,79.93205823272699L72.96469554615021,79.7350419293104L73.38955892812288,79.51283433176363L73.61317123442429,79.28160401145252L73.74733861820515,79.03885503769187L73.881506001986,78.79589953571234L73.97095092450655,78.55545645308237L74.23928569206825,78.31329059024345L74.26164692269839,78.0735410132322L74.82067768845191,77.84558244088758L75.02192876412319,77.61673755073515L75.80457183617811,77.37009367581894L75.82693306680825,77.12414323736944L75.87165552806854,76.88045016831025L76.85554967579475,76.61691391944763L77.03443952083587,76.3500028218503L77.19096813524686,76.08392451641195L77.23569059650714,75.81909714606988L77.28041305776743,75.55527889424245L77.39221921091813,75.29052158064388L77.95124997667165,75.01968710379863L77.9736112073018,74.75284764468319L78.19722351360322,74.48531460518498L78.24194597486348,74.22053694918138L78.35375212801421,73.95618368574986L78.66680935683617,73.69994937934055L78.80097674061703,73.44491432229165L79.00222781628828,73.18984730058419L79.33764627574041,72.92936801073019L79.42709119826097,72.67084274510185L79.47181365952125,72.41342830496674L80.03084442527478,72.16844891930042L80.52279149913788,71.92547526558099L80.65695888291873,71.68581720848884L81.03709980363112,71.4498721854377L81.17126718741197,71.21546460742329L81.19362841804211,70.98270809318835L81.50668564686409,70.75207716622614L81.75265918379563,70.52006065470823L82.26696748828887,70.28423417768043L82.42349610269986,70.0488734176075L82.53530225585058,69.81473901556534L82.82599825404242,69.58704051260833L82.9825268684534,69.36472228411579L83.3179453279055,69.14908217673944L83.5862800954672,68.93587203620439L83.65336378735762,68.7244818787735L83.96642101617961,68.52016309926142L84.74906408823453,68.31871614483086L84.77142531886467,68.11837185877212L84.79378654949481,67.919097828865L85.19628870083736,67.71714427776516L85.53170716028947,67.51868194440846L86.60504623053623,67.34168209734213L86.80629730620751,67.1682127764317L87.00754838187879,66.99743337662879L87.14171576565963,66.82677749897533L87.61130160889257,66.65488620584972L87.65602407015287,66.48395077998124L87.678385300783,66.31432720206536L88.72936314039964,66.13702416001023L88.90825298544075,65.96097466543269L89.42256128993401,65.78633148879693L89.71325728812585,65.61175858520717L90.0710369782081,65.43550654846284L90.13812067009853,65.26063708638644L90.31701051513966,65.08548378079719L90.38409420703007,64.9108246031659L90.92076374215345,64.73329634185302L91.01020866467402,64.55659374803558L91.05493112593432,64.38056849764463L91.68104558357825,64.20429872104746L92.19535388807151,64.02495583492376L92.53077234752361,63.846614590385585L92.93327449886617,63.6662145337918L93.067441882647,63.48585392389937L93.42522157272926,63.30506139698801L93.82772372407179,63.12473814543961L93.85008495470194,62.946027515415196L94.00661356911293,62.76959717324024L94.07369726100336,62.59336867335128L94.61036679612674,62.45936320497569L94.83397910242813,62.3591476367625L94.90106279431856,62.273854784210044L94.92342402494872,62.20184818240287L94.96814648620898,62.138161161151345L94.99050771683913,62.08977172337937L95.54953848259265,62.07490426080646L95.75078955826393,62.01852488308499L96.28745909338731,61.93522462453042L96.46634893842844,61.855937684686694L96.77940616725041,61.76107921713749L96.80176739788055,61.66377427292423L97.18190831859295,61.554434819657416L97.83038400686705,61.485764949812605L97.87510646812731,61.42317546415373L98.09871877442873,61.35424522575697L98.47885969514113,61.308971234091175L98.59066584829183,61.26691499414592L99.08261292215494,61.2112606577421L99.26150276719608,61.15048478435912L99.50747630412762,61.08334592519262L99.55219876538791,61.01371745396803L99.7087273797989,60.943595120621L99.84289476357974,60.87189712291193L99.99942337799071,60.79808822585058L100.13359076177157,60.725305317403595L100.20067445366199,60.653196542465224L100.58081537437438,60.57682263827256L100.8491501419361,60.495371806625315L100.9162338338265,60.41412305885251L101.43054213831975,60.34110787354656L101.47526459958003,60.271225531782136L101.60943198336088,60.19872263895272L101.69887690588145,60.124071423470895L102.05665659596369,60.03606346182511L102.43679751667611,59.93501151760337L102.8840221292789,59.82212150491267L103.28652428062146,59.703386407266095L103.33124674188173,59.58401974243522L103.37596920314202,59.464233066019744L103.44305289503245,59.34684644116419L103.51013658692287,59.23518880063496L103.89027750763528,59.11843394420737L104.13625104456682,59.00945913394865L104.4493082733888,58.91249782719055L105.1648676535533,58.82042200559013L105.70153718867668,58.72423995776583L105.79098211119725,58.628453870348324L105.83570457245753,58.532788536093946L105.96987195623838,58.43749274204973L106.03695564812881,58.344055897320956L106.43945779947134,58.26217998647623L106.73015379766318,58.180815396845574L106.9090436427043,58.099757785440005L107.19973964089614,58.01733899617649L107.31154579404685,57.934954598695185L107.66932548412909,57.84771733303377L107.78113163727981,57.760527543878425L107.82585409854008,57.67312946795532L108.0494664048415,57.584435412230604L108.13891132736207,57.496498765455115L108.78738701563616,57.40848876589506L108.89919316878687,57.31937616665577L109.05572178319785,57.2281682013156L110.03961593092406,57.1349736311071L110.21850577596518,57.04368803035551L110.37503439037617,56.95296017591281L110.46447931289673,56.862651005541224L110.71045284982827,56.77271387204887L110.84462023360912,56.68219038363969L110.97878761738997,56.5929066156241L111.47073469125307,56.5145590950863L111.71670822818463,56.43589001029183L111.82851438133532,56.35780363237282L112.0297654570066,56.279223237682544L112.05212668763674,56.200723769624574L112.32046145519844,56.12250708184662L112.56643499212998,56.04469722781407L112.63351868402042,55.96696972986548L113.90810882993844,55.898632097630696L114.01991498308915,55.83085310646153L114.04227621371929,55.763372851910205L114.26588852002071,55.699677087594395L115.898258356021,55.63283359954565L116.14423189295256,55.56715932400087L116.16659312358269,55.50235378354573L116.21131558484298,55.43842196863865L116.25603804610326,55.375949831734715L116.32312173799367,55.314783038761036L116.34548296862381,55.254352638887624L116.90451373437735,55.19476654611685L117.01631988752804,55.13531905431421L117.08340357941847,55.07592322506832L117.26229342445961,55.01669109484264L117.70951803706242,54.95826792505022L117.77660172895284,54.90062446999315L117.798962959583,54.84308196741658L118.13438141903511,54.78426706272192L118.49216110911736,54.79446944057064L118.6263284928982,54.87813252336129L118.71577341541878,54.96133334602044L118.91702449109003,55.023013506883544L118.96174695235032,55.052478900743225L119.1629980280216,55.019471546608145L119.25244295054216,54.954829981890526L119.4984164874737,54.86073862823281L120.07980848385738,54.72229687946064L120.28105955952864,54.58344952818257L120.61647801898077,54.45133443100397L120.77300663339174,54.3175886462743L120.90717401717258,54.18767868456743L120.99661893969316,54.064944889909114L121.0189801703233,53.94290592728201L121.44384355229599,53.80325869927839L121.51092724418639,53.666133009290036L122.31593154687148,53.5602946355059L122.45009893065233,53.45175641684297L122.78551739010443,53.34008689788425L122.83023985136472,53.22847839903804L123.21038077207713,53.115422798502706L123.23274200270725,53.002742744397025L123.65760538467994,52.907523660516745L123.67996661531008,52.8118047101667L123.74705030720051,52.71342389911011L123.94830138287176,52.6082212278681L124.19427491980333,52.4969307204381L124.75330568555685,52.381762842948305L124.82038937744727,52.26951743355215L125.06636291437883,52.16040662661392L125.13344660626925,52.05237331852845L125.17816906752954,51.945767762465294L125.22289152878982,51.839714380076956L125.8713672170639,51.745729827112555L126.34095306029687,51.65689551191407L126.49748167470786,51.56976909879705L126.67637151974897,51.4839352383615L126.76581644226955,51.399479360347286L126.92234505668054,51.316388476604146L126.94470628731068,51.233547723737516L126.9670675179408,51.151036839688445L127.19067982424222,51.06924435441644L127.7720718206259,50.979515812821646L127.88387797377659,50.887859090557825L128.24165766385886,50.797702666624645L128.48763120079042,50.721060501401055L128.57707612331097,50.64827503267264L128.5994373539411,50.57641485940479L128.77832719898225,50.509677519395225L128.9124945827631,50.44490828534971L128.9795782746535,50.38037249000938L129.18082935032479,50.31552236565612L129.27027427284534,50.251669992169994L129.42680288725631,50.189627043128L129.44916411788645,50.127681127884415L129.58333150166732,50.06566557878571L129.71749888544815,50.00426260226752L129.76222134670843,49.94302235464603L129.82930503859887,49.88285428486637L130.6119481106538,49.842511407304485L130.8802828782155,49.80420555569597L131.30514626018817,49.76671862785412L131.81945456468142,49.73000333331535L132.26667917728423,49.694989652834636L132.80334871240763,49.66747717942866L133.16112840248988,49.63954973786625L133.34001824753102,49.61160088361791L133.54126932320227,49.58399956890247L133.6083530150927,49.55647274595853L133.653075476353,49.52932505138202L133.67543670698313,49.50233043857912L134.65933085470934,49.479292183871536L134.79349823849017,49.4569050286718L134.86058193038062,49.43491821978935L135.0171105447916,49.41360625219585L135.30780654298343,49.39491904721649L135.3525290042437,49.37678695070488L135.37489023487385,49.35917666065157L135.53141884928482,49.34298799119014L135.93392100062738,49.328388777252655L136.56003545827133,49.31522727077518L137.00726007087414,49.30026366466086L137.05198253213442,49.285175922286555L137.18614991591528,49.26990246692819L137.76754191229895,49.258715474673295L137.87934806544965,49.247906208592184L138.25948898616204,49.23786738658089L138.66199113750457,49.22787666615554L138.8408809825457,49.217998194445954L139.53407913208008,49.20782135200753L140.1378323590939,49.19605314013339L140.65214066358715,49.18559986608486L141.3006163518612,49.1786983840567L141.54658988879277,49.17343944652737L141.90436957887502,49.16993489753668L142.217426807697,49.16724705299586L142.23978803832716,49.16475309936658L142.68701265092994,49.02344830754086L143.22368218605337,49.09850476807142L143.5814618761356,49.122624579009624L144.0063252581083,49.10533643889576L144.0734089499987,49.0911441597209L144.1852151031494,49.078894780597324L145.01258063646463,49.12553045056427L145.1691092508756,49.174332175249816L145.2585541733962,49.22373575917362L145.39272155717703,49.274790689084426L145.52688894095786,49.32719485485751L145.705778785999,49.38130918127996L145.7505012472593,49.434758500246716L146.28717078238267,49.49213650494315L146.4660606274238,49.549578306722196L146.8462015481362,49.60594227158026L147.00273016254718,49.66084991092768L147.27106493010888,49.71455814708284L147.31578739136916,49.767317924554305L147.44995477515002,49.81866085693953L147.71828954271172,49.870923794206874L147.83009569586238,49.92112650716183L148.05370800216383,49.96754640078477L148.27732030846522,50.01177824927092L148.90343476610917,50.05780565494257L148.94815722736948,50.103441144824416L149.03760214989,50.14951110320028L149.37302060934212,50.19619560947015L150.28983106517794,50.235072804268796L150.35691475706835,50.27326491078473L150.75941690841088,50.30778537964687L151.16191905975342,50.33901799917871L151.54205998046584,50.36453940526735L151.60914367235623,50.38941601395095L151.72094982550695,50.412734975925105L151.83275597865767,50.43448247960944L152.23525813000018,50.452583031109654L152.25761936063031,50.47056521805668L152.63776028134274,50.48884537638139L152.70484397323312,50.50745924978793L152.86137258764413,50.52741190051208L153.46512581465794,50.55202775582471L153.50984827591824,50.5764206434269L153.66637689032922,50.60017967787735L154.06887904167175,50.6177032576757L154.27013011734303,50.63347681428499L154.47138119301428,50.64750551765853L154.69499349931573,50.65946112102124L154.94096703624726,50.67511031430645L155.05277318939795,50.691779411074975L155.47763657137065,50.70753011801111L155.58944272452132,50.722829139585954L155.63416518578163,50.7380355272322L155.72361010830218,50.7526296417946L155.92486118397346,50.76616449249799L156.327363335316,50.77724446875801L156.7745879479188,50.786683711270896L156.88639410106953,50.79507328384163L157.08764517674078,50.80240632090211L157.22181256052164,50.808889214367255L157.33361871367234,50.81472120032636L157.40070240556275,50.82021878502174L157.8926494794259,50.82403575594638L158.2951516307684,50.825912028132294L158.384596553289,50.82713270354387L158.49640270643965,50.828243870477664L158.85418239652194,50.82775060304775L158.8989048577822,50.82708176665477L159.2566845478645,50.82543559876312L159.30140700912477,50.823592608283704L159.4355743929056,50.82084320658784L159.48029685416589,50.817902366593884L159.52501931542616,50.81465212605971L159.79335408298786,50.810782596281854L159.83807654424814,50.80659337657505L159.88279900550845,50.80211732117037L160.39710731000167,50.795585918432025L160.59835838567292,50.78765075048426L160.66544207756337,50.77917318806888L161.02322176764562,50.76872661688846L161.26919530457718,50.756769729740896L161.31391776583746,50.74447443675925L161.4480851496183,50.73137727107235L161.73878114781013,50.71734755859369L161.85058730096085,50.70369726411944L162.14128329915266,50.69352499041351L162.4319792973445,50.683570123351885L163.01337129372817,50.672854017654885L163.52767959822143,50.66136837147802L163.61712452074198,50.64892566590446L163.63948575137212,50.636249069381066L163.7960143657831,50.62299150460494L164.17615528649551,50.60818204919158L164.42212882342704,50.5928355682215L164.6681023603586,50.57734518068567L164.82463097476958,50.562151787925856L164.95879835855044,50.54732108051529L165.4954678936738,50.53294392071143L166.7253355783316,50.379564862313785L166.81478050085215,50.234647239357756L167.105476499044,50.097500990786784L167.44089495849607,49.954634271729816L167.61978480353724,49.81325244395882L167.64214603416738,49.67002391239322L167.7315909566879,49.525424519164005L167.95520326298936,49.38627087594904L168.17881556929075,49.24273548471518L168.2011767999209,49.1020808421699L168.22353803055105,48.96160249181631L168.40242787559217,48.82323548367543L168.849652488195,48.749542109745704L169.38632202331837,48.7121119294645L169.54285063772934,48.68488711223662L169.6099343296198,48.65973419354299L169.83354663592118,48.63372779178525L170.03479771159243,48.59927039800854L170.10188140348288,48.56263361558419L170.32549370978427,48.526695641870674L170.437299862935,48.48776769306937L171.24230416562006,48.42823291158325L171.44355524129136,48.36452870213475L171.4882777025516,48.29917655654347L171.5777226250722,48.23139785624073L171.71189000885303,48.161628938816534L171.77897370074345,48.09061719819266L171.93550231515445,48.01588026587547L172.11439216019556,47.939858530436226L172.18147585208598,47.86284733343541L172.36036569712712,47.78455646664332L172.44981061964768,47.705722706492736L173.0535638466615,47.620161158098284L173.14300876918207,47.53355736836767L173.3889823061136,47.44330317789695L173.63495584304516,47.349295384144966L173.90329061060686,47.25075537598593L174.82010106644265,47.1428852857957L175.15551952589476,47.0353919275729L175.46857675471674,46.93123359293571L175.64746659975785,46.830335659907064L175.96052382857982,46.7338614014717L175.98288505921,46.63815258376883L176.56427705559364,46.550406759685046L176.8773342844156,46.46619336671412L177.43636505016914,46.387142749800375L178.0848407384432,46.31153569852282L178.15192443033365,46.23597257855309L178.2860918141145,46.162884077185396L178.68859396545702,46.09680240408858L178.73331642671732,46.03197838574965L179.13581857805985,45.96993951762133L179.22526350058044,45.90752575326596L179.78429426633397,45.851204954408416L179.94082288074495,45.79687268204492L180.23151887893675,45.74405146220866L180.36568626271762,45.69176093591662L180.9470782591013,45.64523206686613L181.28249671855338,45.60494516446616L181.46138656359454,45.56745135522635L181.48374779422468,45.53050167819191L181.97569486808777,45.49218556887436L182.06513979060836,45.45367791895143L182.37819701943033,45.415315809521246L182.646531786992,45.37878218358378L182.66889301762217,45.34249174546255L182.8254216320331,45.30738165953201L183.13847886085512,45.273857496249605L183.27264624463592,45.24031911179449L183.47389732030723,45.20707434001588L183.67514839597848,45.173688186345856L183.71987085723876,45.14104897038709L183.74223208786893,45.10844583912413L184.16709546984157,45.07601568209944L184.23417916173202,45.043552603605235L184.43543023740327,45.01106899678132L184.7261262355951,44.978968666930086L185.26279577071853,44.94740428025946L185.62057546080075,44.91643287251287L185.86654899773234,44.88701127732648L186.26905114907484,44.86006825685715L186.49266345537626,44.834338878238356L186.5150246860064,44.808647363563125L186.64919206978726,44.78384927534793L186.80572068419823,44.75824022248494L186.8951656067188,44.73229526658105L186.91752683734893,44.70618894349215L186.9398880679791,44.67988886891385L187.43183514184219,44.64978041762819L187.45419637247232,44.619508899368384L187.5436412949929,44.588363468198L187.5883637562532,44.55684613379864L187.78961483192444,44.52354964174009L187.87905975444502,44.49008816628077L188.52753544271908,44.454454284348856L188.54989667334922,44.41899704021762L188.75114774902048,44.383560957101736L188.81823144091092,44.34834331628926L188.97476005532192,44.31312218197172L189.1983723616233,44.27778483396381L189.22073359225348,44.24256860442924L189.26545605351376,44.20727983457206L189.37726220666445,44.17181818692319L189.60087451296587,44.13590901535292L189.64559697422612,44.10001467023119L190.0033766643084,44.063570481016626L190.13754404808927,44.02761951525267L190.1599052787194,43.991695429873545L190.33879512376052,43.95450485925713L190.76365850573322,43.82159733546695L191.14379942644558,43.72338491565884L192.23949972732248,43.63281189326142L192.53019572551432,43.553613816751835L192.59727941740476,43.477482398278426L193.29047756693913,43.4140293615595L193.3128387975693,43.351249561672404L193.69297971828166,43.29729624321479L193.9165920245831,43.252233430037364L193.9836757164735,43.21099357633682L194.02839817773378,43.169879857975076L194.27437171466534,43.13342786883351L194.4085390984462,43.09879031049681L194.56506771285717,43.070972413602675L194.9675698641997,43.05163045222392L194.98993109482987,43.03246623031677L195.07937601735043,43.01453162664032L195.14645970924082,42.99634310854546L195.19118217050112,42.97827413706139L195.5042393993231,42.96404196081619L195.59368432184368,42.951137452491594L195.8396578587752,42.94176126195214L195.90674155066566,42.932093245042864L196.35396616326844,42.916990605575876L196.5328560083096,42.901520823230356L196.756468314611,42.881998134631516L197.0248030821727,42.85906810202539L197.53911138666592,42.83157139300383L197.65091753981665,42.80687214646798L198.031058460529,42.7889386277684L199.01495260825524,42.76451552146463L199.03731383888538,42.739866423035465L199.12675876140597,42.71535938978542L199.7528732190499,42.6909502303609L200.71440613614595,42.67650353762309L200.89329598118707,42.66364124163147L201.07218582622824,42.65183166196289L201.09454705685837,42.640322417263775L201.76538397576257,42.623731399342546L201.85482889828316,42.6060837897181L202.1008024352147,42.5855293015494L202.3691372027764,42.56339854675451L202.4362208946668,42.54100071696698L202.4809433559271,42.51839212929718L202.57038827844767,42.49686874867891L202.7492781234888,42.47948356206203L204.09095196129724,42.45934796490283L204.2251193450781,42.438950290789364L204.24748057570824,42.41841726261731L204.62762149642063,42.398969313357185L204.78415011083163,42.378752772970984L205.29845841532486,42.35883669086101L205.38790333784544,42.339270568382204L205.70096056666742,42.3244039733311L206.08110148737978,42.30950801437274L206.21526887116065,42.29502648041341L206.50596486935248,42.28105114161886L206.9531894819553,42.26565181492734L207.1544405576266,42.249400796651486L207.51222024770883,42.23011304026102L207.5569427089691,42.21044607007613L207.7581937846404,42.19025121829756L207.95944486031166,42.16946928283713L208.13833470535278,42.14863910506554L208.5855593179556,42.12883175574831L208.6302817792159,42.10911146295129L208.6973654711063,42.0895153985947L208.7420879323666,42.07011965821383L208.87625531614745,42.050742902820815L209.14459008370915,42.03145449016597L209.1669513143393,42.01216699815228L209.32347992875026,41.99331219295746L209.39056362064068,41.97462780900025L209.5023697737914,41.95562562717373L209.65889838820237,41.936868087863246L209.70362084946265,41.91901409888305L210.84404361159986,41.90369402730059L211.0900171485314,41.88872987358499L211.15710084042183,41.8739658163785L211.26890699357253,41.859146330918634L211.62668668365478,41.84395691035911L211.71613160617537,41.82929641280981L211.7384928368055,41.814636944090154L211.78321529806578,41.80015976421393L212.00682760436717,41.78671438525609L212.09627252688776,41.773740873390636L212.18571744940832,41.76124769053763L212.3869685250796,41.749339965412815L212.4093297557097,41.73752946384039L212.52113590886043,41.72589024305975L212.610580831381,41.71452456522121L212.63294206201115,41.7032708886164L212.96836052146327,41.692680865190056L213.6615586709976,41.684508392763234L213.9298934385593,41.677325366291996L214.0864220529703,41.670654467993046L214.198228206121,41.66443410500875L214.51128543494298,41.66609211884068L214.71253651061423,41.66582334263438L215.04795497006634,41.69891734291673L215.2939285069979,41.7476165166413L215.4504571214089,41.80362401759393L215.47281835203904,41.861992118463235L215.67406942771032,41.927826391607766L216.52379619165566,41.984371847631564L216.5908798835461,42.03748124347413L216.6356023448064,42.09026065836346L216.7026860366968,42.142199027189406L216.72504726732691,42.19294228504532L216.8144921898475,42.240344448739705L217.53005157001203,42.269085454644966L217.843108798834,42.29080648022375L218.58102940962866,42.31278121370528L218.6704743321492,42.33408743192763L219.07297648349174,42.356517546434986L219.18478263664247,42.379054388127656L219.52020109609458,42.401489555670736L219.587284787985,42.4233002052145L219.65436847987542,42.4442474620063L220.1239543231084,42.46454552382272L220.36992786003992,42.49094133994123L220.68298508886193,42.522283311077246L220.90659739516332,42.55629918810459L220.97368108705373,42.59010342471015L221.0631260095743,42.62632901274466L221.44326693028668,42.66821508090686L221.487989391547,42.70992408093889L221.5550730834374,42.7517694308427L222.02465892667036,42.7939004408187L222.06938138793066,42.836355934852094L222.18118754108136,42.87974605002037L222.42716107801292,42.92327354980665L222.60605092305403,42.96344366855462L222.6954958455746,43.00276984737894L223.07563676628698,43.042616744681595L223.20980415006784,43.08419230636258L223.43341645636926,43.12452238156095L223.47813891762954,43.164084726550186L223.6123063014104,43.20167115029193L223.72411245456107,43.237971291089735L223.8359186077118,43.27296104762567L223.90300229960224,43.30748389916329L224.23842075905432,43.33907657883597L224.26078198968446,43.37099977263671L224.86453521669827,43.398291801658786L225.0434250617394,43.42621336730832L225.26703736804083,43.45776058780436L225.51301090497236,43.48888836103637L225.9825967482053,43.514519087931575L226.36273766891773,43.536010368607066L226.38509889954787,43.55734676051526L227.1006582797124,43.575468782571306L227.12301951034252,43.59322373342283L227.25718689412338,43.60975427203013L228.4199708868907,43.62618465374567L228.464693348151,43.64248605520311L228.6883056544524,43.65873004681913L228.84483426886337,43.67462094164324L229.44858749587718,43.686129031942755L229.91817333911015,43.69571018842311L230.14178564541157,43.70474911777754L230.49956533549383,43.71232784549923L230.5442877967541,43.71965195523549L230.58901025801438,43.727022154284526L230.70081641116508,43.73415442357236L231.4163757913296,43.7385361790632L231.5281819444803,43.74275130196358L231.77415548141184,43.74726304007095L231.796516712042,43.751671765426806L231.88596163456256,43.75613128981678L232.84749455165866,43.759424340590215L232.91457824354904,43.76298035892822L233.36180285615188,43.7642647762456L233.49597023993272,43.76450716974051L233.51833147056286,43.76474865543142L234.09972346694653,43.762670161720735L234.25625208135753,43.7596916185293L234.4127806957685,43.7559683977305L235.15070130656318,43.752501404885834L235.64264838042627,43.74662871088603L235.6650096110564,43.74058128809395L235.86626068672766,43.73316925896316L236.02278930113866,43.724490742708724L236.08987299302908,43.7153919772353L236.24640160744008,43.705029438292485L236.3134852993305,43.69435243862429L236.73834868130317,43.6810584070858L236.8054323731936,43.66730899617846L237.05140591012514,43.65307918313064L237.2973794470567,43.63937300232712L237.5209917533581,43.6261994448607L237.5657142146184,43.61315914494111L237.58807544524853,43.600157992155005L237.65515913713895,43.587452869672916L238.19182867226235,43.576454245910554L238.30363482541304,43.5660340229706L238.3259960560432,43.555932578173525L238.41544097856374,43.546216927414235L238.84030436053644,43.57906694200389L239.06391666683783,43.602625625793706L239.24280651187897,43.637017581163946L239.51114127944064,43.66254064872865L240.40559050464628,43.66687561010238L240.6068415803176,43.68015839174828L240.62920281094773,43.69482763362279L240.76337019472857,43.717881169373385L240.80809265598884,43.74381099775266L241.0093437316601,43.77561243562394L241.79198680371505,43.798233846584395L242.41810126135897,43.81670163659382L242.48518495324942,43.83488275395791L242.55226864513983,43.85411700189198L242.7535197208111,43.87239500679425L243.37963417845506,43.886419667014735L243.91630371357843,43.902642615475344L244.13991601987985,43.92238651579123L245.3697837045376,43.93218624443867L245.50395108831847,43.93931081504357L245.593396010839,43.94492455001907L245.66047970272945,43.94990319021278L245.90645323966098,43.953208133966996L246.30895539100354,43.95210981332892L246.42076154415426,43.95100822672717L247.1139596936886,43.95473934443851L247.22576584683932,43.9577467534215L247.24812707746946,43.96055209368288L247.29284953872977,43.964294042337144L247.56118430629144,43.968526737317575L247.60590676755172,43.972868124431756L247.87424153511338,43.97819978694457L248.09785384141483,43.984261032404504L248.38854983960667,43.99087611877053L248.50035599275733,43.99653818932782L248.5227172233875,44.00285965631903L248.85813568283962,44.00746712797124L248.99230306662048,44.01308629519673L249.21591537292187,44.01934656705268L249.75258490804526,44.018921633602275L250.13272582875766,44.01638382013368L250.31161567379877,44.01329350803721L250.62467290262074,44.01037225695549L251.31787105215514,44.0102512762727L251.47439966656611,44.01049582255169L251.54148335845653,44.01094779356501L251.72037320349767,44.0124276358205L252.07815289357993,44.011284278048464L252.1675978161005,44.00951989713633L252.27940396925118,44.006545411659204L252.32412643051148,44.00329613599496L252.36884889177176,43.99972646085999L252.43593258366218,43.99603452037309L253.21857565571713,43.99091345142364L253.35274303949794,43.98615436595912L253.37510427012808,43.981400354392235L253.5316328845391,43.97797721910035L253.73288396021036,43.97588772985432L254.1801085728132,43.97417373347412L254.4484433403749,43.97172375664874L254.80622303045712,43.9692928451266L254.8509454917174,43.966662635672606L254.87330672234754,43.96425101417387L254.91802918360784,43.96180033620141L255.0521965673887,43.959348516151664L255.14164148990923,43.95673340735257L255.25344764305996,43.95437256289085L255.3876150268408,43.95191418523251L255.4994211799915,43.949508245842225L255.67831102503263,43.947466998769926L256.1478968682656,43.943568398690815L256.46095409708755,43.938893057889544L256.7069276340191,43.93386970772079L256.9305399403205,43.92852515756064L257.0199848628411,43.92338021350656L257.0423460934712,43.91840801390174L257.6684605511152,43.914454841869514L257.86971162678645,43.91048931170363L258.04860147182757,43.90599793113094L258.3840199312797,43.900950228801975L258.40638116190985,43.89591647762592L258.6747159294715,43.89036562769326L259.3679140790059,43.88749967376697L259.5691651546772,43.884479136743494L259.72569376908814,43.881177493308L259.85986115286903,43.878177490020306L259.9269448447594,43.87535207568294L259.9493060753896,43.87276721583146L260.06111222854025,43.870601369713995L260.26236330421153,43.86867533504389L260.4412531492527,43.86676708012763L260.59778176366365,43.86491567118745L260.6201429942938,43.86305242489968L260.6648654555541,43.861169982546954L260.8884777618555,43.85912953854387L260.95556145374593,43.856982265133354L261.0002839150062,43.85473362008196L261.5593146807597,43.852712031368156L261.67112083391044,43.85073191709779L261.80528821769127,43.848864155111556L261.8947331402118,43.84687050670078L262.5208475978558,43.8452141467919" fill="none"></path></g></g></g></g><g opacity="0.2"><g><g><g><path style="fill: none;" stroke="rgb(204, 51, 17)" stroke-width="2px" d="M24.038322927401616,185.50810206035717L24.485547540004436,177.76272837495014L25.84958260844304,170.36605069069307L25.916666300333464,170.33191131963213L26.11791737600473,169.9252155968023L26.47569706608699,167.872884359942L26.52041952734727,167.4423592940964L27.504313675073476,165.55413579687294L27.616119828224182,165.38515986354255L28.085705671457145,161.14398641698278L28.19751182460785,161.02611101363286L28.354040439018835,160.78178660466386L28.488207822799684,160.10144878409287L29.270850894854618,154.7278776707334L29.315573356114903,154.5797078391123L29.49446320115603,154.55857615757003L29.964049044388993,153.44695358487644L30.14293888943012,152.96304893021937L30.59016350203294,149.93718748126494L31.797669956060556,146.09920589837978L31.820031186690695,146.1598567701284L32.267255799293515,143.36227329551625L32.33433949118394,143.14318907550603L32.66975795063606,141.98386130537622L32.73684164252648,141.61975452546397L32.75920287315662,141.46939865782124L32.98281517945803,139.78619743258244L33.40767856143071,139.43978049026353L33.87726440466367,137.8225789483156L34.36921147852678,134.0942092425426L34.97296470554058,134.50293596337832L35.196577011841995,133.12114414449564L35.330744395622844,132.0487771973817L35.48727301003383,131.08050277402043L35.50963424066397,131.08535546391238L36.247554851458624,131.43381890803875L36.5606120802806,130.38780842359677L36.71714069469159,129.4323556441353L36.739501925321726,129.34372041054968L36.78422438658201,129.3223561719838L36.851308078472435,129.073535660559L36.89603053973271,128.69132044041098L37.16436530729441,126.15176673535723L37.387977613595815,124.27875246747564L38.34951053069188,118.25885887419356L38.528400375733014,117.70762120931043L38.707290220774134,116.90974906902412L39.199237294637236,115.86173859417937L39.288682217157806,115.52245340058347L39.48993329282907,114.99157222716404L39.579378215349635,114.71805415983545L39.62410067660991,114.79146466027763L39.82535175228119,114.0865223066123L39.937157905431896,113.73567127704388L39.981880366692174,113.78829117957835L40.09368651984288,113.78470980141527L40.13840898110316,113.75981069609108L40.227853903623725,113.6653305293129L40.317298826144295,113.5503543368569L40.45146620992514,113.29773539404701L40.47382744055528,113.27528588937113L40.98813574504852,111.24345067818865L41.07758066756909,110.75278636604631L41.81550127836374,107.16004391642288L41.97202989277473,106.33454400173571L42.10619727655558,106.31597044745277L42.665228042309096,105.57569493000545L42.70995050356939,105.57507477794259L42.88884034861051,105.73935305939672L43.20189757743249,105.0823484601912L43.447871114364034,103.74920757064064L43.51495480625446,103.49778242055177L43.71620588192573,102.63287184226925L43.89509572696686,101.81464321051924L44.096346802638124,101.33114165470303L44.11870803326827,101.40737384703127L44.25287541704911,101.0812358771682L44.27523664767926,100.93446138768856L44.38704280082996,100.34252624367961L44.7895449521725,98.80177394728193L44.85662864406292,98.6799605783328L45.05787971973419,98.14072285586619L46.1535800206111,97.28288201110038L46.220663712501526,97.23956438950894L46.265386173761804,97.2588976300689L46.354831096282375,96.82879116686577L46.488998480063216,-73.32098149190156L46.600804633213926,-58.280433511127654L46.82441693951534,8.626160156498997L46.95858432329618,8.45583539243188L47.07039047644688,10.226772630765169L47.294002782748294,27.73949479496204L48.23317446921422,56.286117499748784L48.32261939173478,53.28216292241521L48.34498062236492,52.03478906315951L48.36734185299506,50.92332152848165L48.76984400433761,49.94552777095531L49.06054000252944,58.23754999598023L49.351236000721265,56.94847091049654L50.200962764666635,65.97639658092554L50.44693630159818,65.87869162342047L50.5140199934886,65.8404282411414L50.58110368537903,66.16743442389249L51.028328297981844,64.18446719526413L51.16249568176269,63.05417804547818L51.31902429617368,60.839180922527206L51.81097137003678,59.86321661358632L51.878055061927206,60.737537999422884L52.12402859885876,59.93112326447053L52.19111229074918,58.46567293230676L52.258195982639606,57.107105808178574L52.280557213269745,57.08211368004491L53.35389628351652,55.712476841594494L53.42097997540694,56.54958910365889L53.48806366729736,57.41773997646989L53.51042489792751,57.822296174682805L54.00237197179061,56.145249958667975L54.2707067393523,53.954438766168906L54.49431904565371,53.58780486660045L54.583763968174274,53.10324905227736L55.1427947339278,47.15264194821938L55.16515596455794,46.951929733071665L55.41112950148949,46.26653767318831L55.590019346530624,47.81583256425205L55.724186730311466,47.86408039474327L56.43974611047598,45.04827995328432L56.52919103299654,44.74077755291049L57.08822179875007,45.12462067222356L57.44600148883232,45.77562530022081L57.46836271946247,46.015469110535605L57.80378117891458,48.36879115110963L57.89322610143515,48.29474499480301L58.25100579151741,47.3503464258622L58.273367022147546,47.49068683768954L58.76531409601065,46.944053801873224L58.98892640231206,46.64148161039921L59.056010094202485,46.83760470028167L59.16781624735319,46.87109291167664L59.234899939243604,46.60752828495711L59.68212455184643,46.357420958001825L59.9951817806684,47.69772460387853L60.196432856339676,48.10686992735668L60.28587777886024,48.15353637008761L60.33060024012052,47.95558383161966L60.3753227013808,47.72001907053868L60.44240639327123,47.38659431393691L60.59893500768221,46.57568347652875L60.80018608335349,46.20083256212729L61.113243312175456,46.78327937957434L61.15796577343574,46.56371454171537L61.225049465326165,46.393761868885974L61.33685561847687,45.97447705917992L61.403939310367285,46.08874007676363L61.42630054099743,45.8788186034823L61.873525153600255,45.252651065602976L62.07477622927152,45.320774769709175L62.20894361305237,44.697118847684465L62.387833458093496,43.71439488125833L62.58908453376477,42.893561610844245L62.74561314817576,42.87681750514679L63.21519899140871,43.53594612516761L63.30464391392928,43.574178499843526L63.52825622023069,43.49678352239741L63.61770114275126,43.62146509463733L63.818952218422524,42.83058516885987L64.10964821661436,42.234805082061115L64.17673190850478,41.99238764068542L64.31089929228563,41.866341733907205L64.3556217535459,41.96872883948697L65.25007097875155,43.95585108693655L65.63021189946394,43.31879988035388L65.85382420576536,42.55877251970415L65.92090789765578,42.2946187485249L65.96563035891606,42.1413481661867L66.3681325102586,43.64909286903816L66.68118973908058,43.39554369813396L66.72591220034086,43.34924934664076L67.1284143516834,43.06624295275029L67.21785927420396,43.16580836644397L67.39674911924509,43.66149591029554L67.7768900399575,43.65151146208336L67.91105742373833,43.5376515433405L68.44772695886172,42.818647241649614L68.73842295705356,42.84599594762216L68.80550664894398,42.93092577263215L68.82786787957411,42.97151472514696L68.91731280209468,43.12112641031422L69.00675772461524,43.31067588833028L69.09620264713581,43.574116484637244L69.25273126154678,44.076098571926934L69.58814972099891,45.212062113088166L70.3484315624237,45.38644887316704L70.43787648494427,83.23877886114359L70.59440509935526,48.543891086060825L70.79565617502652,38.470047953999256L71.28760324888962,45.31727091055399L71.33232571014992,46.50613342267795L71.3770481714102,47.26082747558698L71.48885432456089,48.03970745894793L71.55593801645132,49.34491049806621L71.73482786149245,50.600935478598956L71.82427278401302,53.34644168373164L72.27149739661584,50.37197533698753L72.38330354976654,48.682588094921584L72.40566478039668,48.27756678266152L72.45038724165697,47.35406733823942L72.51747093354739,47.771646729772584L72.60691585606796,45.24396893672278L72.6292770866981,44.107788342339575L72.78580570110907,45.5648666216546L72.8528893929995,43.914983065993454L72.96469554615021,41.32429782335612L73.38955892812288,36.012075252816004L73.61317123442429,33.828767900277654L73.74733861820515,31.127013423180415L73.881506001986,30.648535099073428L73.97095092450655,30.71343401245275L74.23928569206825,29.934740074710646L74.26164692269839,29.986088665516263L74.82067768845191,31.941087036109195L75.02192876412319,31.351229401510864L75.80457183617811,27.309636392584054L75.82693306680825,27.008645588870365L75.87165552806854,27.03112610114937L76.85554967579475,22.499147848508528L77.03443952083587,21.32737052571659L77.19096813524686,21.022007649959676L77.23569059650714,20.80628775489052L77.28041305776743,20.54334328023384L77.39221921091813,19.873486029525367L77.95124997667165,18.11675027343179L77.9736112073018,18.478764040131864L78.19722351360322,17.854115874806553L78.24194597486348,17.964130850759602L78.35375212801421,17.58202415722255L78.66680935683617,18.85584750195966L78.80097674061703,18.65730581903199L79.00222781628828,18.195354547400484L79.33764627574041,16.563889508006554L79.42709119826097,16.52587418655267L79.47181365952125,16.308448873310624L80.03084442527478,18.582422457440487L80.52279149913788,18.58859297046604L80.65695888291873,18.889955865417477L81.03709980363112,19.28824852779539L81.17126718741197,19.21138067960274L81.19362841804211,19.164032069602655L81.50668564686409,19.227566648443627L81.75265918379563,18.506050730898124L82.26696748828887,17.233374667477335L82.42349610269986,16.920600974569112L82.53530225585058,16.78224504934292L82.82599825404242,17.836410533411623L82.9825268684534,18.66533678824615L83.3179453279055,19.806385576322867L83.5862800954672,19.984989370429275L83.65336378735762,20.028803113671017L83.96642101617961,21.296393930176265L84.74906408823453,21.604020360962693L84.77142531886467,21.505695251394712L84.79378654949481,21.40271900135525L85.19628870083736,20.42067720219825L85.53170716028947,20.888054804379863L86.60504623053623,25.618636755154682L86.80629730620751,26.14499081851517L87.00754838187879,26.48012099328983L87.14171576565963,26.20877345818127L87.61130160889257,25.612032135685098L87.65602407015287,25.539381321519926L87.678385300783,25.555164191519964L88.72936314039964,23.39802725603471L88.90825298544075,23.390709461692865L89.42256128993401,23.423887597056364L89.71325728812585,23.13430759129946L90.0710369782081,22.416295532909146L90.13812067009853,22.44686902960862L90.31701051513966,22.070126651415393L90.38409420703007,21.88522831387087L90.92076374215345,20.867310717876848L91.01020866467402,20.76176083677646L91.05493112593432,20.621389417345966L91.68104558357825,20.25205785630402L92.19535388807151,19.172001023610534L92.53077234752361,19.110605969386427L92.93327449886617,18.27879600745959L93.067441882647,17.973557162115213L93.42522157272926,17.548784006652767L93.82772372407179,17.352722931976558L93.85008495470194,17.450179828656502L94.00661356911293,17.722922705906512L94.07369726100336,17.467171995179115L94.61036679612674,28.045508830385018L94.83397910242813,36.54847577959498L94.90106279431856,40.24331076256831L94.92342402494872,43.54971350096332L94.96814648620898,45.59395175340319L94.99050771683913,49.48370052973638L95.54953848259265,58.19075952283673L95.75078955826393,47.24774226706043L96.28745909338731,40.05007137977819L96.46634893842844,40.96681116671499L96.77940616725041,36.699668852522564L96.80176739788055,35.88450997348377L97.18190831859295,32.50657269463676L97.83038400686705,43.19210281390963L97.87510646812731,44.70347540632889L98.09871877442873,42.89027480491106L98.47885969514113,49.14857035496172L98.59066584829183,49.94007043280206L99.08261292215494,46.18148381776575L99.26150276719608,44.69330491249781L99.50747630412762,42.85427497766145L99.55219876538791,42.05803073654016L99.7087273797989,41.802497079034794L99.84289476357974,41.248639271686045L99.99942337799071,40.54355738380656L100.13359076177157,40.699587642824554L100.20067445366199,40.7607656438266L100.58081537437438,39.45255486720342L100.8491501419361,37.90803514702378L100.9162338338265,37.82419058812383L101.43054213831975,39.98774609745979L101.47526459958003,40.74082775500537L101.60943198336088,39.88377760411973L101.69887690588145,39.15351754248772L102.05665659596369,35.25021844358085L102.43679751667611,31.403074113966767L102.8840221292789,27.866812013469172L103.28652428062146,26.00852635708071L103.33124674188173,25.624559207355077L103.37596920314202,25.29969254922088L103.44305289503245,25.78303906702135L103.51013658692287,27.229822822092757L103.89027750763528,25.568838544506235L104.13625104456682,27.617913983036487L104.4493082733888,30.91265786264958L105.1648676535533,32.165985181708805L105.70153718867668,30.81287539573387L105.79098211119725,30.764100435989178L105.83570457245753,30.63582198178463L105.96987195623838,30.580876509014388L106.03695564812881,30.964812651136896L106.43945779947134,34.212766057606444L106.73015379766318,34.224207863166384L106.9090436427043,34.176425146722295L107.19973964089614,33.634257205758644L107.31154579404685,33.50411829536549L107.66932548412909,31.916498006816425L107.78113163727981,31.782235085205173L107.82585409854008,31.57150741424212L108.0494664048415,31.03364953011541L108.13891132736207,31.110920477148937L108.78738701563616,30.939386416559245L108.89919316878687,30.456442997599623L109.05572178319785,29.669966151468515L110.03961593092406,28.911582193785392L110.21850577596518,29.33486698429698L110.37503439037617,29.350339778265578L110.46447931289673,29.324665482862798L110.71045284982827,29.285750940917723L110.84462023360912,28.95325641241024L110.97878761738997,29.18187547038707L111.47073469125307,32.40685224292733L111.71670822818463,32.17485335620785L111.82851438133532,32.2225430498425L112.0297654570066,31.937056047700537L112.05212668763674,31.829521679998976L112.32046145519844,31.785242822710103L112.56643499212998,31.780498659429156L112.63351868402042,31.67504180113818L113.90810882993844,34.4943771093555L114.01991498308915,34.555089996310414L114.04227621371929,34.53515210748918L114.26588852002071,35.618402723306446L115.898258356021,34.51347779289188L116.14423189295256,34.77236027153674L116.16659312358269,34.93840598637004L116.21131558484298,35.10814160597744L116.25603804610326,35.4673026731883L116.32312173799367,35.780510472540556L116.34548296862381,35.914184249692056L116.90451373437735,36.084353975743454L117.01631988752804,36.02903641173549L117.08340357941847,35.94599805051729L117.26229342445961,35.89939362299262L117.70951803706242,36.062555630733584L117.77660172895284,36.21815178330755L117.798962959583,36.15449317405401L118.13438141903511,35.64277469937724L118.49216110911736,58.12173659823934L118.6263284928982,82.21918685457986L118.71577341541878,82.20724892736962L118.91702449109003,75.2629411653727L118.96174695235032,64.74111568689578L119.1629980280216,44.14406723801744L119.25244295054216,33.61317203562109L119.4984164874737,23.733188438412526L120.07980848385738,8.830128169976774L120.28105955952864,8.464145430074325L120.61647801898077,10.48010474844736L120.77300663339174,9.714527026834958L120.90717401717258,10.777374639783858L120.99661893969316,12.971007524168982L121.0189801703233,13.0005577699647L121.44384355229599,6.860928317144101L121.51092724418639,7.480522243157026L122.31593154687148,17.842550038834048L122.45009893065233,16.75108240818372L122.78551739010443,15.506809309242357L122.83023985136472,15.34218994415366L123.21038077207713,14.66334048853355L123.23274200270725,14.604146974132647L123.65760538467994,20.396522279349483L123.67996661531008,20.067190526362623L123.74705030720051,18.993583275122973L123.94830138287176,16.481161222819765L124.19427491980333,14.206319425801894L124.75330568555685,12.681675579237208L124.82038937744727,13.503408070142456L125.06636291437883,14.405574283601851L125.13344660626925,14.599836917295733L125.17816906752954,14.918657092816915L125.22289152878982,14.935277168101834L125.8713672170639,18.979815899327264L126.34095306029687,20.628738219290966L126.49748167470786,21.081542247995145L126.67637151974897,21.39230044669904L126.76581644226955,21.73617476556018L126.92234505668054,22.078684749882996L126.94470628731068,22.0302508737729L126.9670675179408,22.01068507618936L127.19067982424222,22.129785279863455L127.7720718206259,19.174264578639992L127.88387797377659,18.340067031271076L128.24165766385886,18.724623325456463L128.48763120079042,23.40636830128031L128.57707612331097,24.661308015703014L128.5994373539411,24.873679089632702L128.77832719898225,26.59646152028415L128.9124945827631,27.1954043826035L128.9795782746535,27.1733579767685L129.18082935032479,26.954010192131562L129.27027427284534,27.208799667161486L129.42680288725631,27.76014585865562L129.44916411788645,27.693789587928592L129.58333150166732,27.567061513881214L129.71749888544815,27.688828371425615L129.76222134670843,27.6478053124668L129.82930503859887,27.939772903665755L130.6119481106538,35.10401759475937L130.8802828782155,35.785626727059224L131.30514626018817,36.02410620283567L131.81945456468142,36.24705086943726L132.26667917728423,36.81480008299428L132.80334871240763,39.52932969258666L133.16112840248988,39.330881032468426L133.34001824753102,39.27742392464907L133.54126932320227,39.360958407517586L133.6083530150927,39.343718180169816L133.653075476353,39.44018283354916L133.67543670698313,39.45314401166314L134.65933085470934,40.88848596117461L134.79349823849017,41.094872567697564L134.86058193038062,41.208670471234115L135.0171105447916,41.426529890920165L135.30780654298343,42.3798586495663L135.3525290042437,42.558803527307276L135.37489023487385,42.72643062990093L135.53141884928482,43.23560648111993L135.93392100062738,43.81157270950999L136.56003545827133,44.333523693224095L137.00726007087414,43.62717049361572L137.05198253213442,43.55566696076687L137.18614991591528,43.46041160391013L137.76754191229895,44.99665229405042L137.87934806544965,45.12307029206639L138.25948898616204,45.40083640102563L138.66199113750457,45.40306894845196L138.8408809825457,45.430076570789936L139.53407913208008,45.29922448552446L140.1378323590939,44.66902595923648L140.65214066358715,45.15798485320593L141.3006163518612,46.51534268081156L141.54658988879277,47.14073502861228L141.90436957887502,47.81319691798484L142.217426807697,48.125040382798744L142.23978803832716,48.19620283201303L142.68701265092994,-5.939878473370328L143.22368218605337,78.3390039238164L143.5814618761356,58.53392066682555L144.0063252581083,42.34916112245426L144.0734089499987,43.53619418599277L144.1852151031494,44.2769658250904L145.01258063646463,67.43567640006377L145.1691092508756,68.36450915222655L145.2585541733962,68.6805076358617L145.39272155717703,69.41281419930115L145.52688894095786,70.02909031177771L145.705778785999,70.79147425026632L145.7505012472593,70.61406424888095L146.28717078238267,72.26276951562265L146.4660606274238,72.38011778971912L146.8462015481362,72.0419953812411L147.00273016254718,71.55019929158402L147.27106493010888,71.15799962322377L147.31578739136916,70.86372196559063L147.44995477515002,70.37929018168012L147.71828954271172,70.8312570050994L147.83009569586238,70.0852140734674L148.05370800216383,68.63998069855319L148.27732030846522,67.83046520328648L148.90343476610917,68.62726758126435L148.94815722736948,68.54196566501666L149.03760214989,68.7909877258619L149.37302060934212,69.11408695061691L150.28983106517794,66.01230338536568L150.35691475706835,65.7951261329488L150.75941690841088,64.35789271964559L151.16191905975342,63.06943378622478L151.54205998046584,60.78215794034635L151.60914367235623,60.55853110647561L151.72094982550695,59.95887506928395L151.83275597865767,59.350133804371254L152.23525813000018,57.88378425171632L152.25761936063031,57.86375334008564L152.63776028134274,58.01528749664779L152.70484397323312,58.18223243197227L152.86137258764413,58.76588854594189L153.46512581465794,60.730375243096745L153.50984827591824,60.67685612007111L153.66637689032922,60.45205099728091L154.06887904167175,57.894233813975674L154.27013011734303,57.19253175483884L154.47138119301428,56.4891862927354L154.69499349931573,55.64484925913857L154.94096703624726,57.20980298978975L155.05277318939795,57.66204888163732L155.47763657137065,57.30291882202961L155.58944272452132,57.137958373306304L155.63416518578163,57.12313673900374L155.72361010830218,56.88909135047679L155.92486118397346,56.46506237748977L156.327363335316,55.448912214874966L156.7745879479188,54.7720162382529L156.88639410106953,54.34206481306548L157.08764517674078,53.9069351181531L157.22181256052164,53.55723136990099L157.33361871367234,53.29047296005767L157.40070240556275,53.15717127414386L157.8926494794259,52.448771572728035L158.2951516307684,51.625643739681365L158.384596553289,51.34812569154725L158.49640270643965,51.30313365938608L158.85418239652194,50.61665633339268L158.8989048577822,50.54047065246917L159.2566845478645,50.11907732574933L159.30140700912477,50.03172890769419L159.4355743929056,49.63796335537518L159.48029685416589,49.55098702855773L159.52501931542616,49.41260009572841L159.79335408298786,49.13939210443124L159.83807654424814,48.99474163576696L159.88279900550845,48.86367249727948L160.39710731000167,47.96333573240554L160.59835838567292,47.34219142623547L160.66544207756337,47.09341742621535L161.02322176764562,46.22101851177368L161.26919530457718,45.54483571002393L161.31391776583746,45.37810782792147L161.4480851496183,45.00765999316636L161.73878114781013,44.578204689629246L161.85058730096085,44.72291717349984L162.14128329915266,46.23090993717645L162.4319792973445,46.3107545152709L163.01337129372817,45.959655424877326L163.52767959822143,45.60328504194939L163.61712452074198,45.16241894045544L163.63948575137212,45.039535809197844L163.7960143657831,44.76238985230148L164.17615528649551,44.05330798361652L164.42212882342704,43.79172784349814L164.6681023603586,43.70385229618955L164.82463097476958,43.812006815953964L164.95879835855044,43.95008367275187L165.4954678936738,44.12949366454001L166.7253355783316,-18.018921285514097L168.40242787559217,-13.718290759926731L168.849652488195,15.400019124016211L169.38632202331837,31.752839877425174L169.54285063772934,36.33470936352387L169.6099343296198,37.23572829566697L169.83354663592118,36.80791639509644L170.03479771159243,32.91181106011882L170.10188140348288,31.86304089899707L170.32549370978427,32.12610940406631L170.437299862935,30.701558100448807L171.24230416562006,21.19447193864366L171.44355524129136,19.188993190133147L171.4882777025516,18.333555434610957L171.5777226250722,17.116507011229572L171.71189000885303,16.095426639714958L171.77897370074345,15.414902773525085L171.93550231515445,13.585764264091523L172.11439216019556,12.87693045623169L172.18147585208598,12.30214251676108L172.36036569712712,11.59089011585607L172.44981061964768,11.218767870531195L173.0535638466615,7.973481117931982L173.14300876918207,7.357546089089993L173.3889823061136,5.5255548801672205L173.63495584304516,3.637967038808199L173.90329061060686,1.3794352410437511L174.82010106644265,-3.129225294033205L175.64746659975785,-0.35361070624819035L175.96052382857982,1.5673413160932341L175.98288505921,1.7791852607694523L176.56427705559364,5.377183499125692L176.8773342844156,6.905889341702135L177.43636505016914,9.210281384515781L178.0848407384432,10.714181144577452L178.15192443033365,10.619390901767844L178.2860918141145,11.6741455302963L178.68859396545702,14.879587512856148L178.73331642671732,15.374747927454308L179.13581857805985,16.597253688988957L179.22526350058044,16.324541819342073L179.78429426633397,19.126605892608467L179.94082288074495,19.9873459482682L180.23151887893675,20.624645215676026L180.36568626271762,20.797357565185195L180.9470782591013,23.469499781280405L181.28249671855338,26.38309820305389L181.46138656359454,27.658688981170172L181.48374779422468,27.862377926219636L181.97569486808777,27.15072242647375L182.06513979060836,27.00049058924361L182.37819701943033,27.01193239480358L182.646531786992,27.833602870502517L182.66889301762217,27.89527699315488L182.8254216320331,28.409445068479982L183.13847886085512,29.121844750701314L183.27264624463592,29.06410859364817L183.47389732030723,29.155301954493126L183.67514839597848,29.036418804041034L183.71987085723876,29.347983200426683L183.74223208786893,29.316045369188913L184.16709546984157,29.3507118695033L184.23417916173202,29.285595902902003L184.43543023740327,29.22646440370741L184.7261262355951,29.364138161664442L185.26279577071853,29.577098380053798L185.62057546080075,29.819019699779204L185.86654899773234,30.530024039859086L186.26905114907484,31.698793625146067L186.49266345537626,32.25277546290741L186.5150246860064,32.23249649045155L186.64919206978726,32.63240154819297L186.80572068419823,32.19637263278943L186.8951656067188,31.99246663451794L186.91752683734893,31.87386255249413L186.9398880679791,31.738979478820028L187.43183514184219,29.819701867048366L187.45419637247232,29.693779990682714L187.5436412949929,29.215983833844888L187.5883637562532,28.984977190426008L187.78961483192444,28.055834362231792L187.87905975444502,27.923897010856308L188.52753544271908,26.794786149989818L188.54989667334922,26.8290185438602L188.75114774902048,26.786259059125342L188.81823144091092,26.841824683958464L188.97476005532192,26.78718928721966L189.1983723616233,26.676306098378603L189.22073359225348,26.683778930736167L189.26545605351376,26.594663079301824L189.37726220666445,26.455190880362494L189.60087451296587,26.17776585503779L189.64559697422612,26.13137848073515L190.0033766643084,25.801519598494878L190.13754404808927,25.994820996491313L190.1599052787194,25.954511112404788L190.33879512376052,25.26294853949588L190.76365850573322,-23.042184002360187L192.23949972732248,-2.0229050214771576L192.53019572551432,3.592540900203005L192.59727941740476,5.026115416335273L193.29047756693913,11.334736306287823L193.3128387975693,11.581339774087866L193.69297971828166,15.967458261541822L193.9165920245831,20.40365402807248L193.9836757164735,22.28051323874388L194.02839817773378,22.28321090021737L194.27437171466534,24.597122277196036L194.4085390984462,25.468156857099387L194.56506771285717,28.897938848402276L194.9675698641997,33.187561674873734L194.98993109482987,33.2496699039701L195.07937601735043,33.85065926809696L195.14645970924082,33.693853819000395L195.19118217050112,33.72811722047393L195.5042393993231,35.67114665625351L195.59368432184368,36.33229077047869L195.8396578587752,38.12806509892988L195.90674155066566,37.96387984028519L196.35396616326844,35.14869955088912L196.5328560083096,34.93688661381603L196.756468314611,32.821268858939874L197.0248030821727,31.031323959879643L197.53911138666592,28.634963366142472L197.65091753981665,30.042677541253084L198.031058460529,33.51252135581737L199.01495260825524,30.11948337423948L199.03731383888538,29.965964731076127L199.12675876140597,30.003297885260878L199.7528732190499,30.017933473944595L200.71440613614595,35.16897852334495L200.89329598118707,35.97331574888668L201.07218582622824,36.50342173222751L201.09454705685837,36.6427699007543L201.76538397576257,33.97010055540562L201.85482889828316,33.39292503049299L202.1008024352147,31.844994473967574L202.3691372027764,30.98865749795422L202.4362208946668,30.815914140841926L202.4809433559271,30.672224907875062L202.57038827844767,31.209090548701198L202.7492781234888,33.353700412516474L204.09095196129724,31.88028112634484L204.2251193450781,31.71252999333865L204.24748057570824,31.61110412345633L204.62762149642063,32.15358214045142L204.78415011083163,31.718917559586203L205.29845841532486,31.84803321907563L205.38790333784544,32.003939447681006L205.70096056666742,34.464485779925184L206.08110148737978,34.427059602930996L206.21526887116065,34.62507415660525L206.50596486935248,34.87263886010274L206.9531894819553,34.09515421888324L207.1544405576266,33.619404563852925L207.51222024770883,31.9784511978971L207.5569427089691,31.748033698937917L207.7581937846404,31.437585576265462L207.95944486031166,31.09451745508605L208.13833470535278,31.038269662983794L208.5855593179556,31.55479431614779L208.6302817792159,31.572375627130157L208.6973654711063,31.610049864949445L208.7420879323666,31.68877816933076L208.87625531614745,31.670576706285516L209.14459008370915,31.689677389821924L209.1669513143393,31.66195659261163L209.32347992875026,31.866575765755414L209.39056362064068,31.930792511865576L209.5023697737914,31.732188813731625L209.65889838820237,31.836405367896816L209.70362084946265,32.296868274577434L210.84404361159986,33.640117642752756L211.0900171485314,33.810256361201L211.15710084042183,33.89673656636816L211.26890699357253,33.84517092234054L211.62668668365478,33.62297043821442L211.71613160617537,33.88786839186912L211.7384928368055,33.86706229015985L211.78321529806578,33.944798351240536L212.00682760436717,34.48507482841245L212.09627252688776,34.72243803047576L212.18571744940832,34.96532058589858L212.3869685250796,35.26646642762802L212.4093297557097,35.30221819405244L212.52113590886043,35.37862092819796L212.610580831381,35.51127145444576L212.63294206201115,35.55604643338492L212.96836052146327,35.90317655057612L213.6615586709976,37.21296871495966L213.9298934385593,37.74391190358537L214.0864220529703,38.01467029423421L214.198228206121,38.252560625550956L214.51128543494298,42.57626080787708L214.71253651061423,41.51815735820915L215.04795497006634,59.89568157407754L215.2939285069979,68.54677184350389L215.4504571214089,72.64968238764692L215.47281835203904,74.03431140221723L215.67406942771032,78.24495786348226L216.52379619165566,73.20267198210765L216.5908798835461,71.38249466998253L216.6356023448064,71.27651068243813L216.7026860366968,70.88652805770265L216.72504726732691,70.29846886408664L216.8144921898475,68.51641540002645L217.53005157001203,58.21364313395661L217.843108798834,54.3505608963268L218.58102940962866,54.52314921542337L218.6704743321492,54.18243767208287L219.07297648349174,54.83979885872455L219.18478263664247,54.931705394441806L219.52020109609458,54.90742644118045L219.587284787985,54.59074579027613L219.65436847987542,54.13927508850716L220.1239543231084,53.80606738512736L220.36992786003992,57.2511981399863L220.68298508886193,60.06216139535486L220.90659739516332,61.60751832081935L220.97368108705373,61.53762718333398L221.0631260095743,62.94692274620489L221.44326693028668,66.18238008860766L221.487989391547,66.14293841740914L221.5550730834374,66.27968194727187L222.02465892667036,66.50082817289113L222.06938138793066,66.74439289558313L222.18118754108136,67.3330102260557L222.42716107801292,67.47291653143907L222.60605092305403,65.63698735691706L222.6954958455746,65.217051387545L223.07563676628698,65.56833652355742L223.20980415006784,66.60516875746892L223.43341645636926,65.95835015589606L223.47813891762954,65.58036747357708L223.6123063014104,64.51463615353585L223.72411245456107,63.8372440552635L223.8359186077118,63.14372800335654L223.90300229960224,62.927977100684245L224.23842075905432,61.30786084404082L224.26078198968446,61.54150313372689L224.86453521669827,58.94449234004831L225.0434250617394,59.34300205564824L225.26703736804083,61.45489889814718L225.51301090497236,61.26007812759673L225.9825967482053,58.158356577551785L226.36273766891773,55.82401119010157L226.38509889954787,55.76590294181071L227.1006582797124,53.952516294774014L227.12301951034252,53.76764896483262L227.25718689412338,53.08957469929109L228.4199708868907,53.05555935864271L228.464693348151,53.00476890469369L228.6883056544524,52.9949394944972L228.84483426886337,52.814630282217905L229.44858749587718,50.310146176319435L229.91817333911015,49.21464755726046L230.14178564541157,48.91517612610079L230.49956533549383,48.08423437706193L230.5442877967541,47.947769915627504L230.58901025801438,47.9848550089871L230.70081641116508,47.857537790479995L231.4163757913296,46.273607406705025L231.5281819444803,46.18318923593864L231.77415548141184,46.36132791599792L231.796516712042,46.30790181578169L231.88596163456256,46.34368458980927L232.84749455165866,45.67153277646818L232.91457824354904,45.82926845365904L233.36180285615188,44.5111352440299L233.49597023993272,43.90555675463784L233.51833147056286,43.905370709018996L234.09972346694653,42.55145472536228L234.25625208135753,42.022744084162895L234.4127806957685,41.58321130960414L235.15070130656318,41.72783077066532L235.64264838042627,40.31462824979829L235.6650096110564,40.203962114179234L235.86626068672766,39.395438862213126L236.02278930113866,38.641985113429854L236.08987299302908,38.383009611975524L236.24640160744008,37.62772641460677L236.3134852993305,37.428223495981655L236.73834868130317,35.87356428957409L236.8054323731936,35.58671295289383L237.05140591012514,35.28429579943551L237.2973794470567,35.57291456949497L237.5209917533581,35.867796875389416L237.5657142146184,35.92788961028148L237.58807544524853,35.93263377356243L237.65515913713895,36.0893151922464L238.19182867226235,37.080938340774736L238.30363482541304,37.40785150071639L238.3259960560432,37.58202120757329L238.41544097856374,37.79650079851672L238.84030436053644,63.03306186773747L239.06391666683783,57.56381679487882L239.24280651187897,64.03212684102024L239.51114127944064,58.80858601547045L240.40559050464628,46.24111143861066L240.6068415803176,51.573271897972035L240.62920281094773,52.417763969584556L240.76337019472857,57.4357864014994L240.80809265598884,59.183715998300215L241.0093437316601,62.72459823166619L241.79198680371505,57.28639176955413L242.41810126135897,54.83567484750645L242.48518495324942,54.690125158350995L242.55226864513983,55.34587394962918L242.7535197208111,54.80017114190717L243.37963417845506,52.27689642850376L243.91630371357843,53.61478148133527L244.13991601987985,55.75030611742953L245.3697837045376,49.80679975449141L245.50395108831847,48.21310197572623L245.593396010839,47.314656674644056L245.66047970272945,46.940394904702316L245.90645323966098,45.93968652845294L246.30895539100354,43.29151318958762L246.42076154415426,43.2880093304324L247.1139596936886,46.20182480542786L247.22576584683932,45.770167962067546L247.24812707746946,45.65230806251921L247.29284953872977,46.222351838708846L247.56118430629144,46.524396900929446L247.60590676755172,46.59608647939717L247.87424153511338,47.20188202201123L248.09785384141483,47.65146125998848L248.38854983960667,47.995769685293624L248.50035599275733,47.426687144801434L248.5227172233875,47.834964255391554L248.85813568283962,46.80234905550756L248.99230306662048,47.42386545291535L249.21591537292187,47.82172400884929L249.75258490804526,43.760658225148376L250.13272582875766,42.472974481806176L250.31161567379877,42.132666037306535L250.62467290262074,42.23148726852477L251.31787105215514,43.936533350178166L251.47439966656611,44.15960204719232L251.54148335845653,44.28670221247742L251.72037320349767,44.91587748786168L252.07815289357993,43.312815412947174L252.1675978161005,42.93098778783843L252.27940396925118,42.18714639602962L252.32412643051148,42.01455807693304L252.36884889177176,41.81350477815073L252.43593258366218,41.73350516204056L253.21857565571713,40.85059467013326L253.35274303949794,41.06597348156785L253.37510427012808,41.06250063001579L253.5316328845391,41.87489983237484L253.73288396021036,42.69136103074564L254.1801085728132,42.91982505070678L254.4484433403749,42.46370320846626L254.80622303045712,42.47207526131501L254.8509454917174,42.3456882709022L254.87330672234754,42.47706748542109L254.91802918360784,42.44959474903598L255.0521965673887,42.44550174542104L255.14164148990923,42.34106813803382L255.25344764305996,42.49489685722861L255.3876150268408,42.43120724037189L255.4994211799915,42.46032337972363L255.67831102503263,42.68323703872207L256.1478968682656,41.52752165435845L256.46095409708755,41.03971004170532L256.7069276340191,40.81698242832573L256.9305399403205,40.61031675337449L257.0199848628411,40.72715340201907L257.0423460934712,40.82761803620397L257.6684605511152,41.45561502266875L257.86971162678645,41.44246779893592L258.04860147182757,41.109012034730995L258.3840199312797,40.75561838170481L258.40638116190985,40.75738581508398L258.6747159294715,40.42734088722483L259.3679140790059,42.098433643436124L259.5691651546772,41.9977829636324L259.72569376908814,41.81765979697198L259.85986115286903,42.00206201286622L259.9269448447594,42.10736383314145L259.9493060753896,42.25433987204153L260.06111222854025,42.51371847233668L260.26236330421153,42.661314663299635L260.4412531492527,42.66984175416408L260.59778176366365,42.7029578743213L260.6201429942938,42.69297342610912L260.6648654555541,42.6783378374254L260.8884777618555,42.57626080787708L260.95556145374593,42.506152617169676L261.0002839150062,42.43930022479233L261.5593146807597,42.579454591000854L261.67112083391044,42.602865331374176L261.80528821769127,42.67111306589297L261.8947331402118,42.58900493276903L262.5208475978558,42.799546558113235" fill="none"></path></g></g></g></g></g></g><g transform="translate(39, 177)" clip-path="url(#clip_1)"><clipPath id="clip_1"><rect width="290" height="22"></rect></clipPath><g><g><line x1="0" y1="0" x2="0" y2="5" style="visibility: inherit;" fill="rgb(0, 0, 0)" stroke="rgb(204, 204, 204)" stroke-width="1px"></line><line x1="22.36123063014104" y1="0" x2="22.36123063014104" y2="5" style="visibility: inherit;" fill="rgb(0, 0, 0)" stroke="rgb(204, 204, 204)" stroke-width="1px"></line><line x1="44.72246126028208" y1="0" x2="44.72246126028208" y2="5" style="visibility: inherit;" fill="rgb(0, 0, 0)" stroke="rgb(204, 204, 204)" stroke-width="1px"></line><line x1="67.08369189042311" y1="0" x2="67.08369189042311" y2="5" style="visibility: inherit;" fill="rgb(0, 0, 0)" stroke="rgb(204, 204, 204)" stroke-width="1px"></line><line x1="89.44492252056416" y1="0" x2="89.44492252056416" y2="5" style="visibility: inherit;" fill="rgb(0, 0, 0)" stroke="rgb(204, 204, 204)" stroke-width="1px"></line><line x1="111.8061531507052" y1="0" x2="111.8061531507052" y2="5" style="visibility: inherit;" fill="rgb(0, 0, 0)" stroke="rgb(204, 204, 204)" stroke-width="1px"></line><line x1="134.16738378084622" y1="0" x2="134.16738378084622" y2="5" style="visibility: inherit;" fill="rgb(0, 0, 0)" stroke="rgb(204, 204, 204)" stroke-width="1px"></line><line x1="156.52861441098727" y1="0" x2="156.52861441098727" y2="5" style="visibility: inherit;" fill="rgb(0, 0, 0)" stroke="rgb(204, 204, 204)" stroke-width="1px"></line><line x1="178.88984504112832" y1="0" x2="178.88984504112832" y2="5" style="visibility: inherit;" fill="rgb(0, 0, 0)" stroke="rgb(204, 204, 204)" stroke-width="1px"></line><line x1="201.25107567126935" y1="0" x2="201.25107567126935" y2="5" style="visibility: inherit;" fill="rgb(0, 0, 0)" stroke="rgb(204, 204, 204)" stroke-width="1px"></line><line x1="223.6123063014104" y1="0" x2="223.6123063014104" y2="5" style="visibility: inherit;" fill="rgb(0, 0, 0)" stroke="rgb(204, 204, 204)" stroke-width="1px"></line><line x1="245.97353693155142" y1="0" x2="245.97353693155142" y2="5" style="visibility: inherit;" fill="rgb(0, 0, 0)" stroke="rgb(204, 204, 204)" stroke-width="1px"></line><line x1="268.33476756169244" y1="0" x2="268.33476756169244" y2="5" style="visibility: inherit;" fill="rgb(0, 0, 0)" stroke="rgb(204, 204, 204)" stroke-width="1px"></line><line x1="290.6959981918335" y1="0" x2="290.6959981918335" y2="5" style="visibility: inherit;" fill="rgb(0, 0, 0)" stroke="rgb(204, 204, 204)" stroke-width="1px"></line></g><g transform="translate(0, 8)"><text style="text-anchor: middle; visibility: hidden; font-family: &quot;Helvetica Neue&quot;, sans-serif; font-size: 12px; font-weight: 200;" x="0" y="0" dx="0em" dy="0.95em" fill="rgb(50, 49, 63)" stroke="none" stroke-width="1px">-1k</text><text style="text-anchor: middle; visibility: inherit; font-family: &quot;Helvetica Neue&quot;, sans-serif; font-size: 12px; font-weight: 200;" x="22.36123063014104" y="0" dx="0em" dy="0.95em" fill="rgb(50, 49, 63)" stroke="none" stroke-width="1px">0</text><text style="text-anchor: middle; visibility: hidden; font-family: &quot;Helvetica Neue&quot;, sans-serif; font-size: 12px; font-weight: 200;" x="44.72246126028208" y="0" dx="0em" dy="0.95em" fill="rgb(50, 49, 63)" stroke="none" stroke-width="1px">1k</text><text style="text-anchor: middle; visibility: inherit; font-family: &quot;Helvetica Neue&quot;, sans-serif; font-size: 12px; font-weight: 200;" x="67.08369189042311" y="0" dx="0em" dy="0.95em" fill="rgb(50, 49, 63)" stroke="none" stroke-width="1px">2k</text><text style="text-anchor: middle; visibility: hidden; font-family: &quot;Helvetica Neue&quot;, sans-serif; font-size: 12px; font-weight: 200;" x="89.44492252056416" y="0" dx="0em" dy="0.95em" fill="rgb(50, 49, 63)" stroke="none" stroke-width="1px">3k</text><text style="text-anchor: middle; visibility: inherit; font-family: &quot;Helvetica Neue&quot;, sans-serif; font-size: 12px; font-weight: 200;" x="111.8061531507052" y="0" dx="0em" dy="0.95em" fill="rgb(50, 49, 63)" stroke="none" stroke-width="1px">4k</text><text style="text-anchor: middle; visibility: hidden; font-family: &quot;Helvetica Neue&quot;, sans-serif; font-size: 12px; font-weight: 200;" x="134.16738378084622" y="0" dx="0em" dy="0.95em" fill="rgb(50, 49, 63)" stroke="none" stroke-width="1px">5k</text><text style="text-anchor: middle; visibility: inherit; font-family: &quot;Helvetica Neue&quot;, sans-serif; font-size: 12px; font-weight: 200;" x="156.52861441098727" y="0" dx="0em" dy="0.95em" fill="rgb(50, 49, 63)" stroke="none" stroke-width="1px">6k</text><text style="text-anchor: middle; visibility: hidden; font-family: &quot;Helvetica Neue&quot;, sans-serif; font-size: 12px; font-weight: 200;" x="178.88984504112832" y="0" dx="0em" dy="0.95em" fill="rgb(50, 49, 63)" stroke="none" stroke-width="1px">7k</text><text style="text-anchor: middle; visibility: inherit; font-family: &quot;Helvetica Neue&quot;, sans-serif; font-size: 12px; font-weight: 200;" x="201.25107567126935" y="0" dx="0em" dy="0.95em" fill="rgb(50, 49, 63)" stroke="none" stroke-width="1px">8k</text><text style="text-anchor: middle; visibility: hidden; font-family: &quot;Helvetica Neue&quot;, sans-serif; font-size: 12px; font-weight: 200;" x="223.6123063014104" y="0" dx="0em" dy="0.95em" fill="rgb(50, 49, 63)" stroke="none" stroke-width="1px">9k</text><text style="text-anchor: middle; visibility: inherit; font-family: &quot;Helvetica Neue&quot;, sans-serif; font-size: 12px; font-weight: 200;" x="245.97353693155142" y="0" dx="0em" dy="0.95em" fill="rgb(50, 49, 63)" stroke="none" stroke-width="1px">10k</text><text style="text-anchor: middle; visibility: hidden; font-family: &quot;Helvetica Neue&quot;, sans-serif; font-size: 12px; font-weight: 200;" x="268.33476756169244" y="0" dx="0em" dy="0.95em" fill="rgb(50, 49, 63)" stroke="none" stroke-width="1px">11k</text><text style="text-anchor: middle; visibility: hidden; font-family: &quot;Helvetica Neue&quot;, sans-serif; font-size: 12px; font-weight: 200;" x="290.6959981918335" y="0" dx="0em" dy="0.95em" fill="rgb(50, 49, 63)" stroke="none" stroke-width="1px">12k</text></g><line x1="0" y1="0" x2="290.6959981918335" y2="0" fill="rgb(0, 0, 0)" stroke="rgb(204, 204, 204)" stroke-width="1px"></line></g></g></g></g></svg>