<svg viewBox="0 0 330 200" xmlns="http://www.w3.org/2000/svg"><g><g><g><g><g><line x1="58.84000301361084" y1="177.80999946594238" x2="53.84000301361084" y2="177.80999946594238" style="visibility: inherit;" fill="rgb(0, 0, 0)" stroke="rgb(204, 204, 204)" stroke-width="1px"></line><line x1="58.84000301361084" y1="160.02899951934813" x2="53.84000301361084" y2="160.02899951934813" style="visibility: inherit;" fill="rgb(0, 0, 0)" stroke="rgb(204, 204, 204)" stroke-width="1px"></line><line x1="58.84000301361084" y1="142.2479995727539" x2="53.84000301361084" y2="142.2479995727539" style="visibility: inherit;" fill="rgb(0, 0, 0)" stroke="rgb(204, 204, 204)" stroke-width="1px"></line><line x1="58.84000301361084" y1="124.46699962615966" x2="53.84000301361084" y2="124.46699962615966" style="visibility: inherit;" fill="rgb(0, 0, 0)" stroke="rgb(204, 204, 204)" stroke-width="1px"></line><line x1="58.84000301361084" y1="106.68599967956543" x2="53.84000301361084" y2="106.68599967956543" style="visibility: inherit;" fill="rgb(0, 0, 0)" stroke="rgb(204, 204, 204)" stroke-width="1px"></line><line x1="58.84000301361084" y1="88.90499973297118" x2="53.84000301361084" y2="88.90499973297118" style="visibility: inherit;" fill="rgb(0, 0, 0)" stroke="rgb(204, 204, 204)" stroke-width="1px"></line><line x1="58.84000301361084" y1="71.12399978637694" x2="53.84000301361084" y2="71.12399978637694" style="visibility: inherit;" fill="rgb(0, 0, 0)" stroke="rgb(204, 204, 204)" stroke-width="1px"></line><line x1="58.84000301361084" y1="53.34299983978272" x2="53.84000301361084" y2="53.34299983978272" style="visibility: inherit;" fill="rgb(0, 0, 0)" stroke="rgb(204, 204, 204)" stroke-width="1px"></line><line x1="58.84000301361084" y1="35.56199989318847" x2="53.84000301361084" y2="35.56199989318847" style="visibility: inherit;" fill="rgb(0, 0, 0)" stroke="rgb(204, 204, 204)" stroke-width="1px"></line><line x1="58.84000301361084" y1="17.78099994659422" x2="53.84000301361084" y2="17.78099994659422" style="visibility: inherit;" fill="rgb(0, 0, 0)" stroke="rgb(204, 204, 204)" stroke-width="1px"></line><line x1="58.84000301361084" y1="0" x2="53.84000301361084" y2="0" style="visibility: inherit;" fill="rgb(0, 0, 0)" stroke="rgb(204, 204, 204)" stroke-width="1px"></line></g><g transform="translate(48.84000301361084, 0)"><text style="text-anchor: end; visibility: hidden; font-family: &quot;Helvetica Neue&quot;, sans-serif; font-size: 12px; font-weight: 200;" x="0" y="177.80999946594238" dx="0em" dy="0.3em" fill="rgb(50, 49, 63)" stroke="none" stroke-width="1px">-0.01</text><text style="text-anchor: end; visibility: inherit; font-family: &quot;Helvetica Neue&quot;, sans-serif; font-size: 12px; font-weight: 200;" x="0" y="160.02899951934813" dx="0em" dy="0.3em" fill="rgb(50, 49, 63)" stroke="none" stroke-width="1px">0</text><text style="text-anchor: end; visibility: hidden; font-family: &quot;Helvetica Neue&quot;, sans-serif; font-size: 12px; font-weight: 200;" x="0" y="142.2479995727539" dx="0em" dy="0.3em" fill="rgb(50, 49, 63)" stroke="none" stroke-width="1px">0.01</text><text style="text-anchor: end; visibility: inherit; font-family: &quot;Helvetica Neue&quot;, sans-serif; font-size: 12px; font-weight: 200;" x="0" y="124.46699962615966" dx="0em" dy="0.3em" fill="rgb(50, 49, 63)" stroke="none" stroke-width="1px">0.02</text><text style="text-anchor: end; visibility: hidden; font-family: &quot;Helvetica Neue&quot;, sans-serif; font-size: 12px; font-weight: 200;" x="0" y="106.68599967956543" dx="0em" dy="0.3em" fill="rgb(50, 49, 63)" stroke="none" stroke-width="1px">0.03</text><text style="text-anchor: end; visibility: inherit; font-family: &quot;Helvetica Neue&quot;, sans-serif; font-size: 12px; font-weight: 200;" x="0" y="88.90499973297118" dx="0em" dy="0.3em" fill="rgb(50, 49, 63)" stroke="none" stroke-width="1px">0.04</text><text style="text-anchor: end; visibility: hidden; font-family: &quot;Helvetica Neue&quot;, sans-serif; font-size: 12px; font-weight: 200;" x="0" y="71.12399978637694" dx="0em" dy="0.3em" fill="rgb(50, 49, 63)" stroke="none" stroke-width="1px">0.05</text><text style="text-anchor: end; visibility: inherit; font-family: &quot;Helvetica Neue&quot;, sans-serif; font-size: 12px; font-weight: 200;" x="0" y="53.34299983978272" dx="0em" dy="0.3em" fill="rgb(50, 49, 63)" stroke="none" stroke-width="1px">0.06</text><text style="text-anchor: end; visibility: hidden; font-family: &quot;Helvetica Neue&quot;, sans-serif; font-size: 12px; font-weight: 200;" x="0" y="35.56199989318847" dx="0em" dy="0.3em" fill="rgb(50, 49, 63)" stroke="none" stroke-width="1px">0.07</text><text style="text-anchor: end; visibility: inherit; font-family: &quot;Helvetica Neue&quot;, sans-serif; font-size: 12px; font-weight: 200;" x="0" y="17.78099994659422" dx="0em" dy="0.3em" fill="rgb(50, 49, 63)" stroke="none" stroke-width="1px">0.08</text><text style="text-anchor: end; visibility: hidden; font-family: &quot;Helvetica Neue&quot;, sans-serif; font-size: 12px; font-weight: 200;" x="0" y="0" dx="0em" dy="0.3em" fill="rgb(50, 49, 63)" stroke="none" stroke-width="1px">0.09</text></g><line x1="58.84000301361084" y1="0" x2="58.84000301361084" y2="177.80999946594238" fill="rgb(0, 0, 0)" stroke="rgb(204, 204, 204)" stroke-width="1px"></line></g></g><g transform="translate(58, 0)" clip-path="url(#clip_0)"><clipPath id="clip_0"><rect width="271" height="177"></rect></clipPath><g><g><g><line x1="0" y1="0" x2="0" y2="177.80999946594238" fill="rgb(0, 0, 0)" stroke="rgb(60, 60, 60)" stroke-width="1px" opacity="0.25"></line><line x1="20.85846130664532" y1="0" x2="20.85846130664532" y2="177.80999946594238" fill="rgb(0, 0, 0)" stroke="rgb(60, 60, 60)" stroke-width="1px" opacity="0.25"></line><line x1="41.71692261329064" y1="0" x2="41.71692261329064" y2="177.80999946594238" fill="rgb(0, 0, 0)" stroke="rgb(60, 60, 60)" stroke-width="1px" opacity="0.25"></line><line x1="62.575383919935966" y1="0" x2="62.575383919935966" y2="177.80999946594238" fill="rgb(0, 0, 0)" stroke="rgb(60, 60, 60)" stroke-width="1px" opacity="0.25"></line><line x1="83.43384522658128" y1="0" x2="83.43384522658128" y2="177.80999946594238" fill="rgb(0, 0, 0)" stroke="rgb(60, 60, 60)" stroke-width="1px" opacity="0.25"></line><line x1="104.29230653322661" y1="0" x2="104.29230653322661" y2="177.80999946594238" fill="rgb(0, 0, 0)" stroke="rgb(60, 60, 60)" stroke-width="1px" opacity="0.25"></line><line x1="125.15076783987193" y1="0" x2="125.15076783987193" y2="177.80999946594238" fill="rgb(0, 0, 0)" stroke="rgb(60, 60, 60)" stroke-width="1px" opacity="0.25"></line><line x1="146.00922914651724" y1="0" x2="146.00922914651724" y2="177.80999946594238" fill="rgb(0, 0, 0)" stroke="rgb(60, 60, 60)" stroke-width="1px" opacity="0.25"></line><line x1="166.86769045316257" y1="0" x2="166.86769045316257" y2="177.80999946594238" fill="rgb(0, 0, 0)" stroke="rgb(60, 60, 60)" stroke-width="1px" opacity="0.25"></line><line x1="187.72615175980786" y1="0" x2="187.72615175980786" y2="177.80999946594238" fill="rgb(0, 0, 0)" stroke="rgb(60, 60, 60)" stroke-width="1px" opacity="0.25"></line><line x1="208.58461306645322" y1="0" x2="208.58461306645322" y2="177.80999946594238" fill="rgb(0, 0, 0)" stroke="rgb(60, 60, 60)" stroke-width="1px" opacity="0.25"></line><line x1="229.4430743730985" y1="0" x2="229.4430743730985" y2="177.80999946594238" fill="rgb(0, 0, 0)" stroke="rgb(60, 60, 60)" stroke-width="1px" opacity="0.25"></line><line x1="250.30153567974386" y1="0" x2="250.30153567974386" y2="177.80999946594238" fill="rgb(0, 0, 0)" stroke="rgb(60, 60, 60)" stroke-width="1px" opacity="0.25"></line><line x1="271.15999698638916" y1="0" x2="271.15999698638916" y2="177.80999946594238" fill="rgb(0, 0, 0)" stroke="rgb(60, 60, 60)" stroke-width="1px" opacity="0.25"></line></g><g><line x1="0" y1="177.80999946594238" x2="271.15999698638916" y2="177.80999946594238" fill="rgb(0, 0, 0)" stroke="rgb(60, 60, 60)" stroke-width="1px" opacity="0.25"></line><line x1="0" y1="160.02899951934813" x2="271.15999698638916" y2="160.02899951934813" fill="rgb(0, 0, 0)" stroke="rgb(60, 60, 60)" stroke-width="1px" opacity="0.25"></line><line x1="0" y1="142.2479995727539" x2="271.15999698638916" y2="142.2479995727539" fill="rgb(0, 0, 0)" stroke="rgb(60, 60, 60)" stroke-width="1px" opacity="0.25"></line><line x1="0" y1="124.46699962615966" x2="271.15999698638916" y2="124.46699962615966" fill="rgb(0, 0, 0)" stroke="rgb(60, 60, 60)" stroke-width="1px" opacity="0.25"></line><line x1="0" y1="106.68599967956543" x2="271.15999698638916" y2="106.68599967956543" fill="rgb(0, 0, 0)" stroke="rgb(60, 60, 60)" stroke-width="1px" opacity="0.25"></line><line x1="0" y1="88.90499973297118" x2="271.15999698638916" y2="88.90499973297118" fill="rgb(0, 0, 0)" stroke="rgb(60, 60, 60)" stroke-width="1px" opacity="0.25"></line><line x1="0" y1="71.12399978637694" x2="271.15999698638916" y2="71.12399978637694" fill="rgb(0, 0, 0)" stroke="rgb(60, 60, 60)" stroke-width="1px" opacity="0.25"></line><line x1="0" y1="53.34299983978272" x2="271.15999698638916" y2="53.34299983978272" fill="rgb(0, 0, 0)" stroke="rgb(60, 60, 60)" stroke-width="1px" opacity="0.25"></line><line x1="0" y1="35.56199989318847" x2="271.15999698638916" y2="35.56199989318847" fill="rgb(0, 0, 0)" stroke="rgb(60, 60, 60)" stroke-width="1px" opacity="0.25"></line><line x1="0" y1="17.78099994659422" x2="271.15999698638916" y2="17.78099994659422" fill="rgb(0, 0, 0)" stroke="rgb(60, 60, 60)" stroke-width="1px" opacity="0.25"></line><line x1="0" y1="0" x2="271.15999698638916" y2="0" fill="rgb(0, 0, 0)" stroke="rgb(60, 60, 60)" stroke-width="1px" opacity="0.25"></line></g></g></g><g><g><line x1="0" y1="160.02899951934813" x2="271.15999698638916" y2="160.02899951934813" fill="rgb(0, 0, 0)" stroke="rgb(153, 153, 153)" stroke-width="1.5px"></line></g></g><g><g><line x1="20.85846130664532" y1="0" x2="20.85846130664532" y2="177.80999946594238" fill="rgb(0, 0, 0)" stroke="rgb(153, 153, 153)" stroke-width="1.5px"></line></g></g><g><g><g><g><g><path style="fill: none;" stroke="rgb(204, 51, 17)" stroke-width="2px" d="M42.02979953289032,-0.4202225958973713L43.05186413691594,0.39330529781366863L43.11443952083588,1.1917017192798482L43.15615644344916,1.9743801178418323L43.23959028867575,2.7436137514542054L43.36474105651562,4.496788142680202L43.46903336304885,6.18788673228309L43.6776179761153,7.679634923038208L43.80276874395518,9.185510050919845L43.907061050488394,10.643381851329025L44.11564566355485,12.06406910704007L44.99170103843395,13.407339010361994L45.07513488366054,14.729453602893841L45.09599334496718,16.02776090596717L45.11685180627383,17.302965777561496L45.492304109793444,18.48879042425827L45.763464106779836,19.67363349439165L46.03462410376622,20.823821663568907L46.82724563341875,21.8587858905841L47.05668870779184,22.891233763688376L47.11926409171178,23.90679362676383L47.18183947563171,24.908521076949654L47.59900870176462,25.915515186806857L47.72415946960449,26.908353424525416L47.87016869875101,27.88852397920644L48.329054847497204,28.873874328663987L48.39163023141714,29.844790555045876L48.62107330579024,30.787343608264507L48.683648689710175,31.716549304112476L48.74622407363011,32.63268513914599L48.76708253493676,33.53397232122177L49.76828867765573,34.435853054067394L49.83086406157567,35.324761128292096L49.8934394454956,36.20065416931334L49.914297906802254,37.06237241061055L50.37318405554845,37.922864050735626L50.62348559122819,38.7756770728335L50.832070204294645,39.60821275357L50.915504049521225,40.42554054444841L51.436965582187355,41.23900827482163L51.45782404349401,42.04022572051676L51.6872671178671,42.831544358100786L51.85413480832027,43.61258670668951L51.97928557616014,44.38279570970471L52.64675633797279,45.145793312092735L52.73019018319937,45.89863440698133L53.2516517158655,46.63032256171641L53.585387096771825,47.344965058717264L53.60624555807847,48.04921221543162L53.91912247767815,48.74433079096937L54.00255632290473,49.430594469515285L54.33629170381106,50.11097003111806L54.35715016511771,50.78086887826521L54.816036313863904,51.44594396099508L55.02462092693035,52.104414737391195L55.08719631085029,52.754491842246395L55.19148861738351,53.39480898598403L55.25406400130345,54.027102946491354L55.67123322743636,54.65325449082337L55.9632516857294,55.27230587264974L56.1509778374892,55.88352404357269L56.23441168271579,56.48694143521385L56.27612860532907,57.08250649248218L56.31784552794237,57.67033323862434L56.3804209118623,58.25104296123391L56.52643014100882,58.825589784327605L56.71415629276863,59.39097431971226L57.00617475106166,59.94961873503895L57.047891673674954,60.50116216807872L57.11046705759489,61.046024174530686L57.21475936412811,61.58484058995623L57.27733474804805,62.11674990852798L57.29819320935469,62.6421994958565L57.7153624354876,63.16414122600008L57.90308858724741,63.68006095809879L58.02823935508728,64.19070183200601L58.195107045540446,64.6964929660058L58.38283319730025,65.19556530266428L58.52884242644677,65.68932647999436L58.966870113886316,66.17807198045276L59.0503039591129,66.66149827882548L59.25888857217936,67.14046220366556L59.34232241740594,67.61253117970516L59.53004856916574,68.0804493801658L59.801208566152134,68.54396425682229L59.86378395007207,69.00250914327361L59.98893471791194,69.45588146051189L60.03065164052523,69.90431335700305L60.86499009279105,70.34781384620136L61.21958393500402,70.78770414417033L61.428168548070474,71.22385514004858L61.49074393199041,71.65549885658466L61.53246085460369,72.08258354848684L61.90791315812331,72.49551882956058L62.19993161641634,72.90318367594658L62.24164853902964,73.30643776609524L62.61710084254925,73.70542069205376L62.700534687775836,74.10032302199551L62.867402378228995,74.48957909552286L63.221996220441966,74.8765900635776L63.347146988281835,75.2601751222957L63.84775005964133,75.64197049531948L64.11891005662771,76.02056510695972L64.18148544054765,76.39501168121187L64.20234390185429,76.76450641991568L64.28577774708087,77.13056718501389L64.36921159230747,77.49326110768891L64.45264543753404,77.85261619103406L64.59865466668056,78.20781802503814L64.91153158628023,78.55983096908454L65.62071927070618,78.90994491698619L65.70415311593275,79.35927904281144L65.85016234507928,79.79407262409434L66.03788849683909,80.22245010486377L66.49677464558528,80.65084067468788L66.53849156819858,81.07502641191734L66.58020849081186,81.49538660678418L66.68450079734508,81.89023955241323L66.74707618126503,82.28270128831063L66.91394387171819,82.6749518612079L66.99737771694477,83.0648711689139L67.41454694307768,83.45299434398586L67.5188392496109,83.83464583292054L67.53969771091755,84.21291482698985L67.58141463353084,84.5879004737441L67.64399001745078,84.96003455375909L67.72742386267736,85.32951983223339L67.748282323984,85.69575416262686L67.89429155313051,86.04883467776837L67.95686693705045,86.39943648422775L68.06115924358367,86.74793828399909L68.45747000840994,87.09610768508607L68.66605462147639,87.44115878358568L68.79120538931627,87.78403478489733L68.91635615715614,88.12467922480663L68.99979000238272,88.46260261566214L69.25009153806246,88.79442193729481L69.27094999936911,89.12342129468021L69.79241153203525,89.45176291568464L69.98013768379505,89.77650229612769L70.71018382952764,90.0986989516676L70.73104229083428,90.41816067102472L70.77275921344757,90.73501173629883L71.69053151093996,91.04709390619449L71.85739920139314,91.35702103506274L72.00340843053965,91.66470009780468L72.04512535315293,91.96988454772551L72.08684227576623,92.27260439338104L72.19113458229945,92.57306021554896L72.71259611496558,92.87239297592023L72.73345457627222,93.16898510307777L72.94203918933869,93.4635159552763L72.98375611195196,93.75419601860844L73.0880484184852,94.04274824082026L73.38006687677823,94.32433514665246L73.50521764461811,94.60398844490638L73.69294379637792,94.88129256767017L74.00582071597759,95.15524498688936L74.08925456120417,95.42718449961176L74.13097148381748,95.69703573521257L74.6524330164836,95.96234334961532L75.1113191652298,96.22290753800397L75.23646993306967,96.4817609176955L75.59106377528263,96.73589265818022L75.7162145431225,96.98548247859827L75.73707300442916,97.23315987929611L76.02909146272219,97.47593932712223L76.25853453709529,97.7172845340424L76.73827914714812,97.95828421535028L76.88428837629465,98.19783547125688L76.98858068282789,98.43570972948126L77.25974067981427,98.66712582721517L77.40574990896079,98.8962937134704L77.71862682856046,99.12313346250237L77.9689283642402,99.34776727258591L78.03150374816015,99.57088226194686L78.32352220645318,99.79312522491803L79.05356835218576,100.0146571259975L79.07442681349241,100.2345711869783L79.09528527479905,100.45288542756234L79.47073757831866,100.66844034100562L79.78361449791835,100.8762767052602L80.78482064063732,101.07989263255801L80.97254679239714,101.2823402574283L81.16027294415694,101.48203491690562L81.28542371199681,101.67915295384842L81.72345139943636,101.87521775010563L81.76516832204965,102.06981511151287L81.7860267833563,102.26303959050435L82.76637446476863,102.4565684435309L82.93324215522179,102.64828773221751L83.41298676527464,102.83945464323044L83.68414676226102,103.02937509084882L84.01788214316734,103.21873300681186L84.08045752708729,103.40686358463272L84.24732521754045,103.59400748459679L84.30990060146038,103.77996682307432L84.81050367281986,103.96560000481904L84.89393751804646,104.15001747234204L84.93565444065975,104.33322928921365L85.5196913572458,104.51630317480398L85.99943596729867,104.69860169498557L86.31231288689833,104.87944155527654L86.68776519041796,105.0583620424552L86.81291595825783,105.23618040950832L87.14665133916415,105.41288717136331L87.52210364268376,105.5883350201188L87.5429621039904,105.7621666661617L87.68897133313692,105.93411955615487L87.75154671705687,106.10496837872581L88.25214978841635,106.20611420373223L88.4607344014828,106.3614791030569L88.52330978540274,106.52021621547593L88.54416824670939,106.67785166237437L88.58588516932267,106.83678585967155L88.60674363062931,106.9964139951912L89.12820516329545,107.12026724094743L89.31593131505527,107.25346552936512L89.81653438641474,107.39554362815551L89.9834020768679,107.54058305080046L90.27542053516095,107.68288804130032L90.29627899646759,107.82478305281757L90.65087283868056,107.9698871057646L91.25576821657329,108.11640088066419L91.29748513918656,108.2596422102533L91.50606975225303,108.3928570978561L91.86066359446599,108.52804946668066L91.96495590099921,108.65584774946913L92.42384204974542,108.78682817247865L92.59070974019858,108.91728282942634L92.82015281457167,109.04946382252338L92.86186973718497,109.18128938723255L93.00787896633149,109.31376216499591L93.13302973417136,109.44551877433948L93.27903896331786,109.5779218587568L93.40418973115774,109.70977913114461L93.46676511507768,109.84140278211964L93.82135895729064,109.97494366835716L94.0716604929704,110.10961317954627L94.13423587689033,110.24391631402193L94.61398048694318,110.37809013781114L94.65569740955645,110.51128877922149L94.78084817739632,110.64444511067373L94.86428202262292,110.77727531797807L95.19801740352924,110.91109769452054L95.55261124574221,111.04601905612212L95.96978047187511,111.1815687261451L96.34523277539473,111.31777172154247L96.38694969800802,111.45333304436961L96.42866662062131,111.58825672468795L96.49124200454126,111.72150767429675L96.55381738846118,111.85275563478616L96.90841123067416,111.98089673999333L97.13785430504726,112.10761931662064L97.4298727633403,112.23283412107666L98.09734352515295,112.35699499422203L98.59794659651243,112.48223930898226L98.68138044173901,112.6055815323761L98.7230973643523,112.72835814665594L98.84824813219217,112.84846069964301L98.91082351611212,112.96786383662646L99.28627581963173,113.08696887781232L99.55743581661811,113.20579980984442L99.72430350707128,113.32442293029663L99.99546350405767,113.44059484831055L100.09975581059089,113.55629515978588L100.43349119149721,113.67227519326998L100.53778349803045,113.7877509338008L100.57950042064373,113.90270280234347L100.78808503371019,114.01763985130854L100.87151887893677,114.13216405634745L101.47641425682949,114.24654448377268L101.58070656336271,114.36054548668326L101.72671579250922,114.47430532470884L102.64448809000162,114.5863569462309L102.81135578045479,114.6978548707523L102.9573650096013,114.8090830978737L103.04079885482788,114.91988495238323L103.27024192920098,115.03045767344307L103.39539269704085,115.14071845409029L103.52054346488072,115.2482584766085L103.97942961362692,115.35364273755283L104.20887268800001,115.45897255950459L104.31316499453324,115.56374947291141L104.50089114629306,115.66824261382503L104.5217496075997,115.77221783204979L104.77205114327944,115.8755189992954L105.00149421765254,115.97831374810809L105.06406960157248,116.08069616576783L106.25300189605126,116.18242795238788L106.35729420258448,116.28313328525604L106.37815266389113,116.3833446839879L106.58673727695759,116.48343197677664L108.10940495234269,116.58293459921411L108.3388480267158,116.68128739587343L108.35970648802243,116.77912284418898L108.40142341063573,116.87601446955773L108.44314033324902,116.97245050909129L108.50571571716895,117.0684973126002L108.5265741784756,117.16402992396726L109.04803571114174,117.25965258974495L109.15232801767495,117.35493383140307L109.2149034015949,117.44983067129587L109.38177109204806,117.5443790006198L109.79894031818097,117.63893517652923L109.8615157021009,117.73299676061725L109.88237416340755,117.82660941428946L110.19525108300724,117.92025286122669L110.52898646391354,118.04897593706991L110.65413723175342,118.17453942432206L110.73757107698,118.18258815495224L110.92529722873981,118.21999160782067L110.9670141513531,118.26466818617149L111.15474030311292,118.32455988009316L111.2381741483395,118.3913103069979L111.46761722271259,118.46935765707224L112.00993721668536,118.56121235353486L112.19766336844518,118.6561936143282L112.51054028804487,118.75489420521438L112.65654951719137,118.85467035528268L112.78170028503123,118.95468065581531L112.86513413025783,119.05319786410587L112.88599259156447,119.15123381684535L113.28230335639074,119.25207777281219L113.34487874031066,119.34958059037135L114.09578334734991,119.44552427695638L114.22093411518978,119.54163223478014L114.53381103478945,119.63799907230796L114.57552795740274,119.73412685699378L114.93012179961572,119.82977916102868L114.95098026092235,119.92507152541825L115.34729102574862,120.01962567928132L115.36814948705526,120.11381883295388L115.4307248709752,120.20784004406838L115.618451022735,120.30015775300541L115.84789409710811,120.3930050952429L116.36935562977425,120.48193711412858L116.43193101369417,120.57071363999857L116.66137408806728,120.6599903198314L116.72394947198721,120.74907208981533L116.7656663946005,120.8378909472076L116.8073833172138,120.92644669879076L117.41227869510651,121.01452289768764L117.85030638254607,121.10263759790993L117.99631561169258,121.19078837458787L118.16318330214573,121.27901668623988L118.24661714737232,121.36707014492018L118.39262637651883,121.45511582644521L118.4134848378255,121.54280766089602L118.43434329913212,121.63014780310425L118.64292791219859,121.71743209527992L119.18524790617136,121.80536802741977L119.28954021270458,121.89313199896496L119.62327559361091,121.97650527518535L119.852718667984,122.05381349752716L119.93615251321059,122.13098019922644L119.95701097451723,122.20785704629921L120.1238786649704,122.28347839034166L120.24902943281027,122.35908409034553L120.31160481673021,122.43453154022329L120.49933096849001,122.51002998282462L120.58276481371661,122.58437833972374L120.72877404286311,122.65804094520118L120.74963250416975,122.73143139188824L120.87478327200962,122.80484591064896L120.99993403984949,122.87509888998498L121.0416509624628,122.94516270342562L121.10422634638273,123.01471339273556L121.83427249211532,123.08361683719939L122.08457402779506,123.15173445687677L122.48088479262131,123.21948740995872L122.96062940267416,123.28815489606802L123.37779862880707,123.3556005774324L123.87840170016655,123.42193470280037L124.21213708107288,123.48813736185602L124.37900477152604,123.55425274949542L124.56673092328586,123.6204918563908L124.62930630720578,123.68658200729638L124.67102322981907,123.75242537811461L124.69188169112573,123.81802806485908L125.60965398861812,123.88469300457524L125.73480475645799,123.95073585812776L125.79738014037792,124.01641991734317L125.94338936952445,124.0819078673854L126.21454936651084,124.14749839562401L126.25626628912411,124.2128853631952L126.27712475043076,124.27802902713434L126.42313397957729,124.34229469012152L126.7985862830969,124.4067662863029L127.38262319968297,124.47169569309938L127.79979242581588,124.53688350085861L127.84150934842917,124.60162424101567L127.96666011626904,124.66629102929687L128.50898011024182,124.73039053314761L128.61327241677503,124.79436739332667L128.967866258988,124.85859386760893L129.34331856250762,124.92304116957794L129.51018625296078,124.98745533882861L130.15679855346679,125.05220828975595L130.7199770087462,125.11665290453706L131.19972161879906,125.18143346185012L131.80461699669178,125.24666633556248L132.03406007106486,125.31188257937438L132.3677954519712,125.37663174863228L132.65981391026423,125.4401761239624L132.6806723715709,125.50329167035005L133.0978415977038,125.57151925093923L133.59844466906327,125.62972317451205L133.9321800499696,125.69147978764451L134.32849081479586,125.75421606985955L134.3910661987158,125.81768689809508L134.49535850524902,125.88242613953352L135.2671215735949,125.92630092547165L135.41313080274142,125.97029716914572L135.496564647968,126.01487994527005L135.62171541580787,126.05682737475612L135.74686618364774,126.10050074342351L135.9137338741009,126.14460904582405L135.95545079671422,126.18909833733065L136.4560538680737,126.23518258544273L136.62292155852685,126.28281100839797L136.97751540073983,126.33228599175982L137.12352462988633,126.3819072159265L137.37382616556607,126.43316244585323L137.41554308817936,126.48451367049705L137.54069385601926,126.53648713968666L137.790995391699,126.58979943151895L137.8952876982322,126.64352144601898L138.1038723112987,126.6970055197234L138.3124569243651,126.75134052348368L138.8964938409512,126.80542918990163L138.93821076356448,126.85949766987164L139.02164460879106,126.91371939706465L139.33452152839072,126.96836100780982L140.1897184419632,127.02433845332988L140.25229382588313,127.08026467104631L140.62774612940274,127.13716860854163L141.00319843292237,127.1942669540849L141.35779227513535,127.25211924187887L141.42036765905527,127.30991053949569L141.5246599655885,127.36774491563943L141.62895227212175,127.42561587432968L142.00440457564133,127.4835251436779L142.025263036948,127.54125969722953L142.37985687916097,127.59914583149185L142.4424322630809,127.65660930097619L142.58844149222742,127.71379734039189L143.15161994750684,127.77139398457513L143.19333687012013,127.82885279701966L143.33934609926663,127.88608388839906L143.71479840278627,127.94377466934807L143.90252455454606,128.00153623025517L144.09025070630585,128.05939967764823L144.29883531937233,128.11673411301686L144.52827839374544,128.17389553073593L144.63257070027865,128.23100440797737L145.02888146510492,128.28851001837717L145.13317377163813,128.34595441078898L145.17489069425142,128.40324403231108L145.258324539478,128.46043996083085L145.44605069123782,128.5176878733974L145.82150299475742,128.5752300319724L146.23867222089032,128.63308592727287L146.34296452742356,128.69085383000075L146.53069067918335,128.7486310566074L146.65584144702325,128.8063397253647L146.76013375355646,128.86395401301655L146.8227091374764,128.9214259904315L147.28159528622263,128.9788787444256L147.6570475897422,129.03651180504542L147.7404814349688,129.09401727202209L147.84477374150202,129.1514155848755L148.17850912240834,129.20892612509525L148.22022604502163,129.26626558881617L148.55396142592798,129.32360398891586L148.59567834854127,129.38077017394164L148.72082911638114,129.43783974023575L148.76254603899443,129.49473866950748L148.80426296160772,129.55146768847197L149.05456449728746,129.60820583658042L149.09628141990075,129.6647739506074L149.13799834251404,129.72117275995262L149.61774295256689,129.77771099803886L149.80546910432668,129.83419093989755L149.86804448824662,129.8905159719974L150.20177986915297,129.9468884094351L150.43122294352605,130.00312953315648L150.47293986613934,130.0591995484528L150.5980906339792,130.11515814260557L150.86925063096558,130.17059351726925L150.97354293749882,130.22580299072968L151.24470293448522,130.2809648810096L151.51586293147162,130.3360913706577L152.05818292544438,130.3903240988136L152.53792753549723,130.44381433631793L152.6213613807238,130.49717354958977L152.64221984203047,130.55035919466638L152.78822907117697,130.60336623008294L153.14282291338995,130.65597563085157L153.37226598776303,130.70852343615377L153.60170906213614,130.76102412138962L153.74771829128264,130.81343262927876L153.87286905912254,130.86573764790154L154.373472130482,130.91779924121235L155.5206875023475,130.94793659259454L155.6041213475741,130.98660001692568L155.87528134456048,131.03395916227973L156.18815826416014,131.08686826388828L156.35502595461332,131.1413674456105L156.37588441591998,131.19586596061848L156.45931826114654,131.25085939696802L156.667902874213,131.30305703939118L156.87648748727946,131.3565815972487L156.8973459485861,131.4100523085171L156.91820440989275,131.4634662118358L157.0850721003459,131.51752580725554L157.50224132647884,131.5624726601935L158.00284439783832,131.60834362478258L158.14885362698482,131.64902903416544L158.21142901090477,131.69004017243458L158.42001362397122,131.732323679839L158.607739775731,131.77558214906693L158.67031515965095,131.81903927534665L158.8788997727174,131.863365811676L158.98319207925064,131.9080148191595L159.73409668628986,131.95475447740674L159.92182283804968,132.0019257192926L159.96353976066294,132.04906302415975L160.04697360588955,132.09626944629292L160.17212437372942,132.14366514669004L160.23469975764934,132.19106942414544L160.38070898679587,132.23868855996614L160.54757667724903,132.28650736812386L160.61015206116898,132.33430791104522L160.7770197516221,132.38230939045405L160.8604535968487,132.43032739497085L161.42363205212814,132.47917320795528L161.50706589735472,132.52799914240123L161.73650897172783,132.57701088450202L161.9659520461009,132.6262060447322L162.21625358178065,132.6755892253655L163.0714504953531,132.72579971819408L163.3843274149528,132.7753816378648L163.67634587324585,132.82485296168835L163.84321356369898,132.8742680169802L164.13523202199204,132.92375822889767L164.15609048329867,132.97310681266208L164.69841047727147,133.02248816133914L164.9904289355645,133.07185630188826L165.51189046823063,133.12146638514756L166.11678584612332,133.17099533860667L166.17936123004327,133.22040702686957L166.30451199788314,133.26865486052301L166.67996430140275,133.31345761610513L166.72168122401604,133.35723649677124L167.09713352753568,133.39989625998504L167.18056737276225,133.4423517183213L167.7020289054284,133.48250776558788L167.8480381345749,133.5223093684037L168.1191981315613,133.56118456261L168.24434889940116,133.60009697997617L168.78666889337396,133.6391142216293L169.0995458129736,133.67831677544223L169.26641350342678,133.7175045085905L169.28727196473343,133.75659140432606L169.74615811347962,133.79592393062245L169.8295919587062,133.8352203012058L170.12161041699923,133.8744635813405L170.37191195267897,133.91374143868887L170.39277041398563,133.95291623696886L170.53877964313213,133.99211131220255L170.83079810142516,134.03143921747196L170.95594886926503,134.07068461337542L171.14367502102485,134.10938798841093L171.33140117278467,134.14813484071627L171.37311809539796,134.18679792434392L171.3939765567046,134.22535933556304L171.79028732153085,134.2641484977516L171.85286270545078,134.30287088162183L172.0405888572106,134.3416266583013L172.31174885419696,134.3804859040077L172.8123519255565,134.4195560037794L173.1460873064628,134.45856113744793L173.37553038083593,134.49761563216632L173.7509826843555,134.53676044990766L173.95956729742196,134.5759217443682L173.98042575872861,134.6149768086524L174.10557652656848,134.65396504055258L174.25158575571498,134.69293170602364L174.3350196009416,134.7318342487774L174.35587806224822,134.7706314324243L174.37673652355488,134.80932369822187L174.83562267230107,134.8481735422581L174.85648113360773,134.8869179600362L174.9399149788343,134.92559619490999L174.9816319014476,134.9641825208726L175.1693580532074,135.00276589624897L175.252791898434,135.04126689821769L175.8576872763267,135.07980830968737L175.87854573763335,135.11824506411912L176.06627188939314,135.15666213590654L176.12884727331308,135.1949744310185L176.2748565024596,135.23325145551806L176.48344111552606,135.27152653000104L176.5042995768327,135.30969781160206L176.54601649944598,135.34777686914774L176.6503088059792,135.38579714374612L176.85889341904567,135.42381255892258L176.90061034165896,135.46173588238756L177.23434572256528,135.49971498464163L177.35949649040518,135.53759517280866L177.3803549517118,135.57537291110634L177.54722264216497,135.61311995330058L177.94353340699124,135.6606471964068L178.29812724920419,135.68744211195957L179.3201918532298,135.7227589707804L179.5913518502162,135.75959430764968L179.65392723413615,135.7966755141355L180.30053953464216,135.8350811398259L180.32139799594881,135.87344783877623L180.67599183816176,135.9122086276319L180.88457645122824,135.95141560502014L180.94715183514813,135.98960212108216L180.98886875776142,136.0277918681375L181.21831183213453,136.0637782827439L181.34346259997443,136.1000205884288L181.48947182912093,136.13633991770618L181.86492413264054,136.1727108342375L181.8857825939472,136.20902723947174L181.96921643917378,136.2442629097937L182.0317918230937,136.2795581848453L182.073508745707,136.314856391063L182.36552720400002,136.35065892800964L182.44896104922663,136.3865391393737L182.6784041235997,136.42131594243614L182.74097950751965,136.45613035643498L183.15814873365255,136.49163066798758L183.32501642410574,136.52658491277822L183.5336010371722,136.5618040957051L183.78390257285193,136.59731503892485L184.26364718290475,136.63281714574993L184.367939489438,136.66737100135407L184.72253333165094,136.70179837048101L185.64030562914334,136.73632442860298L185.66116409045,136.77077909486076L185.74459793567658,136.80523217073045L186.32863485226264,136.8402297343201L187.22554868844838,136.87494893484157L187.39241637890154,136.90971939664388L187.55928406935473,136.94386729654542L187.58014253066136,136.97793990319505L188.2058963698607,137.01071873529045L188.2893302150873,137.0434654040115L188.5187732894604,137.07628224889254L188.76907482514014,137.10876250882853L188.8316502090601,137.1412024870029L188.87336713167338,137.1735931854832L188.95680097689996,137.20597574870254L189.12366866735312,137.2383664962419L190.37517634575184,137.26994567031886L190.5003271135917,137.30155072676664L190.52118557489837,137.33308629509835L190.87577941711132,137.36476975627247L191.02178864625785,137.39640847507013L191.50153325631067,137.4276548888998L191.58496710153727,137.45887413814802L191.8769855598303,137.48922409821338L192.23157940204325,137.51907283817525L192.35673016988315,137.54894226667855L192.62789016686952,137.57892647146954L193.04505939300242,137.60914529172226L193.23278554476227,137.6389694854156L193.56652092566856,137.66896537362913L193.60823784828185,137.69891018980496L193.7959640000417,137.72865988937554L193.98369015180148,137.75846712884788L194.15055784225464,137.78831360456405L194.56772706838754,137.81813808956736L194.60944399100086,137.84790988162416L194.67201937492075,137.87764012786303L194.71373629753407,137.90731773714566L194.83888706537394,137.9369991286104L195.08918860105368,137.96647117497184L195.11004706236034,137.9958769599987L195.25605629150684,138.02527860037884L195.3186316754268,138.05452773240046L195.42292398196003,138.08376570421484L195.56893321110653,138.1115565462127L195.61065013371982,138.13888650890866L196.67443166035872,138.16385427081053L196.90387473473183,138.18877932109768L196.96645011865175,138.2136576917108L197.07074242518496,138.23792544227808L197.4044778060913,138.26182285716968L197.4879116513179,138.28551300737496L197.50877011262455,138.30915684678442L197.55048703523784,138.3327678981633L197.75907164830429,138.35633560392264L197.84250549353087,138.3798713596257L197.92593933875744,138.40279458505026L198.11366549051726,138.42567886307774L198.1345239518239,138.44850694524803L198.23881625835713,138.47135058647262L198.3222501035837,138.49420074145067L198.34310856489034,138.51700457749618L198.65598548449003,138.53997812943322L199.30259778499604,138.56326900496475L199.55289932067578,138.5866801183288L199.6989085498223,138.610095484785L199.80320085635552,138.6334376754625L200.09521931464855,138.67234214861256L200.28294546640834,138.69648377511078L200.59582238600802,138.72768766596124L200.82526546038113,138.76082974495318L200.97127468952766,138.78524406501958L200.99213315083432,138.8099152854757L201.1798593025941,138.83558168774283L201.97248083224662,138.86136660847336L202.03505621616657,138.88748380015508L202.07677313877986,138.91378516604078L202.1393485226998,138.94037707668625L202.16020698400644,138.96701454286665L202.24364082923302,138.99401958871053L202.91111159104568,139.02283787857363L203.2031300493387,139.0503242110028L203.891459272458,139.07956139525766L203.9748931176846,139.10890343306266L204.3503454212042,139.13840526986286L204.45463772773743,139.16802164729654L204.76751464733712,139.1980785837178L204.83009003125704,139.2281394054142L204.89266541517696,139.25821636805517L205.33069310261655,139.2874779148977L205.56013617698963,139.31693179482184L205.85215463528266,139.34359503424264L206.0607392483491,139.37044782163775L206.12331463226906,139.3973336217059L206.2067484774956,139.42428514830226L206.5613423197086,139.45103246042117L206.6030592423219,139.477774602956L206.66563462624183,139.50454166737913L207.10366231368138,139.53025530245677L207.14537923629467,139.5559401281999L207.2496715428279,139.58166552143174L207.47911461720102,139.6073823243786L207.64598230765415,139.63323057229587L207.72941615288076,139.65842383162217L208.0840099950937,139.68309505248254L208.20916076293358,139.7075896556905L208.41774537600003,139.73227511428684L208.45946229861332,139.75695365806553L208.58461306645322,139.78173278743571L208.68890537298643,139.80657173272775L208.79319767951966,139.83113319631985L208.8557730634396,139.85571113966256L209.16864998303924,139.87999466716659L209.1895084443459,139.90399242742382L209.75268689962533,139.9281102035211L209.91955459007852,139.95222505888552L210.12813920314497,139.97492003085597L210.35758227751805,139.99749264916358L210.7956099649576,140.02043163462994L211.15020380717058,140.04353183221906L211.17106226847721,140.06659673656083L211.83853303028988,140.09019554561826L211.8593914915965,140.11375552866986L211.98454225943638,140.13703537556245L213.06918224738195,140.16087525757598L213.11089916999524,140.1846904971809L213.31948378306168,140.20861509758515L213.46549301220819,140.23257678503808L214.0286714674876,140.2566237294219L214.4666991549272,140.28085405821372L214.67528376799365,140.30516783749204L215.00901914889997,140.32952418158808L215.05073607151326,140.35384783952242L215.09245299412652,140.37812772463144L215.19674530065976,140.40241032026893L215.86421606247242,140.42679699229876L215.96850836900563,140.4511860868226L216.19795144337874,140.47548164228297L216.21880990468537,140.49972999802583L216.30224374991198,140.52396753080444L217.19915758609773,140.54862759034324L217.26173297001765,140.5731550163317L217.67890219615057,140.5977017132255L217.80405296399042,140.62225117620417L217.82491142529707,140.6467513161835L218.36723141926984,140.67139942036525L218.51324064841637,140.69605546559274L218.65924987756287,140.72071838151592L219.3475791006822,140.74546072295846L219.80646524942838,140.77033141536626L219.82732371073504,140.7951505668044L220.01504986249483,140.81998563272558L220.16105909164136,140.84481877191186L220.22363447556128,140.86961667480705L220.3696437047078,140.89441159199595L220.43221908862776,140.9191709484147L220.828529853454,140.9440195047998L220.89110523737395,140.9688314091717L221.12054831174703,140.99348437619204L221.34999138612014,141.01815975176336L221.5585759991866,141.04281422232282L221.60029292179988,141.06742446652265L221.6211513831065,141.09198329060501L221.68372676702646,141.11650538429421L222.18432983838593,141.14106448239016L222.28862214491917,141.16559927179122L222.30948060622583,141.19007884901623L222.39291445145238,141.2145240516599L222.78922521627868,141.2461896794292L222.9978098293451,141.2778006245346L223.16467751979826,141.30904180863774L223.414979055478,141.339414737859L224.24931750774383,141.3656184601361L224.43704365950364,141.3922590651557L224.4579021208103,141.41888642761637L224.58305288865014,141.44571925961355L224.62476981126346,141.47257411217885L224.81249596302325,141.49932179647408L225.54254210875587,141.52649742579428L226.1265790253419,141.55422470372892L226.18915440926185,141.58194138507352L226.2517297931818,141.60952281275547L226.43945594494159,141.63703378003254L227.02349286152767,141.6640962930742L227.52409593288715,141.6914551839281L227.7326805459536,141.7179507402161L228.87989591781908,141.74394294113367L229.00504668565898,141.76996085353L229.08848053088553,141.79597387340158L229.15105591480548,141.82196721643626L229.38049898917856,141.84588538288133L229.7559512926982,141.86999081751404L229.86024359923144,141.8932333969104L230.50685589973742,141.91473401768883L230.61114820627066,141.93629459345044L230.63200666757731,141.957826919227L230.6737235901906,141.9784408993446L230.92402512587034,141.99818094354393L230.9657420484836,142.01791933608482L231.21604358416334,142.0369897735187L231.42462819722982,142.05625513888697L231.69578819421622,142.0752467091336L231.80008050074943,142.09431366924736L231.8209389620561,142.1128684656556L232.13381588165578,142.13160566065278L232.25896664949565,142.14994165131267L232.4675512625621,142.16824947562517L232.96815433392158,142.18696024925393L233.32274817613455,142.20517313657382L233.4896158665877,142.2233612985657L233.78163432488074,142.2414275221031L234.42824662538678,142.25967113204067L234.57425585453328,142.2779992191932L234.6368312384532,142.2963410118708L234.80369892890636,142.3146328203478L235.1374343098127,142.33315313618286L235.22086815503928,142.35169970123826L235.3251604615725,142.37028825438853L235.36687738418578,142.3888679390997L235.40859430679907,142.4074157633755L235.47116969071902,142.42593456719746L236.2012158364516,142.44483777992554L236.32636660429145,142.46378241480718L236.3472250655981,142.48269889907885L236.49323429474464,142.50165190158992L236.68096044650443,142.5204600515391L237.09812967263736,142.53903957977423L237.3484312083171,142.55774285973118L237.6821665892234,142.57659445575206L237.7238835118367,142.59542970426088L237.74474197314336,142.61423567354674L237.78645889575665,142.633025229293L237.91160966359652,142.65184886354706L237.9950435088231,142.6706804696843L238.09933581535634,142.68936216130828L238.22448658319618,142.70807041673052L238.32877888972942,142.72679801675045L238.49564658018258,142.7453642448431L238.93367426762214,142.76400711747505L239.2256927259152,142.78276323733274L239.45513580028828,142.80158140460838L239.66372041335472,142.8201555497277L239.7471542585813,142.83873263096297L239.76801271988796,142.85727954900284L240.35204963647405,142.87573752144834L240.53977578823384,142.89424253485717L240.706643478687,142.91278719438276L241.01952039828666,142.93131505892674L241.04037885959332,142.94981209360833L241.29068039527306,142.96838649545762L241.93729269577906,142.98460833111034L242.12501884753888,143.00059922893178L242.27102807668538,143.01663675490283L242.39617884452525,143.03268878951997L242.4587542284452,143.04873486185105L242.47961268975186,143.0647295607991L242.58390499628507,143.08059876783767L242.7716311480449,143.09653650502122L242.93849883849805,143.1125277736098L243.08450806764455,143.12856175943338L243.1053665289512,143.14457177692762L243.1470834515645,143.16056882098258L243.35566806463095,143.17663918693094L243.41824344855087,143.1927066073196L243.4599603711642,143.20876033251534L243.9814219038303,143.2249942737697L244.08571421036353,143.2412355203333L244.2108649782034,143.25748396130427L244.29429882342998,143.2737356694068L244.87833574001607,143.29018471319375" fill="none"></path></g></g></g></g><g opacity="0.2"><g><g><g><path style="fill: none;" stroke="rgb(204, 51, 17)" stroke-width="2px" d="M30.557645814235393,-2.4300909914699673L30.766230427301846,0.44508257532550033L31.162541192128106,1.7115399034472887L31.60056887956766,6.2396378755318835L32.059455028313856,11.131774268481763L32.62263348359328,13.260390204685791L32.83121809665973,15.601793546397232L32.95636886449961,17.05931176122229L33.102378093646124,17.968526829543748L33.12323655495277,17.835796346678677L33.811565778072065,22.135699631933164L34.1035842363651,24.745531463894338L34.249593465511616,26.180448800012158L34.27045192681826,26.38859944845771L34.31216884943155,26.7855588444622L34.374744233351485,27.327118821410124L34.416461155964775,27.714552993621822L34.66676269164453,30.08088884044875L34.87534730471097,31.96606178302781L35.772261140896724,38.990603005095124L35.93912883134989,40.23161116088596L36.10599652180305,41.352169616087L36.564882670549245,43.58018437581998L36.648316515775825,44.0961229580318L36.83604266753564,45.17244675086269L36.919476512762216,45.51206933382795L36.961193435375506,45.7164973287467L37.14891958713532,46.544635387872205L37.25321189366854,47.232928854012016L37.29492881628183,47.35965804845131L37.39922112281506,47.86884021323013L37.44093804542835,48.135188786740684L37.52437189065493,48.5080370460235L37.60780573588151,49.04709317415802L37.73295650372138,49.75358922373496L37.753814965028035,49.86479852989433L38.23355957508087,52.7383359838408L38.31699342030745,53.24871045757838L39.00532264342675,56.64475081694853L39.151331872573266,57.46152882127248L39.276482640413136,58.149034038711775L39.797944173079266,59.882949341994305L39.83966109569256,59.7254585764189L40.00652878614572,60.33346990600194L40.29854724443876,61.228436882266166L40.52799031881185,62.26267216885269L40.59056570273179,62.55456927377409L40.778291854491606,63.40828236006509L40.945159544944765,64.16901521938847L41.13288569670457,64.61524347114455L41.153744158011214,64.44832684085625L41.278894925851084,64.79948832496689L41.299753387157736,64.89343564697883L41.40404569369096,65.36252311104988L41.779497997210576,66.39834814291476L41.84207338113051,66.66604799991191L42.02979953289032,67.41506973568475L43.05186413691594,68.88841916390673L43.11443952083588,69.14319571657862L43.15615644344916,69.30339567306588L43.23959028867575,69.61835070846205L43.36474105651562,158.51122550801475L43.46903336304885,156.28987970902466L43.6776179761153,141.4451256131132L43.80276874395518,145.58710426481005L43.907061050488394,144.02121344555667L44.11564566355485,143.32925031739933L44.99170103843395,138.73731579246558L45.07513488366054,139.28303063493786L45.09599334496718,139.51320256745794L45.11685180627383,139.74371563281898L45.492304109793444,133.4183410722015L45.763464106779836,135.57687402736252L46.03462410376622,134.37358920223926L46.82724563341875,124.9650808646173L47.05668870779184,126.67540169839361L47.11926409171178,126.90579553285878L47.18183947563171,127.4037567455479L47.59900870176462,129.85258050050533L47.72415946960449,130.27368746489412L47.87016869875101,130.81215737445723L48.329054847497204,133.22231388748807L48.39163023141714,133.53178430167392L48.62107330579024,132.28630333130306L48.683648689710175,132.60641179097655L48.74622407363011,132.9192173582776L48.76708253493676,132.99679361589185L49.76828867765573,134.7656270118195L49.83086406157567,135.00052346858868L49.8934394454956,135.19380503072765L49.914297906802254,135.2169573523283L50.37318405554845,136.69934845682093L50.62348559122819,137.42479228293422L50.832070204294645,136.6471468522277L50.915504049521225,136.41311316346898L51.436965582187355,137.49037258763556L51.45782404349401,137.5477226485521L51.6872671178671,137.8552737765113L51.85413480832027,138.0887825181312L51.97928557616014,138.22484484214218L52.64675633797279,138.77847860328225L52.73019018319937,138.944646728502L53.2516517158655,137.70250091124632L53.585387096771825,136.9204720891317L53.60624555807847,136.93700544002655L53.91912247767815,137.0866319344281L54.00255632290473,137.24589129162567L54.33629170381106,137.7654482003304L54.35715016511771,137.66853004182954L54.816036313863904,138.286098058914L55.02462092693035,138.65406613138921L55.08719631085029,138.76485647342838L55.19148861738351,138.66881101884593L55.25406400130345,138.78007662848393L55.67123322743636,139.12449163106956L55.9632516857294,139.32061155092424L56.1509778374892,139.39594063734816L56.23441168271579,139.45388354077477L56.27612860532907,139.48287320831938L56.31784552794237,139.50596260250276L56.3804209118623,139.595144000649L56.52643014100882,139.79990153651605L56.71415629276863,139.55912633418632L57.00617475106166,139.64093528860417L57.047891673674954,139.65182835573023L57.11046705759489,139.7039802807835L57.21475936412811,139.83052897289429L57.27733474804805,139.8135402262166L57.29819320935469,139.84357813205412L57.7153624354876,140.29486376097694L57.90308858724741,140.36003669345072L58.02823935508728,140.52032772909456L58.195107045540446,140.7308696193963L58.38283319730025,140.64347006074956L58.52884242644677,140.75293230308742L58.966870113886316,140.89312962080675L59.0503039591129,140.9724446623192L59.25888857217936,141.17032489387273L59.34232241740594,140.97532607563622L59.53004856916574,141.19291749265665L59.801208566152134,141.3590375943211L59.86378395007207,141.42288242709358L59.98893471791194,141.44063955065585L60.03065164052523,141.48143307689222L60.86499009279105,141.51006670773387L61.21958393500402,141.73954809464863L61.428168548070474,141.9379367134943L61.49074393199041,142.00003448244527L61.53246085460369,142.04119563727727L61.90791315812331,140.48126801880238L62.19993161641634,140.3613465773207L62.24164853902964,140.37085524126684L62.61710084254925,140.39173886387653L62.700534687775836,140.43311032876096L62.867402378228995,140.19743224722995L63.221996220441966,140.5267562615639L63.347146988281835,140.6473235370649L63.84775005964133,141.0403748092601L64.11891005662771,141.18407122257648L64.18148544054765,141.15418235535878L64.20234390185429,140.97249765382847L64.28577774708087,141.04391199250443L64.36921159230747,141.1177689085612L64.45264543753404,141.18737491198306L64.59865466668056,141.10282861491402L64.91153158628023,141.1795205767172L65.62071927070618,141.47930348061308L65.70415311593275,160.02899951934813L65.85016234507928,158.20960394364556L66.03788849683909,157.83152090983876L66.49677464558528,158.6126335584375L66.53849156819858,158.61815668129128L66.58020849081186,158.68228592942998L66.68450079734508,154.71543076102282L66.74707618126503,154.98655188233775L66.91394387171819,155.65887793034196L66.99737771694477,155.93201065902863L67.41454694307768,156.29968065426417L67.5188392496109,155.77630173295273L67.53969771091755,155.82355401337855L67.58141463353084,155.88058612523946L67.64399001745078,156.01158858810663L67.72742386267736,156.17390820496504L67.748282323984,156.21245911396892L67.89429155313051,154.3175775472954L67.95686693705045,154.47137836504115L68.06115924358367,154.69263737409827L68.45747000840994,155.25594291367398L68.66605462147639,155.26769212487181L68.79120538931627,155.4581444372107L68.91635615715614,155.63141135469291L68.99979000238272,155.70071265693642L69.25009153806246,155.08344230309547L69.27094999936911,155.11202956636652L69.79241153203525,155.5706031837998L69.98013768379505,155.4289730253491L70.71018382952764,155.49384374062154L70.73104229083428,155.5125071017917L70.77275921344757,155.5493763583683L71.69053151093996,155.13387490207037L71.85739920139314,155.24723243433635L72.00340843053965,155.3354264516261L72.04512535315293,155.3661035675443L72.08684227576623,155.3963820051544L72.19113458229945,155.4622425852603L72.71259611496558,155.7628837032088L72.73345457627222,155.71764344415087L72.94203918933869,155.8095919926722L72.98375611195196,155.51399831598246L73.0880484184852,155.57741135075358L73.38006687677823,154.59487880337994L73.50521764461811,154.68018188544085L73.69294379637792,154.67028240911378L74.00582071597759,154.4361928308726L74.08925456120417,154.48537888739097L74.13097148381748,154.5126873165045L74.6524330164836,153.99490313938358L75.1113191652298,153.4212137479663L75.23646993306967,153.50628706215494L75.59106377528263,152.91815086052063L75.7162145431225,152.35779628561787L75.73707300442916,152.3736788345394L76.02909146272219,151.71451165467906L76.25853453709529,151.82262344152264L76.73827914714812,152.1728931778912L76.88428837629465,152.27203366781242L76.98858068282789,152.3152979231689L77.25974067981427,151.26267955081678L77.40574990896079,151.1577348346449L77.71862682856046,151.02852828714686L77.9689283642402,150.92140843511757L78.03150374816015,150.96748455243514L78.32352220645318,151.15967316469522L79.05356835218576,151.38696699586762L79.07442681349241,151.40040779540067L79.09528527479905,151.41380553933246L79.47073757831866,151.15027545172165L79.78361449791835,149.7094222385723L80.78482064063732,149.07697685525793L80.97254679239714,149.1585514878457L81.16027294415694,148.85947568940173L81.28542371199681,148.59544632241443L81.72345139943636,148.6900311985224L81.76516832204965,148.68218431518753L81.7860267833563,148.69330673618967L82.76637446476863,149.10680610702767L82.93324215522179,149.00764243332114L83.41298676527464,149.20998968350838L83.68414676226102,149.241223210274L84.01788214316734,149.43679831117393L84.08045752708729,149.46738683191253L84.24732521754045,149.55409750093867L84.30990060146038,149.5892482594292L84.81050367281986,149.8342545025779L84.89393751804646,149.85694232048004L84.93565444065975,149.87896029258522L85.5196913572458,150.16512437859657L85.99943596729867,150.29074903126434L86.31231288689833,150.24221543270397L86.68776519041796,150.07353103878586L86.81291595825783,150.10696619716353L87.14665133916415,150.13510965654436L87.52210364268376,150.1228114864301L87.5429621039904,150.0159309241849L87.68897133313692,149.83759876360875L87.75154671705687,149.85361047933418L88.25214978841635,132.1813056236219L88.4607344014828,146.37594497984398L88.52330978540274,147.52089608915972L88.54416824670939,147.5107407632019L88.58588516932267,148.12370100295615L88.60674363062931,148.58159732266148L89.12820516329545,139.47709547782335L89.31593131505527,142.14996567802518L89.81653438641474,144.72317044116699L89.9834020768679,145.75301571240672L90.27542053516095,145.27957135268218L90.29627899646759,145.41741551619265L90.65087283868056,146.51921580510145L91.25576821657329,147.14768930919695L91.29748513918656,146.5240893679704L91.50606975225303,144.07640907042412L91.86066359446599,144.8401425739604L91.96495590099921,143.0752653253973L92.42384204974542,144.15885226696867L92.59070974019858,144.2424149091467L92.82015281457167,144.93831762482196L92.86186973718497,145.06954116164192L93.00787896633149,145.47448737168548L93.13302973417136,145.50641310004104L93.27903896331786,145.91178489814348L93.40418973115774,145.98940255537434L93.46676511507768,146.15202356144175L93.82135895729064,146.91103419671362L94.0716604929704,147.45515680993054L94.13423587689033,147.58478397753348L94.61398048694318,147.7797397401687L94.65569740955645,147.73703686361364L94.78084817739632,147.95417785280523L94.86428202262292,148.09110874077294L95.19801740352924,148.599741118643L95.55261124574221,149.14095996274995L95.96978047187511,149.55105380112448L96.34523277539473,149.96970328427048L96.38694969800802,150.02012553334123L96.42866662062131,150.07004519106613L96.49124200454126,149.82132705829096L96.55381738846118,149.4734593276789L96.90841123067416,148.80233925050698L97.13785430504726,148.61162860456034L97.4298727633403,148.3915308547495L98.09734352515295,148.29952683074188L98.59794659651243,148.82727258361479L98.68138044173901,148.48606687930985L98.7230973643523,148.53124462494668L98.84824813219217,147.95652355508312L98.91082351611212,147.95585536527082L99.28627581963173,148.07169646053805L99.55743581661811,148.19382118961647L99.72430350707128,148.33483490777562L99.99546350405767,147.80932804616972L100.09975581059089,147.86686192138407L100.43349119149721,148.1472631807614L100.53778349803045,148.1938733531334L100.57950042064373,148.23332387580652L100.78808503371019,148.42433094300816L100.87151887893677,148.49539586891984L101.47641425682949,148.64658147288344L101.58070656336271,148.72607122077804L101.72671579250922,148.84648531769753L102.64448809000162,148.5204881765555L102.81135578045479,148.54192241406628L102.9573650096013,148.64864151780662L103.04079885482788,148.70670696409843L103.27024192920098,148.82415519248303L103.39539269704085,148.91553159830264L103.52054346488072,148.26414671837523L103.97942961362692,147.78061492806415L104.20887268800001,147.9420080215025L104.31316499453324,147.94863113216996L104.50089114629306,148.03750617315316L104.5217496075997,148.0527048004081L104.77205114327944,148.0178645390422L105.00149421765254,148.03379345553435L105.06406960157248,148.07794780264825L106.25300189605126,148.04617608086653L106.35729420258448,147.8944448299558L106.37815266389113,147.9082656779695L106.58673727695759,148.0378125303162L108.10940495234269,148.02102001782126L108.3388480267158,147.82326232913294L108.35970648802243,147.8240464378718L108.40142341063573,147.6874955983847L108.44314033324902,147.7047286028005L108.50571571716895,147.74207602494909L108.5265741784756,147.73832356369832L109.04803571114174,147.92769120608168L109.15232801767495,147.97809855129043L109.2149034015949,148.0137519011268L109.38177109204806,148.0600557163358L109.79894031818097,148.22108780511718L109.8615157021009,148.2187296829543L109.88237416340755,148.23002101439226L110.19525108300724,148.39680185393803L110.52898646391354,160.02899951934813L110.65413723175342,159.20862533732617L110.73757107698,120.81831972920806L110.92529722873981,130.4936817156634L110.9670141513531,132.95495681931655L111.15474030311292,138.0579315238232L111.2381741483395,140.42921710881367L111.46761722271259,144.2891881960082L112.00993721668536,149.0102009296285L112.19766336844518,150.20501042523657L112.51054028804487,151.60493514939932L112.65654951719137,152.12915282694354L112.78170028503123,152.37380800134326L112.86513413025783,152.03889669474978L112.88599259156447,152.04091120009468L113.28230335639074,153.15071196491604L113.34487874031066,152.1897229500411L114.09578334734991,151.82406497617347L114.22093411518978,152.0391881480508L114.53381103478945,152.2867768992845L114.57552795740274,152.36537821140632L114.93012179961572,152.36271207609576L114.95098026092235,152.3983695658938L115.34729102574862,152.3035975635187L115.36814948705526,152.33647134309496L115.4307248709752,152.43343586916646L115.618451022735,152.00246503212088L115.84789409710811,152.3380610883733L116.36935562977425,151.13813211617355L116.43193101369417,151.2313930325419L116.66137408806728,151.55176148180777L116.72394947198721,151.63156835076572L116.7656663946005,151.6871804557764L116.8073833172138,151.7420614435575L117.41227869510651,151.72060236627675L117.85030638254607,151.87944689931575L117.99631561169258,152.0374717199456L118.16318330214573,152.21009818535865L118.24661714737232,152.29394731288372L118.39262637651883,152.4362949266905L118.4134848378255,152.45622387414082L118.43434329913212,152.47604766656494L118.64292791219859,152.59997824692047L119.18524790617136,152.97520946813614L119.28954021270458,153.05858746802406L119.62327559361091,151.63648496923594L119.852718667984,149.60588345338098L119.93615251321059,149.68220116264985L119.95701097451723,149.70494197206128L120.1238786649704,149.37999638118148L120.24902943281027,149.49843571638803L120.31160481673021,149.56536730457597L120.49933096849001,149.707476456591L120.58276481371661,149.4150105209372L120.72877404286311,149.28820680718798L120.74963250416975,149.30999294144004L120.87478327200962,149.43887905590543L120.99993403984949,148.40685368085428L121.0416509624628,148.45270044429577L121.10422634638273,148.37960279720787L121.83427249211532,148.25616404429783L122.08457402779506,148.08035974431274L122.48088479262131,148.05754772756072L122.96062940267416,148.50490618885064L123.37779862880707,148.16627885266902L123.87840170016655,147.8655801892534L124.21213708107288,147.92507971826507L124.37900477152604,148.00062573868007L124.56673092328586,148.15429117967943L124.62930630720578,148.2067560858344L124.67102322981907,148.22239023705617L124.69188169112573,148.23970190074357L125.60965398861812,148.7435890545562L125.73480475645799,148.61901015620435L125.79738014037792,148.59176175653494L125.94338936952445,148.62479699461602L126.21454936651084,148.76977431207072L126.25626628912411,148.79952159259955L126.27712475043076,148.8137622327258L126.42313397957729,148.58733365354087L126.7985862830969,148.76958056186493L127.38262319968297,149.04783814909348L127.79979242581588,149.25128083313658L127.84150934842917,149.18665768757157L127.96666011626904,149.26328672195746L128.50898011024182,149.15126515531992L128.61327241677503,149.20805549341972L128.967866258988,149.40718847737227L129.34331856250762,149.5957902268481L129.51018625296078,149.687209688269L130.15679855346679,149.9217277525422L130.7199770087462,149.90737947341276L131.19972161879906,150.1411871202647L131.80461699669178,150.42072975159326L132.03406007106486,150.51951172083452L132.3677954519712,150.44338279381745L132.65981391026423,150.07938825654577L132.6806723715709,150.01480568260507L133.0978415977038,152.11000219228575L133.59844466906327,148.3048102498154L133.9321800499696,149.78825952850892L134.32849081479586,150.27144687400968L134.3910661987158,150.6605800864876L134.49535850524902,151.2611196132624L135.2671215735949,143.1524656744926L135.41313080274142,143.2708271784199L135.496564647968,143.5730576276506L135.62171541580787,142.60250323135472L135.74686618364774,143.353356486167L135.9137338741009,143.59592180791955L135.95545079671422,143.817991007474L136.4560538680737,144.52385447090893L136.62292155852685,145.2129726174119L136.97751540073983,146.0261339512276L137.12352462988633,146.16378684850923L137.37382616556607,146.89722162862324L137.41554308817936,147.01769699697536L137.54069385601926,147.3496192512486L137.790995391699,147.9709819571928L137.8952876982322,148.22114824855745L138.1038723112987,148.21101113843096L138.3124569243651,148.64005772129588L138.8964938409512,148.6271551167789L138.93821076356448,148.7052803333096L139.02164460879106,148.85367974307442L139.33452152839072,149.1106976709903L140.1897184419632,149.741231220009L140.25229382588313,149.80954224342284L140.62774612940274,150.29752697649798L141.00319843292237,150.46755271799472L141.35779227513535,150.86692571164838L141.42036765905527,150.93396493883955L141.5246599655885,151.04354392809628L141.62895227212175,151.15051308552106L142.00440457564133,151.25823902793772L142.025263036948,151.278217654928L142.37985687916097,151.43245358264446L142.4424322630809,151.34964110151964L142.58844149222742,151.32681666488264L143.15161994750684,151.58688408855903L143.19333687012013,151.62099406068768L143.33934609926663,151.6174080258957L143.71479840278627,151.89942387032136L143.90252455454606,152.02029501900842L144.09025070630585,152.15426997434918L144.29883531937233,152.0247214660178L144.52827839374544,152.04300436471118L144.63257070027865,152.1113783155423L145.02888146510492,152.36818179344408L145.13317377163813,152.4333249181939L145.17489069425142,152.45892644111402L145.258324539478,152.5099034450475L145.44605069123782,152.62212869779884L145.82150299475742,152.83682048567096L146.23867222089032,153.06036185559253L146.34296452742356,153.11429851811846L146.53069067918335,153.20930981027763L146.65584144702325,153.27121300103047L146.76013375355646,153.32194740321054L146.8227091374764,153.35202381069152L147.28159528622263,153.43427781098808L147.6570475897422,153.60170365656086L147.7404814349688,153.63776148065165L147.84477374150202,153.68226855249918L148.17850912240834,153.8206169633401L148.22022604502163,153.83748772111045L148.55396142592798,153.9270806314459L148.59567834854127,153.94293006067412L148.72082911638114,153.9909780417315L148.76254603899443,154.00682581497506L148.80426296160772,154.02259078898538L149.05456449728746,154.11547331285777L149.09628141990075,154.130675252082L149.13799834251404,154.14579894603082L149.61774295256689,154.2947162649996L149.80546910432668,154.35784861037L149.86804448824662,154.37872395305635L150.20177986915297,154.48751386562026L150.43122294352605,154.51829158260685L150.47293986613934,154.5313498496823L150.5980906339792,154.57015702231308L150.86925063096558,154.42808885591853L150.97354293749882,154.41544375701696L151.24470293448522,154.4806953487623L151.51586293147162,154.55117861006042L152.05818292544438,154.24317001633756L152.53792753549723,154.00000564213246L152.6213613807238,154.02547137431006L152.64221984203047,154.031804273665L152.78822907117697,154.03550664137964L153.14282291338995,153.9416392206278L153.37226598776303,153.99616085973662L153.60170906213614,154.05696075070642L153.74771829128264,154.09756880666032L153.87286905912254,154.13291000338734L154.373472130482,154.10553781886424L155.5206875023475,144.38751062950496L155.6041213475741,148.24970901607387L155.87528134456048,152.20584892870838L156.18815826416014,154.7690672763282L156.35502595461332,155.56533963654226L156.37588441591998,155.64955970463228L156.45931826114654,155.95688893064636L156.667902874213,154.7817599847889L156.87648748727946,155.46153175384285L156.8973459485861,155.52008902758016L156.91820440989275,155.57716419504231L157.0850721003459,155.95232172494042L157.50224132647884,151.90291882595676L158.00284439783832,152.39205778034335L158.14885362698482,150.10542613142513L158.21142901090477,150.31656583219092L158.42001362397122,150.95977345984278L158.607739775731,151.46991775171196L158.67031515965095,151.62744660493465L158.8788997727174,152.09214074168958L158.98319207925064,152.30818050107897L159.73409668628986,153.3354776259155L159.92182283804968,153.6056196462973L159.96353976066294,153.6627163415601L160.04697360588955,153.76712865866222L160.17212437372942,153.92700611213596L160.23469975764934,154.00392204586507L160.38070898679587,154.17606703373679L160.54757667724903,154.34161333671483L160.61015206116898,154.4066956040282L160.7770197516221,154.57326985948703L160.8604535968487,154.65469876542426L161.42363205212814,155.1128720485648L161.50706589735472,155.17863947953327L161.73650897172783,155.34007438658443L161.9659520461009,155.50075416462838L162.21625358178065,155.6639340655202L163.0714504953531,156.12605314612114L163.3843274149528,155.9091179130242L163.67634587324585,155.93332758083343L163.84321356369898,155.9827425772317L164.13523202199204,156.0936761619444L164.15609048329867,156.1029140723978L164.69841047727147,156.1938392223962L164.9904289355645,156.26316329442884L165.51189046823063,156.45268452938987L166.11678584612332,156.4902451595641L166.17936123004327,156.51054421958708L166.30451199788314,156.03566867511586L166.67996430140275,154.4784369996755L166.72168122401604,154.0615875718603L167.09713352753568,153.5974250061828L167.18056737276225,153.56546326016075L167.7020289054284,152.53682313176094L167.8480381345749,152.4293141233354L168.1191981315613,152.04848567395217L168.24434889940116,152.12546826106404L168.78666889337396,152.2347930566747L169.0995458129736,152.38279503011995L169.26641350342678,152.43536260732412L169.28727196473343,152.44666304667774L169.74615811347962,152.62393372108363L169.8295919587062,152.6663691561153L170.12161041699923,152.7005693794082L170.37191195267897,152.77683078519846L170.39277041398563,152.7868337605671L170.53877964313213,152.8560895232323L170.83079810142516,152.97970712248616L170.95594886926503,152.99949696722464L171.14367502102485,152.79677049654913L171.33140117278467,152.8765094701358L171.37311809539796,152.8946193184317L171.3939765567046,152.9038489489618L171.79028732153085,153.07291835931454L171.85286270545078,153.09916737223864L172.0405888572106,153.17403692291805L172.31174885419696,153.28311207884047L172.8123519255565,153.44477551177536L173.1460873064628,153.47211788857453L173.37553038083593,153.55521188709238L173.7509826843555,153.65843603519738L173.95956729742196,153.72563837687804L173.98042575872861,153.73266554780378L174.10557652656848,153.75880319575916L174.25158575571498,153.8070354051105L174.3350196009416,153.83426517495244L174.35587806224822,153.8410352542589L174.37673652355488,153.84779084369958L174.83562267230107,153.98387179753803L174.85648113360773,153.99030985191916L174.9399149788343,154.01592462271662L174.9816319014476,154.0286504508706L175.1693580532074,154.08525780266493L175.252791898434,154.1024394715561L175.8576872763267,154.1804086115321L175.87854573763335,154.18632834271313L176.06627188939314,154.2343013904644L176.12884727331308,154.23983072326067L176.2748565024596,154.27978632125658L176.48344111552606,154.3362823080822L176.5042995768327,154.34187456829574L176.54601649944598,154.35302555503333L176.6503088059792,154.3807136186313L176.85889341904567,154.43528617926856L176.90061034165896,154.44607450536455L177.23434572256528,154.53090521779976L177.35949649040518,154.538080599353L177.3803549517118,154.54326093338113L177.54722264216497,154.58435253685718L177.94353340699124,159.5708901986153L178.29812724920419,149.18085014935158L179.3201918532298,153.5251516254619L179.5913518502162,154.3456464873663L179.65392723413615,154.52512044936893L180.30053953464216,155.25141462360767L180.32139799594881,155.28903321324518L180.67599183816176,155.54633141656564L180.88457645122824,155.83086104571265L180.94715183514813,155.3704207195658L180.98886875776142,155.42901939291974L181.21831183213453,154.36333323158033L181.34346259997443,154.54747582834958L181.48947182912093,154.64079677416203L181.86492413264054,154.72125485908944L181.8857825939472,154.74753078176437L181.96921643917378,154.24829528887557L182.0317918230937,154.33127171248222L182.073508745707,154.3852787543564L182.36552720400002,154.69670447243539L182.44896104922663,154.7898453299155L182.6784041235997,154.27557805022678L182.74097950751965,154.34660778646432L183.15814873365255,154.7517999102306L183.32501642410574,154.52281573271148L183.5336010371722,154.71148993151638L183.78390257285193,154.91453062528208L184.26364718290475,154.96262869987555L184.367939489438,154.52427755317447L184.72253333165094,154.50994003794534L185.64030562914334,154.6121469974699L185.66116409045,154.6262199691488L185.74459793567658,154.67641286434343L186.32863485226264,155.01065101317062L187.22554868844838,154.91750518773648L187.39241637890154,154.9955811387234L187.55928406935473,154.72225507382706L187.58014253066136,154.73342717436915L188.2058963698607,154.1076752810705L188.2893302150873,154.13927974840107L188.5187732894604,154.22438452629837L188.76907482514014,154.09646136691563L188.8316502090601,154.12327424261818L188.87336713167338,154.1452694449342L188.95680097689996,154.18877216208244L189.12366866735312,154.24082638404047L190.37517634575184,153.86136784797134L190.5003271135917,153.92153970675696L190.52118557489837,153.93145450094218L190.87577941711132,154.05595515401862L191.02178864625785,154.07896257696112L191.50153325631067,153.91809277467686L191.58496710153727,153.94968772009562L191.8769855598303,153.53514466492254L192.23157940204325,153.31403800645458L192.35673016988315,153.36888877251553L192.62789016686952,153.47373619958836L193.04505939300242,153.64249552681258L193.23278554476227,153.47691113618723L193.56652092566856,153.6121210420919L193.60823784828185,153.62891935053315L193.7959640000417,153.5687648795865L193.98369015180148,153.6431156930696L194.15055784225464,153.70778272222822L194.56772706838754,153.7397647540624L194.60944399100086,153.7552552486145L194.67201937492075,153.77660254693038L194.71373629753407,153.79190839919235L194.83888706537394,153.83737925411486L195.08918860105368,153.76835905526826L195.11004706236034,153.77584783191932L195.25605629150684,153.81661983035508L195.3186316754268,153.77746862691015L195.42292398196003,153.81419919477108L195.56893321110653,153.07622536069044L195.61065013371982,152.86796955721866L196.67443166035872,151.63135058878225L196.90387473473183,151.64469285722777L196.96645011865175,151.65579375042927L197.07074242518496,151.3612661138676L197.4044778060913,151.1958464937164L197.4879116513179,151.11820316872323L197.50877011262455,151.12757355794986L197.55048703523784,151.14419550402428L197.75907164830429,151.15499997597075L197.84250549353087,151.1719158593232L197.92593933875744,150.87236065331874L198.11366549051726,150.88447169716585L198.1345239518239,150.88708235699016L198.23881625835713,150.9287775668766L198.3222501035837,150.9655462223848L198.34310856489034,150.97340469761232L198.65598548449003,151.09948557405528L199.30259778499604,151.30679001433705L199.55289932067578,151.40656723036196L199.6989085498223,151.44288131807966L199.80320085635552,151.43664570782377L200.09521931464855,160.02899951934813L200.28294546640834,151.95992361407065L200.59582238600802,155.88517361675753L200.82526546038113,156.99891583207955L200.97127468952766,152.2313991161039L200.99213315083432,152.40861679900053L201.1798593025941,152.994317875185L201.97248083224662,153.09701790414354L202.03505621616657,153.31825124543838L202.07677313877986,153.4580585787691L202.1393485226998,153.65717790084818L202.16020698400644,153.72089605079378L202.24364082923302,153.96351560604413L202.91111159104568,155.01027013669767L203.2031300493387,154.31104096182668L203.891459272458,155.3253456449782L203.9748931176846,155.42595871926272L204.3503454212042,155.5573909101505L204.45463772773743,155.66385789022561L204.76751464733712,155.95258461250597L204.83009003125704,155.99808527515248L204.89266541517696,156.05043467637705L205.33069310261655,155.63733812380877L205.56013617698963,155.7872250217989L205.85215463528266,154.26511885108295L206.0607392483491,154.4098465288494L206.12331463226906,154.46702271137616L206.2067484774956,154.54263248720076L206.5613423197086,154.46654330381566L206.6030592423219,154.50208611667563L206.66563462624183,154.55455681877692L207.10366231368138,153.9992008335853L207.14537923629467,154.01988118407735L207.2496715428279,154.07966430046287L207.47911461720102,154.1117378254498L207.64598230765415,154.2229653474405L207.72941615288076,153.88940615232593L208.0840099950937,153.62990259142796L208.20916076293358,153.56517718880988L208.41774537600003,153.70853246928527L208.45946229861332,153.73997754809184L208.58461306645322,153.83246346363697L208.68890537298643,153.90194982216678L208.79319767951966,153.77964748873308L208.8557730634396,153.82417981434673L209.16864998303924,153.69159505813218L209.1895084443459,153.56338334342158L209.75268689962533,153.66617941949067L209.91955459007852,153.69898488969952L210.12813920314497,152.9220051648283L210.35758227751805,152.88444991660424L210.7956099649576,153.12637188831445L211.15020380717058,153.25145793196995L211.17106226847721,153.2641974219974L211.83853303028988,153.60336543717213L211.8593914915965,153.61473832585486L211.98454225943638,153.4874030410282L213.06918224738195,153.84255255020818L213.11089916999524,153.8623494328815L213.31948378306168,153.95924275161238L213.46549301220819,154.01468594618723L214.0286714674876,154.09796210301823L214.4666991549272,154.2380070701484L214.67528376799365,154.32067423861886L215.00901914889997,154.37985871654803L215.05073607151326,154.3955947108267L215.09245299412652,154.4048442131728L215.19674530065976,154.44092273707187L215.86421606247242,154.53574276300225L215.96850836900563,154.57178775321188L216.19795144337874,154.5521316292351L216.21880990468537,154.55920765170842L216.30224374991198,154.58732999728477L217.19915758609773,154.8674799609892L217.26173297001765,154.82525483600995L217.67890219615057,154.87125809000227L217.80405296399042,154.90766574085353L217.82491142529707,154.91368358912595L218.36723141926984,155.03476463386926L218.51324064841637,155.0743116176491L218.65924987756287,155.1132371931834L219.3475791006822,155.19460855365358L219.80646524942838,155.30475595964654L219.82732371073504,155.3097446134497L220.01504986249483,155.35417302602565L220.16105909164136,155.38815383135042L220.22363447556128,155.40256627988566L220.3696437047078,155.43585032966266L220.43221908862776,155.44996842692368L220.828529853454,155.5374073152062L220.89110523737395,155.5509089721757L221.12054831174703,155.49229332497896L221.34999138612014,155.54028624454622L221.5585759991866,155.56275754245343L221.60029292179988,155.57141296030096L221.6211513831065,155.57572804234164L221.68372676702646,155.58862360892377L222.18432983838593,155.64506205028226L222.28862214491917,155.66526133722917L222.30948060622583,155.66709948020727L222.39291445145238,155.68117990381717L222.78922521627868,159.9987829321184L222.9978098293451,160.0108695679806L223.16467751979826,159.83568143498488L223.414979055478,159.36349286794373L224.24931750774383,156.92620941136875L224.43704365950364,157.22307861024666L224.4579021208103,157.25261454573263L224.58305288865014,157.41247813033482L224.62476981126346,157.46328436084974L224.81249596302325,157.43701278513456L225.54254210875587,157.7301365606965L226.1265790253419,158.09795476655955L226.18915440926185,158.13050045417407L226.2517297931818,158.08841318991819L226.43945594494159,158.0848733156988L227.02349286152767,157.85467654340874L227.52409593288715,158.0703118285437L227.7326805459536,157.59056479118436L228.87989591781908,157.32540852663257L229.00504668565898,157.377234636703L229.08848053088553,157.410695462843L229.15105591480548,157.43524191653347L229.38049898917856,156.22220292773747L229.7559512926982,156.36846073533437L229.86024359923144,155.88196970042702L230.50685589973742,154.86359709094606L230.61114820627066,154.9298199176974L230.63200666757731,154.9428616249262L230.6737235901906,154.4178308589115L230.92402512587034,153.91800749146662L230.9657420484836,153.94454837168794L231.21604358416334,153.56754524688077L231.42462819722982,153.71226754269708L231.69578819421622,153.57308865554668L231.80008050074943,153.64530242081966L231.8209389620561,153.36087794669885L232.13381588165578,153.497545947101L232.25896664949565,153.27970737436934L232.4675512625621,153.28809535069345L232.96815433392158,153.55887782314443L233.32274817613455,153.28161382671485L233.4896158665877,153.29187347970654L233.78163432488074,153.24278719626426L234.42824662538678,153.3761655831295L234.57425585453328,153.45311049659023L234.6368312384532,153.48694888723384L234.80369892890636,153.4818579763776L235.1374343098127,153.64707805037665L235.22086815503928,153.68885812947718L235.3251604615725,153.7403203369175L235.36687738418578,153.76067197445357L235.40859430679907,153.76689640681295L235.47116969071902,153.77480042161875L236.2012158364516,154.03658054743488L236.32636660429145,154.08823443510016L236.3472250655981,154.0971680583714L236.49323429474464,154.14583993165127L236.68096044650443,154.0828889166017L237.09812967263736,153.96806086995323L237.3484312083171,154.07006828332567L237.6821665892234,154.18744116440797L237.7238835118367,154.2034234864056L237.74474197314336,154.21138214870533L237.78645889575665,154.2272336479144L237.91160966359652,154.27427520429163L237.9950435088231,154.30521437978305L238.09933581535634,154.238397054537L238.22448658319618,154.28065115924787L238.32877888972942,154.3184692950375L238.49564658018258,154.24420831872249L238.93367426762214,154.31739828695544L239.2256927259152,154.41344995148035L239.45513580028828,154.4778739648894L239.66372041335472,154.35206798190083L239.7471542585813,154.37949274393705L239.76801271988796,154.38630753482948L240.35204963647405,154.35644143740095L240.53977578823384,154.41118208048172L240.706643478687,154.46138573957666L241.01952039828666,154.47642580629991L241.04037885959332,154.4826647285251L241.29068039527306,154.55645209322594L241.93729269577906,153.11105692813683L242.12501884753888,152.98887796556065L242.27102807668538,153.04004457973826L242.39617884452525,153.07116798352368L242.4587542284452,153.089480689941L242.47961268975186,153.0792988682286L242.58390499628507,153.02251267009044L242.7716311480449,153.08732087194176L242.93849883849805,153.14281995599907L243.08450806764455,153.1916085761978L243.1053665289512,153.19852189817783L243.1470834515645,153.21230714252118L243.35566806463095,153.28040578590176L243.41824344855087,153.30057071116687L243.4599603711642,153.31394734129415L243.9814219038303,153.44961926692037L244.08571421036353,153.47645739638904L244.2108649782034,153.50323218444427L244.29429882342998,153.52753168942158L244.87833574001607,153.67454131405634" fill="none"></path></g></g></g></g></g></g><g transform="translate(58, 177)" clip-path="url(#clip_1)"><clipPath id="clip_1"><rect width="271" height="22"></rect></clipPath><g><g><line x1="0" y1="0" x2="0" y2="5" style="visibility: inherit;" fill="rgb(0, 0, 0)" stroke="rgb(204, 204, 204)" stroke-width="1px"></line><line x1="20.85846130664532" y1="0" x2="20.85846130664532" y2="5" style="visibility: inherit;" fill="rgb(0, 0, 0)" stroke="rgb(204, 204, 204)" stroke-width="1px"></line><line x1="41.71692261329064" y1="0" x2="41.71692261329064" y2="5" style="visibility: inherit;" fill="rgb(0, 0, 0)" stroke="rgb(204, 204, 204)" stroke-width="1px"></line><line x1="62.575383919935966" y1="0" x2="62.575383919935966" y2="5" style="visibility: inherit;" fill="rgb(0, 0, 0)" stroke="rgb(204, 204, 204)" stroke-width="1px"></line><line x1="83.43384522658128" y1="0" x2="83.43384522658128" y2="5" style="visibility: inherit;" fill="rgb(0, 0, 0)" stroke="rgb(204, 204, 204)" stroke-width="1px"></line><line x1="104.29230653322661" y1="0" x2="104.29230653322661" y2="5" style="visibility: inherit;" fill="rgb(0, 0, 0)" stroke="rgb(204, 204, 204)" stroke-width="1px"></line><line x1="125.15076783987193" y1="0" x2="125.15076783987193" y2="5" style="visibility: inherit;" fill="rgb(0, 0, 0)" stroke="rgb(204, 204, 204)" stroke-width="1px"></line><line x1="146.00922914651724" y1="0" x2="146.00922914651724" y2="5" style="visibility: inherit;" fill="rgb(0, 0, 0)" stroke="rgb(204, 204, 204)" stroke-width="1px"></line><line x1="166.86769045316257" y1="0" x2="166.86769045316257" y2="5" style="visibility: inherit;" fill="rgb(0, 0, 0)" stroke="rgb(204, 204, 204)" stroke-width="1px"></line><line x1="187.72615175980786" y1="0" x2="187.72615175980786" y2="5" style="visibility: inherit;" fill="rgb(0, 0, 0)" stroke="rgb(204, 204, 204)" stroke-width="1px"></line><line x1="208.58461306645322" y1="0" x2="208.58461306645322" y2="5" style="visibility: inherit;" fill="rgb(0, 0, 0)" stroke="rgb(204, 204, 204)" stroke-width="1px"></line><line x1="229.4430743730985" y1="0" x2="229.4430743730985" y2="5" style="visibility: inherit;" fill="rgb(0, 0, 0)" stroke="rgb(204, 204, 204)" stroke-width="1px"></line><line x1="250.30153567974386" y1="0" x2="250.30153567974386" y2="5" style="visibility: inherit;" fill="rgb(0, 0, 0)" stroke="rgb(204, 204, 204)" stroke-width="1px"></line><line x1="271.15999698638916" y1="0" x2="271.15999698638916" y2="5" style="visibility: inherit;" fill="rgb(0, 0, 0)" stroke="rgb(204, 204, 204)" stroke-width="1px"></line></g><g transform="translate(0, 8)"><text style="text-anchor: middle; visibility: hidden; font-family: &quot;Helvetica Neue&quot;, sans-serif; font-size: 12px; font-weight: 200;" x="0" y="0" dx="0em" dy="0.95em" fill="rgb(50, 49, 63)" stroke="none" stroke-width="1px">-1k</text><text style="text-anchor: middle; visibility: inherit; font-family: &quot;Helvetica Neue&quot;, sans-serif; font-size: 12px; font-weight: 200;" x="20.85846130664532" y="0" dx="0em" dy="0.95em" fill="rgb(50, 49, 63)" stroke="none" stroke-width="1px">0</text><text style="text-anchor: middle; visibility: hidden; font-family: &quot;Helvetica Neue&quot;, sans-serif; font-size: 12px; font-weight: 200;" x="41.71692261329064" y="0" dx="0em" dy="0.95em" fill="rgb(50, 49, 63)" stroke="none" stroke-width="1px">1k</text><text style="text-anchor: middle; visibility: inherit; font-family: &quot;Helvetica Neue&quot;, sans-serif; font-size: 12px; font-weight: 200;" x="62.575383919935966" y="0" dx="0em" dy="0.95em" fill="rgb(50, 49, 63)" stroke="none" stroke-width="1px">2k</text><text style="text-anchor: middle; visibility: hidden; font-family: &quot;Helvetica Neue&quot;, sans-serif; font-size: 12px; font-weight: 200;" x="83.43384522658128" y="0" dx="0em" dy="0.95em" fill="rgb(50, 49, 63)" stroke="none" stroke-width="1px">3k</text><text style="text-anchor: middle; visibility: inherit; font-family: &quot;Helvetica Neue&quot;, sans-serif; font-size: 12px; font-weight: 200;" x="104.29230653322661" y="0" dx="0em" dy="0.95em" fill="rgb(50, 49, 63)" stroke="none" stroke-width="1px">4k</text><text style="text-anchor: middle; visibility: hidden; font-family: &quot;Helvetica Neue&quot;, sans-serif; font-size: 12px; font-weight: 200;" x="125.15076783987193" y="0" dx="0em" dy="0.95em" fill="rgb(50, 49, 63)" stroke="none" stroke-width="1px">5k</text><text style="text-anchor: middle; visibility: inherit; font-family: &quot;Helvetica Neue&quot;, sans-serif; font-size: 12px; font-weight: 200;" x="146.00922914651724" y="0" dx="0em" dy="0.95em" fill="rgb(50, 49, 63)" stroke="none" stroke-width="1px">6k</text><text style="text-anchor: middle; visibility: hidden; font-family: &quot;Helvetica Neue&quot;, sans-serif; font-size: 12px; font-weight: 200;" x="166.86769045316257" y="0" dx="0em" dy="0.95em" fill="rgb(50, 49, 63)" stroke="none" stroke-width="1px">7k</text><text style="text-anchor: middle; visibility: inherit; font-family: &quot;Helvetica Neue&quot;, sans-serif; font-size: 12px; font-weight: 200;" x="187.72615175980786" y="0" dx="0em" dy="0.95em" fill="rgb(50, 49, 63)" stroke="none" stroke-width="1px">8k</text><text style="text-anchor: middle; visibility: hidden; font-family: &quot;Helvetica Neue&quot;, sans-serif; font-size: 12px; font-weight: 200;" x="208.58461306645322" y="0" dx="0em" dy="0.95em" fill="rgb(50, 49, 63)" stroke="none" stroke-width="1px">9k</text><text style="text-anchor: middle; visibility: inherit; font-family: &quot;Helvetica Neue&quot;, sans-serif; font-size: 12px; font-weight: 200;" x="229.4430743730985" y="0" dx="0em" dy="0.95em" fill="rgb(50, 49, 63)" stroke="none" stroke-width="1px">10k</text><text style="text-anchor: middle; visibility: hidden; font-family: &quot;Helvetica Neue&quot;, sans-serif; font-size: 12px; font-weight: 200;" x="250.30153567974386" y="0" dx="0em" dy="0.95em" fill="rgb(50, 49, 63)" stroke="none" stroke-width="1px">11k</text><text style="text-anchor: middle; visibility: hidden; font-family: &quot;Helvetica Neue&quot;, sans-serif; font-size: 12px; font-weight: 200;" x="271.15999698638916" y="0" dx="0em" dy="0.95em" fill="rgb(50, 49, 63)" stroke="none" stroke-width="1px">12k</text></g><line x1="0" y1="0" x2="271.15999698638916" y2="0" fill="rgb(0, 0, 0)" stroke="rgb(204, 204, 204)" stroke-width="1px"></line></g></g></g></g></svg>