<svg viewBox="0 0 330 200" xmlns="http://www.w3.org/2000/svg"><g><g><g><g><g><line x1="29.536001205444336" y1="177.80999946594238" x2="24.536001205444336" y2="177.80999946594238" style="visibility: inherit;" fill="rgb(0, 0, 0)" stroke="rgb(204, 204, 204)" stroke-width="1px"></line><line x1="29.536001205444336" y1="162.99249951044717" x2="24.536001205444336" y2="162.99249951044717" style="visibility: inherit;" fill="rgb(0, 0, 0)" stroke="rgb(204, 204, 204)" stroke-width="1px"></line><line x1="29.536001205444336" y1="148.174999554952" x2="24.536001205444336" y2="148.174999554952" style="visibility: inherit;" fill="rgb(0, 0, 0)" stroke="rgb(204, 204, 204)" stroke-width="1px"></line><line x1="29.536001205444336" y1="133.3574995994568" x2="24.536001205444336" y2="133.3574995994568" style="visibility: inherit;" fill="rgb(0, 0, 0)" stroke="rgb(204, 204, 204)" stroke-width="1px"></line><line x1="29.536001205444336" y1="118.5399996439616" x2="24.536001205444336" y2="118.5399996439616" style="visibility: inherit;" fill="rgb(0, 0, 0)" stroke="rgb(204, 204, 204)" stroke-width="1px"></line><line x1="29.536001205444336" y1="103.72249968846639" x2="24.536001205444336" y2="103.72249968846639" style="visibility: inherit;" fill="rgb(0, 0, 0)" stroke="rgb(204, 204, 204)" stroke-width="1px"></line><line x1="29.536001205444336" y1="88.90499973297119" x2="24.536001205444336" y2="88.90499973297119" style="visibility: inherit;" fill="rgb(0, 0, 0)" stroke="rgb(204, 204, 204)" stroke-width="1px"></line><line x1="29.536001205444336" y1="74.08749977747598" x2="24.536001205444336" y2="74.08749977747598" style="visibility: inherit;" fill="rgb(0, 0, 0)" stroke="rgb(204, 204, 204)" stroke-width="1px"></line><line x1="29.536001205444336" y1="59.269999821980804" x2="24.536001205444336" y2="59.269999821980804" style="visibility: inherit;" fill="rgb(0, 0, 0)" stroke="rgb(204, 204, 204)" stroke-width="1px"></line><line x1="29.536001205444336" y1="44.452499866485596" x2="24.536001205444336" y2="44.452499866485596" style="visibility: inherit;" fill="rgb(0, 0, 0)" stroke="rgb(204, 204, 204)" stroke-width="1px"></line><line x1="29.536001205444336" y1="29.634999910990388" x2="24.536001205444336" y2="29.634999910990388" style="visibility: inherit;" fill="rgb(0, 0, 0)" stroke="rgb(204, 204, 204)" stroke-width="1px"></line><line x1="29.536001205444336" y1="14.817499955495208" x2="24.536001205444336" y2="14.817499955495208" style="visibility: inherit;" fill="rgb(0, 0, 0)" stroke="rgb(204, 204, 204)" stroke-width="1px"></line><line x1="29.536001205444336" y1="0" x2="24.536001205444336" y2="0" style="visibility: inherit;" fill="rgb(0, 0, 0)" stroke="rgb(204, 204, 204)" stroke-width="1px"></line></g><g transform="translate(19.536001205444336, 0)"><text style="text-anchor: end; visibility: hidden; font-family: &quot;Helvetica Neue&quot;, sans-serif; font-size: 12px; font-weight: 200;" x="0" y="177.80999946594238" dx="0em" dy="0.3em" fill="rgb(50, 49, 63)" stroke="none" stroke-width="1px">-5</text><text style="text-anchor: end; visibility: inherit; font-family: &quot;Helvetica Neue&quot;, sans-serif; font-size: 12px; font-weight: 200;" x="0" y="162.99249951044717" dx="0em" dy="0.3em" fill="rgb(50, 49, 63)" stroke="none" stroke-width="1px">0</text><text style="text-anchor: end; visibility: hidden; font-family: &quot;Helvetica Neue&quot;, sans-serif; font-size: 12px; font-weight: 200;" x="0" y="148.174999554952" dx="0em" dy="0.3em" fill="rgb(50, 49, 63)" stroke="none" stroke-width="1px">5</text><text style="text-anchor: end; visibility: inherit; font-family: &quot;Helvetica Neue&quot;, sans-serif; font-size: 12px; font-weight: 200;" x="0" y="133.3574995994568" dx="0em" dy="0.3em" fill="rgb(50, 49, 63)" stroke="none" stroke-width="1px">10</text><text style="text-anchor: end; visibility: hidden; font-family: &quot;Helvetica Neue&quot;, sans-serif; font-size: 12px; font-weight: 200;" x="0" y="118.5399996439616" dx="0em" dy="0.3em" fill="rgb(50, 49, 63)" stroke="none" stroke-width="1px">15</text><text style="text-anchor: end; visibility: inherit; font-family: &quot;Helvetica Neue&quot;, sans-serif; font-size: 12px; font-weight: 200;" x="0" y="103.72249968846639" dx="0em" dy="0.3em" fill="rgb(50, 49, 63)" stroke="none" stroke-width="1px">20</text><text style="text-anchor: end; visibility: hidden; font-family: &quot;Helvetica Neue&quot;, sans-serif; font-size: 12px; font-weight: 200;" x="0" y="88.90499973297119" dx="0em" dy="0.3em" fill="rgb(50, 49, 63)" stroke="none" stroke-width="1px">25</text><text style="text-anchor: end; visibility: inherit; font-family: &quot;Helvetica Neue&quot;, sans-serif; font-size: 12px; font-weight: 200;" x="0" y="74.08749977747598" dx="0em" dy="0.3em" fill="rgb(50, 49, 63)" stroke="none" stroke-width="1px">30</text><text style="text-anchor: end; visibility: hidden; font-family: &quot;Helvetica Neue&quot;, sans-serif; font-size: 12px; font-weight: 200;" x="0" y="59.269999821980804" dx="0em" dy="0.3em" fill="rgb(50, 49, 63)" stroke="none" stroke-width="1px">35</text><text style="text-anchor: end; visibility: inherit; font-family: &quot;Helvetica Neue&quot;, sans-serif; font-size: 12px; font-weight: 200;" x="0" y="44.452499866485596" dx="0em" dy="0.3em" fill="rgb(50, 49, 63)" stroke="none" stroke-width="1px">40</text><text style="text-anchor: end; visibility: hidden; font-family: &quot;Helvetica Neue&quot;, sans-serif; font-size: 12px; font-weight: 200;" x="0" y="29.634999910990388" dx="0em" dy="0.3em" fill="rgb(50, 49, 63)" stroke="none" stroke-width="1px">45</text><text style="text-anchor: end; visibility: inherit; font-family: &quot;Helvetica Neue&quot;, sans-serif; font-size: 12px; font-weight: 200;" x="0" y="14.817499955495208" dx="0em" dy="0.3em" fill="rgb(50, 49, 63)" stroke="none" stroke-width="1px">50</text><text style="text-anchor: end; visibility: hidden; font-family: &quot;Helvetica Neue&quot;, sans-serif; font-size: 12px; font-weight: 200;" x="0" y="0" dx="0em" dy="0.3em" fill="rgb(50, 49, 63)" stroke="none" stroke-width="1px">55</text></g><line x1="29.536001205444336" y1="0" x2="29.536001205444336" y2="177.80999946594238" fill="rgb(0, 0, 0)" stroke="rgb(204, 204, 204)" stroke-width="1px"></line></g></g><g transform="translate(29, 0)" clip-path="url(#clip_0)"><clipPath id="clip_0"><rect width="300" height="177"></rect></clipPath><g><g><g><line x1="0" y1="0" x2="0" y2="177.80999946594238" fill="rgb(0, 0, 0)" stroke="rgb(60, 60, 60)" stroke-width="1px" opacity="0.25"></line><line x1="23.112615291888897" y1="0" x2="23.112615291888897" y2="177.80999946594238" fill="rgb(0, 0, 0)" stroke="rgb(60, 60, 60)" stroke-width="1px" opacity="0.25"></line><line x1="46.225230583777794" y1="0" x2="46.225230583777794" y2="177.80999946594238" fill="rgb(0, 0, 0)" stroke="rgb(60, 60, 60)" stroke-width="1px" opacity="0.25"></line><line x1="69.3378458756667" y1="0" x2="69.3378458756667" y2="177.80999946594238" fill="rgb(0, 0, 0)" stroke="rgb(60, 60, 60)" stroke-width="1px" opacity="0.25"></line><line x1="92.45046116755559" y1="0" x2="92.45046116755559" y2="177.80999946594238" fill="rgb(0, 0, 0)" stroke="rgb(60, 60, 60)" stroke-width="1px" opacity="0.25"></line><line x1="115.56307645944449" y1="0" x2="115.56307645944449" y2="177.80999946594238" fill="rgb(0, 0, 0)" stroke="rgb(60, 60, 60)" stroke-width="1px" opacity="0.25"></line><line x1="138.6756917513334" y1="0" x2="138.6756917513334" y2="177.80999946594238" fill="rgb(0, 0, 0)" stroke="rgb(60, 60, 60)" stroke-width="1px" opacity="0.25"></line><line x1="161.78830704322226" y1="0" x2="161.78830704322226" y2="177.80999946594238" fill="rgb(0, 0, 0)" stroke="rgb(60, 60, 60)" stroke-width="1px" opacity="0.25"></line><line x1="184.90092233511118" y1="0" x2="184.90092233511118" y2="177.80999946594238" fill="rgb(0, 0, 0)" stroke="rgb(60, 60, 60)" stroke-width="1px" opacity="0.25"></line><line x1="208.01353762700006" y1="0" x2="208.01353762700006" y2="177.80999946594238" fill="rgb(0, 0, 0)" stroke="rgb(60, 60, 60)" stroke-width="1px" opacity="0.25"></line><line x1="231.12615291888898" y1="0" x2="231.12615291888898" y2="177.80999946594238" fill="rgb(0, 0, 0)" stroke="rgb(60, 60, 60)" stroke-width="1px" opacity="0.25"></line><line x1="254.23876821077786" y1="0" x2="254.23876821077786" y2="177.80999946594238" fill="rgb(0, 0, 0)" stroke="rgb(60, 60, 60)" stroke-width="1px" opacity="0.25"></line><line x1="277.3513835026668" y1="0" x2="277.3513835026668" y2="177.80999946594238" fill="rgb(0, 0, 0)" stroke="rgb(60, 60, 60)" stroke-width="1px" opacity="0.25"></line><line x1="300.46399879455566" y1="0" x2="300.46399879455566" y2="177.80999946594238" fill="rgb(0, 0, 0)" stroke="rgb(60, 60, 60)" stroke-width="1px" opacity="0.25"></line></g><g><line x1="0" y1="177.80999946594238" x2="300.46399879455566" y2="177.80999946594238" fill="rgb(0, 0, 0)" stroke="rgb(60, 60, 60)" stroke-width="1px" opacity="0.25"></line><line x1="0" y1="162.99249951044717" x2="300.46399879455566" y2="162.99249951044717" fill="rgb(0, 0, 0)" stroke="rgb(60, 60, 60)" stroke-width="1px" opacity="0.25"></line><line x1="0" y1="148.174999554952" x2="300.46399879455566" y2="148.174999554952" fill="rgb(0, 0, 0)" stroke="rgb(60, 60, 60)" stroke-width="1px" opacity="0.25"></line><line x1="0" y1="133.3574995994568" x2="300.46399879455566" y2="133.3574995994568" fill="rgb(0, 0, 0)" stroke="rgb(60, 60, 60)" stroke-width="1px" opacity="0.25"></line><line x1="0" y1="118.5399996439616" x2="300.46399879455566" y2="118.5399996439616" fill="rgb(0, 0, 0)" stroke="rgb(60, 60, 60)" stroke-width="1px" opacity="0.25"></line><line x1="0" y1="103.72249968846639" x2="300.46399879455566" y2="103.72249968846639" fill="rgb(0, 0, 0)" stroke="rgb(60, 60, 60)" stroke-width="1px" opacity="0.25"></line><line x1="0" y1="88.90499973297119" x2="300.46399879455566" y2="88.90499973297119" fill="rgb(0, 0, 0)" stroke="rgb(60, 60, 60)" stroke-width="1px" opacity="0.25"></line><line x1="0" y1="74.08749977747598" x2="300.46399879455566" y2="74.08749977747598" fill="rgb(0, 0, 0)" stroke="rgb(60, 60, 60)" stroke-width="1px" opacity="0.25"></line><line x1="0" y1="59.269999821980804" x2="300.46399879455566" y2="59.269999821980804" fill="rgb(0, 0, 0)" stroke="rgb(60, 60, 60)" stroke-width="1px" opacity="0.25"></line><line x1="0" y1="44.452499866485596" x2="300.46399879455566" y2="44.452499866485596" fill="rgb(0, 0, 0)" stroke="rgb(60, 60, 60)" stroke-width="1px" opacity="0.25"></line><line x1="0" y1="29.634999910990388" x2="300.46399879455566" y2="29.634999910990388" fill="rgb(0, 0, 0)" stroke="rgb(60, 60, 60)" stroke-width="1px" opacity="0.25"></line><line x1="0" y1="14.817499955495208" x2="300.46399879455566" y2="14.817499955495208" fill="rgb(0, 0, 0)" stroke="rgb(60, 60, 60)" stroke-width="1px" opacity="0.25"></line><line x1="0" y1="0" x2="300.46399879455566" y2="0" fill="rgb(0, 0, 0)" stroke="rgb(60, 60, 60)" stroke-width="1px" opacity="0.25"></line></g></g></g><g><g><line x1="0" y1="162.99249951044717" x2="300.46399879455566" y2="162.99249951044717" fill="rgb(0, 0, 0)" stroke="rgb(153, 153, 153)" stroke-width="1.5px"></line></g></g><g><g><line x1="23.112615291888897" y1="0" x2="23.112615291888897" y2="177.80999946594238" fill="rgb(0, 0, 0)" stroke="rgb(153, 153, 153)" stroke-width="1.5px"></line></g></g><g><g><g><g><g><path style="fill: none;" stroke="rgb(204, 51, 17)" stroke-width="2px" d="M28.428516809023343,-1.281284510812668L28.544079885482788,0.36526575940075645L29.029444806612457,1.8955337746168652L29.1450078830719,3.270455482467213L29.30679619011512,4.606667194506315L29.445471881866457,5.79783638464383L30.254413417082567,6.850084919464791L30.300638647666347,7.814397892472499L30.485539570001457,8.707600006070919L30.970904491131122,9.58927606989323L31.155805413466233,10.433212614871422L31.61805771930401,11.287438399117491L32.86613894506601,12.208413614132866L32.8892515603579,13.064385442723108L33.35150386619568,13.982476164851363L33.42084171207134,14.842095923934608L33.76753094144968,15.647247519295036L33.83686878732534,16.40900438617419L33.85998140261724,17.119656800312015L34.09110755553613,17.779403578380112L34.53024724608201,18.36102322627042L35.01561216721168,18.95242336032237L35.52408970363324,19.534070594499127L36.148130316514234,20.09408998291039L36.37925646943312,20.656268314998357L36.51793216118446,21.214924239400432L36.67972046822768,21.737010047857012L36.70283308351957,22.225539790426637L37.4655493881519,22.73027021952433L37.78912600223835,23.25311124962559L37.95091430928157,23.774671841715985L37.97402692457346,24.276756583376823L38.02025215515724,24.764389779563544L38.0895900010329,25.238930547493283L38.135815231616675,25.69888556912096L38.41316661511935,26.164691657545006L38.644292768038234,26.628393398018403L39.63813522558946,27.1470731144683L39.823036147924576,27.653659898645657L40.00793707025968,28.153531181686247L40.51641460668124,28.661145275397644L40.60886506784879,29.150503611924904L40.81687860547579,29.624208819755438L40.909329066643345,30.083113153243374L40.955554297227124,30.530655188565532L41.16356783485413,30.966613301658242L41.27913091131357,31.392743637674073L41.325356141897345,31.802748346588913L41.4409192183568,32.20320793791015L41.48714444894057,32.594890718101595L41.57959491010813,32.97729301630861L41.672045371275686,33.35535965884799L41.81072106302702,33.726236304166065L41.83383367831891,34.08577092323404L42.36542383003234,34.45702284260753L42.4578742911999,34.82240619050111L43.220590595832235,35.19586488409908L43.38237890287546,35.56512467628983L43.5210545946268,35.931064732232784L44.098869976924014,36.303895978531415L44.145095207507794,36.66008857757649L44.329996129842904,37.01399423010466L44.65357274392935,37.352637642002605L44.90781151214012,37.693638996065516L44.977149358015794,38.0272033220765L45.1851628956428,38.354761601838845L45.3700638179779,38.67609020627435L45.578077355604904,38.98800800642496L45.60118997089679,39.2906339851269L45.73986566264813,39.58863023784298L45.762978277940014,39.88064563482848L45.87854135439946,40.17033996076563L46.29456842965347,40.45792015923465L46.36390627552913,40.74143774505089L46.57191981315613,41.02119580138432L47.704437962458684,41.297943995396935L47.77377580833435,41.57017282846539L47.82000103891813,41.836956837621756L47.91245150008568,42.099335927931975L48.05112719183702,42.9651844153496L48.16669026829646,43.65087154271683L48.39781642121535,44.36548494293572L48.536492112966684,45.11579428383618L48.65205518942613,45.80676600684441L48.88318134234502,46.37766133410858L49.85391118460435,47.01972676588045L49.94636164577191,47.639341900343766L49.969474261063795,48.24224481279043L49.99258687635568,48.83228530268815L50.40861395160969,49.32476217422456L50.70907795040424,49.84597004939694L51.00954194919879,50.347930060584005L51.88782133029058,50.74868801216512L52.14206009850135,51.13634702633669L52.21139794437702,51.5219448815043L52.280735790252685,51.90772982789464L52.742988096090464,52.32215117591085L52.881663787841795,52.730120606888676L53.04345209488502,53.096569248351074L53.55192963130657,53.47831493561256L53.621267477182236,53.8594731865567L53.87550624539302,54.25074403199318L53.944844091268685,54.63531056091128L54.01418193714435,55.01188527323781L54.037294552436244,55.378919428439715L55.146700086446906,55.70134432270655L55.21603793232258,56.020689910985936L55.285375778198244,56.337518944183856L55.30848839349013,56.648765204071296L55.81696592991169,56.971392927437435L56.09431731341435,57.294453884330466L56.32544346633324,57.61013170635344L56.4178939275008,57.91815641798179L56.995709309798016,58.19249454215387L57.01882192508991,58.46354051994243L57.273060693300685,58.72481885692687L57.457961615635796,58.98824596536414L57.596637307387134,59.252881945443505L58.336240996727575,59.51610180881342L58.428691457895134,59.77695786781885L59.00650684019235,60.0408615570244L59.37630868486257,60.302348587742514L59.399421300154465,60.56103900099397L59.7461105295328,60.82092229015227L59.83856099070036,61.07861194116951L60.20836283537058,61.33325130114838L60.231475450662465,61.58320117828397L60.739952987084024,61.836508257485605L60.971079140002914,62.089759193895034L61.04041698587858,62.340723683662986L61.15598006233802,62.58868512057883L61.22531790821368,62.83433397273984L61.68757021405146,63.08215157048021L62.01114682813791,63.32928039744296L62.219160365764914,63.575037400111825L62.311610826932466,63.819318873170246L62.357836057516245,64.06162114446022L62.404061288100024,64.30187528431267L62.47339913397569,64.54037350849968L62.63518744101891,64.77822470392248L62.84320097864592,65.0088671551126L63.16677759273235,65.23702084029723L63.21300282331614,65.45888996744138L63.282340669191804,65.67678366647174L63.39790374565124,65.89058569582015L63.46724159152691,66.10200809649683L63.4903542068188,66.31111007503875L63.95260651265658,66.51952873901521L64.16062005028358,66.72706539164983L64.29929574203491,66.9338080739213L64.48419666437003,67.13891054603972L64.69221020199703,67.33976206350816L64.85399850904025,67.53887276118941L65.33936343016991,67.73863017507433L65.43181389133747,67.93539339985593L65.66294004425636,68.13203097613871L65.75539050542392,68.3263082412077L65.96340404305091,68.52022927411461L66.26386804184547,68.71268922115792L66.33320588772114,68.90362408949922L66.47188157947247,69.0934053154631L66.51810681005624,69.28170123064957L67.4426114217318,69.47153127088541L67.83552588169391,69.66411478568129L68.0666520346128,69.85682243695771L68.13598988048847,70.04810085131598L68.18221511107225,70.23785382968968L68.59824218632625,70.42371526403228L68.9218188004127,70.60438460463706L68.96804403099647,70.78271418877111L69.38407110625047,70.95558554573822L69.47652156741803,71.12633352802715L69.66142248975314,71.29623201687632L70.05433694971525,71.46729792324004L70.19301264146658,71.63728636759713L70.74771540847192,71.80773012633472L71.04817940726647,71.97682712411203L71.11751725314214,72.14345017436344L71.14062986843402,72.30648056358866L71.23308032960158,72.46848090936959L71.32553079076914,72.62926853980326L71.4179812519367,72.78883470317952L71.5797695589799,72.94631459622875L71.92645878835825,73.10452817353739L72.71228770828247,73.26425804185163L72.80473816945003,73.6408830100533L72.96652647649324,73.96044491947993L73.17454001412025,74.21810342500552L73.6830175505418,74.52840685402272L73.72924278112559,74.82395664615416L73.77546801170936,75.10997054974865L73.8910310881688,75.35422193681988L73.96036893404448,75.60044463919898L74.14526985637958,75.85715194214725L74.23772031754714,76.11589507890609L74.69997262338492,76.37684434298427L74.81553569984436,76.6335243676895L74.83864831513625,76.88978472361654L74.88487354572003,77.14405061847782L74.95421139159569,77.39691641821216L75.04666185276325,77.64915036977489L75.06977446805514,77.89950382475524L75.23156277509835,78.14046362521675L75.30090062097403,78.37651575357083L75.41646369743347,78.6091354510607L75.85560338797936,78.8486799617024L76.08672954089825,79.08261250477679L76.22540523264959,79.31330348203142L76.36408092440092,79.5443128946318L76.45653138556847,79.77605677630933L76.73388276907113,80.00182477050346L76.75699538436302,80.22560548440914L77.33481076666025,80.44973124087511L77.54282430428725,80.67131864093017L78.35176583950336,80.89506922126441L78.37487845479525,81.11614324860892L78.42110368537904,81.3355094954007L79.43805875822214,81.55422301842329L79.62295968055726,81.77116690170334L79.78474798760048,81.986618949611L79.83097321818424,82.20058582255504L79.87719844876803,82.41278297989035L79.99276152522746,82.62361675184016L80.57057690752468,82.83277566458561L80.59368952281658,83.04016670597403L80.82481567573548,83.24531349064941L80.87104090631925,83.44731498812594L80.9866039827787,83.64891388131801L81.31018059686514,83.85139940751519L81.44885628861648,84.04951554425888L81.65686982624347,84.24110637159069L82.0035590556218,84.42686245803374L82.09600951678937,84.6090567675426L82.14223474737314,84.79011938318767L82.72005012967037,84.96706130194454L83.22852766609192,85.13956063417696L83.36720335784325,85.31036066699033L83.76011781780537,85.47885245928914L83.8987935095567,85.64300425472253L83.92190612484859,85.80598089158079L84.24548273893504,85.95814748280048L84.49972150714581,86.10584159209307L85.03131165885925,86.24899888658635L85.19309996590246,86.39059496879224L85.30866304236193,86.53044714996616L85.60912704115648,86.66709525957037L85.77091534819971,86.80081930132782L86.11760457757802,86.93411706590068L86.3949559610807,87.06213744433936L86.46429380695636,87.18930111380621L86.78787042104281,87.3173093452699L87.59681195625892,87.44427283473031L87.61992457155081,87.5704106948681L87.6430371868427,87.69579422730834L88.0590642620967,87.82066816903045L88.40575349147504,87.93865804163457L89.51515902548569,88.05260914978044L89.7231725631127,88.16579372075653L89.93118610073971,88.27808252091843L90.06986179249104,88.38997933024861L90.5552267136207,88.49698735439742L90.60145194420447,88.60261328236291L90.62456455949636,88.70754881162507L91.71085747821515,88.81114137900789L91.89575840055025,88.91200152860995L92.42734855226371,89.01291085905532L92.72781255105826,89.11017798803083L93.09761439572847,89.20755010916966L93.16695224160415,89.30437110355928L93.35185316393927,89.4011806525441L93.42119100981492,89.4975411470292L93.97589377682024,89.59211512545424L94.06834423798782,89.68379116367436L94.1145694685716,89.77489898863504L94.76172269674447,89.8655553889863L95.29331284845793,89.95577764642375L95.64000207783626,90.04485371981231L96.05602915309026,90.13313232257167L96.1947048448416,90.22125959287474L96.56450668951182,90.30899301416974L96.98053376476581,90.3952615211579L97.0036463800577,90.48024341455769L97.16543468710093,90.56426400292732L97.23477253297659,90.64683741770875L97.78947529998193,90.58491552761367L98.0206014529008,90.63265515196952L98.08993929877649,90.70757697576441L98.11305191406838,90.78574692183871L98.15927714465214,90.87768238062219L98.18238975994403,90.96882392046071L98.76020514224125,91.01292147108964L98.96821867986826,91.07385402239551L99.52292144687358,91.1473431984745L99.7078223692087,91.21793486575864L100.03139898329515,91.29904190685086L100.05451159858704,91.38062953041552L100.44742605854914,91.45340185797035L101.11769190201393,91.53048411000464L101.1639171325977,91.60551271124815L101.39504328551659,91.67465296775813L101.7879577454787,91.75112581010957L101.90352082193814,91.8247902343548L102.41199835835971,91.8891659886361L102.59689928069483,91.9485403943575L102.8511380489056,92.00800422714072L102.89736327948938,92.06767173536586L103.05915158653261,92.12781728531871L103.19782727828394,92.18426654388864L103.35961558532713,92.24214925164766L103.4982912770785,92.29874833050715L103.56762912295414,92.35584260428682L103.96054358291626,92.41607728202854L104.23789496641893,92.48040636847564L104.30723281229459,92.54551539099269L104.83882296400805,92.61539064179999L104.88504819459182,92.68565821858262L105.02372388634315,92.75458973020334L105.11617434751071,92.82221531457975L105.48597619218093,92.89041711430689L105.87889065214304,92.95993205939263L106.34114295798081,93.02905763866987L106.75717003323481,93.09634116345117L106.80339526381859,93.1639217446209L106.84962049440237,93.23136007984233L106.91895834027804,93.29569344002176L106.9882961861537,93.36087756889249L107.38121064611582,93.42516168198956L107.6354494143266,93.48853954280696L107.95902602841305,93.5517708348091L108.69862971775349,93.61369122304907L109.25333248475881,93.67489828279457L109.34578294592637,93.73561518322852L109.39200817651015,93.79637581906596L109.53068386826148,93.85444802916865L109.60002171413716,93.91262570020868L110.01604878939115,93.97179763733955L110.3165127881857,94.0304540201147L110.50141371052082,94.08844681186113L110.80187770931538,94.14157936007122L110.91744078577482,94.19461983881466L111.28724263044504,94.24588126772183L111.40280570690449,94.29781122834231L111.44903093748826,94.34985371099512L111.68015709040716,94.40257618669028L111.77260755157471,94.45544651444797L112.4428733950395,94.50786816725697L112.55843647149894,94.55643523013032L112.72022477854216,94.60557692460067L113.73717985138526,94.65548098632954L113.92208077372038,94.70500882577691L114.0838690807636,94.75300033475278L114.17631954193115,94.80024571411332L114.43055831014193,94.84687540808201L114.56923400189326,94.89301479619613L114.7079096936446,94.93470031201677L115.21638723006615,94.97624445254718L115.47062599827693,95.01592296649522L115.58618907473637,95.05567494935008L115.79420261236338,95.09404174048663L115.81731522765527,95.13227657948562L116.09466661115793,95.17003002230582L116.3489053793687,95.20709641725169L116.41824322524438,95.24362475553595L117.73566229688204,95.27688308707314L117.85122537334148,95.30864092707124L117.87433798863337,95.34032467567074L118.10546414155228,95.37294933121511L119.79268505786015,95.40461084026585L120.04692382607094,95.43577337840962L120.07003644136282,95.46694827403124L120.1162616719466,95.49781972764498L120.16248690253038,95.52879063968685L120.23182474840604,95.56001525674796L120.25493736369793,95.59110362505004L120.83275274599515,95.62243449932049L120.94831582245459,95.65332010923396L121.01765366833027,95.68436070235813L121.20255459066539,95.7150340617943L121.66480689650317,95.74682590292969L121.73414474237882,95.77860882161703L121.75725735767071,95.8103535216843L122.10394658704905,95.84313806081187L122.47374843171926,96.00639095972211L122.61242412347059,96.17482707142555L122.70487458463816,96.28895935517868L122.91288812226514,96.38726755517978L122.95911335284893,96.48157508730971L123.16712689047594,96.55751764811097L123.25957735164349,96.63103499119678L123.51381611985427,96.68974842921946L124.11474411744338,96.76197009136332L124.32275765507038,96.8341410765137L124.66944688444872,96.91001827159745L124.83123519149193,96.98413359677164L124.96991088324326,97.0597023098299L125.06236134441083,97.13312301692889L125.08547395970271,97.20237804758786L125.52461365024861,97.27355180868277L125.59395149612426,97.33863967281329L126.42600564663228,97.40651031726325L126.56468133838361,97.47454809967255L126.91137056776192,97.54106928266454L126.95759579834571,97.60788117866991L127.35051025830784,97.67412178868345L127.3736228735997,97.73972191676971L127.8127625641456,97.80493265691767L127.83587517943748,97.8699094445678L127.90521302531316,97.9352834451911L128.11322656294016,97.99917564522175L128.36746533115095,98.05989893233804L128.94528071344817,98.11567077423564L129.01461855932382,98.17185231260754L129.26885732753462,98.22581330108667L129.33819517341027,98.27904097269834L129.38442040399406,98.332145364256L129.43064563457784,98.38521078730457L130.1009114780426,98.43513966613938L130.58627639917228,98.48598843294506L130.7480647062155,98.53836300757037L130.9329656285506,98.59204669307839L131.02541608971816,98.64661529572275L131.1872043967614,98.70061617299591L131.21031701205328,98.75458526578772L131.23342962734515,98.80849560349405L131.46455578026405,98.86336668899868L132.06548377785316,98.91580475754202L132.1810468543126,98.96895748737688L132.55084869898283,99.01713463796142L132.8050874671936,99.06572206685867L132.89753792836115,99.1145112169598L132.92065054365304,99.16326341694878L133.10555146598816,99.21118252172383L133.2442271577395,99.25769303733348L133.31356500361517,99.3040561452916L133.52157854124215,99.34789425633247L133.61402900240972,99.39039318395194L133.77581730945292,99.43282772248777L133.7989299247448,99.4752600646959L133.93760561649614,99.51784519322815L134.07628130824747,99.55746081940445L134.12250653883126,99.5970739668179L134.19184438470694,99.63446275462944L135.00078591992303,99.67583904193198L135.27813730342572,99.71479730957958L135.7172769939716,99.75268526230629L136.24886714568504,99.7903329999472L136.71111945152282,99.82615897199096L137.26582221852817,99.8622770493067L137.63562406319838,99.89787294492197L137.8205249855335,99.93307380557556L138.0285385231605,99.96858511944222L138.09787636903616,100.00432400102652L138.14410159961994,100.03989157758858L138.16721421491184,100.07543778602405L139.18416928775494,100.11409016616926L139.32284497950627,100.150081670329L139.39218282538195,100.1860699176204L139.55397113242518,100.22238806847879L139.85443513121973,100.25913909290423L139.9006603618035,100.29601658819416L139.92377297709538,100.33285526248864L140.0855612841386,100.3689400346098L140.5015883593926,100.40620365884065L141.1487415875655,100.44541207385028L141.61099389340328,100.4855875711938L141.65721912398706,100.52337535815171L141.7958948157384,100.56160046879201L142.3968228133275,100.59949692301043L142.51238588978694,100.63703748108455L142.90530034974904,100.67586260478956L143.32132742500303,100.71528710841322L143.50622834733815,100.75498874913194L144.2227194213867,100.79674802800216L144.8467600342677,100.8395482697393L145.37835018598116,100.88316469403868L146.04861602944595,100.92877966179095L146.30285479765672,100.97460443338916L146.67265664232696,101.02002894099465L146.9962332564134,101.06360038275827L147.01934587170527,101.10675006571587L147.48159817754305,101.1749474458421L148.0363009445484,101.23759509500483L148.4061027892186,101.29189600319465L148.8452424797645,101.3473516998861L148.91458032564017,101.40286327906387L149.0301434020996,101.46003167338138L149.8853101678995,101.51560515910771L150.04709847494271,101.57042430785263L150.1395489361103,101.62543955237545L150.27822462786162,101.67530044270468L150.41690031961292,101.7250719305627L150.60180124194807,101.76672324850978L150.64802647253185,101.80918233727226L151.20272923953718,101.84699600223479L151.38763016187227,101.88670156318376L151.7805446218344,101.92772220231227L151.9423329288776,101.96657113122394L152.21968431238025,102.00557684787553L152.26590954296404,102.04458966651885L152.4045852347154,102.08488978315064L152.68193661821806,102.12692581869798L152.7974996946775,102.17047652646082L153.0286258475964,102.21478609914587L153.25975200051528,102.25971283837373L153.90690522868817,102.30633183780314L153.95313045927196,102.35275025096708L154.0455809204395,102.39942847822616L154.39227014981782,102.44855089727163L155.33988737678527,102.49857224811232L155.40922522266095,102.54762867311904L155.82525229791494,102.59778487185932L156.24127937316896,102.64788809649546L156.63419383313106,102.69994916181842L156.70353167900672,102.7521700831871L156.81909475546618,102.80484799492484L156.93465783192562,102.85766437551439L157.3506849071796,102.91108074555551L157.3737975224715,102.9644547353282L157.76671198243363,103.01798929382929L157.83604982830926,103.07059253168705L157.9978381353525,103.12205202479872L158.6218787482335,103.17626462279301L158.6681039788173,103.23053956091236L158.8298922858605,103.28395787217143L159.24591936111452,103.33676690708494L159.4539328987415,103.38995537413402L159.66194643636848,103.44347970335987L159.8930725892874,103.49543305986924L160.14731135749818,103.54786386756653L160.2628744339576,103.60054469922196L160.7020141245035,103.65451213848935L160.81757720096294,103.70864443964477L160.8638024315467,103.76252262957094L160.95625289271428,103.81658568009526L161.16426643034126,103.87126135966318L161.58029350559528,103.92712234335829L162.04254581143306,103.98426659489849L162.1581088878925,104.04153392415704L162.3661224255195,104.09886808101844L162.50479811727084,104.15639718698081L162.62036119373028,104.21402227346341L162.68969903960593,104.27170641301838L163.19817657602752,104.32942463860002L163.6142036512815,104.3880283899008L163.70665411244906,104.44673731632764L163.8222171889085,104.50544024464642L164.19201903357873,104.564784487625L164.23824426416252,104.62400581432088L164.60804610883272,104.68361855800913L164.6542713394165,104.74309129290516L164.79294703116784,104.80266473395196L164.83917226175163,104.86175650907377L164.8853974923354,104.92074931618356L165.16274887583808,104.9802622240341L165.20897410642183,105.03969905358511L165.25519933700562,105.09900057041237L165.78678948871908,105.15893623321044L165.99480302634606,105.2184577661589L166.06414087222174,105.27792745643144L166.43394271689195,105.3378011520735L166.68818148510275,105.39800747398907L166.7344067156865,105.45810952538798L166.87308240743783,105.5183170264939L167.1735464062324,105.57800900705725L167.28910948269186,105.63711385773043L167.5895734814864,105.69670286713617L167.89003748028097,105.75673022319187L168.49096547787008,105.81603011853034L169.0225556295835,105.87478365901258L169.11500609075108,105.93328590983482L169.13811870604297,105.99159364929206L169.29990701308617,106.04933630914876L169.6928214730483,106.10634422103783L169.94706024125907,106.16292689341557L170.20129900946984,106.2196961805866L170.36308731651306,106.27628856787794L170.5017630082644,106.33285744438086L171.05646577526971,106.38854664436012L172.32765961632361,106.40414345234946L172.4201100774912,106.40977249303626L172.72057407628574,106.4349140482924L173.06726330566406,106.47020463011062L173.25216422799917,106.50491972830167L173.27527684329107,106.54024691967561L173.3677273044586,106.57871651526179L173.59885345737752,106.62271168924482L173.8299796102964,106.67050221000135L173.85309222558828,106.71850030748159L173.87620484088018,106.7672016909506L174.0611057632153,106.81541640494797L174.52335806905307,106.85495621083805L175.0780608360584,106.90066376302617L175.23984914310162,106.94594432443891L175.3091869889773,106.99167936880312L175.54031314189618,107.03935396729077L175.74832667952316,107.08935420459883L175.81766452539884,107.13943241991527L176.04879067831772,107.18713269066691L176.16435375477718,107.23390995077722L176.99640790528517,107.28064173548304L177.20442144291218,107.327507724754L177.25064667349594,107.37417469652283L177.3430971346635,107.42080404446197L177.48177282641487,107.46713750776969L177.5511106722905,107.51362886985333L177.71289897933374,107.56005087963777L177.89779990166883,107.60250172184627L177.9671377475445,107.64317978053889L178.1520386698796,107.68472475484806L178.24448913104717,107.72648850193858L178.86852974392818,107.77108228100761L178.96098020509575,107.81534445603825L179.21521897330652,107.85998033627872L179.4694577415173,107.9056220914637L179.74680912501995,107.95232346038472L180.6944263519874,107.99818259276125L181.04111558136574,108.0454018449641L181.3646921954522,108.09118116018203L181.54959311778728,108.13705290897452L181.87316973187373,108.18230505067699L181.89628234716562,108.22750503090344L182.49721034475473,108.2719982171456L182.82078695884118,108.31714768470161L183.3986023411384,108.36455064279832L184.06886818460316,108.41372189376533L184.13820603047884,108.46260617458432L184.27688172223017,108.50911498817248L184.69290879748417,108.5562067969158L184.73913402806795,108.60232486765223L185.15516110332197,108.6480470867973L185.24761156448952,108.69308231259569L185.82542694678673,108.73594184286989L185.98721525382996,108.77775534523511L186.2876792526245,108.81813506495567L186.42635494437587,108.85863254004954L187.02728294196498,108.89912813163389L187.37397217134327,108.9402903547574L187.55887309367841,108.98173698919815L187.5819857089703,109.02314739837601L188.09046324539185,109.0635842882259L188.18291370655942,109.10394070528518L188.50649032064587,109.1447102263365L188.78384170414853,109.18571497043942L188.80695431944042,109.22664140358845L188.96874262648362,109.26788068428874L189.29231924057007,109.30954944423482L189.4309949323214,109.35120264944108L189.6390084699484,109.39259264091905L189.8470220075754,109.43380395608487L189.89324723815918,109.47499264435923L189.91635985345107,109.51610855395901L190.35549954399696,109.55792225089091L190.4248373898726,109.59976015325005L190.63285092749962,109.64178190130151L190.93331492629417,109.68416481124503L191.48801769329953,109.72673440958366L191.85781953796973,109.76968073518952L192.11205830618053,109.81293740638131L192.52808538143452,109.85653256333919L192.7592115343534,109.90001744446586L192.7823241496453,109.94342551272186L192.92099984139662,109.98700257602304L193.08278814843985,110.03076497648752L193.17523860960742,110.07442190689461L193.19835122489928,110.11799839712701L193.22146384019118,110.16149403559302L193.72994137661274,110.20466192672893L193.75305399190464,110.24774140049074L193.84550445307218,110.2908308532338L193.89172968365597,110.33389442081962L194.09974322128298,110.37698660615904L194.19219368245052,110.41965246081422L194.86245952591528,110.46260131538497L194.88557214120718,110.50546165903236L195.09358567883416,110.54845524411063L195.16292352470984,110.59122268297148L195.3247118317531,110.63403830012601L195.55583798467197,110.67700326682832L195.57895059996386,110.71986073338392L195.62517583054765,110.76268400686871L195.74073890700706,110.80555831853526L195.971865059926,110.84862547836L196.01809029050972,110.8916619534181L196.38789213517995,110.93516649881258L196.5265678269313,110.97871118540512L196.5496804422232,111.02193998824465L196.7345813645583,111.06516827926092L197.1737210551042,111.05075671412139L197.56663551506628,111.0400677261668L198.69915366436882,111.03703619382416L198.9996176631634,111.04439629206722L199.06895550903906,111.05277718102192L199.78544658308763,111.07156113941879L199.80855919837953,111.09077911924766L200.20147365834163,111.11307565616384L200.43259981126053,111.1394067125945L200.50193765713618,111.1656071251995L200.54816288771997,111.19240287348062L200.80240165593074,111.22014449928595L200.94107734768207,111.24882260780159L201.1028656547253,111.27850304004873L201.51889272997929,111.30808349202334L201.54200534527118,111.33782843848094L201.63445580643875,111.36645163212299L201.7037936523144,111.39567708498272L201.7500188828982,111.4249423932713L202.07359549698464,111.45642012753743L202.16604595815218,111.48847036334698L202.42028472636295,111.5176727267697L202.48962257223863,111.54733500044712L202.9518748780764,111.57893110861434L203.13677580041153,111.61073490102571L203.3679019533304,111.64306933543371L203.6452533368331,111.67487349973875L204.17684348854652,111.70586802698699L204.29240656500596,111.73747886242367L204.68532102496806,111.76934304600258L205.7022760978112,111.804072765103L205.7253887131031,111.83407510754746L205.81783917427066,111.86418117829652L206.4649924024435,111.89572453181108L207.45883485999474,111.92941666557323L207.64373578232983,111.96357043206507L207.82863670466497,111.99748352124955L207.85174931995687,112.03137581508214L208.54512777871352,112.06156512339952L208.63757823988107,112.09044650229285L208.89181700809183,112.11778898807741L209.16916839159452,112.1437690262861L209.23850623747018,112.16949546648146L209.28473146805396,112.19515329142499L209.37718192922154,112.22070009344998L209.56208285155662,112.24664575066144L210.94883976906996,112.27051493516328L211.0875154608213,112.29460019235745L211.1106280761132,112.31870784006999L211.5035425360753,112.34346371629952L211.6653308431185,112.36791896808047L212.19692099483197,112.3903271833444L212.28937145599951,112.41214330007669L212.61294807008596,112.43435879106136L213.00586253004806,112.4571540367474L213.14453822179942,112.48026711011485L213.44500222059398,112.50363382351317L213.90725452643173,112.5272203146426L214.11526806405877,112.55062223555458L214.48506990872895,112.57391654963725L214.53129513931273,112.59717105980387L214.73930867693977,112.62015493124761L214.94732221456675,112.64315182663792L215.13222313690184,112.66629353137209L215.59447544273965,112.68922505853652L215.64070067332344,112.71209465567371L215.71003851919906,112.73460005436426L215.75626374978285,112.75713897431926L215.8949394415342,112.77988989149331L216.17229082503687,112.80253443737553L216.19540344032876,112.82517713964731L216.35719174737196,112.84793303404209L216.42652959324764,112.87036806817532L216.5420926697071,112.89293436710656L216.7038809767503,112.9142725523046L216.75010620733408,112.93547862180836L217.9288495872204,112.95311659027524L218.18308835543118,112.96980030085624L218.25242620130686,112.98627061972212L218.3679892777663,113.00195405170649L218.7377911224365,113.01622814748042L218.83024158360408,113.0301907980987L218.85335419889597,113.04410400217947L218.89957942947976,113.05799736170977L219.13070558239863,113.07161172809043L219.2231560435662,113.08521203635847L219.31560650473375,113.09806044291642L219.52362004236076,113.11075731797493L219.54673265765263,113.12328877811062L219.66229573411206,113.13572106277717L219.75474619527964,113.14804023672554L219.77785881057153,113.1603262785117L220.12454803994987,113.17255284691497L220.84103911399842,113.1842417488012L221.11839049750108,113.19609762395095L221.2801788045443,113.20763293263488L221.39574188100374,113.2190878776152L221.7193184950902,113.24952616548589L221.92733203271717,113.25332876825964L222.27402126209552,113.26162473674847L222.52826003030628,113.2710958125398L222.69004833734954,113.2593445934855L222.71316095264143,113.24948866649646L222.9211744902684,113.24332937411576L223.79945387136019,113.2482396177653L223.86879171723587,113.2539995046362L223.91501694781965,113.2607407209114L223.98435479369533,113.2673509972227L224.00746740898717,113.27419013519788L224.09991787015474,113.2820417835292L224.8395215594952,113.29994566796097L225.16309817358166,113.31626337216109L225.92581447821397,113.33386235313031L226.01826493938154,113.35177087532644L226.4342920146355,113.37011786145727L226.54985509109497,113.3887816762974L226.8965443204733,113.4087787620624L226.965882166349,113.42875996888971L227.0352200122246,113.44915242972269L227.52058493335431,113.46991569315705L227.77482370156508,113.49129439865132L228.09840031565153,113.51028894206742L228.3295264685704,113.5300450204916L228.3988643144461,113.54918881484264L228.49131477561363,113.56862759048087L228.88422923557573,113.58842525641403L228.93045446615952,113.60805478452413L228.9997923120352,113.62747765748794L229.48515723316487,113.64473894896535L229.53138246374863,113.66200310944767L229.6469455402081,113.67953234594495L229.90118430841886,113.69734182083994L230.08608523075398,113.71516569237023L230.17853569192152,113.73211072696725L230.57145015188362,113.74647391373215L230.71012584363498,113.76126048760787L230.94125199655386,113.77645651910974L230.98747722713765,113.79162869515507L231.12615291888898,113.80671569940182L231.24171599534841,113.82137384710558L231.35727907180788,113.83554602807835L231.42661691768353,113.84826229417753L231.77330614706185,113.86145744891917L231.79641876235374,113.87447565600998L232.42045937523474,113.8877119169903L232.60536029756986,113.90118397728087L232.83648645048876,113.91547667085096L233.09072521869953,113.92988477647684L233.57609013982918,113.94249472501974L233.9690045997913,113.95233527787491L233.9921172150832,113.9621406335363L234.73172090442367,113.97144510235556L234.7548335197155,113.98074584457521L234.89350921146686,113.98989663724237L236.09536520664508,113.99989386241535L236.14159043722887,114.01001380866992L236.37271659014775,114.0203803840293L236.53450489719097,114.03083869959933L237.15854551007197,114.04177725956424L237.64391043120165,114.05258364285646L237.87503658412052,114.06392070723844L238.24483842879076,114.07559918513472L238.29106365937454,114.08738304331509L238.3372888899583,114.09914895989652L238.45285196641774,114.11118289128183L239.1924556557582,114.12437858826758L239.30801873221765,114.13783017169051L239.56225750042842,114.15138079699986L239.5853701157203,114.16485771505752L239.67782057688785,114.17848775960556L240.6716630344391,114.19377605012784L240.74100088031474,114.20873770577985L241.20325318615255,114.2237676464967L241.34192887790385,114.23893247083632L241.36504149319575,114.25410851717135L241.96596949078486,114.26996730368228L242.1277577978281,114.28600934863417L242.2895461048713,114.30221197520237L243.05226240950367,114.31835228991949L243.5607399459252,114.33429279952975L243.5838525612171,114.35015249201751L243.79186609884408,114.36624642344586L243.95365440588733,114.38228742980655L244.02299225176296,114.39841633933275L244.1847805588062,114.41482730554227L244.2541184046819,114.43133348278646L244.69325809522775,114.4480708217381L244.76259594110343,114.46490674188709L245.0168347093142,114.48178820275692L245.27107347752496,114.49874599209897L245.50219963044384,114.51549485857849L245.54842486102763,114.53228439670195L245.57153747631952,114.54901870175598L245.6408753221952,114.56581461491498L246.19557808920052,114.58281286418298L246.31114116566,114.59985184182165L246.33425378095188,114.61690606807065L246.4267042421194,114.6340377533867L246.8658439326653,114.66831373688939L247.0969700855842,114.70203143946395L247.2818710079193,114.73847488378738L247.55922239142197,114.77153632384217L248.48372700309753,114.79911930000029L248.69174054072454,114.82789080373794L248.71485315601643,114.85651321170413L248.85352884776776,114.8863469265936L248.89975407835152,114.91656049379446L249.10776761597853,114.94702990519306L249.91670915119465,114.97617922558186L250.56386237936752,115.0091383478752L250.6332002252432,115.04247365825046L250.70253807111888,115.07509492486976L250.91055160874586,115.10391249448763L251.55770483691876,115.13156532378419L252.11240760392408,115.16205320824179L252.34353375684296,115.19250931949446L253.61472759789686,115.22351519093556L253.75340328964822,115.2544991671968L253.84585375081573,115.28550235981785L253.91519159669141,115.31647273254177L254.16943036490218,115.3448249174875L254.5854574401562,115.3732309474919L254.70102051661567,115.40167825767526L255.4175115906642,115.42678657983643L255.53307466712366,115.45194697458089L255.55618728241555,115.47712226658095L255.60241251299934,115.50230163660464L255.879763896502,115.52797117697227L255.92598912708576,115.5535779681706L256.2033405105884,115.57797515553638L256.43446666350735,115.60256337590289L256.7349306623019,115.62669485918906L256.8504937387613,115.65075245142202L256.8736063540532,115.67471291316458L257.22029558343155,115.69463665106629L257.3589712751829,115.71414409715484L257.5900974281018,115.73412689854928L258.1448001951071,115.7527358981612L258.53771465506924,115.77162275009437L258.7226155774043,115.78998837173312L259.0461921914908,115.80745562517093L259.76268326553935,115.82403314820581L259.92447157258255,115.84090662550912L259.9938094184582,115.85791744454802L260.1787103407933,115.87446063298108L260.54851218546355,115.89151720853893L260.6409626466311,115.90847832120402L260.75652572309053,115.92545598425801L260.8027509536743,115.94246104022012L260.8489761842581,115.95829582800746L260.9183140301338,115.97408102524432L261.7272555653499,115.99015043730431L261.8659312571012,116.00637726650461L261.8890438723931,116.02263727880845L262.0508321794363,116.03881078140235L262.2588457170633,116.05464474810842L262.7210980229011,116.06975034513101L262.9984494064038,116.08537475543956L263.36825125107396,116.10171506330323L263.41447648165774,116.1180994722043L263.43758909694964,116.13451160005111L263.4838143275334,116.15091965670052L263.6224900192848,116.16739771494196L263.7149404804523,116.18405594498489L263.83050355691176,116.200655651953L263.96917924866307,116.21719785636341L264.08474232512253,116.23381610074959L264.2696432474576,116.25018508439555L264.7550081685873,116.26628956075375L265.0785847826738,116.28287833563869L265.33282355088454,116.29943133671972L265.5639497038034,116.31578726251306L265.656400164971,116.33226765065334L265.6795127802629,116.34875004016808L266.3266660084358,116.36481631798189L266.53467954606276,116.3808720777595L266.71958046839785,116.39706053053649L267.0662696977762,116.41313032745495L267.0893823130681,116.42917442260719L267.36673369657075,116.44563385863708L268.0832247706193,116.45975343289776L268.2912383082463,116.4716532669581L268.4530266152895,116.48316825631812L268.59170230704086,116.49444783354929L268.66104015291654,116.50570839831049L268.68415276820843,116.51698997992526L268.79971584466784,116.52820231617055L269.0077293822949,116.53938916996972L269.19263030463,116.55061752719007L269.35441861167317,116.56189863172004L269.37753122696506,116.57318222085958L269.42375645754885,116.5844260729318L269.6548826104678,116.59506982385825L269.7242204563434,116.60569916503226L269.7704456869272,116.61632783735246L270.3482610692244,116.62706220766842L270.4638241456839,116.63779644676606L270.6024998374352,116.6483656114184L270.69495029860275,116.65880505005731L271.34210352677565,116.66878751366067" fill="none"></path></g></g></g></g><g opacity="0.2"><g><g><g><path style="fill: none;" stroke="rgb(204, 51, 17)" stroke-width="2px" d="M24.846061438780563,-3.784390754777263L25.308313744618342,7.258576279773365L26.718183277423567,11.88223949296733L26.787521123299232,13.309771402437036L26.99553466092623,13.364260805044381L27.365336505596456,16.04726472612407L27.411561736180232,16.866199749833214L28.428516809023343,21.52919255466017L28.544079885482788,23.24482870177465L29.029444806612457,24.66677601271985L29.1450078830719,25.08314513874282L29.30679619011512,27.118912178603097L29.445471881866457,27.03634151539893L30.254413417082567,26.644074340902677L30.300638647666347,26.899428412706527L30.485539570001457,27.25988372435276L30.970904491131122,28.764639100463683L31.155805413466233,29.612525858628686L31.61805771930401,31.534543444332286L32.86613894506601,34.93585787198256L32.8892515603579,35.02169563837208L33.35150386619568,38.426876326539315L33.42084171207134,38.56556429151581L33.76753094144968,38.64964980533185L33.83686878732534,38.910893706753626L33.85998140261724,38.80089746456082L34.09110755553613,38.54652691516918L34.53024724608201,37.2316365840355L35.01561216721168,38.711984777526226L35.52408970363324,39.529404950623444L36.148130316514234,39.88612966001651L36.37925646943312,41.06635655466502L36.51793216118446,42.034945253004L36.67972046822768,41.69624048297945L36.70283308351957,41.371293721870444L37.4655493881519,42.99538315066249L37.78912600223835,44.74669742114395L37.95091430928157,45.71521829035106L37.97402692457346,45.878471705922124L38.02025215515724,46.210506611312184L38.0895900010329,46.56243806205262L38.135815231616675,46.80580898722499L38.41316661511935,47.9840801419044L38.644292768038234,48.79072678788859L39.63813522558946,52.43041539466297L39.823036147924576,52.82891154443654L40.00793707025968,53.469580304719315L40.51641460668124,54.85072839284088L40.60886506784879,54.86182976075797L40.81687860547579,54.9614481457737L40.909329066643345,55.062592686256664L40.955554297227124,55.31438572863699L41.16356783485413,55.52023583902641L41.27913091131357,55.794559458044986L41.325356141897345,55.66726678722371L41.4409192183568,55.88889847562969L41.48714444894057,56.12959015009292L41.57959491010813,56.313407097477835L41.672045371275686,56.78150724141186L41.81072106302702,57.05439514380572L41.83383367831891,57.037076105466625L42.36542383003234,58.50349671721209L42.4578742911999,58.83011659690736L43.220590595832235,60.082717175267916L43.38237890287546,60.51645055905125L43.5210545946268,60.99891917408773L44.098869976924014,62.1907335454318L44.145095207507794,61.72275775490621L44.329996129842904,62.2443976936013L44.65357274392935,61.80913815435075L44.90781151214012,62.63646138070193L44.977149358015794,62.73487014619921L45.1851628956428,62.920518480144764L45.3700638179779,63.071551347122764L45.578077355604904,62.95692011425173L45.60118997089679,62.8245967828163L45.73986566264813,63.03708284327428L45.762978277940014,63.127227759537945L45.87854135439946,63.49849051286316L46.29456842965347,63.879961550535754L46.36390627552913,64.09274153723187L46.57191981315613,64.31929083769889L47.704437962458684,64.59880338530601L47.77377580833435,64.73956013880478L47.82000103891813,64.78674660488008L47.91245150008568,64.90974343068252L48.05112719183702,119.0290194226518L48.16669026829646,104.51249428257493L48.39781642121535,108.44507473321907L48.536492112966684,113.07852795111388L48.65205518942613,109.02241369403994L48.88318134234502,99.12584942704216L49.85391118460435,106.92581522774192L49.94636164577191,106.01195333397185L49.969474261063795,105.58593551393945L49.99258687635568,105.48592711141542L50.40861395160969,97.05538213379951L50.70907795040424,100.83135642379645L51.00954194919879,99.9028151754028L51.88782133029058,90.6734182495408L52.14206009850135,90.10477272245541L52.21139794437702,90.62962889248696L52.280735790252685,91.3806613027602L52.742988096090464,95.0967198595997L52.881663787841795,95.20420642391309L53.04345209488502,91.57581702002378L53.55192963130657,93.90512028050658L53.621267477182236,94.56448161904895L53.87550624539302,96.38480072635927L53.944844091268685,96.39018183748813L54.01418193714435,96.23434440700221L54.037294552436244,95.88349256994412L55.146700086446906,91.56952021561459L55.21603793232258,91.82980885676243L55.285375778198244,92.14543476466606L55.30848839349013,92.10147583478253L55.81696592991169,94.00607263844923L56.09431731341435,94.66451828371125L56.32544346633324,94.40499837272468L56.4178939275008,94.09280348840845L56.995709309798016,90.6528094983057L57.01882192508991,90.77302532970121L57.273060693300685,90.09984380553907L57.457961615635796,90.85283195578141L57.596637307387134,91.49605561336485L58.336240996727575,91.81762222273531L58.428691457895134,92.01698334617522L59.00650684019235,92.88857638593102L59.37630868486257,93.07794401727448L59.399421300154465,93.21210438769825L59.7461105295328,93.84937038653187L59.83856099070036,94.0529538734311L60.20836283537058,94.13907426120343L60.231475450662465,94.00236464590665L60.739952987084024,94.91130892761569L60.971079140002914,95.37715940534248L61.04041698587858,95.54531912811926L61.15598006233802,95.61085902679478L61.22531790821368,95.76121925488168L61.68757021405146,96.51408870414325L62.01114682813791,96.88184129989385L62.219160365764914,97.15349132063099L62.311610826932466,97.4068274757615L62.357836057516245,97.58574376836835L62.404061288100024,97.74939850630302L62.47339913397569,97.94849961807073L62.63518744101891,98.30001278916461L62.84320097864592,97.71258989740478L63.16677759273235,97.78342612079432L63.21300282331614,97.29879262596545L63.282340669191804,97.13258864315776L63.39790374565124,96.9384277531617L63.46724159152691,96.98479461722685L63.4903542068188,97.03329809894609L63.95260651265658,97.31890961599444L64.16062005028358,97.57276579446933L64.29929574203491,97.83731071364242L64.48419666437003,97.97147673649384L64.69221020199703,97.70374950055023L64.85399850904025,97.80850028987794L65.33936343016991,98.27576387451882L65.43181389133747,98.18128919867037L65.66294004425636,98.52482679434112L65.75539050542392,98.51834345981928L65.96340404305091,98.82049398019014L66.26386804184547,98.94685400044813L66.33320588772114,99.05895859815676L66.47188157947247,99.22615740823197L66.51810681005624,99.33683194174354L67.4426114217318,99.93087382628897L67.83552588169391,100.72675825001546L68.0666520346128,101.10092069872839L68.13598988048847,101.22054867764764L68.18221511107225,101.32034228792072L68.59824218632625,101.02397985346998L68.9218188004127,100.5005650524908L68.96804403099647,100.44036669795054L69.38407110625047,99.84943930104376L69.47652156741803,99.8073230625762L69.66142248975314,99.97572018731456L70.05433694971525,100.48586874058425L70.19301264146658,100.61406579983056L70.74771540847192,101.0033428400966L71.04817940726647,101.08171374955207L71.11751725314214,100.9602996034934L71.14062986843402,100.6366642056007L71.23308032960158,100.75335857456629L71.32553079076914,100.83496267264121L71.4179812519367,100.91167176836571L71.5797695589799,100.83102293056471L71.92645878835825,101.24918952858242L72.71228770828247,101.80980860839578L72.80473816945003,141.2570046511851L72.96652647649324,131.59380933862172L73.17454001412025,120.89804832529083L73.6830175505418,130.9997985424284L73.72924278112559,128.851836466017L73.77546801170936,127.62808870462834L73.8910310881688,120.4030284946434L73.96036893404448,121.2133972642393L74.14526985637958,123.62128057400086L74.23772031754714,124.46916167973822L74.69997262338492,125.354309241014L74.81553569984436,125.01794457603916L74.83864831513625,125.40279576545026L74.88487354572003,125.48536360244059L74.95421139159569,125.67657957762768L75.04666185276325,126.01199746097006L75.06977446805514,126.10388897737954L75.23156277509835,124.73046775786422L75.30090062097403,124.20778777248036L75.41646369743347,123.96119778975772L75.85560338797936,125.74342236087799L76.08672954089825,125.06662328301576L76.22540523264959,124.845234648999L76.36408092440092,125.32427789287573L76.45653138556847,125.88716076996548L76.73388276907113,125.10450020074104L76.75699538436302,125.11012436625913L77.33481076666025,125.582404480445L77.54282430428725,125.46958202442401L78.35176583950336,126.30895340032473L78.37487845479525,126.16275901142058L78.42110368537904,126.20859172107218L79.43805875822214,126.46754073686546L79.62295968055726,126.49326210891574L79.78474798760048,126.57200042616887L79.83097321818424,126.64810188592031L79.87719844876803,126.66057961997171L79.99276152522746,126.75377684716983L80.57057690752468,126.77753682682335L80.59368952281658,126.77710441610765L80.82481567573548,126.6706352887724L80.87104090631925,126.36588465167961L80.9866039827787,126.64050784936398L81.31018059686514,127.19117300407447L81.44885628861648,126.60958341765604L81.65686982624347,125.54962322625192L82.0035590556218,124.62288227606683L82.09600951678937,124.17692551747662L82.14223474737314,124.2537730976787L82.72005012967037,123.6707845354153L83.22852766609192,123.00612121973127L83.36720335784325,122.93703159648754L83.76011781780537,122.72823091886153L83.8987935095567,122.06061420972704L83.92190612484859,122.08953485583083L84.24548273893504,119.95319417068092L84.49972150714581,119.21625608876882L85.03131165885925,118.45326031536088L85.19309996590246,118.35325191283687L85.30866304236193,118.20759450456005L85.60912704115648,117.72406605933799L85.77091534819971,117.29641468771291L86.11760457757802,117.43526657309144L86.3949559610807,116.45431601546801L86.46429380695636,116.48262902559873L86.78787042104281,116.90358227045101L87.59681195625892,116.88656846320536L87.61992457155081,116.91800726583006L87.6430371868427,116.9639728075316L88.0590642620967,117.0654932344537L88.40575349147504,115.66150933860041L89.51515902548569,114.91357728489669L89.7231725631127,114.9324620456966L89.93118610073971,114.91853446395132L90.06986179249104,115.02266913866447L90.5552267136207,114.04752362424412L90.60145194420447,113.90344324328343L90.62456455949636,113.92270106430867L91.71085747821515,113.78218736519915L91.89575840055025,113.30084358326627L92.42734855226371,113.49005294663536L92.72781255105826,112.77742312985944L93.09761439572847,112.97392412490522L93.16695224160415,113.00931962688936L93.35185316393927,113.17633755927957L93.42119100981492,113.23501541078028L93.97589377682024,112.96068048690637L94.06834423798782,112.40522772597093L94.1145694685716,112.42394291394115L94.76172269674447,112.47040586927645L95.29331284845793,112.52001157438869L95.64000207783626,112.38914091686092L96.05602915309026,112.34342408197627L96.1947048448416,112.45934406835295L96.56450668951182,112.51320039906277L96.98053376476581,112.29306660398574L97.0036463800577,112.11478903570405L97.16543468710093,112.01662897702366L97.23477253297659,111.79111407081776L97.78947529998193,74.68279650096112L98.0206014529008,102.9280679386476L98.08993929877649,110.05935720002732L98.11305191406838,111.03439531832221L98.15927714465214,114.76009126431582L98.18238975994403,114.71236781761314L98.76020514224125,102.53346631152927L98.96821867986826,107.03751850308696L99.52292144687358,110.45486886799833L99.7078223692087,109.81618410982294L100.03139898329515,112.72735392567938L100.05451159858704,112.99586119663958L100.44742605854914,110.78659288986728L101.11769190201393,112.06520594030245L101.1639171325977,111.64810765111179L101.39504328551659,110.19487980551627L101.7879577454787,112.29140479025476L101.90352082193814,111.6645449107365L102.41199835835971,109.27421238884793L102.59689928069483,108.02622419145494L102.8511380489056,108.15320597875512L102.89736327948938,108.31158134925876L103.05915158653261,108.54558054937685L103.19782727828394,107.6340474558012L103.35961558532713,108.12623824640663L103.4982912770785,107.87159638048749L103.56762912295414,108.1062682194967L103.96054358291626,109.07639437815821L104.23789496641893,110.31966845088579L104.30723281229459,110.64805188800983L104.83882296400805,112.09347938343957L104.88504819459182,112.32371971916619L105.02372388634315,112.0688517561408L105.11617434751071,111.81917272170394L105.48597619218093,112.0982161178156L105.87889065214304,112.58742242661846L106.34114295798081,112.5961497749199L106.75717003323481,112.19018111578463L106.80339526381859,112.39039575580064L106.84962049440237,112.46555043391963L106.91895834027804,111.690229542007L106.9882961861537,112.04515112697767L107.38121064611582,111.89724970492128L107.6354494143266,111.74531810194591L107.95902602841305,111.81128193269566L108.69862971775349,111.5386257798357L109.25333248475881,111.4367633810404L109.34578294592637,111.39827600112822L109.39200817651015,111.51478383998116L109.53068386826148,110.82996396727455L109.60002171413716,110.96008285192401L110.01604878939115,111.3523726361309L110.3165127881857,111.30096380659627L110.50141371052082,111.20443164708091L110.80187770931538,109.86051044750414L110.91744078577482,109.92360849743211L111.28724263044504,109.48330699271209L111.40280570690449,109.7703994458064L111.44903093748826,109.89245231619024L111.68015709040716,110.18518023965795L111.77260755157471,110.31930104308812L112.4428733950395,110.27373682375018L112.55843647149894,109.19694370278545L112.72022477854216,109.45358652809495L113.73717985138526,109.76861327866699L113.92208077372038,109.73868367422655L114.0838690807636,109.35371378383466L114.17631954193115,109.20678457933518L114.43055831014193,109.09803752365441L114.56923400189326,109.02631952155049L114.7079096936446,107.7325805747069L115.21638723006615,107.75946917306823L115.47062599827693,107.25251989385202L115.58618907473637,107.34238218873288L115.79420261236338,106.97907805354784L115.81731522765527,107.00278998756627L116.09466661115793,106.91708222701284L116.3489053793687,106.76586848234983L116.41824322524438,106.65971023853568L117.73566229688204,105.69383470547176L117.85122537334148,105.2773977503169L117.87433798863337,105.30753084215297L118.10546414155228,105.65847877048121L119.79268505786015,105.40813840200856L120.04692382607094,105.30293541846835L120.07003644136282,105.35929577462993L120.1162616719466,105.31492421752749L120.16248690253038,105.3986140614076L120.23182474840604,105.53193222011056L120.25493736369793,105.54063695870137L120.83275274599515,105.67085193462098L120.94831582245459,105.57988176391949L121.01765366833027,105.68176677242542L121.20255459066539,105.61492681538893L121.66480689650317,106.02921019560672L121.73414474237882,106.07957897845257L121.75725735767071,106.12036124399323L122.10394658704905,106.51296756414887L122.47374843171926,149.2475095488601L122.61242412347059,151.21966558098256L122.70487458463816,133.66405336097196L122.91288812226514,128.64643854984013L122.95911335284893,127.49122082135719L123.16712689047594,121.57939760741644L123.25957735164349,120.90306485483586L123.51381611985427,116.11348310643082L124.11474411744338,120.70278803811561L124.32275765507038,120.80633486035254L124.66944688444872,122.16385862708432L124.83123519149193,121.70095306416651L124.96991088324326,122.3115056898962L125.06236134441083,121.71596873823565L125.08547395970271,120.43646260423077L125.52461365024861,121.19856812028283L125.59395149612426,119.26102896823485L126.42600564663228,120.31111719473711L126.56468133838361,120.48056849723338L126.91137056776192,120.07823434908114L126.95759579834571,120.28764831510789L127.35051025830784,120.20365041392051L127.3736228735997,120.09463486792606L127.8127625641456,120.07007506975918L127.83587517943748,120.09789914489761L127.90521302531316,120.34210097693546L128.11322656294016,119.94003814531072L128.36746533115095,118.95235272013474L128.94528071344817,117.34105756134286L129.01461855932382,117.57522633429065L129.26885732753462,116.89754830392785L129.33819517341027,116.73178803669119L129.38442040399406,116.77679549190498L129.43064563457784,116.85090729712138L130.1009114780426,115.84188678375642L130.58627639917228,116.24650733889567L130.7480647062155,116.86584666341714L130.9329656285506,117.41247315856717L131.02541608971816,117.81265938421L131.1872043967614,117.70223920994295L131.21031701205328,117.77994878536262L131.23342962734515,117.84799836191758L131.46455578026405,118.27761395215323L132.06548377785316,117.5030448331189L132.1810468543126,117.84377599845827L132.55084869898283,116.15611936824277L132.8050874671936,116.38191689583148L132.89753792836115,116.53395024250467L132.92065054365304,116.60080715682413L133.10555146598816,116.38147883268812L133.2442271577395,115.95306438332943L133.31356500361517,115.9761884648716L133.52157854124215,115.14007006108713L133.61402900240972,114.72729022662594L133.77581730945292,114.77356665184857L133.7989299247448,114.8422549527287L133.93760561649614,114.9672923049151L134.07628130824747,113.9548068533968L134.12250653883126,114.01869624319667L134.19184438470694,113.27002089525614L135.00078591992303,114.79186921259989L135.27813730342572,113.9721371965912L135.7172769939716,113.6423123904148L136.24886714568504,113.6157064134363L136.71111945152282,113.00515944013429L137.26582221852817,113.17152734334401L137.63562406319838,113.03714652824165L137.8205249855335,112.94870299270254L138.0285385231605,113.12135074303848L138.09787636903616,113.26384279182773L138.14410159961994,113.25819036417137L138.16721421491184,113.30809564794939L139.18416928775494,114.52729603128853L139.32284497950627,113.59359976887227L139.39218282538195,113.65088147074185L139.55397113242518,113.83332487820626L139.85443513121973,114.05524484042272L139.9006603618035,114.16259574647233L139.92377297709538,114.20778690558495L140.0855612841386,113.98237939550454L140.5015883593926,114.48754816000898L141.1487415875655,115.2860157431744L141.61099389340328,115.71716596751878L141.65721912398706,114.87313416501541L141.7958948157384,115.10110222482417L142.3968228133275,115.0374332797029L142.51238588978694,114.96258383267735L142.90530034974904,115.51557213515461L143.32132742500303,115.8084074547478L143.50622834733815,115.97866988061276L144.2227194213867,116.83513985017396L144.8467600342677,117.30405959611812L145.37835018598116,117.68844163403378L146.04861602944595,118.53208341902885L146.30285479765672,118.68696841545466L146.67265664232696,118.60550280185734L146.9962332564134,117.95834505462508L147.01934587170527,117.86433387784446L147.48159817754305,127.70168331271418L148.0363009445484,125.6438689787803L148.4061027892186,122.4795382330507L148.8452424797645,123.01934224801948L148.91458032564017,123.13045484467443L149.0301434020996,123.87084655988458L149.8853101678995,123.33492576271571L150.04709847494271,123.12681750747758L150.1395489361103,123.29226971740695L150.27822462786162,121.34234892257773L150.41690031961292,121.38694657678643L150.60180124194807,118.24593774756698L150.64802647253185,118.63360667216477L151.20272923953718,116.85346219442204L151.38763016187227,117.66788092843376L151.7805446218344,118.25626190668133L151.9423329288776,117.45399306591699L152.21968431238025,117.57892019576408L152.26590954296404,117.64416616820148L152.4045852347154,118.22334782043833L152.68193661821806,118.9857048695211L152.7974996946775,119.66276395905552L153.0286258475964,120.03834234089636L153.25975200051528,120.35833474916453L153.90690522868817,121.11446847539764L153.95313045927196,121.10760642822282L154.0455809204395,121.28703143931875L154.39227014981782,122.35435391774524L155.33988737678527,122.7983492839387L155.40922522266095,122.48491651796573L155.82525229791494,123.01175951631849L156.24127937316896,123.06996256389607L156.63419383313106,123.95082841122212L156.70353167900672,124.09915376535272L156.81909475546618,124.36973265104898L156.93465783192562,124.5103763559946L157.3506849071796,124.84122990400446L157.3737975224715,124.90861249409596L157.76671198243363,125.05963405621867L157.83604982830926,124.75967950399229L157.9978381353525,124.36974678211811L158.6218787482335,125.59249406381161L158.6681039788173,125.70432451877893L158.8298922858605,125.43428261371002L159.24591936111452,125.26530894135072L159.4539328987415,125.50710283920694L159.66194643636848,125.73150139095071L159.8930725892874,125.15955484611402L160.14731135749818,125.44159402888354L160.2628744339576,125.62930832513752L160.7020141245035,126.25262413251524L160.81757720096294,126.40720107163379L160.8638024315467,126.38575858731937L160.95625289271428,126.54875199121825L161.16426643034126,126.89265416847283L161.58029350559528,127.47987639905087L162.04254581143306,128.11108016922304L162.1581088878925,128.25334329469223L162.3661224255195,128.37196796770246L162.50479811727084,128.5451470462381L162.62036119373028,128.67659990381446L162.68969903960593,128.79249162805286L163.19817657602752,128.8978246174292L163.6142036512815,129.36696198183813L163.70665411244906,129.50412661756127L163.8222171889085,129.59385890660604L164.19201903357873,129.96121017999303L164.23824426416252,130.00164764744665L164.60804610883272,130.26299894499388L164.6542713394165,130.29628891767604L164.79294703116784,130.43304940482173L164.83917226175163,130.31852274186235L164.8853974923354,130.36839976350208L165.16274887583808,130.6860492405067L165.20897410642183,130.74632955524797L165.25519933700562,130.7807019678263L165.78678948871908,131.1491865529584L165.99480302634606,131.06277789137562L166.06414087222174,131.13332584095468L166.43394271689195,131.4026301042144L166.68818148510275,131.6415751785318L166.7344067156865,131.6900701816096L166.87308240743783,131.83017125350017L167.1735464062324,131.6981164123784L167.28910948269186,131.53348663067302L167.5895734814864,131.8386272852741L167.89003748028097,132.12459207905096L168.49096547787008,131.89753688630873L169.0225556295835,131.74884412438044L169.11500609075108,131.7293630324628L169.13811870604297,131.73444173871204L169.29990701308617,131.57489348946973L169.6928214730483,131.33885093675383L169.94706024125907,131.23869839732458L170.20129900946984,131.40972390092315L170.36308731651306,131.4192454153103L170.5017630082644,131.49674867712048L171.05646577526971,131.1919867351724L172.32765961632361,113.35944795320744L172.4201100774912,108.92312314982827L172.72057407628574,117.67443774451513L173.06726330566406,122.26632583563887L173.25216422799917,122.0625953856206L173.27527684329107,122.39169385484317L173.3677273044586,123.86134200278042L173.59885345737752,126.41191237008536L173.8299796102964,128.193111025586L173.85309222558828,128.36092595027577L173.87620484088018,128.7534333529474L174.0611057632153,128.60834118743622L174.52335806905307,124.74847356616355L175.0780608360584,127.61033725557354L175.23984914310162,127.48687127827561L175.3091869889773,127.76371870624277L175.54031314189618,128.71827807913866L175.74832667952316,129.85302271465025L175.81766452539884,129.9658310396021L176.04879067831772,128.9555387300145L176.16435375477718,128.60647588630962L176.99640790528517,128.65776318864965L177.20442144291218,128.7914007095152L177.25064667349594,128.77216832441442L177.3430971346635,128.82674816586427L177.48177282641487,128.76226809737432L177.5511106722905,128.90640782882537L177.71289897933374,128.9459324292125L177.89779990166883,127.18178149552344L177.9671377475445,126.42668781597911L178.1520386698796,126.89085952269193L178.24448913104717,127.05617607435758L178.86852974392818,128.43451490593395L178.96098020509575,128.34882975509115L179.21521897330652,128.59071409178986L179.4694577415173,129.1279236424644L179.74680912501995,129.6922591934618L180.6944263519874,129.37051453262018L181.04111558136574,130.07677406342737L181.3646921954522,129.4750872704767L181.54959311778728,129.58853431975373L181.87316973187373,129.36807833630027L181.89628234716562,129.41285121576632L182.49721034475473,129.1496628792308L182.82078695884118,129.52667980391016L183.3986023411384,130.65777579736957L184.06886818460316,131.56455802550005L184.13820603047884,131.5041505311365L184.27688172223017,130.45552628339726L184.69290879748417,130.8025429482905L184.73913402806795,130.4129493720757L185.15516110332197,130.2955145350871L185.24761156448952,130.03895649619247L185.82542694678673,129.07307813691472L185.98721525382996,128.64047523866265L186.2876792526245,128.02092112189024L186.42635494437587,128.13861597055103L187.02728294196498,128.19939087271223L187.37397217134327,128.57977381806097L187.55887309367841,128.77854991523844L187.5819857089703,128.82424696662633L188.09046324539185,128.42023969988782L188.18291370655942,128.44307268140568L188.50649032064587,128.7029967409697L188.78384170414853,128.87813721190207L188.80695431944042,128.90268570521366L188.96874262648362,129.11570309387133L189.29231924057007,129.38564608145626L189.4309949323214,129.44134792979588L189.6390084699484,129.37717026618554L189.8470220075754,129.35338202439374L189.89324723815918,129.40487281412936L189.91635985345107,129.43195359503102L190.35549954399696,129.83328161106039L190.4248373898726,129.90836563383368L190.63285092749962,130.06121010387557L190.93331492629417,130.30083629572556L191.48801769329953,130.45603782810014L191.85781953796973,130.7044224566037L192.11205830618053,130.92108848731357L192.52808538143452,131.1521342939812L192.7592115343534,131.16395069399684L192.7823241496453,131.1919358633235L192.92099984139662,131.34043926892528L193.08278814843985,131.49729413638934L193.17523860960742,131.51141390067494L193.19835122489928,131.5376270339313L193.22146384019118,131.56345297589323L193.72994137661274,131.46723735232663L193.75305399190464,131.48858374537087L193.84550445307218,131.55839405314077L193.89172968365597,131.6104472594282L194.09974322128298,131.68943710971206L194.19219368245052,131.5427707430986L194.86245952591528,131.74747058445996L194.88557214120718,131.76804259491527L195.09358567883416,131.8987578106825L195.16292352470984,131.85070934938958L195.3247118317531,131.9389635286022L195.55583798467197,132.07778715184247L195.57895059996386,132.08856633138316L195.62517583054765,132.13576975474143L195.74073890700706,132.22555008942126L195.971865059926,132.38647187858408L196.01809029050972,132.4356338681253L196.38789213517995,132.73513622613916L196.5265678269313,132.8204765788949L196.5496804422232,132.72676215456625L196.7345813645583,132.79121396091793L197.1737210551042,103.80051449497951L197.56663551506628,105.65729741310103L198.69915366436882,109.50891248999541L198.9996176631634,114.75809030492546L199.06895550903906,115.28567659751502L199.78544658308763,120.5679719860837L199.80855919837953,120.81609660291505L200.20147365834163,122.40729738138856L200.43259981126053,124.49026501839326L200.50193765713618,124.46311358214592L200.54816288771997,124.8052295922611L200.80240165593074,125.32711823777305L200.94107734768207,125.84607609954519L201.1028656547253,126.40048598757804L201.51889272997929,126.39360698312024L201.54200534527118,126.52178708508359L201.63445580643875,125.99177024860177L201.7037936523144,126.34298949345751L201.7500188828982,126.40690714539566L202.07359549698464,127.58633704774462L202.16604595815218,127.92734518203915L202.42028472636295,126.51004134041364L202.48962257223863,126.79022370069806L202.9518748780764,127.83090911379395L203.13677580041153,127.98495189849898L203.3679019533304,128.3061426214303L203.6452533368331,128.08006247245876L204.17684348854652,127.70840687541143L204.29240656500596,128.0734773942391L204.68532102496806,128.25163343532614L205.7022760978112,129.78534054589295L205.7253887131031,127.38218831807978L205.81783917427066,127.48052360201751L206.4649924024435,128.27275090505032L207.45883485999474,129.43823626837104L207.64373578232983,129.72865800135497L207.82863670466497,129.65362202421676L207.85174931995687,129.6929007440008L208.54512777871352,127.80786416623896L208.63757823988107,127.16833719634278L208.89181700809183,126.40532163943806L209.16916839159452,125.73174727155379L209.23850623747018,125.63708323937885L209.28473146805396,125.63902202206498L209.37718192922154,125.61853197181065L209.56208285155662,125.86596699246793L210.94883976906996,124.81117594615557L211.0875154608213,124.96019089646029L211.1106280761132,125.0074791062334L211.5035425360753,125.38512345038265L211.6653308431185,125.26275404405006L212.19692099483197,124.2163653314489L212.28937145599951,123.93597948376885L212.61294807008596,124.17961324682722L213.00586253004806,124.5196435111372L213.14453822179942,124.72179976005319L213.44500222059398,124.89047102753287L213.90725452643173,125.04162259549166L214.11526806405877,124.97805822028204L214.48506990872895,124.95510936399721L214.53129513931273,124.96807885925473L214.73930867693977,124.85782260538971L214.94732221456675,124.89848334373576L215.13222313690184,125.00958180932157L215.59447544273965,124.93108654645766L215.64070067332344,124.93153308824253L215.71003851919906,124.76990191940882L215.75626374978285,124.82083029259266L215.8949394415342,124.96760122911776L216.17229082503687,124.94375363683557L216.19540344032876,124.97588768806199L216.35719174737196,125.0699073434841L216.42652959324764,124.93037434057297L216.5420926697071,125.03391551038222L216.7038809767503,124.40434811801654L216.75010620733408,124.3641791408766L217.9288495872204,122.46695592908763L218.18308835543118,121.97658522018756L218.25242620130686,121.88541721451809L218.3679892777663,121.4831282857871L218.7377911224365,120.74181239865516L218.83024158360408,120.59360291929147L218.85335419889597,120.58709414884518L218.89957942947976,120.59657609623873L219.13070558239863,120.46502149496455L219.2231560435662,120.47718834549487L219.31560650473375,120.08721888284094L219.52362004236076,120.02326449012301L219.54673265765263,119.95143626567979L219.66229573411206,119.91547552093L219.75474619527964,119.8717002949453L219.77785881057153,119.87147137162522L220.12454803994987,119.8567467975804L220.84103911399842,119.57978349484628L221.11839049750108,119.6883553252697L221.2801788045443,119.52955602269185L221.39574188100374,119.50213326991701L221.7193184950902,129.95866093512L221.92733203271717,115.34248349546147L222.27402126209552,117.823170073437L222.52826003030628,118.4830288256131L222.69004833734954,106.7873759695823L222.71316095264143,107.8169317526228L222.9211744902684,109.84558803849134L223.79945387136019,115.95914639548766L223.86879171723587,116.43656174019937L223.91501694781965,116.98853543191233L223.98435479369533,116.92568608880123L224.00746740898717,117.06223178369598L224.09991787015474,117.63438464214214L224.8395215594952,123.23242746580905L225.16309817358166,122.37603380402122L225.92581447821397,123.11282209660044L226.01826493938154,123.31066836942841L226.4342920146355,123.58097028616953L226.54985509109497,123.784220279837L226.8965443204733,124.5556664325912L226.965882166349,124.57561950221816L227.0352200122246,124.8344328597477L227.52058493335431,125.07136849603327L227.77482370156508,125.44603683702144L228.09840031565153,124.14018756392409L228.3295264685704,124.59480101547001L228.3988643144461,124.27942664059711L228.49131477561363,124.47272836158939L228.88422923557573,124.7025165031035L228.93045446615952,124.63634635874428L228.9997923120352,124.54815718244973L229.48515723316487,123.3575891714039L229.53138246374863,123.38400013962826L229.6469455402081,123.55844253574509L229.90118430841886,123.74194012096741L230.08608523075398,123.7756370684408L230.17853569192152,123.3038967610961L230.57145015188362,121.86608025950568L230.71012584363498,122.12662325989804L230.94125199655386,122.38004985387106L230.98747722713765,122.38828261475255L231.12615291888898,122.36163424456663L231.24171599534841,122.1394457920365L231.35727907180788,121.88396171439656L231.42661691768353,121.0753423711603L231.77330614706185,121.36638869740023L231.79641876235374,121.28436631967877L232.42045937523474,121.42740665395067L232.60536029756986,121.58098028716022L232.83648645048876,122.06920872597854L233.09072521869953,122.1556315186305L233.57609013982918,121.14705189462275L233.9690045997913,119.57883671321383L233.9921172150832,119.57270665542052L234.73172090442367,119.29937786366945L234.7548335197155,119.31051031993866L234.89350921146686,119.23763074395134L236.09536520664508,119.73728839149084L236.14159043722887,119.82213980925432L236.37271659014775,119.9785537873612L236.53450489719097,120.04617660562808L237.15854551007197,120.33797470474633L237.64391043120165,120.27727611035846L237.87503658412052,120.59909142654581L238.24483842879076,120.8125101375671L238.29106365937454,120.89005861879855L238.3372888899583,120.89642890476728L238.45285196641774,121.06836727543237L239.1924556557582,121.75876892044963L239.30801873221765,121.92591968488975L239.56225750042842,122.0025044272058L239.5853701157203,121.97893097766496L239.67782057688785,122.08705909251734L240.6716630344391,123.07091499795615L240.74100088031474,122.90247548001037L241.20325318615255,122.96346517442252L241.34192887790385,123.06339444295936L241.36504149319575,123.09143048413492L241.96596949078486,123.51147086192071L242.1277577978281,123.64098211059712L242.2895461048713,123.75756625722343L243.05226240950367,123.74404847648323L243.5607399459252,123.64992142493566L243.5838525612171,123.62512705102102L243.79186609884408,123.78487313523131L243.95365440588733,123.7765781976456L244.02299225176296,123.85085392326403L244.1847805588062,124.03934260210693L244.2541184046819,124.1184963727928L244.69325809522775,124.27779591521823L244.76259594110343,124.35945936378354L245.0168347093142,124.41004859130798L245.27107347752496,124.47886407181038L245.50219963044384,124.3795311343913L245.54842486102763,124.4271584898238L245.57153747631952,124.41819656577464L245.6408753221952,124.47819991156075L246.19557808920052,124.62155960799525L246.31114116566,124.66961089550199L246.33425378095188,124.70263520408429L246.4267042421194,124.77255856040733L246.8658439326653,134.96677684157532L247.0969700855842,134.6835930422054L247.2818710079193,136.35015763862117L247.55922239142197,134.3910459964227L248.48372700309753,131.17875440202886L248.69174054072454,131.92496811772503L248.71485315601643,131.87657768455892L248.85352884776776,132.63876798702583L248.89975407835152,132.90721590749564L249.10776761597853,133.10232357912412L249.91670915119465,132.35664401784146L250.56386237936752,134.67449545989248L250.6332002252432,134.94569893884477L250.70253807111888,134.5651040274589L250.91055160874586,132.33292360518152L251.55770483691876,131.67531169299883L252.11240760392408,133.4141340983597L252.34353375684296,133.43776124596332L253.61472759789686,133.81051058776214L253.75340328964822,133.84074824950986L253.84585375081573,133.89565310554994L253.91519159669141,133.91927177451203L254.16943036490218,132.38626556497462L254.5854574401562,132.4583396700209L254.70102051661567,132.5229243084225L255.4175115906642,130.5484069746466L255.53307466712366,130.61491061223754L255.55618728241555,130.6590419411646L255.60241251299934,130.6966503685762L255.879763896502,131.02826416810586L255.92598912708576,131.02609928831345L256.2033405105884,130.32924257091264L256.43446666350735,130.47903190380623L256.7349306623019,130.236333617525L256.8504937387613,130.22512485348244L256.8736063540532,130.19966349310434L257.22029558343155,127.78033119112482L257.3589712751829,127.55497172667947L257.5900974281018,127.87132397153694L258.1448001951071,127.06279789335701L258.53771465506924,127.25794513197911L258.7226155774043,126.96649465716173L259.0461921914908,126.44407468345007L259.76268326553935,125.92532030907357L259.92447157258255,126.12910445715458L259.9938094184582,126.23647797291483L260.1787103407933,125.97414597916922L260.54851218546355,126.31125393838086L260.6409626466311,126.27648020343892L260.75652572309053,126.31015736741551L260.8027509536743,126.35050439602665L260.8489761842581,125.65619692349883L260.9183140301338,125.64771262958664L261.7272555653499,125.84416275278352L261.8659312571012,125.96318026951587L261.8890438723931,126.00606806435853L262.0508321794363,125.97535277247385L262.2588457170633,125.78867569669482L262.7210980229011,125.36181566494163L262.9984494064038,125.70258074484695L263.36825125107396,126.16583958449328L263.41447648165774,126.21566290807027L263.43758909694964,126.2554390414881L263.4838143275334,126.27560972957986L263.6224900192848,126.34157638654342L263.7149404804523,126.47583567445118L263.83050355691176,126.46260616752147L263.96917924866307,126.44989951014995L264.08474232512253,126.5198765645357L264.2696432474576,126.38818347878396L264.7550081685873,126.24658168735058L265.0785847826738,126.56959249198727L265.33282355088454,126.57023404252625L265.5639497038034,126.47049978274356L265.656400164971,126.57048557555697L265.6795127802629,126.59443773775081L266.3266660084358,126.35790625004265L266.53467954606276,126.37347303580827L266.71958046839785,126.47834252611676L267.0662696977762,126.42656628878449L267.0893823130681,126.4326256912321L267.36673369657075,126.7142296370721L268.0832247706193,125.27386954303628L268.2912383082463,123.90456046464097L268.4530266152895,123.68000364492282L268.59170230704086,123.54836990966146L268.66104015291654,123.55194789636792L268.68415276820843,123.58059157351654L268.79971584466784,123.55262901390051L269.0077293822949,123.55201855171363L269.19263030463,123.59344236779327L269.35441861167317,123.6420023737891L269.37753122696506,123.65903596453154L269.42375645754885,123.64949749286143L269.6548826104678,123.28701295968654L269.7242204563434,123.29251842422384L269.7704456869272,123.30665797200624L270.3482610692244,123.38789183606966L270.4638241456839,123.40250618777517L270.6024998374352,123.31294347156012L270.69495029860275,123.2454280494187L271.34210352677565,122.9707624585269" fill="none"></path></g></g></g></g></g></g><g transform="translate(29, 177)" clip-path="url(#clip_1)"><clipPath id="clip_1"><rect width="300" height="22"></rect></clipPath><g><g><line x1="0" y1="0" x2="0" y2="5" style="visibility: inherit;" fill="rgb(0, 0, 0)" stroke="rgb(204, 204, 204)" stroke-width="1px"></line><line x1="23.112615291888897" y1="0" x2="23.112615291888897" y2="5" style="visibility: inherit;" fill="rgb(0, 0, 0)" stroke="rgb(204, 204, 204)" stroke-width="1px"></line><line x1="46.225230583777794" y1="0" x2="46.225230583777794" y2="5" style="visibility: inherit;" fill="rgb(0, 0, 0)" stroke="rgb(204, 204, 204)" stroke-width="1px"></line><line x1="69.3378458756667" y1="0" x2="69.3378458756667" y2="5" style="visibility: inherit;" fill="rgb(0, 0, 0)" stroke="rgb(204, 204, 204)" stroke-width="1px"></line><line x1="92.45046116755559" y1="0" x2="92.45046116755559" y2="5" style="visibility: inherit;" fill="rgb(0, 0, 0)" stroke="rgb(204, 204, 204)" stroke-width="1px"></line><line x1="115.56307645944449" y1="0" x2="115.56307645944449" y2="5" style="visibility: inherit;" fill="rgb(0, 0, 0)" stroke="rgb(204, 204, 204)" stroke-width="1px"></line><line x1="138.6756917513334" y1="0" x2="138.6756917513334" y2="5" style="visibility: inherit;" fill="rgb(0, 0, 0)" stroke="rgb(204, 204, 204)" stroke-width="1px"></line><line x1="161.78830704322226" y1="0" x2="161.78830704322226" y2="5" style="visibility: inherit;" fill="rgb(0, 0, 0)" stroke="rgb(204, 204, 204)" stroke-width="1px"></line><line x1="184.90092233511118" y1="0" x2="184.90092233511118" y2="5" style="visibility: inherit;" fill="rgb(0, 0, 0)" stroke="rgb(204, 204, 204)" stroke-width="1px"></line><line x1="208.01353762700006" y1="0" x2="208.01353762700006" y2="5" style="visibility: inherit;" fill="rgb(0, 0, 0)" stroke="rgb(204, 204, 204)" stroke-width="1px"></line><line x1="231.12615291888898" y1="0" x2="231.12615291888898" y2="5" style="visibility: inherit;" fill="rgb(0, 0, 0)" stroke="rgb(204, 204, 204)" stroke-width="1px"></line><line x1="254.23876821077786" y1="0" x2="254.23876821077786" y2="5" style="visibility: inherit;" fill="rgb(0, 0, 0)" stroke="rgb(204, 204, 204)" stroke-width="1px"></line><line x1="277.3513835026668" y1="0" x2="277.3513835026668" y2="5" style="visibility: inherit;" fill="rgb(0, 0, 0)" stroke="rgb(204, 204, 204)" stroke-width="1px"></line><line x1="300.46399879455566" y1="0" x2="300.46399879455566" y2="5" style="visibility: inherit;" fill="rgb(0, 0, 0)" stroke="rgb(204, 204, 204)" stroke-width="1px"></line></g><g transform="translate(0, 8)"><text style="text-anchor: middle; visibility: hidden; font-family: &quot;Helvetica Neue&quot;, sans-serif; font-size: 12px; font-weight: 200;" x="0" y="0" dx="0em" dy="0.95em" fill="rgb(50, 49, 63)" stroke="none" stroke-width="1px">-1k</text><text style="text-anchor: middle; visibility: inherit; font-family: &quot;Helvetica Neue&quot;, sans-serif; font-size: 12px; font-weight: 200;" x="23.112615291888897" y="0" dx="0em" dy="0.95em" fill="rgb(50, 49, 63)" stroke="none" stroke-width="1px">0</text><text style="text-anchor: middle; visibility: hidden; font-family: &quot;Helvetica Neue&quot;, sans-serif; font-size: 12px; font-weight: 200;" x="46.225230583777794" y="0" dx="0em" dy="0.95em" fill="rgb(50, 49, 63)" stroke="none" stroke-width="1px">1k</text><text style="text-anchor: middle; visibility: inherit; font-family: &quot;Helvetica Neue&quot;, sans-serif; font-size: 12px; font-weight: 200;" x="69.3378458756667" y="0" dx="0em" dy="0.95em" fill="rgb(50, 49, 63)" stroke="none" stroke-width="1px">2k</text><text style="text-anchor: middle; visibility: hidden; font-family: &quot;Helvetica Neue&quot;, sans-serif; font-size: 12px; font-weight: 200;" x="92.45046116755559" y="0" dx="0em" dy="0.95em" fill="rgb(50, 49, 63)" stroke="none" stroke-width="1px">3k</text><text style="text-anchor: middle; visibility: inherit; font-family: &quot;Helvetica Neue&quot;, sans-serif; font-size: 12px; font-weight: 200;" x="115.56307645944449" y="0" dx="0em" dy="0.95em" fill="rgb(50, 49, 63)" stroke="none" stroke-width="1px">4k</text><text style="text-anchor: middle; visibility: hidden; font-family: &quot;Helvetica Neue&quot;, sans-serif; font-size: 12px; font-weight: 200;" x="138.6756917513334" y="0" dx="0em" dy="0.95em" fill="rgb(50, 49, 63)" stroke="none" stroke-width="1px">5k</text><text style="text-anchor: middle; visibility: inherit; font-family: &quot;Helvetica Neue&quot;, sans-serif; font-size: 12px; font-weight: 200;" x="161.78830704322226" y="0" dx="0em" dy="0.95em" fill="rgb(50, 49, 63)" stroke="none" stroke-width="1px">6k</text><text style="text-anchor: middle; visibility: hidden; font-family: &quot;Helvetica Neue&quot;, sans-serif; font-size: 12px; font-weight: 200;" x="184.90092233511118" y="0" dx="0em" dy="0.95em" fill="rgb(50, 49, 63)" stroke="none" stroke-width="1px">7k</text><text style="text-anchor: middle; visibility: inherit; font-family: &quot;Helvetica Neue&quot;, sans-serif; font-size: 12px; font-weight: 200;" x="208.01353762700006" y="0" dx="0em" dy="0.95em" fill="rgb(50, 49, 63)" stroke="none" stroke-width="1px">8k</text><text style="text-anchor: middle; visibility: hidden; font-family: &quot;Helvetica Neue&quot;, sans-serif; font-size: 12px; font-weight: 200;" x="231.12615291888898" y="0" dx="0em" dy="0.95em" fill="rgb(50, 49, 63)" stroke="none" stroke-width="1px">9k</text><text style="text-anchor: middle; visibility: inherit; font-family: &quot;Helvetica Neue&quot;, sans-serif; font-size: 12px; font-weight: 200;" x="254.23876821077786" y="0" dx="0em" dy="0.95em" fill="rgb(50, 49, 63)" stroke="none" stroke-width="1px">10k</text><text style="text-anchor: middle; visibility: hidden; font-family: &quot;Helvetica Neue&quot;, sans-serif; font-size: 12px; font-weight: 200;" x="277.3513835026668" y="0" dx="0em" dy="0.95em" fill="rgb(50, 49, 63)" stroke="none" stroke-width="1px">11k</text><text style="text-anchor: middle; visibility: hidden; font-family: &quot;Helvetica Neue&quot;, sans-serif; font-size: 12px; font-weight: 200;" x="300.46399879455566" y="0" dx="0em" dy="0.95em" fill="rgb(50, 49, 63)" stroke="none" stroke-width="1px">12k</text></g><line x1="0" y1="0" x2="300.46399879455566" y2="0" fill="rgb(0, 0, 0)" stroke="rgb(204, 204, 204)" stroke-width="1px"></line></g></g></g></g></svg>